<?xml version="1.0" encoding="UTF-8" standalone="no"?><svg xmlns="http://www.w3.org/2000/svg" xmlns:xlink="http://www.w3.org/1999/xlink" clip-rule="evenodd" stroke-miterlimit="10" viewBox="0 0 106 71"><desc>SVG generated by Keynote</desc><defs></defs><g transform="matrix(1.00, 0.00, -0.00, -1.00, 0.0, 71.0)"><path d="M 38.3 35.6 C 38.4 35.6 38.5 35.6 38.5 35.6 C 38.5 35.5 38.5 35.5 38.6 35.4 C 38.5 35.4 38.4 35.4 38.2 35.3 C 38.2 35.4 38.3 35.4 38.3 35.4 C 38.4 35.5 38.3 35.5 38.3 35.6 C 38.3 35.6 38.3 35.6 38.3 35.6 Z M 55.4 42.3 C 55.3 42.2 55.4 42.5 55.4 42.5 C 55.4 42.5 55.5 42.4 55.5 42.5 C 55.4 42.6 55.3 42.7 55.2 42.7 C 54.9 42.4 55.3 42.2 55.4 42.3 C 55.4 42.3 55.4 42.3 55.4 42.3 Z M 71.4 48.9 C 71.7 49.0 71.5 48.7 71.5 48.6 C 71.7 48.6 71.7 48.2 71.9 48.2 C 71.9 48.3 71.9 48.4 71.9 48.5 C 71.8 48.5 71.7 48.5 71.7 48.5 C 71.7 48.6 71.9 48.6 71.9 48.7 C 71.6 48.7 71.7 48.9 71.7 49.1 C 71.5 49.0 71.4 49.2 71.4 48.9 C 71.4 48.9 71.4 48.9 71.4 48.9 Z M 19.9 26.5 C 19.8 26.4 19.7 26.4 19.8 26.3 C 19.9 26.3 19.9 26.3 20.0 26.4 C 20.0 26.3 20.0 26.2 20.1 26.2 C 20.1 26.4 20.0 26.7 19.9 26.8 C 19.9 26.6 19.6 26.6 19.9 26.5 C 19.9 26.5 19.9 26.5 19.9 26.5 Z M 26.8 28.9 C 26.9 29.1 26.9 28.6 27.1 28.8 C 27.0 29.0 26.9 29.3 26.8 29.2 C 26.8 29.1 26.7 29.0 26.8 28.9 C 26.8 28.9 26.8 28.9 26.8 28.9 Z M 65.4 44.3 C 65.4 44.5 65.6 44.5 65.4 44.7 C 65.4 44.6 65.3 44.6 65.2 44.6 C 65.3 44.4 65.3 44.3 65.4 44.3 C 65.4 44.3 65.4 44.3 65.4 44.3 Z M 74.1 47.5 C 74.3 47.9 74.7 47.7 74.6 47.8 C 74.6 48.1 74.1 48.4 74.2 48.2 C 74.3 47.9 73.9 47.4 74.1 47.5 C 74.1 47.5 74.1 47.5 74.1 47.5 Z M 58.4 39.0 C 58.6 39.3 58.9 38.7 58.9 39.0 C 58.8 39.0 58.8 39.1 58.7 39.1 C 58.8 39.2 58.8 39.2 58.8 39.3 C 58.7 39.2 58.5 39.2 58.4 39.0 C 58.4 39.0 58.4 39.0 58.4 39.0 Z M 34.5 33.4 C 34.4 33.4 34.4 33.4 34.4 33.5 C 34.2 33.4 34.1 33.5 34.1 33.4 C 34.2 33.1 34.3 33.2 34.4 33.3 C 34.5 33.3 34.5 33.3 34.5 33.4 C 34.5 33.4 34.5 33.4 34.5 33.4 Z M 29.6 30.3 C 29.5 30.5 29.6 30.6 29.4 30.6 C 29.3 30.3 29.6 30.1 29.9 30.1 C 29.9 30.0 29.9 29.9 30.0 29.8 C 29.9 29.8 29.9 29.7 29.8 29.6 C 29.6 30.0 29.8 29.3 29.4 29.4 C 29.6 29.3 29.6 28.9 29.7 29.1 C 29.7 28.9 29.9 29.0 29.9 28.8 C 29.8 28.9 29.6 28.8 29.5 29.1 C 29.4 29.0 29.3 29.0 29.3 28.9 C 29.3 28.6 29.5 28.9 29.5 28.6 C 29.5 28.6 29.5 28.6 29.5 28.5 C 29.4 28.6 29.4 28.7 29.3 28.7 C 29.2 28.6 29.5 28.5 29.2 28.3 C 29.1 28.5 29.2 28.5 29.1 28.6 C 28.9 28.7 29.0 28.5 28.9 28.6 C 28.9 28.5 29.0 28.5 29.0 28.4 C 28.7 28.7 28.8 28.1 28.5 28.3 C 28.4 28.8 28.5 28.2 28.2 28.6 C 28.2 28.4 28.4 28.2 28.3 28.1 C 28.1 28.7 27.6 28.3 27.9 29.0 C 27.6 28.9 27.4 29.3 27.5 29.4 C 27.2 29.2 27.2 29.5 27.0 29.5 C 26.9 29.4 27.1 29.4 27.1 29.2 C 27.3 29.3 27.3 29.1 27.4 29.3 C 27.4 29.2 27.5 29.1 27.5 29.1 C 27.3 29.2 27.3 28.8 27.5 28.6 C 27.5 28.6 27.4 28.8 27.5 28.9 C 27.6 28.6 27.6 29.0 27.7 28.8 C 27.7 28.5 28.0 28.3 27.8 28.2 C 27.8 28.3 27.7 28.4 27.7 28.5 C 27.6 28.5 27.6 28.5 27.5 28.5 C 27.6 28.2 27.7 28.1 27.6 28.0 C 27.5 28.0 27.5 28.0 27.4 28.1 C 27.5 28.2 27.6 28.4 27.3 28.4 C 27.6 28.0 27.1 28.2 27.4 28.0 C 27.2 27.7 26.9 28.1 27.0 27.8 C 26.9 27.7 26.9 28.0 26.8 27.9 C 26.6 27.6 26.5 27.9 26.3 27.6 C 26.1 28.0 26.3 27.5 26.2 27.5 C 26.2 27.6 26.1 27.7 26.1 27.9 C 26.1 27.6 25.9 27.4 25.5 27.5 C 25.5 27.4 25.6 27.3 25.4 27.2 C 25.1 27.5 25.1 27.0 24.7 27.3 C 24.8 27.1 24.6 27.1 24.5 27.1 C 24.5 27.0 24.7 26.8 24.6 26.7 C 24.4 26.9 24.6 27.0 24.3 27.0 C 24.4 26.8 24.1 27.2 24.2 26.9 C 24.3 26.8 24.4 26.8 24.5 26.7 C 24.4 26.7 24.5 26.6 24.4 26.5 C 24.3 26.9 24.2 26.5 24.2 26.5 C 24.2 26.6 24.1 26.7 24.0 26.7 C 23.9 26.7 23.8 26.7 23.8 26.7 C 23.7 26.5 23.9 26.6 23.8 26.5 C 23.5 27.0 23.6 26.3 23.2 26.6 C 23.2 26.4 23.1 26.2 23.0 26.1 C 22.9 26.3 23.1 26.3 23.1 26.4 C 22.8 26.2 23.0 26.6 22.9 26.5 C 22.5 26.2 22.3 26.1 22.0 25.8 C 21.9 25.9 21.6 26.0 21.6 25.9 C 21.7 25.9 21.5 25.5 21.4 25.5 C 21.2 25.8 20.9 26.1 20.8 26.2 C 20.8 26.0 20.9 26.0 21.0 25.7 C 20.8 25.5 20.5 25.8 20.6 25.3 C 20.5 25.5 20.4 25.5 20.2 25.6 C 20.3 25.4 20.5 25.3 20.6 25.2 C 20.4 25.1 20.5 25.0 20.4 25.0 C 20.0 25.6 20.1 24.7 19.8 25.3 C 19.6 25.2 19.8 25.0 19.6 24.9 C 19.6 25.1 19.5 25.2 19.4 25.2 C 19.5 25.2 19.7 25.0 19.7 25.3 C 19.4 25.3 19.8 26.1 19.3 26.2 C 19.4 26.1 19.5 26.0 19.4 25.9 C 19.1 25.9 19.2 26.2 19.3 26.2 C 19.1 26.2 19.0 26.1 19.0 26.4 C 18.6 26.3 18.9 26.2 18.8 26.1 C 18.2 26.0 17.4 25.8 16.7 25.2 C 16.5 25.5 16.2 25.0 16.2 24.8 C 15.8 24.9 15.6 24.9 15.6 24.6 C 15.5 24.8 15.4 24.3 15.3 24.5 C 15.4 24.5 15.4 24.7 15.3 24.7 C 15.0 24.4 14.6 24.1 14.3 24.2 C 14.3 23.9 14.0 23.9 13.8 24.0 C 13.9 23.8 14.0 23.8 13.9 23.7 C 13.8 23.9 13.5 23.9 13.5 23.7 C 13.5 23.8 13.8 23.5 13.6 23.4 C 13.6 23.6 13.4 23.5 13.4 23.7 C 13.2 23.5 13.1 23.6 12.9 23.4 C 13.1 23.4 13.2 23.4 13.3 23.2 C 13.1 23.3 13.0 23.3 13.0 23.1 C 12.9 23.4 12.8 23.2 12.5 23.2 C 12.5 23.1 12.5 23.0 12.4 22.9 C 12.2 23.1 12.5 23.2 12.3 23.2 C 12.4 23.1 12.3 22.9 12.2 23.2 C 12.0 23.0 11.9 23.1 11.8 22.8 C 12.0 23.0 11.9 22.6 11.9 22.5 C 11.9 22.5 11.8 22.5 11.8 22.6 C 11.7 22.7 11.8 22.7 11.8 22.8 C 11.7 22.6 11.5 23.0 11.5 22.7 C 11.6 22.8 11.7 22.6 11.6 22.6 C 11.4 22.9 11.1 22.5 11.3 22.4 C 11.3 22.5 11.5 22.5 11.5 22.5 C 11.5 22.3 11.2 22.4 11.4 22.1 C 11.5 22.2 11.5 22.3 11.6 22.3 C 11.7 22.2 11.8 22.2 12.0 22.1 C 11.7 22.0 11.5 22.2 11.6 22.0 C 11.5 21.9 11.4 22.2 11.3 22.1 C 11.0 21.9 11.3 21.8 11.3 21.7 C 11.0 21.7 10.9 22.0 11.0 22.3 C 10.8 22.2 10.7 22.3 10.4 22.2 C 10.5 22.0 10.6 21.9 10.7 21.9 C 10.7 22.0 10.8 22.2 10.8 22.1 C 11.0 21.7 10.9 21.5 10.6 21.4 C 10.6 21.7 10.7 21.5 10.4 21.5 C 10.3 21.8 10.3 21.4 10.2 21.6 C 10.2 21.7 10.3 21.7 10.4 21.7 C 10.3 21.8 10.2 21.9 10.1 22.0 C 10.1 21.8 10.0 21.9 9.9 21.8 C 10.0 21.6 10.1 21.6 10.2 21.5 C 10.1 21.4 10.0 21.5 9.9 21.5 C 10.0 21.3 10.1 21.0 10.2 20.7 C 10.4 20.7 10.5 20.7 10.4 20.5 C 10.8 20.6 10.3 20.8 10.4 20.9 C 10.7 20.7 10.4 21.1 10.7 21.1 C 10.8 21.2 10.8 21.1 10.9 21.0 C 10.9 21.0 10.8 20.7 11.0 20.8 C 11.0 20.9 11.0 21.1 11.1 21.1 C 11.1 21.0 10.9 20.8 11.2 20.9 C 11.3 21.0 11.1 21.3 11.2 21.3 C 11.3 21.2 11.3 21.2 11.4 21.2 C 11.1 21.1 11.5 21.0 11.4 20.8 C 11.6 20.8 11.3 21.1 11.5 21.1 C 11.5 21.0 11.6 21.4 11.8 21.1 C 11.6 21.2 11.5 21.1 11.6 20.8 C 11.7 20.9 12.5 21.1 12.1 21.3 C 12.3 21.2 12.9 21.1 12.8 21.3 C 12.7 21.2 12.6 21.4 12.5 21.5 C 12.9 21.3 13.0 21.6 13.4 21.4 C 13.1 21.2 13.5 21.0 13.4 20.7 C 13.3 20.7 13.2 20.6 13.1 20.7 C 13.1 20.9 13.2 20.9 13.4 20.8 C 13.3 21.0 13.2 21.2 13.1 21.4 C 12.8 21.0 12.5 21.1 12.4 21.0 C 12.5 21.0 12.2 20.6 12.4 20.6 C 12.4 20.8 12.6 20.8 12.7 21.0 C 12.8 20.9 12.8 20.8 12.8 20.7 C 12.9 20.8 13.0 20.8 13.0 20.7 C 12.8 20.7 12.8 20.4 12.5 20.5 C 12.6 20.5 12.6 20.4 12.6 20.4 C 12.6 20.4 12.5 20.4 12.6 20.3 C 12.7 20.3 12.7 20.4 12.8 20.3 C 12.7 20.2 12.7 20.0 12.6 19.9 C 12.7 19.6 12.6 19.2 12.9 19.2 C 12.8 19.5 12.9 19.6 12.9 19.7 C 12.9 19.9 13.1 19.9 13.2 19.8 C 13.2 19.6 13.1 19.5 13.2 19.2 C 13.3 19.3 13.4 19.2 13.4 19.5 C 13.1 19.5 13.5 19.7 13.5 20.0 C 13.5 19.9 13.5 19.8 13.5 19.6 C 13.7 19.7 13.7 19.9 13.9 19.6 C 14.1 19.6 14.0 19.9 14.1 19.9 C 14.2 19.6 14.3 19.8 14.3 19.5 C 14.6 19.5 14.3 19.8 14.4 19.9 C 14.5 19.9 14.5 19.8 14.6 19.8 C 14.7 20.0 14.9 20.1 14.9 20.4 C 15.0 20.4 15.0 20.5 15.1 20.6 C 15.1 20.5 15.2 20.4 15.3 20.4 C 15.3 20.5 15.3 20.6 15.4 20.5 C 15.2 20.1 15.3 20.1 15.1 19.7 C 15.0 19.8 15.0 19.8 15.0 19.9 C 14.7 19.9 14.7 19.7 14.5 19.7 C 14.6 19.5 14.7 19.1 14.4 19.3 C 14.6 19.1 14.6 19.0 14.6 18.9 C 14.7 19.1 14.8 19.2 14.9 19.4 C 14.9 19.3 15.0 19.2 15.0 19.2 C 15.0 19.3 15.1 19.4 15.2 19.3 C 15.2 19.4 15.1 19.5 15.1 19.5 C 15.3 19.7 15.4 19.4 15.5 19.6 C 15.6 19.5 15.4 19.4 15.6 19.3 C 15.8 19.4 15.8 19.5 15.9 19.6 C 15.9 19.6 16.0 19.5 16.0 19.5 C 16.1 19.7 15.5 19.8 15.6 20.2 C 15.8 20.0 16.0 20.2 15.9 20.3 C 15.8 20.5 15.7 20.2 15.7 20.3 C 16.1 20.5 15.5 20.7 16.0 21.0 C 16.0 20.9 16.0 20.8 16.1 20.7 C 15.9 20.6 16.0 20.4 16.1 20.2 C 15.9 20.1 16.0 19.8 15.8 19.9 C 16.0 19.5 15.9 20.0 16.1 20.0 C 16.2 19.8 16.0 19.7 16.1 19.5 C 16.4 19.9 16.6 19.6 16.8 20.1 C 16.8 19.8 17.0 20.1 17.1 20.0 C 16.7 19.9 17.1 19.3 17.1 19.2 C 16.9 19.1 16.8 19.6 16.6 19.7 C 16.7 19.4 16.8 19.3 16.9 19.0 C 17.1 19.2 17.1 19.1 17.3 19.1 C 17.3 19.3 17.2 19.8 17.0 19.8 C 17.0 19.8 17.3 19.8 17.3 20.0 C 17.1 19.9 17.3 20.1 17.1 20.1 C 17.2 20.4 17.6 20.2 17.8 20.5 C 17.8 20.4 17.9 20.4 17.9 20.2 C 17.6 20.4 17.8 19.9 17.6 19.7 C 17.7 19.8 17.7 19.6 17.7 19.5 C 17.9 19.7 18.0 19.6 18.1 19.9 C 18.1 19.8 18.2 19.7 18.2 19.6 C 18.4 19.9 18.4 19.8 18.6 19.8 C 18.7 19.9 18.4 20.3 18.3 20.5 C 18.4 20.4 18.7 20.6 18.6 20.3 C 18.8 20.4 18.7 20.6 18.9 20.7 C 19.0 20.5 18.8 20.4 19.0 20.2 C 19.2 20.2 18.9 20.5 19.2 20.3 C 19.1 20.5 19.0 20.7 19.2 20.8 C 19.2 20.6 19.2 20.7 19.4 20.6 C 19.3 20.5 19.2 20.4 19.2 20.4 C 19.5 20.5 19.6 20.6 19.8 20.6 C 19.6 20.8 19.7 20.9 19.5 21.0 C 19.7 20.9 19.8 21.3 19.9 21.2 C 19.9 21.0 19.7 21.0 19.7 20.8 C 20.2 21.0 20.6 20.8 20.9 21.3 C 20.8 21.3 20.7 21.2 20.7 21.3 C 20.7 21.3 20.8 21.4 20.7 21.4 C 20.6 21.4 20.5 21.3 20.4 21.3 C 20.3 21.2 20.5 21.2 20.4 21.1 C 20.3 21.2 20.1 21.0 20.1 21.3 C 20.4 21.2 20.5 21.5 20.5 21.9 C 20.9 21.6 20.6 21.5 21.1 21.2 C 21.0 21.3 21.0 21.4 21.1 21.5 C 21.1 21.1 21.3 21.4 21.4 21.4 C 21.2 21.5 20.7 21.5 20.8 21.9 C 21.0 21.3 21.2 22.2 21.3 21.7 C 21.6 21.8 21.4 22.1 21.6 21.9 C 21.6 22.0 21.5 22.1 21.6 22.1 C 21.6 22.1 21.7 22.1 21.8 22.0 C 21.5 21.7 21.7 21.5 21.5 21.4 C 21.5 21.4 21.5 21.4 21.6 21.3 C 21.6 21.3 21.6 21.2 21.6 21.3 C 21.5 21.6 21.9 21.3 21.8 21.5 C 21.7 21.5 21.7 21.5 21.6 21.6 C 22.0 21.7 21.8 22.0 22.1 22.3 C 22.1 22.1 22.3 22.1 22.4 22.1 C 22.6 22.2 22.4 22.6 22.6 22.7 C 22.8 22.1 22.8 22.8 23.3 22.6 C 23.1 22.9 23.4 23.1 23.6 22.9 C 23.6 23.0 23.7 23.0 23.8 23.1 C 23.8 23.2 23.7 23.2 23.7 23.3 C 23.8 23.3 23.9 23.0 24.0 23.1 C 24.1 23.2 24.0 23.4 24.2 23.5 C 24.2 23.3 24.1 23.3 24.3 23.2 C 24.4 23.3 24.6 23.4 24.5 23.1 C 24.8 23.2 24.5 23.6 24.7 23.6 C 24.7 23.5 24.7 23.4 24.9 23.4 C 24.9 23.7 24.9 23.7 24.8 23.9 C 25.0 23.7 25.0 23.6 25.1 23.8 C 25.2 23.7 25.2 23.6 25.3 23.5 C 25.3 23.6 25.5 23.6 25.5 23.7 C 25.3 23.6 25.3 23.8 25.2 23.8 C 25.3 23.9 25.6 24.3 25.4 23.9 C 25.7 23.9 25.5 24.2 25.7 24.2 C 25.7 23.9 25.7 24.2 25.9 24.2 C 26.0 23.9 26.0 24.2 26.1 24.2 C 26.2 24.1 26.3 24.0 26.4 24.0 C 26.3 24.1 26.4 24.2 26.5 24.2 C 26.6 24.1 26.4 23.9 26.6 24.0 C 26.7 24.2 26.6 24.4 26.7 24.5 C 26.7 24.7 26.5 24.6 26.5 24.8 C 26.7 24.7 26.7 24.8 26.9 25.0 C 27.0 24.5 27.6 24.6 27.4 24.3 C 27.5 24.4 27.7 24.1 27.7 24.4 C 27.5 24.4 27.6 24.6 27.6 24.7 C 27.7 24.7 27.9 24.9 28.0 24.8 C 27.7 24.7 27.8 24.5 27.8 24.3 C 28.2 24.3 28.4 24.6 28.3 24.8 C 28.3 24.7 28.4 24.7 28.4 24.7 C 28.3 24.7 28.4 24.3 28.5 24.3 C 28.4 24.5 28.5 24.6 28.5 24.7 C 28.6 24.5 28.9 25.0 29.0 24.7 C 28.7 24.8 28.7 24.4 28.9 24.3 C 29.0 24.5 29.1 24.8 29.0 24.9 C 29.1 24.9 29.2 24.8 29.3 24.8 C 29.4 24.6 29.3 24.6 29.4 24.4 C 29.5 24.4 29.6 24.5 29.6 24.6 C 29.3 24.5 29.7 24.8 29.3 24.8 C 29.5 24.9 29.5 25.0 29.6 25.1 C 29.6 25.0 29.7 25.0 29.7 25.0 C 29.5 25.1 29.5 24.9 29.6 24.7 C 29.9 24.7 29.7 25.0 29.9 25.0 C 30.0 24.9 30.4 24.7 30.4 24.9 C 30.2 24.8 30.4 25.0 30.2 25.1 C 30.1 24.9 29.9 25.1 29.7 25.2 C 29.8 25.4 29.9 25.6 30.1 25.3 C 30.0 25.2 29.9 25.3 29.8 25.4 C 29.9 25.2 30.0 25.1 30.1 25.1 C 30.1 25.3 30.4 25.2 30.1 25.5 C 30.3 25.4 30.4 25.7 30.6 25.6 C 30.5 25.5 30.4 25.4 30.4 25.2 C 30.6 25.1 30.6 25.5 30.7 25.3 C 30.8 25.1 30.5 25.1 30.5 24.9 C 30.8 24.7 30.8 25.5 30.8 24.9 C 30.9 25.0 31.0 25.1 31.0 25.2 C 30.9 25.1 30.9 25.5 30.9 25.6 C 31.0 25.6 31.1 25.6 31.2 25.5 C 31.0 25.6 31.0 25.2 31.1 25.2 C 31.1 25.4 31.2 25.2 31.3 25.2 C 31.2 25.3 31.5 25.3 31.5 25.5 C 31.5 25.3 31.4 25.3 31.4 25.2 C 31.6 25.2 31.9 24.9 31.8 25.3 C 31.8 25.2 31.7 25.2 31.6 25.3 C 31.8 25.7 31.8 26.0 32.1 26.3 C 32.0 26.3 32.0 26.4 32.0 26.4 C 32.2 26.6 32.3 26.7 32.2 26.9 C 32.3 26.9 32.5 26.8 32.6 26.7 C 32.5 26.5 32.4 26.7 32.3 26.5 C 32.4 26.5 32.4 26.0 32.4 25.9 C 32.1 26.0 32.2 25.6 31.9 25.6 C 32.1 25.4 31.7 25.5 31.9 25.3 C 32.0 25.7 32.3 25.6 32.6 25.9 C 32.5 26.0 32.4 26.2 32.5 26.3 C 32.7 26.5 32.7 26.2 32.9 26.3 C 32.9 26.5 32.7 26.5 32.8 26.6 C 32.9 26.6 33.1 26.7 33.0 26.9 C 32.8 26.8 33.0 27.1 32.8 27.2 C 32.9 27.2 32.9 27.2 32.9 27.3 C 32.8 26.9 33.3 27.1 33.2 26.8 C 33.6 26.8 33.0 27.4 33.3 27.5 C 33.2 27.2 33.4 27.2 33.6 27.3 C 33.6 27.6 33.8 27.7 33.9 27.9 C 33.9 27.7 33.8 27.6 34.0 27.6 C 34.0 27.5 33.8 27.4 33.7 27.5 C 33.8 27.4 33.7 27.3 33.7 27.2 C 34.0 27.2 33.9 27.1 34.0 27.1 C 34.0 27.2 34.2 27.2 34.2 27.4 C 34.2 27.3 34.2 27.3 34.3 27.3 C 34.0 27.1 34.4 27.0 34.3 26.8 C 34.2 26.8 34.2 27.1 34.0 27.0 C 34.0 26.6 34.3 26.7 34.4 26.6 C 34.4 26.3 34.1 26.6 34.2 26.3 C 34.5 26.1 34.6 26.4 34.8 26.5 C 34.9 26.2 35.1 26.7 35.3 26.4 C 35.3 26.5 35.3 26.6 35.3 26.7 C 35.5 26.4 35.4 26.8 35.5 26.8 C 35.5 26.7 35.5 26.6 35.5 26.5 C 35.7 26.7 35.8 26.7 36.1 26.7 C 36.1 26.9 36.1 27.0 36.0 27.2 C 36.0 27.2 35.9 27.3 35.8 27.3 C 36.2 27.5 36.2 26.8 36.3 27.3 C 36.4 27.1 36.3 26.8 36.4 26.8 C 36.6 27.2 37.0 27.1 36.8 27.7 C 36.9 28.0 37.2 27.6 37.2 28.0 C 37.3 28.0 37.3 27.9 37.4 27.9 C 37.4 27.7 37.3 27.6 37.3 27.4 C 37.1 27.5 37.2 27.2 37.1 27.6 C 36.9 27.6 37.0 27.4 36.9 27.2 C 37.2 27.2 37.4 27.5 37.5 27.2 C 37.6 27.3 37.6 27.5 37.6 27.7 C 37.7 27.6 38.0 27.6 38.0 27.9 C 37.8 27.7 37.4 27.9 37.6 28.1 C 38.1 28.2 38.3 28.7 38.8 28.7 C 38.8 28.8 38.7 28.9 38.7 29.0 C 38.8 28.9 38.9 28.8 38.9 28.7 C 39.1 28.8 39.1 28.9 39.3 29.0 C 39.2 29.2 39.2 29.3 39.2 29.5 C 39.4 29.3 39.8 28.9 39.9 29.0 C 39.7 29.0 39.8 29.3 39.8 29.4 C 39.9 29.0 40.3 29.8 40.2 29.4 C 40.5 29.5 40.5 29.7 40.5 29.8 C 40.6 29.8 40.7 29.8 40.8 29.8 C 40.7 30.1 41.2 30.1 41.2 30.2 C 41.1 30.0 41.0 30.4 41.1 30.4 C 41.2 30.3 41.7 30.3 41.7 30.4 C 41.7 30.4 41.6 30.6 41.4 30.6 C 41.6 30.8 41.8 30.4 42.0 30.3 C 41.8 30.6 42.1 30.4 42.2 30.4 C 42.2 30.5 42.1 30.4 42.0 30.6 C 42.1 30.7 42.1 30.9 42.3 30.9 C 42.3 30.7 42.4 30.9 42.5 30.9 C 42.6 30.8 42.7 30.7 42.8 30.7 C 42.5 31.0 43.4 31.5 43.3 31.1 C 43.6 31.0 43.4 31.4 43.6 31.5 C 43.7 31.4 43.8 31.5 43.8 31.3 C 44.0 31.3 43.8 31.6 44.0 31.6 C 44.1 31.3 44.2 31.7 44.3 31.4 C 44.3 31.8 44.7 31.4 44.7 31.8 C 44.7 31.7 44.8 31.7 44.8 31.7 C 44.9 31.6 44.7 31.4 44.9 31.4 C 45.0 31.7 44.9 31.7 44.8 31.8 C 45.4 32.0 46.0 32.4 46.6 32.7 C 46.6 32.5 46.6 32.5 46.7 32.5 C 46.7 33.0 47.5 33.1 47.7 33.0 C 47.6 33.3 48.1 33.1 48.1 33.3 C 48.0 33.2 47.8 33.4 47.9 33.5 C 48.1 33.2 48.2 33.5 48.4 33.4 C 48.4 33.7 48.9 33.5 48.5 33.9 C 48.6 34.0 48.6 34.0 48.7 34.1 C 48.8 33.8 48.9 33.9 48.8 33.7 C 49.1 34.0 49.3 33.8 49.5 34.2 C 49.6 34.0 49.4 33.8 49.6 33.9 C 49.6 33.9 49.6 34.0 49.5 34.0 C 49.6 34.0 49.7 33.9 49.7 34.1 C 49.6 34.2 49.5 34.1 49.4 34.4 C 49.6 34.3 49.5 34.7 49.7 34.5 C 49.5 34.4 49.8 34.0 49.8 34.3 C 49.7 34.4 50.3 34.5 50.5 34.4 C 50.5 34.7 50.3 34.4 50.3 34.6 C 50.6 34.7 50.6 34.8 50.7 34.5 C 50.9 34.7 50.9 34.8 51.2 34.8 C 51.3 35.0 51.0 34.9 51.1 35.0 C 51.2 35.0 51.3 34.9 51.5 34.9 C 51.6 35.5 52.7 35.1 52.7 36.0 C 52.6 35.7 52.9 35.7 53.1 35.8 C 53.0 35.9 53.0 36.0 53.0 36.0 C 53.1 35.9 53.2 35.8 53.3 35.9 C 53.3 36.0 53.2 36.1 53.3 36.1 C 53.4 35.9 53.5 36.2 53.6 36.1 C 53.6 36.4 53.4 36.1 53.3 36.3 C 53.5 36.6 53.7 36.3 53.9 36.5 C 53.7 36.5 53.9 36.8 53.9 36.9 C 53.9 36.6 54.1 36.6 54.1 36.4 C 54.2 36.4 54.3 36.4 54.3 36.6 C 54.2 36.5 54.2 36.5 54.1 36.6 C 54.3 36.6 54.3 36.9 54.4 36.7 C 54.4 36.6 54.4 36.6 54.4 36.4 C 54.5 36.3 54.5 36.3 54.6 36.3 C 54.2 36.8 54.8 36.7 54.9 36.6 C 54.8 36.9 54.8 36.9 54.8 37.1 C 54.9 37.2 55.0 36.9 55.2 36.9 C 55.0 37.2 54.9 37.4 55.0 37.6 C 55.1 37.3 55.3 37.4 55.4 37.0 C 55.9 37.2 55.9 37.5 56.2 37.6 C 56.3 37.6 56.2 37.5 56.3 37.5 C 56.4 37.6 56.5 37.8 56.5 37.9 C 56.7 37.8 56.6 37.7 56.7 37.7 C 56.8 38.0 56.7 38.2 56.8 38.5 C 57.1 38.4 56.9 38.5 57.2 38.3 C 57.1 38.3 57.1 38.1 57.2 38.1 C 57.2 38.4 57.2 38.7 57.2 38.8 C 57.1 38.7 57.0 38.7 57.0 38.6 C 56.9 38.7 56.8 38.6 56.8 38.8 C 56.7 38.7 56.5 38.6 56.3 38.5 C 56.3 38.8 56.1 38.5 56.1 38.8 C 56.3 38.8 56.3 39.0 56.6 39.1 C 56.6 38.8 56.8 39.0 56.8 39.1 C 56.9 39.0 57.0 39.1 57.1 38.9 C 57.3 38.9 57.2 39.1 57.4 39.1 C 57.4 39.2 57.3 39.3 57.4 39.3 C 57.5 39.1 57.5 39.5 57.5 39.5 C 57.6 39.2 57.8 39.5 57.9 39.3 C 57.8 39.3 57.7 39.2 57.7 39.2 C 58.0 39.3 57.9 39.0 57.9 38.8 C 57.9 38.9 57.6 39.2 57.7 39.0 C 58.0 38.9 57.5 38.4 57.7 38.6 C 57.9 38.7 57.9 38.6 58.1 38.7 C 58.1 39.2 57.8 39.3 57.9 39.7 C 58.1 39.6 58.1 39.7 58.2 39.5 C 58.2 39.6 58.2 39.7 58.3 39.7 C 58.4 39.6 58.2 39.4 58.4 39.4 C 58.5 39.5 58.2 39.8 58.4 39.8 C 58.6 39.7 58.3 39.5 58.5 39.5 C 58.6 39.9 58.5 39.4 58.8 39.4 C 58.7 39.5 58.8 39.5 58.8 39.5 C 58.8 39.7 58.7 39.8 58.8 39.9 C 59.0 39.5 58.8 40.0 59.0 40.0 C 59.2 39.8 58.9 39.8 59.0 39.6 C 59.1 40.0 59.3 39.7 59.4 39.8 C 59.1 39.9 59.5 40.0 59.5 40.2 C 59.5 40.0 59.6 40.1 59.9 40.0 C 59.7 40.4 60.0 40.2 60.0 40.5 C 60.0 40.4 60.1 40.4 60.2 40.3 C 60.1 40.3 60.1 40.2 60.2 40.1 C 60.2 40.1 60.3 40.1 60.3 40.2 C 60.4 40.4 59.9 40.7 60.3 40.9 C 60.4 40.5 60.6 40.6 60.7 40.5 C 60.8 40.3 60.6 40.5 60.6 40.3 C 60.8 40.2 60.9 40.4 60.9 40.6 C 61.2 40.6 61.4 40.8 61.8 40.9 C 61.8 41.1 61.4 40.9 61.6 41.1 C 61.7 41.2 61.7 41.0 61.8 41.1 C 61.3 42.0 62.7 41.6 62.5 42.1 C 62.7 41.9 62.9 42.1 63.0 41.8 C 62.7 42.0 62.7 41.6 62.7 41.4 C 62.4 41.5 62.7 41.7 62.6 41.7 C 62.6 41.6 62.3 41.6 62.4 41.4 C 62.7 41.5 62.4 41.1 62.7 41.0 C 62.9 41.1 63.4 41.1 63.2 41.3 C 63.3 41.2 63.2 41.2 63.1 41.3 C 63.3 41.5 63.6 41.4 63.7 41.3 C 63.8 41.5 64.4 41.4 64.2 41.5 C 64.2 41.7 63.9 41.3 63.9 41.5 C 64.4 41.8 64.5 41.6 64.7 41.9 C 64.7 41.6 65.2 41.7 65.1 41.8 C 65.0 42.0 65.1 42.2 65.4 42.0 C 65.2 42.3 65.3 42.4 65.4 42.5 C 65.5 42.3 65.4 42.3 65.5 42.1 C 65.6 42.1 65.7 42.2 65.8 42.2 C 65.8 42.3 65.7 42.4 65.7 42.5 C 65.9 42.4 66.4 42.3 66.3 42.4 C 66.0 42.7 66.5 42.8 66.1 42.9 C 66.2 42.9 66.2 43.0 66.3 43.0 C 66.3 42.9 66.4 42.8 66.4 42.7 C 66.6 42.8 66.4 43.1 66.5 43.2 C 66.6 43.1 66.7 43.2 66.8 43.1 C 66.7 43.0 66.6 43.1 66.5 43.1 C 66.8 42.7 66.4 42.8 66.6 42.6 C 66.8 42.6 66.7 42.8 66.7 43.0 C 67.1 42.9 66.9 43.0 67.1 43.1 C 67.2 43.1 67.1 43.0 67.2 42.9 C 67.5 43.1 67.3 43.6 67.6 43.5 C 67.5 43.5 67.2 43.6 67.3 43.7 C 67.5 43.6 67.7 43.4 67.9 43.5 C 67.9 43.6 67.8 43.7 67.9 43.7 C 68.0 43.7 68.1 43.5 68.2 43.4 C 68.2 43.6 68.3 43.5 68.4 43.5 C 68.4 43.7 68.3 43.7 68.3 43.8 C 68.5 43.9 68.8 43.4 68.9 43.6 C 68.8 43.9 69.0 43.8 69.2 43.8 C 69.1 44.1 69.4 44.2 69.6 44.4 C 69.6 44.1 69.8 44.3 69.9 44.0 C 69.8 44.0 69.7 43.9 69.7 43.8 C 70.0 43.9 69.9 44.4 70.2 44.1 C 70.2 44.3 70.3 44.5 70.4 44.6 C 70.5 44.5 70.2 44.3 70.4 44.3 C 70.4 44.4 70.4 44.3 70.5 44.3 C 70.4 44.6 70.5 44.7 70.5 44.8 C 70.7 44.7 70.9 45.2 70.9 44.8 C 71.1 44.9 70.8 45.2 70.9 45.3 C 71.0 44.9 71.3 45.0 71.2 44.8 C 71.5 44.8 71.3 45.2 71.2 45.3 C 71.3 45.4 71.5 45.3 71.5 45.4 C 71.5 45.2 71.9 45.2 71.7 45.2 C 71.5 45.5 71.8 45.4 71.8 45.6 C 71.8 45.4 71.9 45.4 71.8 45.2 C 72.0 45.2 72.2 45.3 72.3 45.6 C 72.5 45.5 72.7 45.6 72.6 45.8 C 72.8 45.8 72.7 45.8 72.9 45.9 C 72.9 45.8 72.8 45.8 72.9 45.7 C 73.1 45.8 73.0 46.0 73.3 46.1 C 73.2 46.4 73.4 46.5 73.4 46.7 C 73.2 46.6 73.2 46.5 73.1 46.4 C 73.0 46.5 73.1 46.6 73.0 46.6 C 73.0 46.5 73.0 46.4 72.9 46.4 C 73.1 46.7 72.5 46.7 72.8 46.5 C 72.7 46.5 72.7 46.6 72.8 46.6 C 72.8 46.3 72.8 46.4 72.9 46.2 C 72.8 46.2 72.8 45.9 72.7 46.1 C 72.7 46.2 72.8 46.2 72.8 46.3 C 72.4 46.3 72.8 46.0 72.6 46.0 C 72.4 46.2 72.5 46.3 72.5 46.5 C 72.3 46.4 72.1 46.3 72.1 46.1 C 71.9 46.1 72.1 46.3 71.9 46.4 C 71.9 46.3 71.9 46.1 71.8 46.0 C 71.7 46.1 71.8 46.2 71.7 46.2 C 71.6 46.0 71.9 45.9 71.7 45.8 C 71.6 46.2 71.5 45.7 71.5 45.9 C 71.6 45.9 71.5 46.2 71.5 46.0 C 71.3 45.5 70.8 46.3 70.7 45.6 C 70.7 45.7 70.6 45.7 70.6 45.8 C 70.8 46.0 71.1 46.2 71.0 46.5 C 71.2 46.5 71.2 46.3 71.3 46.2 C 71.4 46.6 71.4 46.6 71.1 46.9 C 70.7 46.8 70.7 46.6 70.5 46.4 C 70.3 46.5 70.5 46.5 70.4 46.6 C 69.8 46.1 70.1 47.0 69.9 46.8 C 69.9 46.7 69.9 46.6 69.8 46.6 C 69.8 46.7 69.7 46.6 69.7 46.7 C 69.7 46.7 69.7 46.7 69.7 46.8 C 69.4 46.8 69.6 46.6 69.7 46.5 C 69.8 46.6 69.9 46.6 70.0 46.4 C 69.7 46.5 69.7 46.2 69.5 46.4 C 69.5 46.0 69.8 45.8 69.9 45.5 C 70.0 45.4 69.5 46.0 69.3 46.1 C 69.1 46.0 69.0 46.2 68.8 46.1 C 68.9 45.9 69.1 46.1 69.1 45.9 C 69.1 45.9 69.1 45.8 69.0 45.8 C 68.9 45.8 68.8 46.0 68.7 46.0 C 68.7 45.7 68.6 45.8 68.5 45.9 C 68.4 45.7 68.7 45.8 68.5 45.7 C 68.4 45.5 68.2 45.8 68.1 45.8 C 68.2 45.7 68.2 45.6 68.2 45.5 C 67.9 45.6 67.9 45.6 68.1 45.8 C 67.9 45.7 67.8 45.8 67.7 46.0 C 68.0 46.1 68.0 46.1 68.0 46.5 C 68.2 46.3 68.2 46.5 68.3 46.6 C 68.4 46.2 68.4 46.6 68.6 46.5 C 68.5 46.4 68.4 46.3 68.4 46.2 C 68.7 46.4 68.7 46.4 69.1 46.2 C 69.1 46.3 69.1 46.3 69.1 46.4 C 68.9 46.5 68.8 46.3 68.7 46.5 C 68.7 46.8 69.0 46.4 69.0 46.8 C 69.2 46.7 69.0 46.5 69.1 46.5 C 69.2 46.7 69.2 46.9 69.3 47.0 C 69.4 47.0 69.5 47.0 69.7 46.9 C 69.7 47.0 69.6 47.1 69.7 47.1 C 69.8 47.0 69.7 46.9 69.8 46.9 C 70.0 47.3 70.1 47.6 70.5 47.6 C 70.4 47.5 70.3 47.2 70.4 47.2 C 70.5 47.4 70.8 47.2 70.8 47.5 C 70.9 47.6 70.7 47.3 70.6 47.8 C 70.7 47.8 70.8 47.9 70.9 47.9 C 70.9 47.8 71.1 47.9 71.1 47.7 C 71.0 47.6 70.9 47.9 70.9 47.8 C 71.2 47.2 71.2 48.2 71.4 48.3 C 71.6 48.2 71.4 48.0 71.6 48.0 C 71.8 48.0 71.6 48.5 71.4 48.5 C 71.3 48.4 71.2 48.6 71.2 48.4 C 71.2 48.4 71.1 48.3 71.1 48.4 C 71.2 48.4 71.1 48.6 71.1 48.7 C 71.0 48.6 70.8 49.0 70.8 48.7 C 70.9 48.7 70.9 48.7 71.0 48.6 C 70.7 48.6 70.6 48.3 70.5 48.1 C 70.5 48.3 70.5 48.2 70.4 48.4 C 70.5 48.4 70.7 48.7 70.5 48.7 C 70.6 48.4 70.2 49.0 70.2 48.7 C 70.3 48.7 70.3 48.6 70.4 48.5 C 70.3 48.5 70.4 48.3 70.3 48.2 C 69.7 48.4 69.7 47.7 68.9 47.9 C 68.6 47.8 69.1 47.9 69.2 47.7 C 69.1 47.6 69.1 47.6 69.1 47.5 C 69.0 47.8 69.0 47.5 68.8 47.7 C 68.9 47.5 68.5 47.5 68.5 47.3 C 68.4 47.4 68.4 47.5 68.3 47.5 C 68.0 47.0 67.1 47.1 66.8 46.7 C 66.8 46.9 66.6 46.8 66.5 46.9 C 66.3 46.8 66.5 46.6 66.1 46.7 C 65.9 46.7 66.2 46.6 66.3 46.5 C 65.8 46.4 65.5 46.0 65.1 46.2 C 64.9 46.2 65.1 46.0 64.9 45.8 C 64.7 46.2 64.5 45.5 64.2 45.8 C 64.0 45.8 63.9 45.2 63.9 45.6 C 63.7 45.5 64.0 45.3 63.9 45.2 C 63.7 45.2 63.7 45.8 63.5 45.8 C 63.6 45.5 63.4 45.6 63.4 45.3 C 63.5 45.4 63.6 45.4 63.7 45.3 C 63.5 45.4 63.6 45.2 63.4 45.1 C 63.2 45.2 62.7 45.2 62.8 44.9 C 62.7 45.0 62.7 45.0 62.7 45.1 C 62.6 45.1 62.6 44.8 62.5 45.1 C 62.2 45.0 62.2 44.7 61.9 44.9 C 61.8 44.9 62.1 44.6 61.7 44.5 C 61.6 44.7 61.0 44.4 60.9 44.2 C 60.8 44.5 60.9 44.2 60.8 44.1 C 60.8 44.2 60.7 44.3 60.7 44.3 C 60.7 44.2 60.6 44.2 60.6 44.3 C 60.8 43.9 60.3 44.3 60.4 44.0 C 60.4 44.0 60.5 43.8 60.5 43.8 C 60.3 44.1 60.3 43.6 60.2 43.8 C 60.2 43.9 60.4 43.9 60.3 44.1 C 60.0 44.1 60.2 43.8 60.1 43.7 C 60.1 43.8 60.1 43.9 60.0 43.9 C 59.9 43.8 60.0 43.9 60.0 43.7 C 59.9 43.7 59.6 43.8 59.6 43.8 C 59.6 43.8 59.6 43.6 59.6 43.6 C 59.3 43.4 58.5 43.3 58.3 42.9 C 58.3 43.0 58.2 43.0 58.1 43.2 C 58.0 42.9 58.0 43.0 57.9 42.9 C 57.8 43.0 57.8 43.1 57.7 43.1 C 57.4 43.2 57.8 42.8 57.7 42.8 C 57.4 43.3 57.7 42.6 57.5 42.5 C 57.4 42.6 57.4 42.6 57.3 42.8 C 57.1 42.7 57.2 42.4 57.0 42.4 C 57.0 42.5 56.8 43.2 56.6 43.4 C 56.7 43.3 56.6 43.2 56.6 43.1 C 56.8 42.9 57.1 42.0 56.7 42.2 C 56.8 42.2 56.9 42.3 56.8 42.5 C 56.5 42.4 56.5 42.2 56.3 42.1 C 56.2 42.3 56.3 42.4 56.2 42.7 C 56.1 42.7 56.1 42.7 56.1 42.8 C 55.9 42.7 55.9 42.5 55.7 42.5 C 55.7 42.4 55.8 42.4 55.8 42.5 C 55.9 42.3 56.0 42.1 56.1 42.2 C 56.1 42.3 55.9 42.5 56.1 42.5 C 56.1 42.4 56.2 42.3 56.2 42.2 C 56.1 42.1 55.9 41.8 55.8 41.9 C 55.8 42.0 55.9 42.1 55.8 42.3 C 55.6 42.2 55.6 41.9 55.5 41.7 C 55.1 41.6 54.6 41.3 54.5 41.7 C 54.3 41.5 54.4 41.5 54.3 41.4 C 54.2 41.7 54.0 41.4 53.9 41.6 C 54.2 41.7 54.1 41.7 54.3 41.7 C 54.3 41.8 54.2 41.9 54.1 41.9 C 54.1 41.8 54.1 41.7 53.9 41.7 C 53.9 41.8 53.9 42.0 53.8 42.0 C 53.8 41.9 53.8 41.9 53.7 41.9 C 53.8 41.7 53.8 41.6 53.9 41.5 C 54.0 41.5 54.1 41.5 54.2 41.4 C 54.1 41.4 54.2 41.3 54.1 41.3 C 54.0 41.4 53.8 41.1 53.7 41.3 C 53.9 41.3 53.9 41.5 53.7 41.5 C 53.7 41.4 53.6 41.3 53.5 41.4 C 53.7 41.6 53.6 41.5 53.6 41.8 C 53.3 41.8 53.5 41.5 53.2 41.5 C 53.2 41.3 53.3 41.1 53.4 41.1 C 53.4 40.5 52.9 40.8 52.7 40.7 C 52.8 40.8 53.1 40.5 52.9 40.4 C 52.9 40.5 52.8 40.4 52.7 40.5 C 52.5 40.9 52.5 41.2 52.5 41.5 C 52.4 41.4 52.4 41.5 52.3 41.4 C 52.3 41.3 52.6 41.0 52.4 40.9 C 52.3 41.2 52.2 40.8 52.0 41.1 C 52.1 41.1 52.1 41.2 52.0 41.2 C 52.1 41.1 51.9 41.1 51.9 40.9 C 52.1 40.9 52.3 40.7 52.3 40.8 C 52.2 40.7 52.5 40.6 52.3 40.5 C 52.2 40.6 52.0 40.8 51.8 40.7 C 51.7 40.6 51.9 40.4 51.8 40.4 C 51.8 40.6 51.5 40.6 51.7 40.4 C 51.6 40.4 51.6 40.3 51.6 40.3 C 51.6 40.5 50.9 40.6 50.9 40.8 C 51.1 40.5 51.2 40.2 51.2 40.1 C 50.9 40.3 50.9 40.0 50.6 39.9 C 50.5 40.2 50.5 39.9 50.4 39.9 C 50.3 40.1 50.4 40.2 50.3 40.2 C 50.2 40.0 50.2 40.0 50.2 39.9 C 50.1 39.8 50.0 39.8 50.0 39.7 C 50.0 39.8 50.0 39.9 50.0 39.9 C 49.7 39.5 49.3 39.7 49.0 39.5 C 49.1 39.7 49.3 39.4 49.2 39.3 C 49.1 39.3 49.0 39.4 48.9 39.4 C 48.9 39.7 48.9 39.5 48.8 39.4 C 48.6 39.5 48.7 39.8 48.6 39.8 C 48.5 39.6 48.6 39.5 48.6 39.4 C 48.5 39.4 48.4 39.4 48.4 39.3 C 48.4 39.5 48.3 39.6 48.1 39.6 C 48.3 39.4 48.3 39.3 48.1 39.3 C 48.1 39.2 48.2 39.1 48.2 39.1 C 48.1 39.0 47.8 39.3 47.8 39.0 C 47.8 39.0 47.9 39.0 47.9 38.9 C 47.7 39.0 47.7 38.6 47.6 38.5 C 47.6 38.7 47.5 38.9 47.5 39.0 C 47.4 38.8 47.1 39.0 47.1 38.6 C 47.3 38.8 47.3 38.2 47.2 38.1 C 47.1 38.4 47.3 38.4 47.1 38.6 C 47.0 38.8 47.0 38.4 46.8 38.6 C 46.8 38.7 46.9 38.6 46.9 38.7 C 46.8 38.7 46.9 38.8 46.8 38.8 C 46.8 38.6 46.6 38.9 46.6 38.8 C 46.5 38.7 46.5 38.3 46.4 38.5 C 46.3 38.6 46.4 38.6 46.4 38.7 C 46.0 38.7 46.1 38.3 45.7 38.4 C 45.7 38.3 45.7 38.2 45.6 38.2 C 45.5 38.3 45.5 38.3 45.4 38.3 C 45.3 38.2 45.2 38.0 45.1 37.9 C 45.2 37.7 45.3 37.6 45.1 37.5 C 45.1 37.6 45.1 37.7 45.0 37.7 C 45.1 37.6 45.0 37.6 45.0 37.6 C 44.9 37.7 44.9 37.7 44.9 37.8 C 45.0 37.8 45.0 37.8 45.1 37.9 C 45.0 38.0 45.0 38.1 45.0 38.2 C 44.7 38.2 44.9 37.7 44.7 37.8 C 44.8 37.5 44.8 37.4 45.0 37.2 C 44.8 37.2 44.7 37.3 44.6 37.5 C 44.8 37.5 44.6 37.7 44.6 37.9 C 44.5 37.8 44.4 37.9 44.3 38.0 C 44.3 37.7 44.7 37.6 44.4 37.5 C 44.5 37.8 44.1 37.6 44.0 37.5 C 44.0 37.6 44.1 37.6 44.0 37.7 C 43.5 37.7 43.9 36.9 43.5 37.3 C 43.6 37.1 43.5 37.1 43.5 37.0 C 43.7 37.0 43.8 37.0 43.8 37.0 C 43.9 36.9 43.8 36.8 43.8 36.8 C 43.7 36.9 43.7 36.9 43.6 36.8 C 43.5 36.9 43.4 37.2 43.2 37.4 C 43.2 37.3 43.3 37.2 43.2 37.1 C 43.1 37.3 43.4 36.8 43.1 36.7 C 43.1 36.8 43.1 37.0 43.0 37.1 C 42.8 37.2 42.9 37.1 42.7 37.1 C 42.8 36.7 43.0 36.7 43.1 36.5 C 43.0 36.5 42.8 36.7 42.7 36.5 C 42.8 36.6 42.6 36.8 42.4 36.8 C 42.4 36.7 42.6 36.5 42.5 36.4 C 42.4 36.4 42.2 36.6 42.3 36.7 C 42.1 36.6 42.0 36.8 41.8 36.7 C 41.9 36.6 42.0 36.6 42.0 36.7 C 42.0 36.6 42.1 36.5 42.0 36.5 C 41.8 36.6 41.6 36.5 41.3 36.6 C 41.3 36.1 40.7 36.4 40.5 36.2 C 40.7 36.0 40.2 36.0 40.2 35.7 C 40.1 35.7 39.6 36.1 39.8 35.9 C 39.9 35.6 39.7 35.7 39.6 35.5 C 39.6 35.6 39.6 35.7 39.5 35.7 C 39.2 35.7 39.3 35.4 39.3 35.2 C 38.9 35.2 38.7 34.7 38.2 34.8 C 38.2 34.5 38.1 34.5 37.9 34.3 C 37.8 34.5 37.6 34.4 37.5 34.3 C 37.4 34.6 37.3 34.4 37.2 34.6 C 37.4 34.7 37.2 34.9 37.2 35.0 C 37.1 34.7 36.8 35.1 36.8 34.8 C 37.0 34.8 37.2 34.5 37.4 34.2 C 37.1 34.2 37.0 34.0 37.0 33.8 C 37.0 34.0 36.9 34.1 36.9 34.2 C 36.9 34.2 36.8 34.1 36.7 34.1 C 36.7 34.0 36.9 34.0 36.8 33.9 C 36.7 33.9 36.6 34.0 36.5 34.0 C 36.6 33.8 36.7 33.9 36.8 33.8 C 36.5 33.5 36.4 34.1 36.2 34.1 C 36.3 33.9 36.4 33.7 36.2 33.6 C 36.1 33.7 36.0 33.9 35.8 33.8 C 35.8 33.7 36.0 33.5 35.9 33.4 C 35.8 33.5 35.8 33.4 35.8 33.4 C 35.7 33.5 35.6 33.5 35.6 33.5 C 35.6 33.4 35.4 33.4 35.4 33.5 C 35.4 33.3 35.3 33.0 35.2 33.1 C 35.2 33.2 35.3 33.2 35.3 33.3 C 35.2 33.2 35.0 33.2 35.0 33.3 C 35.1 32.7 34.7 33.1 34.6 32.7 C 34.3 32.8 34.5 33.1 34.2 33.1 C 34.1 32.9 34.3 32.9 34.4 32.7 C 34.3 32.6 34.2 32.4 34.1 32.6 C 34.1 32.7 34.2 32.7 34.2 32.8 C 33.9 32.9 34.1 32.6 34.0 32.5 C 33.9 32.7 33.8 32.7 33.7 32.8 C 33.2 32.8 33.4 32.4 33.3 32.1 C 33.3 32.2 33.2 32.2 33.1 32.2 C 33.3 32.2 33.4 32.5 33.2 32.4 C 33.3 32.3 33.0 32.4 32.9 32.4 C 32.9 32.5 33.1 32.6 32.9 32.8 C 32.7 32.7 32.9 32.3 32.7 32.5 C 32.7 32.3 32.8 32.4 32.9 32.3 C 32.8 32.3 32.7 32.3 32.8 32.2 C 32.9 32.1 32.9 32.0 33.0 31.8 C 32.8 32.0 32.7 31.7 32.7 32.1 C 32.5 31.9 32.2 31.9 32.3 32.2 C 32.1 32.2 32.3 31.9 32.1 32.1 C 32.2 31.8 32.3 31.7 32.3 31.4 C 32.2 31.6 32.1 31.6 32.0 31.8 C 31.7 31.6 31.8 31.4 31.7 31.1 C 31.7 31.5 31.7 31.2 31.4 31.3 C 31.4 31.2 31.6 30.9 31.3 30.9 C 31.4 31.4 31.0 30.9 30.9 31.3 C 30.7 31.0 30.7 31.0 30.4 30.8 C 30.5 30.7 30.7 30.6 30.8 30.6 C 30.6 30.8 31.0 31.0 31.0 30.8 C 31.0 30.8 31.1 30.7 31.1 30.7 C 30.8 30.6 30.7 30.5 30.7 30.3 C 30.5 30.5 30.4 30.5 30.3 30.8 C 30.2 30.4 29.8 30.7 29.8 30.4 C 29.9 30.4 30.0 30.4 30.0 30.3 C 29.9 30.3 29.8 30.3 29.7 30.5 C 29.9 30.7 29.9 30.7 30.1 30.6 C 29.9 30.7 30.1 31.0 29.9 30.9 C 30.0 30.6 29.5 31.0 29.7 30.8 C 29.9 30.7 29.6 30.5 29.6 30.3 C 29.6 30.3 29.6 30.3 29.6 30.3 Z M 70.3 48.2 C 70.5 48.2 70.4 47.9 70.3 47.9 C 70.3 48.0 70.3 48.1 70.2 48.2 C 70.3 48.2 70.3 48.1 70.3 48.2 C 70.3 48.2 70.3 48.2 70.3 48.2 Z M 69.8 44.2 C 69.6 44.4 70.0 44.4 70.1 44.5 C 70.1 44.4 70.1 44.3 70.1 44.3 C 70.1 44.1 69.9 44.5 69.8 44.2 C 69.8 44.2 69.8 44.2 69.8 44.2 Z M 62.8 42.2 C 62.9 42.2 63.1 42.1 63.0 42.3 C 63.1 42.3 63.1 42.2 63.2 42.1 C 63.3 42.1 63.0 42.4 63.3 42.4 C 63.5 42.0 63.1 41.7 62.8 42.2 C 62.8 42.2 62.8 42.2 62.8 42.2 Z M 33.3 28.0 C 33.2 27.8 33.5 27.7 33.6 27.5 C 33.2 27.5 33.3 27.9 32.9 27.6 C 32.9 27.7 32.9 27.8 32.8 27.9 C 33.1 27.9 33.2 27.7 32.9 28.1 C 33.0 28.1 33.3 27.7 33.3 28.0 C 33.3 28.0 33.3 28.0 33.3 28.0 Z M 29.4 25.2 C 29.4 25.3 29.4 25.3 29.4 25.4 C 29.6 25.4 29.5 25.3 29.7 25.5 C 29.8 25.1 29.6 25.1 29.4 25.2 C 29.4 25.2 29.4 25.2 29.4 25.2 Z M 18.3 19.9 C 18.3 19.9 18.2 19.8 18.2 19.8 C 18.2 20.0 17.9 20.2 18.2 20.2 C 18.2 20.2 18.2 20.2 18.1 20.1 C 18.2 20.1 18.3 20.1 18.3 20.0 C 18.3 20.0 18.3 19.9 18.3 19.9 C 18.3 19.9 18.3 19.9 18.3 19.9 Z M 12.7 19.9 C 13.0 19.8 12.7 19.0 12.7 19.9 C 12.7 19.9 12.7 19.9 12.7 19.9 C 12.7 19.9 12.7 19.9 12.7 19.9 Z M 12.1 22.7 C 12.0 22.8 12.1 22.8 12.1 22.7 C 12.3 22.9 12.1 22.9 12.1 23.1 C 12.3 23.0 12.2 22.6 12.5 22.6 C 12.5 22.4 12.2 22.7 12.1 22.7 C 12.1 22.7 12.1 22.7 12.1 22.7 Z M 43.8 37.2 C 44.0 37.2 44.1 37.0 44.3 36.8 C 44.2 36.8 44.1 36.7 44.1 36.6 C 43.8 36.6 44.2 36.8 44.2 36.9 C 44.1 37.0 43.9 37.0 43.8 37.2 C 43.8 37.2 43.8 37.2 43.8 37.2 Z M 44.4 37.4 C 44.5 37.3 44.6 37.3 44.7 37.1 C 44.6 37.1 44.6 37.0 44.7 36.9 C 44.5 37.0 44.6 37.2 44.4 37.4 C 44.4 37.4 44.4 37.4 44.4 37.4 Z M 43.5 36.7 C 43.5 36.7 43.6 36.6 43.6 36.5 C 43.5 36.4 43.6 36.3 43.4 36.3 C 43.4 36.4 43.4 36.4 43.3 36.5 C 43.4 36.6 43.5 36.5 43.6 36.5 C 43.5 36.6 43.5 36.7 43.5 36.7 C 43.5 36.7 43.5 36.7 43.5 36.7 Z M 45.0 37.3 C 45.3 37.5 45.6 37.2 46.0 36.9 C 45.7 36.9 45.3 37.3 45.2 37.0 C 45.0 37.0 45.2 37.2 45.2 37.3 C 45.2 37.4 45.1 37.3 45.0 37.3 C 45.0 37.3 45.0 37.3 45.0 37.3 Z M 47.8 38.5 C 47.8 38.7 48.0 38.3 48.2 38.5 C 48.2 38.4 48.2 38.3 48.2 38.2 C 48.0 38.1 48.0 38.6 47.8 38.5 C 47.8 38.5 47.8 38.5 47.8 38.5 Z M 49.3 39.0 C 49.5 39.0 49.3 38.8 49.4 38.7 C 49.3 38.6 49.1 38.5 49.0 38.7 C 49.2 38.7 49.3 38.7 49.3 39.0 C 49.3 39.0 49.3 39.0 49.3 39.0 Z M 50.4 39.4 C 50.6 39.4 50.4 39.1 50.6 38.9 C 50.5 38.9 50.5 39.0 50.5 39.1 C 50.4 39.0 50.4 39.0 50.3 39.0 C 50.3 39.1 50.5 39.2 50.4 39.4 C 50.4 39.4 50.4 39.4 50.4 39.4 Z M 39.7 34.7 C 39.9 34.7 40.0 34.5 40.1 34.6 C 39.8 34.5 40.3 33.9 39.8 33.8 C 39.8 33.9 39.7 34.0 39.8 33.9 C 39.5 33.9 39.9 34.1 39.6 34.2 C 39.7 34.3 39.8 34.0 39.9 34.0 C 39.9 34.3 40.0 34.4 39.7 34.7 C 39.7 34.7 39.7 34.7 39.7 34.7 Z M 39.9 33.6 C 39.8 33.4 39.6 33.9 39.6 33.6 C 39.6 33.6 39.6 33.7 39.5 33.8 C 39.6 33.8 39.6 33.8 39.6 33.9 C 39.7 33.8 39.8 33.8 39.9 33.6 C 39.9 33.6 39.9 33.6 39.9 33.6 Z M 41.0 34.0 C 40.8 34.1 40.8 33.9 40.6 34.0 C 40.7 33.7 40.4 34.1 40.4 33.8 C 40.2 33.8 40.3 33.9 40.3 34.1 C 40.1 34.1 40.4 33.8 40.1 33.8 C 40.0 34.1 40.3 34.1 40.1 34.4 C 40.3 34.4 40.3 34.3 40.4 34.2 C 40.5 34.3 40.4 34.4 40.4 34.5 C 40.6 34.5 40.5 34.7 40.7 34.7 C 40.8 34.5 40.8 34.4 40.6 34.4 C 40.8 34.4 40.9 34.2 41.1 34.4 C 40.8 34.6 41.4 34.9 41.5 34.5 C 41.4 34.4 41.3 34.6 41.2 34.7 C 41.1 34.4 41.0 34.4 41.0 34.0 C 41.0 34.0 41.0 34.0 41.0 34.0 Z M 43.7 36.0 C 43.7 36.0 43.8 36.1 43.9 36.1 C 43.8 36.3 43.7 36.2 43.7 36.4 C 43.8 36.5 43.9 36.4 44.0 36.4 C 44.0 36.3 43.8 36.0 44.0 35.9 C 44.0 35.8 43.9 35.7 43.8 35.7 C 43.8 36.0 43.7 35.6 43.5 35.5 C 43.4 35.9 43.4 35.4 43.2 35.6 C 43.2 35.8 43.5 35.7 43.6 35.7 C 43.5 35.8 43.7 36.4 43.7 36.0 C 43.7 36.0 43.7 36.0 43.7 36.0 Z M 39.4 33.5 C 39.3 33.6 39.1 33.5 39.2 33.6 C 39.1 33.7 39.1 33.5 39.0 33.9 C 38.9 33.9 38.9 33.8 38.8 33.8 C 38.9 33.7 39.0 33.8 39.1 33.6 C 38.9 33.6 39.0 33.5 38.8 33.5 C 39.0 33.3 38.9 33.2 39.1 33.0 C 39.0 33.1 38.9 33.0 38.8 33.2 C 38.6 33.0 39.0 32.9 38.7 32.8 C 38.8 32.6 39.0 32.7 39.0 32.8 C 39.1 32.6 38.7 32.6 38.5 32.4 C 38.6 32.7 38.3 32.8 38.2 33.0 C 38.1 32.9 38.2 32.8 38.2 32.7 C 38.1 32.6 38.0 32.7 38.0 32.6 C 37.9 32.6 37.9 32.7 37.8 32.9 C 37.7 32.8 37.9 32.5 37.7 32.5 C 37.7 32.8 37.5 32.8 37.3 32.6 C 37.2 32.7 37.3 32.8 37.3 32.9 C 37.2 33.0 37.2 32.7 37.1 32.6 C 37.0 32.6 37.0 32.7 37.1 32.7 C 37.1 32.8 37.0 32.8 36.9 32.9 C 37.2 33.0 37.6 33.2 38.1 33.7 C 38.0 33.5 38.2 33.5 38.3 33.7 C 38.3 33.8 38.2 33.8 38.1 33.8 C 38.2 34.1 38.4 33.5 38.7 33.8 C 38.8 34.0 38.4 33.9 38.5 34.1 C 38.7 34.1 38.8 33.9 38.8 34.2 C 39.0 34.2 39.2 33.9 39.5 34.1 C 39.3 33.9 39.5 33.3 39.3 33.4 C 39.2 33.5 39.3 33.5 39.4 33.5 C 39.4 33.5 39.4 33.5 39.4 33.5 Z M 44.7 36.7 C 44.8 36.8 44.9 36.7 44.9 36.8 C 45.1 36.8 45.0 36.6 45.0 36.5 C 44.9 36.5 44.8 36.6 44.7 36.7 C 44.7 36.7 44.7 36.7 44.7 36.7 Z M 62.8 44.4 C 63.0 44.6 63.1 44.3 63.3 44.4 C 63.1 44.2 63.2 44.0 62.9 44.0 C 62.8 44.1 62.8 44.3 62.8 44.4 C 62.8 44.4 62.8 44.4 62.8 44.4 Z M 44.2 36.3 C 43.9 36.5 44.5 36.1 44.4 36.3 C 44.6 36.3 44.3 36.2 44.5 36.0 C 44.3 36.1 44.3 35.8 44.1 35.9 C 44.0 36.0 44.2 36.1 44.3 36.2 C 44.3 36.3 44.2 36.3 44.2 36.3 C 44.2 36.3 44.2 36.3 44.2 36.3 Z M 60.7 42.9 C 60.5 43.0 60.7 43.3 60.8 43.5 C 60.9 43.2 60.8 43.2 60.7 42.9 C 60.7 42.9 60.7 42.9 60.7 42.9 Z M 64.5 44.7 C 64.7 44.5 64.2 44.6 64.5 44.4 C 64.4 44.3 64.3 44.4 64.3 44.4 C 64.2 44.4 64.1 44.3 64.2 44.2 C 64.2 44.0 64.4 44.3 64.5 44.0 C 64.6 44.0 64.5 44.1 64.6 44.2 C 64.4 44.1 64.4 44.3 64.6 44.5 C 64.7 44.3 64.6 44.3 64.7 44.2 C 64.7 44.3 64.7 44.5 64.6 44.8 C 64.8 44.9 64.8 44.5 65.0 44.6 C 65.1 44.4 64.9 44.4 64.9 44.3 C 65.0 44.0 65.1 44.6 65.1 44.2 C 65.1 44.4 65.2 44.6 65.1 44.8 C 64.9 44.8 64.7 44.9 64.5 45.0 C 64.6 45.2 65.0 44.7 65.1 45.1 C 65.2 44.9 65.3 45.0 65.3 44.7 C 65.5 44.9 65.3 45.1 65.3 45.1 C 65.2 45.3 65.6 45.3 65.7 45.1 C 65.6 45.3 66.0 45.4 66.1 45.2 C 66.2 45.4 66.5 45.1 66.4 45.5 C 66.5 45.4 66.7 45.5 66.8 45.5 C 67.0 45.3 66.7 45.3 66.7 45.1 C 66.8 44.9 67.0 45.3 67.0 45.1 C 67.0 45.0 67.1 45.0 67.1 44.9 C 66.9 45.0 66.8 45.0 66.6 45.0 C 66.6 44.9 66.7 44.9 66.7 44.8 C 66.6 44.9 66.1 45.0 66.2 44.6 C 65.9 44.6 65.8 44.4 65.6 44.6 C 65.5 44.5 65.8 44.5 65.7 44.3 C 65.2 44.4 64.8 43.8 64.3 44.0 C 64.2 43.9 64.3 43.8 64.3 43.7 C 63.7 43.6 64.0 44.1 63.7 43.8 C 63.8 43.7 63.9 43.8 64.0 43.6 C 63.9 43.5 63.8 43.6 63.6 43.5 C 63.6 43.6 63.5 43.7 63.5 43.8 C 63.4 43.7 63.5 43.5 63.5 43.3 C 63.3 43.3 63.2 43.5 63.3 43.2 C 63.0 43.2 62.8 43.2 62.7 43.0 C 62.5 43.1 62.6 43.5 62.8 43.6 C 62.8 43.7 62.7 43.7 62.7 43.8 C 62.5 43.5 62.7 43.0 62.4 42.9 C 62.5 43.2 62.2 42.9 62.2 42.7 C 62.1 42.7 62.0 43.0 62.1 43.0 C 62.1 43.1 62.0 43.0 62.1 42.9 C 61.9 43.2 62.1 43.5 62.5 43.5 C 62.2 43.9 62.8 43.6 62.4 44.0 C 62.7 44.0 62.6 43.7 62.9 43.9 C 62.9 43.7 62.9 43.6 62.9 43.5 C 63.2 43.6 63.0 43.9 63.2 43.9 C 63.4 43.7 63.2 43.7 63.2 43.6 C 63.4 43.9 63.5 44.0 63.6 44.3 C 63.7 44.2 63.7 44.0 63.9 44.2 C 63.9 44.3 63.9 44.3 63.9 44.4 C 63.8 44.3 63.5 44.7 63.9 44.8 C 64.0 44.7 63.9 44.6 63.8 44.6 C 63.9 44.5 64.0 44.5 64.2 44.5 C 64.2 44.6 64.3 44.7 64.2 44.7 C 64.1 44.9 64.4 44.5 64.5 44.7 C 64.5 44.7 64.5 44.7 64.5 44.7 Z M 47.7 37.8 C 47.8 37.8 47.8 37.8 47.9 37.8 C 48.0 37.7 47.8 37.6 47.9 37.5 C 47.8 37.4 47.8 37.7 47.7 37.8 C 47.7 37.8 47.7 37.8 47.7 37.8 Z M 46.1 37.0 C 46.0 37.2 46.2 36.9 46.3 37.1 C 46.5 36.9 46.3 36.9 46.3 36.7 C 46.2 36.6 46.2 37.1 46.1 37.0 C 46.1 37.0 46.1 37.0 46.1 37.0 Z M 46.8 37.3 C 46.8 37.5 46.9 37.2 46.8 37.2 C 46.8 37.1 46.9 37.0 47.0 36.9 C 47.0 36.7 46.8 37.0 46.7 36.9 C 46.7 37.0 46.7 37.2 46.8 37.3 C 46.8 37.3 46.8 37.3 46.8 37.3 Z M 47.0 37.4 C 47.2 37.3 47.2 37.5 47.4 37.4 C 47.4 37.3 47.0 37.2 47.0 37.3 C 46.8 37.4 47.2 37.6 47.0 37.4 C 47.0 37.4 47.0 37.4 47.0 37.4 Z M 58.5 41.6 C 58.5 41.6 58.6 41.5 58.6 41.4 C 58.6 41.8 58.9 41.9 58.6 42.1 C 58.9 42.0 58.9 42.4 59.1 42.5 C 59.2 42.6 59.2 42.3 59.3 42.3 C 59.5 42.5 59.2 42.4 59.2 42.5 C 59.1 42.7 59.4 42.4 59.5 42.6 C 59.6 42.2 59.7 42.7 59.8 42.3 C 59.8 42.5 59.9 42.4 60.1 42.4 C 60.1 42.3 60.0 42.2 60.0 42.0 C 60.0 41.8 59.9 42.2 60.0 42.2 C 59.8 42.4 59.8 42.0 59.6 42.1 C 59.7 41.9 59.9 42.2 59.9 41.9 C 59.8 41.9 59.7 41.9 59.7 42.0 C 59.6 41.9 59.6 41.8 59.6 41.7 C 59.7 41.7 59.7 41.7 59.6 41.8 C 59.8 41.8 59.7 41.4 59.9 41.5 C 59.9 41.4 59.8 41.3 59.9 41.2 C 59.9 41.0 59.6 41.8 59.5 41.5 C 59.2 41.6 59.8 41.8 59.5 42.2 C 59.1 42.0 59.5 41.8 59.2 41.6 C 59.2 41.7 59.1 41.8 59.1 41.8 C 59.0 41.9 59.2 41.9 59.2 42.0 C 59.2 42.0 59.1 42.0 59.0 42.0 C 59.0 42.0 59.0 42.0 59.0 42.1 C 58.8 41.9 59.0 41.5 59.3 41.5 C 59.4 41.3 59.1 41.2 59.0 41.2 C 59.0 41.4 58.9 41.4 58.9 41.6 C 58.9 41.7 58.9 41.6 59.0 41.5 C 59.1 41.6 58.9 41.6 58.9 41.7 C 58.8 41.6 58.9 41.5 58.7 41.6 C 58.7 41.5 58.8 41.5 58.8 41.4 C 58.8 41.3 58.7 41.3 58.7 41.3 C 58.6 41.4 58.5 41.4 58.5 41.6 C 58.5 41.6 58.5 41.6 58.5 41.6 Z M 61.3 43.5 C 61.5 43.6 61.5 43.3 61.4 43.3 C 61.5 43.3 61.5 43.2 61.6 43.2 C 61.6 43.1 61.5 43.2 61.4 43.0 C 61.7 42.8 61.7 42.3 61.3 42.2 C 61.1 42.6 61.3 42.8 61.1 43.0 C 61.4 43.0 61.4 43.2 61.3 43.5 C 61.3 43.5 61.3 43.5 61.3 43.5 Z M 45.0 36.4 C 45.1 36.5 45.2 36.5 45.3 36.6 C 45.4 36.4 45.1 36.1 45.0 36.4 C 45.0 36.4 45.0 36.4 45.0 36.4 Z M 36.8 32.5 C 36.7 32.5 36.7 32.4 36.7 32.4 C 36.5 32.4 36.7 32.6 36.6 32.8 C 36.6 32.8 36.7 32.8 36.8 32.8 C 36.8 32.7 36.6 32.5 36.8 32.5 C 36.8 32.4 36.8 32.5 36.8 32.5 C 36.8 32.5 36.8 32.5 36.8 32.5 Z M 47.7 37.5 C 47.8 37.5 47.9 37.1 48.1 37.3 C 48.1 37.1 48.0 37.2 47.9 37.1 C 47.8 37.2 47.8 37.4 47.7 37.5 C 47.7 37.5 47.7 37.5 47.7 37.5 Z M 57.4 41.5 C 57.5 41.8 57.7 41.3 58.0 41.6 C 57.9 41.2 57.6 41.5 57.4 41.5 C 57.4 41.5 57.4 41.5 57.4 41.5 Z M 67.5 45.4 C 67.4 45.3 67.5 45.3 67.4 45.1 C 67.3 45.1 67.2 45.3 67.1 45.2 C 67.2 45.5 67.6 45.4 67.5 45.8 C 67.7 45.9 67.8 45.6 67.9 45.5 C 67.8 45.5 67.8 45.4 67.8 45.3 C 67.6 45.6 67.7 45.1 67.5 45.4 C 67.5 45.4 67.5 45.4 67.5 45.4 Z M 60.7 42.8 C 60.6 42.6 60.9 42.6 61.0 42.4 C 61.0 42.5 61.0 42.7 60.9 42.8 C 61.0 42.8 61.1 42.7 61.2 42.5 C 61.0 42.4 60.7 42.3 61.0 42.0 C 60.9 41.9 60.8 42.2 60.7 42.2 C 60.7 42.0 60.8 42.0 60.9 41.8 C 60.8 41.8 60.6 42.0 60.7 41.7 C 60.3 41.9 60.3 42.3 60.3 42.8 C 60.6 42.6 60.5 42.4 60.7 42.8 C 60.7 42.8 60.7 42.8 60.7 42.8 Z M 53.2 39.3 C 53.2 39.4 53.3 39.4 53.3 39.5 C 53.5 39.4 53.7 39.2 53.9 39.0 C 54.0 38.8 53.8 38.9 53.8 39.1 C 53.8 38.9 53.7 38.8 53.7 38.6 C 53.6 38.6 53.3 39.0 53.5 38.6 C 53.3 38.7 53.4 38.8 53.2 38.6 C 53.4 39.0 53.0 38.7 52.9 38.9 C 53.1 39.0 53.2 39.1 53.3 38.8 C 53.4 39.0 53.5 39.1 53.5 39.3 C 53.4 39.4 53.3 39.3 53.2 39.3 C 53.2 39.3 53.2 39.3 53.2 39.3 Z M 54.2 39.0 C 54.2 39.0 54.1 39.0 54.0 39.0 C 54.0 39.1 54.0 39.2 54.0 39.3 C 54.1 39.3 54.2 39.2 54.2 39.5 C 54.3 39.6 54.3 39.1 54.4 39.3 C 54.5 39.2 54.3 39.2 54.4 39.1 C 54.3 39.3 54.2 39.3 54.2 39.0 C 54.2 39.0 54.2 39.0 54.2 39.0 Z M 55.9 40.2 C 56.1 40.2 55.9 40.0 56.0 39.9 C 56.0 39.9 55.7 39.7 55.8 39.6 C 55.9 39.2 55.3 39.7 55.5 39.3 C 55.4 39.3 55.4 39.4 55.3 39.5 C 55.6 39.5 55.5 39.7 55.3 39.7 C 55.3 39.8 55.5 39.8 55.5 39.9 C 55.6 39.7 55.5 39.7 55.6 39.6 C 55.7 39.7 55.8 40.0 55.9 40.2 C 55.9 40.2 55.9 40.2 55.9 40.2 Z M 30.5 29.3 C 30.6 29.4 30.7 29.4 30.8 29.4 C 30.8 29.2 30.7 29.3 30.6 29.3 C 30.7 29.1 30.7 29.2 30.8 29.2 C 30.8 29.0 30.5 29.0 30.5 29.3 C 30.5 29.3 30.5 29.3 30.5 29.3 Z M 31.7 29.8 C 31.8 29.9 31.9 29.9 32.0 29.8 C 32.0 29.6 31.9 29.8 31.8 29.8 C 31.8 29.7 31.8 29.6 31.8 29.5 C 31.7 29.5 31.7 29.6 31.7 29.6 C 31.6 29.6 31.6 29.6 31.6 29.5 C 31.4 29.7 31.8 29.6 31.7 29.8 C 31.7 29.8 31.7 29.8 31.7 29.8 Z M 54.9 39.6 C 54.9 39.5 55.0 39.3 54.8 39.3 C 54.8 39.5 54.7 39.4 54.6 39.4 C 54.6 39.6 54.7 39.5 54.9 39.6 C 54.9 39.6 54.9 39.6 54.9 39.6 Z M 39.2 32.8 C 39.2 33.1 39.4 32.7 39.6 33.0 C 39.6 32.9 39.6 32.8 39.7 32.8 C 39.4 32.9 39.4 32.7 39.2 32.8 C 39.2 32.8 39.2 32.8 39.2 32.8 Z M 14.6 22.4 C 14.7 22.2 14.4 22.2 14.5 22.1 C 14.3 22.4 14.5 21.8 14.1 21.7 C 14.1 21.6 14.2 21.6 14.2 21.6 C 14.0 21.4 14.2 21.9 14.1 22.1 C 14.4 22.1 14.3 22.3 14.6 22.4 C 14.6 22.4 14.6 22.4 14.6 22.4 Z M 66.0 44.0 C 65.9 44.0 66.0 44.0 66.0 44.0 C 66.0 44.1 66.1 44.1 66.1 44.1 C 66.2 43.8 66.1 43.6 66.4 43.3 C 66.3 43.3 66.3 43.3 66.3 43.4 C 65.7 43.9 65.9 42.7 65.4 43.0 C 65.3 43.0 65.3 43.1 65.3 43.1 C 65.3 43.1 65.3 43.2 65.3 43.2 C 65.5 42.9 65.7 43.4 65.5 43.5 C 65.4 43.6 65.5 43.5 65.5 43.5 C 65.6 43.5 65.6 43.5 65.6 43.6 C 65.7 43.4 65.6 43.4 65.6 43.3 C 65.8 43.4 66.0 43.6 65.7 43.8 C 65.8 43.9 65.9 43.8 66.1 43.7 C 66.1 43.8 66.0 44.0 66.0 44.0 C 66.0 44.0 66.0 44.0 66.0 44.0 Z M 67.5 44.5 C 67.7 44.7 67.7 44.4 67.9 44.5 C 67.9 44.3 67.6 44.5 67.5 44.3 C 67.5 44.4 67.6 44.4 67.5 44.5 C 67.5 44.5 67.5 44.5 67.5 44.5 Z M 64.2 42.8 C 64.4 42.5 64.2 42.4 64.0 42.3 C 63.9 42.6 64.0 42.7 64.2 42.8 C 64.2 42.8 64.2 42.8 64.2 42.8 Z M 65.0 43.1 C 65.2 43.1 64.8 42.9 65.0 42.8 C 64.9 42.7 64.8 42.7 64.8 42.6 C 64.8 42.6 64.7 42.7 64.6 42.7 C 64.5 42.8 64.8 42.8 64.7 43.0 C 64.9 42.9 64.9 42.9 65.0 43.1 C 65.0 43.1 65.0 43.1 65.0 43.1 Z M 65.1 43.1 C 65.2 43.1 65.3 42.7 65.1 42.6 C 65.1 42.8 65.1 43.0 65.1 43.1 C 65.1 43.1 65.1 43.1 65.1 43.1 Z M 51.2 37.2 C 51.3 37.2 51.3 36.9 51.4 37.0 C 51.5 36.9 51.1 36.7 51.4 36.8 C 51.4 36.5 51.2 36.9 51.1 36.8 C 51.1 36.8 51.1 36.9 51.0 36.9 C 50.9 37.1 51.3 37.0 51.2 37.2 C 51.2 37.2 51.2 37.2 51.2 37.2 Z M 51.6 37.3 C 51.6 37.3 51.6 37.3 51.6 37.2 C 51.7 37.2 51.7 37.2 51.8 37.2 C 51.8 37.4 51.8 36.9 51.9 36.7 C 51.5 36.7 51.7 37.1 51.6 37.3 C 51.6 37.3 51.6 37.3 51.6 37.3 Z M 51.9 37.3 C 52.0 37.6 52.3 37.6 52.6 37.5 C 52.6 37.1 52.1 37.0 51.9 37.3 C 51.9 37.3 51.9 37.3 51.9 37.3 Z M 50.0 36.4 C 50.2 36.8 51.1 36.7 50.5 36.3 C 50.5 36.4 50.0 36.4 49.9 36.2 C 49.8 36.3 49.5 36.4 49.6 36.2 C 49.3 36.3 50.0 36.6 50.0 36.4 C 50.0 36.4 50.0 36.4 50.0 36.4 Z M 53.0 37.1 C 52.8 37.2 52.8 37.6 52.7 37.4 C 52.6 37.4 52.7 37.5 52.6 37.7 C 52.8 37.7 53.3 37.7 53.2 37.9 C 53.3 37.9 53.4 37.7 53.6 37.8 C 53.7 37.7 52.9 37.8 52.9 37.3 C 53.0 37.2 53.2 37.2 53.0 37.1 C 53.0 37.1 53.0 37.1 53.0 37.1 Z M 39.7 31.5 C 39.6 31.7 39.9 31.6 39.8 31.9 C 40.0 31.7 40.1 31.9 40.3 31.7 C 40.3 31.8 40.2 32.1 40.4 32.3 C 40.5 32.1 40.3 32.1 40.5 32.0 C 40.7 32.0 40.5 32.3 40.8 32.3 C 40.9 31.9 41.3 32.4 41.4 32.0 C 41.3 32.0 41.2 32.2 41.0 32.0 C 41.0 32.0 41.1 31.9 41.0 31.8 C 41.1 31.7 41.1 32.0 41.2 31.9 C 41.3 31.7 41.1 31.7 41.2 31.5 C 41.1 31.5 41.2 31.6 41.1 31.7 C 40.8 31.7 41.3 31.2 41.0 31.2 C 41.0 31.4 41.0 31.4 40.9 31.6 C 40.8 31.5 40.4 31.5 40.7 31.3 C 40.8 31.1 40.5 31.3 40.4 31.4 C 40.3 31.4 40.3 31.3 40.4 31.3 C 40.1 31.2 40.0 31.4 39.9 31.7 C 39.8 31.9 39.9 31.5 39.7 31.5 C 39.7 31.5 39.7 31.5 39.7 31.5 Z M 48.1 35.5 C 47.9 35.6 48.3 35.5 48.4 35.6 C 48.3 35.5 48.5 35.2 48.3 35.1 C 48.3 35.3 48.3 35.3 48.2 35.3 C 48.1 35.3 48.3 35.5 48.1 35.5 C 48.1 35.5 48.1 35.5 48.1 35.5 Z M 54.0 38.0 C 54.0 38.2 54.3 38.2 54.5 38.3 C 54.6 37.9 54.0 38.3 54.1 37.9 C 54.0 37.8 54.1 38.0 54.0 38.0 C 54.0 38.0 54.0 38.0 54.0 38.0 Z M 41.9 32.7 C 41.9 32.8 41.9 32.7 41.9 32.7 C 41.9 32.6 42.1 32.7 42.2 32.7 C 42.1 32.5 42.3 32.5 42.3 32.3 C 42.4 32.3 42.5 32.3 42.5 32.2 C 42.3 32.7 43.0 32.2 42.6 31.9 C 42.6 32.2 42.6 32.2 42.4 32.2 C 42.3 31.9 42.1 32.1 42.1 31.8 C 42.0 31.8 41.9 31.9 41.8 31.8 C 41.8 31.6 41.7 31.5 41.9 31.2 C 41.7 31.1 41.6 31.7 41.4 31.7 C 41.2 31.5 41.6 31.5 41.6 31.3 C 41.6 31.2 41.6 31.2 41.6 31.1 C 41.6 31.1 41.5 31.3 41.5 31.3 C 41.5 31.4 41.2 31.5 41.4 31.2 C 41.2 31.3 41.3 32.0 41.5 31.8 C 41.7 31.8 41.5 32.3 41.4 32.2 C 41.3 32.4 41.7 32.0 41.5 32.4 C 41.6 32.5 41.7 32.5 41.7 32.5 C 41.8 32.5 41.7 32.4 41.7 32.4 C 41.8 32.4 41.9 32.4 42.0 32.5 C 41.9 32.5 41.8 32.6 41.9 32.7 C 41.9 32.7 41.9 32.7 41.9 32.7 Z M 53.2 37.6 C 53.4 37.6 53.4 37.5 53.6 37.6 C 53.6 37.4 53.2 37.3 53.2 37.6 C 53.2 37.6 53.2 37.6 53.2 37.6 Z M 39.0 30.4 C 39.0 30.5 39.1 30.5 39.0 30.6 C 38.8 30.6 39.0 30.8 38.7 31.1 C 39.0 31.0 39.3 30.6 39.0 30.3 C 38.8 30.2 39.2 30.5 39.0 30.4 C 39.0 30.4 39.0 30.4 39.0 30.4 Z M 39.6 30.9 C 39.8 30.8 39.5 30.5 39.5 30.4 C 39.5 30.4 39.5 30.3 39.6 30.2 C 39.2 30.5 39.4 30.7 39.1 31.0 C 39.3 31.2 39.3 31.4 39.6 31.3 C 39.6 31.2 39.5 31.3 39.5 31.3 C 39.4 31.2 39.6 31.0 39.7 31.1 C 39.7 31.0 39.6 31.0 39.5 30.9 C 39.5 30.9 39.5 31.0 39.5 31.1 C 39.3 31.1 39.4 30.9 39.3 30.9 C 39.4 30.8 39.7 30.7 39.6 30.9 C 39.6 30.9 39.6 30.9 39.6 30.9 Z M 27.8 26.2 C 27.9 26.2 27.8 25.9 27.9 25.5 C 27.8 25.4 27.7 25.5 27.7 25.5 C 27.6 25.7 27.8 25.7 27.8 25.9 C 27.6 26.2 27.6 25.8 27.5 25.9 C 27.3 26.2 27.8 25.9 27.8 26.2 C 27.8 26.2 27.8 26.2 27.8 26.2 Z M 44.8 33.6 C 44.9 33.6 44.9 33.5 44.8 33.5 C 44.9 33.4 45.0 33.5 45.0 33.5 C 45.1 33.6 45.0 33.4 45.1 33.4 C 45.2 33.3 44.9 33.4 44.9 33.4 C 44.7 33.4 45.0 33.1 45.0 33.0 C 44.8 33.0 44.8 33.2 44.7 33.1 C 44.7 33.2 44.7 33.4 44.8 33.6 C 44.8 33.6 44.8 33.6 44.8 33.6 Z M 38.4 30.7 C 38.3 30.8 38.7 30.4 38.7 30.6 C 39.0 30.7 38.7 30.3 38.9 30.4 C 38.8 30.3 38.5 30.4 38.2 30.3 C 38.1 30.5 38.6 30.5 38.3 30.5 C 38.3 30.6 38.3 30.6 38.4 30.6 C 38.4 30.6 38.4 30.6 38.4 30.7 C 38.4 30.7 38.4 30.7 38.4 30.7 Z M 38.8 30.2 C 38.9 30.2 38.8 30.2 38.8 30.2 C 38.7 30.2 38.8 30.0 38.9 30.0 C 38.9 29.7 38.7 30.2 38.5 29.9 C 38.6 30.2 38.5 30.3 38.4 30.1 C 38.2 30.2 38.7 30.4 38.8 30.2 C 38.8 30.2 38.8 30.2 38.8 30.2 Z M 29.7 26.9 C 29.8 26.8 29.6 26.8 29.5 26.7 C 29.7 26.6 30.1 26.9 30.1 27.1 C 30.2 27.0 30.3 27.0 30.3 27.1 C 30.3 27.1 30.5 27.0 30.4 26.9 C 30.5 26.9 30.6 26.9 30.6 26.8 C 30.8 27.0 30.5 27.0 30.5 27.1 C 30.8 27.0 30.7 27.2 30.9 27.3 C 30.9 27.1 30.6 27.0 30.8 26.7 C 30.5 26.9 30.3 26.6 30.3 26.4 C 30.4 26.8 29.6 26.6 29.3 26.4 C 29.4 26.3 29.2 26.3 29.1 26.1 C 29.1 25.9 29.0 26.4 29.2 26.3 C 29.1 26.5 28.9 26.2 28.8 26.2 C 28.9 26.4 28.8 26.5 28.8 26.6 C 29.0 26.7 28.9 26.5 29.0 26.4 C 29.0 26.4 29.1 26.4 29.1 26.5 C 28.7 26.7 29.6 26.7 29.3 26.6 C 29.5 26.7 29.4 26.9 29.7 26.9 C 29.7 26.9 29.7 26.9 29.7 26.9 Z M 35.3 29.3 C 35.3 29.3 35.6 29.3 35.5 29.5 C 35.8 29.4 35.7 29.1 36.0 29.2 C 36.0 29.1 35.9 29.1 35.9 29.0 C 35.8 29.0 35.7 29.1 35.6 29.3 C 35.5 29.2 35.4 29.3 35.3 29.3 C 35.4 29.2 35.5 29.2 35.6 29.2 C 35.7 29.0 35.7 28.9 35.5 28.8 C 35.4 29.0 35.3 29.2 35.3 29.3 C 35.3 29.3 35.3 29.3 35.3 29.3 Z M 36.0 29.3 C 36.0 29.4 36.0 29.5 36.0 29.6 C 36.0 29.8 36.1 29.3 36.2 29.3 C 36.3 29.4 36.2 29.5 36.2 29.6 C 36.3 29.5 36.4 29.6 36.4 29.7 C 36.6 29.6 36.3 29.4 36.3 29.3 C 36.2 29.2 36.1 29.4 36.0 29.3 C 36.0 29.3 36.0 29.3 36.0 29.3 Z M 37.7 30.3 C 37.6 30.5 37.8 30.2 37.9 30.3 C 37.9 30.1 37.7 30.1 37.9 29.9 C 37.8 29.7 37.8 29.7 37.6 29.7 C 37.6 29.5 37.5 29.9 37.7 29.9 C 37.7 30.0 37.6 29.9 37.5 30.0 C 37.6 29.5 37.0 30.1 37.3 29.9 C 37.4 29.9 37.4 30.0 37.3 30.1 C 37.5 30.0 37.8 30.2 37.7 30.3 C 37.7 30.3 37.7 30.3 37.7 30.3 Z M 43.7 32.6 C 43.5 32.5 43.5 32.5 43.3 32.4 C 43.3 32.3 43.3 32.3 43.4 32.3 C 43.4 32.2 43.3 32.2 43.2 32.2 C 43.1 32.3 43.2 32.2 43.2 32.2 C 43.3 32.4 43.2 32.4 43.1 32.6 C 43.2 32.8 43.6 32.5 43.6 32.9 C 43.7 32.8 43.6 32.7 43.7 32.6 C 43.7 32.6 43.7 32.6 43.7 32.6 Z M 15.6 20.6 C 15.5 20.7 15.4 20.7 15.4 20.8 C 15.5 20.8 15.6 20.8 15.7 20.8 C 15.6 20.6 15.7 20.3 15.5 20.2 C 15.5 20.4 15.4 20.6 15.6 20.6 C 15.6 20.6 15.6 20.6 15.6 20.6 Z M 37.1 30.0 C 37.2 29.9 37.2 29.7 37.3 29.8 C 37.4 29.6 37.2 29.6 37.2 29.5 C 37.1 29.5 37.1 29.6 37.0 29.6 C 37.0 29.7 37.2 29.7 37.0 29.9 C 37.0 29.9 37.0 29.9 37.0 29.8 C 36.8 29.9 37.0 30.0 37.1 30.0 C 37.1 30.0 37.1 30.0 37.1 30.0 Z M 27.3 25.8 C 27.4 25.8 27.3 25.6 27.3 25.6 C 27.5 25.4 27.3 25.2 27.4 25.0 C 27.4 25.2 27.7 25.2 27.7 25.3 C 27.8 25.2 27.8 25.0 28.0 25.0 C 28.0 24.8 27.8 24.9 27.8 25.1 C 27.8 24.8 27.5 25.0 27.6 24.8 C 27.4 24.6 27.2 24.8 27.1 25.0 C 27.4 25.0 27.1 25.3 27.4 25.4 C 27.3 25.4 27.3 25.4 27.2 25.4 C 27.2 25.5 27.2 25.6 27.3 25.8 C 27.3 25.8 27.3 25.8 27.3 25.8 Z M 33.4 28.4 C 33.6 28.4 33.7 28.3 33.7 28.1 C 33.6 28.1 33.6 28.1 33.5 28.0 C 33.4 28.2 33.6 28.2 33.4 28.4 C 33.4 28.4 33.4 28.4 33.4 28.4 Z M 28.3 25.9 C 28.3 26.0 28.4 25.9 28.4 25.9 C 28.6 25.9 28.5 26.1 28.5 26.2 C 28.6 26.2 28.7 26.1 28.7 25.9 C 28.5 26.1 28.7 25.8 28.5 25.8 C 28.4 25.8 28.4 25.9 28.3 25.9 C 28.3 25.9 28.3 25.9 28.3 25.9 Z M 32.3 27.7 C 32.3 27.7 32.3 27.7 32.3 27.6 C 32.5 27.4 32.6 27.7 32.8 27.7 C 32.9 27.5 32.5 27.4 32.9 27.5 C 32.9 27.3 32.6 27.3 32.4 27.2 C 32.5 27.0 32.8 27.1 32.8 26.8 C 32.6 26.9 32.4 26.9 32.2 27.2 C 32.4 27.4 32.3 27.5 32.3 27.7 C 32.3 27.7 32.3 27.7 32.3 27.7 Z M 32.0 27.4 C 32.0 27.6 32.1 27.4 32.2 27.5 C 32.2 27.2 32.0 27.3 31.8 27.1 C 31.7 27.1 31.7 27.2 31.7 27.2 C 31.6 27.2 31.6 27.2 31.5 27.1 C 31.7 27.5 31.8 27.4 32.1 27.4 C 32.1 27.5 32.1 27.5 32.0 27.4 C 32.0 27.4 32.0 27.4 32.0 27.4 Z M 40.0 30.8 C 40.0 30.7 40.0 30.5 39.8 30.4 C 39.8 30.6 39.8 30.8 40.0 30.8 C 40.0 30.8 40.0 30.8 40.0 30.8 Z M 28.2 25.6 C 27.9 25.7 28.3 25.7 28.3 25.4 C 28.2 25.3 28.1 25.2 28.2 24.9 C 27.8 25.1 28.3 25.3 28.2 25.6 C 28.2 25.6 28.2 25.6 28.2 25.6 Z M 29.5 25.6 C 29.5 25.6 29.4 25.9 29.4 25.7 C 29.2 25.6 29.4 26.0 29.2 25.8 C 29.3 25.9 29.5 26.2 29.7 26.1 C 29.7 25.9 29.5 25.9 29.5 25.7 C 29.6 25.6 29.6 25.6 29.6 25.6 C 29.7 25.5 29.5 25.6 29.5 25.6 C 29.5 25.6 29.5 25.6 29.5 25.6 Z M 30.2 26.3 C 30.1 26.1 30.1 26.0 29.9 25.9 C 29.9 26.1 29.9 26.4 30.2 26.3 C 30.2 26.3 30.2 26.3 30.2 26.3 Z M 19.1 21.2 C 19.2 21.3 19.2 21.0 19.2 20.9 C 19.1 20.9 19.0 21.0 18.9 20.9 C 18.8 21.2 19.1 20.9 19.1 21.2 C 19.1 21.2 19.1 21.2 19.1 21.2 Z M 18.6 20.9 C 18.6 20.7 18.4 20.7 18.5 20.5 C 18.1 20.9 18.3 20.2 18.1 20.5 C 18.1 20.4 18.1 20.4 18.0 20.3 C 18.0 20.8 18.4 20.8 18.6 20.9 C 18.6 20.9 18.6 20.9 18.6 20.9 Z M 31.4 26.3 C 31.5 26.4 31.5 25.9 31.6 26.1 C 31.7 26.0 31.4 25.8 31.6 25.8 C 31.4 25.5 31.4 26.2 31.4 26.3 C 31.4 26.3 31.4 26.3 31.4 26.3 Z M 34.4 27.3 C 34.3 27.5 34.6 27.4 34.7 27.5 C 34.7 27.4 34.6 27.4 34.6 27.4 C 34.6 27.3 34.7 27.3 34.8 27.3 C 34.8 27.1 34.5 27.3 34.4 27.3 C 34.4 27.3 34.4 27.3 34.4 27.3 Z M 29.5 30.0 C 29.5 29.8 29.4 29.5 29.2 29.8 C 29.2 29.6 29.4 29.6 29.3 29.4 C 29.1 29.4 29.3 29.3 28.9 29.3 C 29.1 29.0 28.9 28.9 28.9 28.7 C 29.1 28.7 29.1 29.1 29.2 28.9 C 29.2 28.8 29.3 28.6 29.3 28.8 C 29.4 29.0 28.9 29.0 29.1 29.2 C 29.3 29.0 29.4 29.6 29.6 29.7 C 29.4 29.8 29.6 30.1 29.5 30.0 C 29.5 30.0 29.5 30.0 29.5 30.0 Z M 28.6 29.1 C 28.4 29.1 28.6 28.6 28.6 28.6 C 28.5 28.7 28.7 28.8 28.8 28.7 C 28.7 28.6 28.7 28.6 28.7 28.6 C 29.0 28.7 28.8 28.9 28.8 29.0 C 28.6 29.1 28.6 28.9 28.6 29.0 C 28.6 29.0 28.6 29.0 28.6 29.1 C 28.6 29.1 28.6 29.1 28.6 29.1 Z M 27.0 24.1 C 27.0 24.2 27.1 24.1 27.1 24.1 C 27.0 24.4 27.5 24.1 27.5 24.3 C 27.4 24.4 27.2 24.3 27.1 24.4 C 27.1 24.4 27.1 24.5 27.3 24.5 C 27.2 24.7 27.0 24.6 26.9 24.7 C 26.9 24.6 26.7 24.7 26.8 24.6 C 27.1 24.6 26.9 24.0 27.0 24.1 C 27.0 24.1 27.0 24.1 27.0 24.1 Z M 32.9 26.6 C 33.0 26.4 33.0 25.7 33.3 25.6 C 33.3 25.8 33.2 26.0 33.1 26.2 C 33.3 26.2 33.3 26.4 33.5 26.2 C 33.4 27.0 33.3 26.1 32.9 26.6 C 32.9 26.6 32.9 26.6 32.9 26.6 Z M 33.9 26.8 C 33.8 27.0 33.9 27.0 33.8 27.2 C 33.8 27.0 33.3 27.0 33.5 26.9 C 33.7 26.9 33.7 26.7 33.9 26.8 C 33.9 26.8 33.9 26.8 33.9 26.8 Z M 57.6 39.2 C 57.3 39.3 57.4 38.8 57.6 38.7 C 57.4 39.0 57.8 38.9 57.6 39.2 C 57.6 39.2 57.6 39.2 57.6 39.2 Z M 49.2 39.8 C 49.3 40.0 49.5 39.9 49.4 40.1 C 49.2 40.1 49.3 40.0 49.1 39.9 C 49.1 40.0 48.9 40.1 49.0 40.0 C 49.1 40.0 49.1 39.8 49.2 39.8 C 49.2 39.8 49.2 39.8 49.2 39.8 Z M 35.3 33.5 C 35.3 33.6 35.4 33.7 35.3 33.9 C 35.1 33.7 34.9 33.8 34.6 33.9 C 34.7 33.8 34.7 33.7 34.8 33.6 C 35.0 33.8 35.2 33.6 35.3 33.5 C 35.3 33.5 35.3 33.5 35.3 33.5 Z M 35.5 34.1 C 35.6 34.0 35.6 33.7 35.7 33.8 C 35.6 33.9 35.8 34.3 35.6 34.3 C 35.7 34.1 35.6 34.1 35.5 34.1 C 35.5 34.1 35.5 34.1 35.5 34.1 Z M 26.0 28.7 C 25.9 28.7 26.0 28.9 25.9 29.0 C 25.9 28.9 25.7 28.9 25.7 28.8 C 25.8 28.8 26.0 28.5 26.0 28.7 C 26.0 28.7 26.0 28.7 26.0 28.7 Z M 28.4 29.1 C 28.7 29.2 28.4 29.6 28.7 29.8 C 28.5 29.9 28.3 29.7 28.1 29.9 C 28.2 29.7 28.1 29.7 28.2 29.5 C 28.3 29.6 28.3 29.7 28.4 29.7 C 28.4 29.5 28.4 29.6 28.5 29.4 C 28.5 29.3 28.4 29.3 28.3 29.4 C 28.4 29.2 28.3 29.1 28.4 29.1 C 28.4 29.1 28.4 29.1 28.4 29.1 Z M 26.3 28.1 C 26.2 28.2 26.2 27.8 26.3 27.9 C 26.3 28.0 26.4 27.9 26.4 28.0 C 26.2 28.0 26.5 28.2 26.3 28.3 C 26.2 28.3 26.1 28.3 26.1 28.5 C 26.0 28.4 25.9 28.4 26.0 28.3 C 26.0 28.3 26.1 28.4 26.1 28.3 C 26.1 28.3 26.0 28.3 26.1 28.2 C 26.2 28.3 26.3 28.2 26.3 28.1 C 26.3 28.1 26.3 28.1 26.3 28.1 Z M 27.1 28.5 C 27.0 28.4 27.1 28.2 27.1 28.0 C 27.3 28.2 27.2 28.5 27.3 28.7 C 27.1 28.6 26.8 28.8 26.8 28.6 C 26.9 28.6 27.1 28.6 27.1 28.5 C 27.1 28.5 27.1 28.5 27.1 28.5 Z M 72.4 47.2 C 72.3 47.0 72.3 46.8 72.2 46.7 C 72.0 46.9 72.1 47.4 72.1 47.2 C 71.9 47.2 72.1 46.9 72.0 46.9 C 72.0 47.2 71.3 47.0 71.4 46.6 C 71.5 46.7 71.6 46.6 71.6 46.4 C 71.9 46.6 72.1 46.5 72.3 46.5 C 72.4 46.8 72.8 47.1 73.1 46.9 C 73.1 47.4 73.6 47.0 73.7 47.5 C 73.8 47.4 73.6 47.2 73.8 47.2 C 73.8 47.5 73.7 47.5 73.8 47.7 C 73.8 47.6 73.9 47.4 74.0 47.4 C 73.9 47.6 74.0 47.6 74.0 47.7 C 73.7 47.5 73.9 48.0 73.6 48.0 C 73.5 47.8 73.9 47.6 73.6 47.5 C 73.4 47.6 73.3 47.6 73.2 47.8 C 73.1 47.8 73.1 47.8 73.0 47.8 C 73.2 47.6 72.6 47.7 72.9 47.5 C 73.0 47.5 73.1 47.6 73.3 47.6 C 73.3 47.3 73.1 47.4 72.8 47.4 C 72.9 47.2 73.0 47.2 72.9 47.1 C 72.7 47.2 72.8 47.4 72.7 47.5 C 72.7 47.5 72.8 47.6 72.8 47.6 C 72.6 47.3 72.4 47.5 72.3 47.4 C 72.4 47.3 72.2 47.2 72.4 47.2 C 72.4 47.2 72.4 47.2 72.4 47.2 Z M 74.7 47.8 C 74.8 47.9 74.8 47.9 74.9 47.9 C 74.8 48.1 74.6 48.1 74.6 48.3 C 74.4 48.2 74.8 48.1 74.7 47.8 C 74.7 47.8 74.7 47.8 74.7 47.8 Z M 73.9 46.5 C 73.9 46.2 73.7 46.8 73.6 46.8 C 73.8 46.8 73.9 46.8 73.8 47.0 C 73.7 46.9 73.6 46.9 73.4 46.9 C 73.7 46.6 73.3 46.5 73.4 46.2 C 73.6 46.2 73.7 46.2 73.9 46.3 C 73.8 46.4 74.0 46.6 73.9 46.5 C 73.9 46.5 73.9 46.5 73.9 46.5 Z M 74.5 46.4 C 74.4 46.6 74.7 46.6 74.6 46.8 C 74.4 46.7 74.3 46.8 74.3 47.0 C 74.2 46.9 74.2 46.8 74.1 46.8 C 74.1 46.5 74.3 46.6 74.4 46.5 C 74.4 46.5 74.4 46.4 74.5 46.4 C 74.5 46.4 74.5 46.4 74.5 46.4 Z M 14.5 19.3 C 14.5 19.6 14.3 19.4 14.3 19.3 C 14.3 19.5 14.2 19.6 14.0 19.6 C 14.2 19.3 13.9 19.3 13.9 19.0 C 13.8 19.2 13.9 19.3 13.7 19.3 C 13.6 19.2 13.4 19.2 13.1 19.2 C 13.2 18.9 13.3 18.9 13.4 18.8 C 13.2 18.8 13.4 18.6 13.2 18.6 C 13.2 18.7 13.1 18.8 13.1 18.6 C 13.3 18.6 12.9 18.2 13.2 18.2 C 13.2 18.3 13.2 18.3 13.3 18.3 C 13.1 18.6 13.5 18.6 13.5 18.8 C 13.8 18.3 14.0 18.6 14.3 18.9 C 14.3 19.1 14.1 19.1 14.2 19.2 C 14.3 19.1 14.4 19.1 14.4 19.1 C 14.4 19.2 14.4 19.3 14.5 19.4 C 14.5 19.3 14.5 19.3 14.5 19.3 C 14.5 19.3 14.5 19.3 14.5 19.3 Z M 63.7 40.6 C 63.9 40.3 63.4 40.3 63.3 40.4 C 63.5 40.0 64.1 40.4 63.7 40.6 C 63.7 40.6 63.7 40.6 63.7 40.6 Z M 66.2 41.3 C 66.1 41.3 66.0 41.5 65.9 41.5 C 66.0 41.3 65.6 41.6 65.7 41.4 C 65.9 41.2 66.0 41.3 66.2 41.3 C 66.2 41.3 66.2 41.3 66.2 41.3 Z M 68.3 42.3 C 68.1 42.3 68.3 42.5 68.2 42.6 C 68.1 42.5 67.9 42.4 68.0 42.2 C 68.1 42.4 68.3 42.1 68.3 42.3 C 68.3 42.3 68.3 42.3 68.3 42.3 Z M 65.2 40.7 C 65.1 40.5 65.4 40.3 65.4 40.5 C 65.2 40.5 65.4 40.7 65.6 40.7 C 65.4 41.0 65.4 40.9 65.4 41.2 C 65.1 41.2 65.4 40.9 65.3 40.9 C 65.1 41.0 65.3 41.0 65.2 41.2 C 65.1 41.2 65.0 41.1 65.0 41.1 C 65.0 41.0 65.1 40.9 65.1 40.7 C 65.2 40.8 65.3 40.8 65.3 40.6 C 65.3 40.6 65.2 40.7 65.2 40.7 C 65.2 40.7 65.2 40.7 65.2 40.7 Z M 11.6 17.6 C 11.5 17.5 11.6 17.7 11.6 17.7 C 11.7 17.6 11.9 17.2 11.9 17.5 C 11.6 17.6 11.9 17.9 11.7 17.9 C 11.7 17.7 11.5 17.9 11.4 17.8 C 11.4 17.6 11.7 17.3 11.6 17.6 C 11.6 17.6 11.6 17.6 11.6 17.6 Z M 12.0 17.9 C 12.0 17.8 12.0 17.8 11.9 17.8 C 12.1 17.6 12.0 17.5 12.1 17.5 C 12.0 17.6 12.3 17.8 12.1 17.8 C 12.0 17.6 12.1 17.9 12.2 18.0 C 12.1 17.9 11.8 18.1 11.9 17.9 C 11.9 17.9 12.0 18.0 12.0 17.9 C 12.0 17.9 12.0 17.9 12.0 17.9 Z M 16.0 19.2 C 16.1 19.1 16.0 19.0 16.0 19.0 C 16.3 19.1 16.5 19.2 16.6 19.3 C 16.5 19.3 16.4 19.5 16.5 19.6 C 16.4 19.4 16.3 19.6 16.3 19.4 C 16.5 19.3 16.2 19.3 16.0 19.2 C 16.0 19.2 16.0 19.2 16.0 19.2 Z M 16.0 19.2 " fill="#EA3C43"></path><path d="M 73.6 30.5 C 73.4 30.7 73.4 30.9 73.4 31.1 C 73.6 31.0 73.6 30.6 73.6 30.5 Z M 71.8 37.3 C 71.7 37.3 71.8 37.1 71.7 37.1 C 71.8 36.9 71.9 36.6 72.1 36.6 C 71.9 36.9 71.9 37.0 71.8 37.3 Z M 71.4 37.3 C 71.5 37.1 71.5 36.6 71.7 36.6 C 71.6 36.9 71.5 37.1 71.4 37.3 Z M 70.0 40.8 C 69.9 40.6 69.9 40.5 70.1 40.3 C 70.2 40.3 70.2 40.3 70.3 40.3 C 70.2 40.5 70.2 40.7 70.0 40.8 Z M 70.5 50.1 C 70.7 49.7 70.5 49.5 70.4 49.2 C 70.8 49.2 70.8 48.4 71.2 48.3 C 71.1 48.8 70.8 49.7 70.5 50.1 Z M 71.1 58.1 C 71.1 58.3 71.7 58.2 71.8 58.4 C 71.5 58.3 71.2 58.6 70.9 58.4 C 70.9 58.3 71.0 58.3 70.9 58.3 C 70.8 58.2 70.6 58.3 70.6 58.2 C 70.7 58.0 70.9 58.3 71.1 58.1 Z M 68.7 58.0 C 68.6 58.1 68.6 58.1 68.5 58.1 C 68.5 58.0 68.5 57.9 68.6 57.9 C 68.6 57.9 68.6 58.0 68.7 58.0 Z M 77.1 29.4 C 77.3 29.4 77.3 29.6 77.3 29.4 C 77.4 29.4 77.3 29.6 77.4 29.6 C 77.4 29.5 77.4 29.5 77.6 29.6 C 77.6 29.7 77.4 29.6 77.5 29.7 C 77.5 29.7 77.6 29.7 77.6 29.7 C 77.6 29.7 77.6 29.7 77.6 29.6 C 77.7 29.6 77.8 29.6 77.9 29.7 C 77.9 29.8 77.9 29.8 78.0 29.9 C 78.1 29.8 78.0 29.8 78.1 29.7 C 78.1 29.8 78.0 29.8 78.1 30.0 C 78.1 30.0 78.0 30.1 77.9 30.2 C 77.9 30.2 78.0 30.2 78.1 30.3 C 78.3 30.9 78.7 31.3 79.0 31.8 C 79.3 32.1 79.6 32.3 79.8 32.5 C 80.1 32.9 80.3 33.6 80.7 34.0 C 80.6 34.3 80.8 34.4 80.8 34.7 C 80.7 34.7 80.7 34.6 80.7 34.6 C 80.8 34.7 80.8 34.9 80.8 35.0 C 81.2 35.1 81.5 35.1 81.9 35.3 C 81.9 35.5 81.8 35.8 81.8 36.0 C 82.0 36.2 82.4 36.1 82.5 36.3 C 82.4 36.3 82.2 36.2 82.0 36.2 C 82.2 36.7 83.0 37.3 83.0 38.0 C 82.8 38.0 82.9 37.8 82.8 37.9 C 82.9 38.2 83.1 38.4 83.4 38.6 C 83.5 38.5 83.4 38.4 83.4 38.3 C 84.0 39.1 84.8 39.8 85.2 40.7 C 85.0 40.6 84.8 41.0 84.7 41.0 C 85.1 40.3 84.1 40.2 84.2 39.6 C 84.0 39.4 83.9 39.6 83.8 39.5 C 83.6 39.3 83.6 39.0 83.4 38.8 C 83.2 39.1 83.5 39.6 83.9 39.7 C 83.8 39.9 83.8 40.0 84.1 40.1 C 84.1 40.2 84.0 40.2 83.9 40.3 C 84.1 40.5 84.0 40.4 84.1 40.6 C 84.1 40.4 84.2 40.4 84.4 40.4 C 84.3 40.5 84.3 40.6 84.2 40.7 C 84.9 41.4 85.2 42.2 85.9 42.8 C 85.8 42.8 85.8 42.8 85.7 42.8 C 86.2 43.2 86.3 43.7 86.5 44.2 C 86.2 44.0 86.0 43.6 85.8 43.4 C 85.8 44.0 86.9 44.4 86.3 44.9 C 86.3 44.8 86.4 44.6 86.3 44.6 C 86.3 44.6 86.1 44.5 86.1 44.6 C 86.0 44.8 86.0 45.0 86.0 45.2 C 86.1 45.1 86.1 45.1 86.1 45.0 C 86.4 45.3 86.5 45.6 86.8 45.9 C 86.9 45.5 86.6 45.2 86.6 44.9 C 86.8 45.1 87.1 45.4 87.1 45.6 C 87.1 45.6 87.0 45.5 86.9 45.5 C 86.9 45.6 87.0 45.7 87.0 45.9 C 87.2 45.8 87.4 45.9 87.5 45.8 C 87.3 45.4 87.1 45.1 87.1 44.7 C 87.3 44.9 87.6 45.0 87.7 44.9 C 87.9 45.0 87.8 45.2 88.0 45.2 C 88.2 45.0 88.0 45.0 88.0 44.9 C 88.2 45.1 88.2 45.5 88.3 45.7 C 88.4 45.7 88.5 45.7 88.6 45.7 C 88.6 46.0 89.0 46.4 88.9 46.7 C 88.8 46.5 88.7 46.1 88.6 46.0 C 88.6 46.3 88.6 46.7 88.8 46.9 C 89.0 47.2 88.7 47.3 88.7 47.6 C 88.6 48.0 88.8 48.8 89.1 48.9 C 89.1 49.2 89.4 49.5 89.5 49.6 C 89.5 49.2 89.4 48.7 89.5 48.2 C 89.7 49.4 90.2 50.3 90.7 51.3 C 90.7 51.4 90.7 51.5 90.7 51.5 C 90.9 51.8 91.1 52.2 91.3 52.5 C 91.5 52.8 91.8 53.2 91.7 53.5 C 91.4 52.9 91.0 52.4 90.6 51.9 C 90.9 52.6 91.4 53.3 91.8 54.0 C 91.9 53.9 92.2 54.2 92.3 53.9 C 92.9 53.8 94.0 54.9 93.7 55.5 C 93.7 55.6 93.6 55.9 93.4 55.7 C 93.4 55.7 93.5 55.5 93.4 55.5 C 93.2 55.9 92.6 55.3 92.5 55.7 C 92.6 55.9 92.8 56.1 92.9 56.3 C 92.7 56.1 92.6 56.0 92.3 55.8 C 91.1 55.7 89.9 55.8 88.8 56.2 C 88.9 56.3 89.1 56.1 89.1 56.3 C 88.9 56.3 88.6 56.5 88.4 56.4 C 88.5 56.5 88.5 56.4 88.5 56.4 C 87.4 56.5 86.2 57.0 85.2 57.2 C 85.2 57.1 85.0 57.1 85.0 57.0 C 84.9 57.2 84.6 57.0 84.5 57.2 C 84.3 56.8 83.8 57.3 83.6 57.0 C 83.6 56.9 83.7 57.2 83.7 57.0 C 83.6 56.9 83.4 57.0 83.3 57.1 C 83.5 57.1 83.3 57.1 83.4 57.2 C 83.5 57.3 83.6 57.1 83.6 57.2 C 83.4 57.3 83.1 57.2 83.2 57.4 C 83.1 57.3 82.7 57.1 82.9 57.3 C 82.8 57.2 82.6 57.0 82.5 57.2 C 82.5 57.2 82.6 57.4 82.5 57.4 C 82.5 57.4 82.4 57.3 82.3 57.3 C 82.3 57.5 82.2 57.4 82.2 57.6 C 82.0 57.6 81.7 57.4 81.6 57.6 C 81.7 57.6 81.8 57.6 81.7 57.7 C 81.6 57.8 81.4 57.6 81.3 57.8 C 81.2 57.7 81.2 57.7 81.2 57.6 C 81.0 57.6 80.6 58.2 80.5 57.7 C 80.7 57.8 80.8 57.8 80.9 57.7 C 80.5 57.6 80.3 57.6 80.0 57.5 C 80.1 57.6 80.1 57.7 80.1 57.8 C 79.9 57.8 79.8 58.0 79.6 58.0 C 79.6 57.9 79.8 58.0 79.8 57.8 C 79.5 57.6 79.2 57.9 78.9 57.7 C 78.8 57.6 79.1 57.7 79.0 57.5 C 78.9 57.5 78.7 57.5 78.6 57.7 C 78.7 58.0 79.3 57.7 79.3 58.1 C 79.0 58.2 78.7 57.8 78.4 57.8 C 78.5 57.9 78.6 57.9 78.6 58.0 C 78.4 58.0 78.3 57.8 78.1 58.0 C 78.1 58.0 78.2 58.1 78.2 58.2 C 77.7 57.9 77.2 58.2 76.9 58.2 C 77.1 58.2 76.7 58.0 76.8 58.1 C 76.8 57.9 77.1 58.0 77.0 57.9 C 76.7 57.9 76.5 58.2 76.2 58.2 C 76.3 58.1 76.4 57.9 76.2 57.8 C 76.1 58.0 76.0 58.2 76.2 58.3 C 76.0 58.2 75.7 58.4 75.8 58.1 C 75.6 58.0 75.5 58.4 75.4 58.4 C 74.7 58.2 74.3 58.5 73.7 58.3 C 73.6 58.2 73.8 58.2 73.8 58.1 C 73.6 58.1 73.4 58.2 73.3 58.3 C 73.3 58.4 73.4 58.4 73.4 58.5 C 72.9 58.4 72.5 58.8 71.8 58.6 C 72.0 58.5 71.8 58.2 71.9 58.2 C 72.0 58.6 72.5 57.9 72.6 58.3 C 72.8 58.3 72.7 58.2 72.8 58.0 C 72.9 58.0 73.1 58.2 73.2 58.1 C 73.2 58.1 73.3 58.0 73.2 57.9 C 72.9 57.8 72.6 57.8 72.5 57.9 C 72.4 57.9 72.5 57.7 72.4 57.7 C 71.8 57.9 71.2 57.7 70.8 58.0 C 70.9 58.1 71.0 57.9 71.0 58.1 C 70.9 58.0 70.9 58.2 70.8 58.1 C 70.8 57.9 70.8 57.9 70.8 57.8 C 70.6 57.8 70.7 58.0 70.6 58.1 C 70.6 58.0 70.3 58.0 70.3 57.9 C 70.2 58.0 70.0 58.0 69.9 58.1 C 69.9 58.0 70.0 58.0 69.9 58.0 C 69.8 58.2 70.0 58.2 70.1 58.0 C 70.1 58.1 70.1 58.2 70.2 58.3 C 70.3 58.2 70.3 58.1 70.3 58.1 C 70.3 58.2 70.4 57.9 70.4 58.0 C 70.4 58.2 70.3 58.2 70.2 58.4 C 70.1 58.2 70.0 58.3 69.9 58.4 C 70.0 58.2 69.8 58.2 69.7 58.2 C 69.7 58.4 69.5 58.4 69.5 58.4 C 69.7 58.3 69.9 58.4 70.1 58.5 C 70.0 58.6 70.0 58.4 69.8 58.5 C 69.9 58.5 69.9 58.4 69.9 58.4 C 69.7 58.5 69.6 58.5 69.4 58.5 C 69.3 58.3 69.7 58.3 69.6 58.2 C 69.5 58.2 69.5 58.2 69.4 58.1 C 69.4 58.4 69.2 58.5 69.1 58.5 C 69.2 58.5 69.2 58.6 69.2 58.6 C 69.4 58.6 69.2 58.4 69.3 58.4 C 69.4 58.6 69.3 58.6 69.2 58.7 C 69.1 58.7 69.1 58.6 69.0 58.6 C 69.0 58.7 69.0 58.8 68.9 58.8 C 68.9 58.7 68.8 58.9 68.7 58.8 C 68.7 58.6 68.9 58.8 68.9 58.7 C 68.9 58.6 68.9 58.5 68.8 58.5 C 68.8 58.6 68.8 58.6 68.7 58.7 C 68.6 58.5 68.6 58.7 68.5 58.6 C 68.5 58.5 68.6 58.6 68.7 58.5 C 68.5 58.5 68.7 58.4 68.5 58.4 C 68.6 58.6 68.3 58.6 68.2 58.6 C 68.2 58.4 68.3 58.6 68.4 58.4 C 68.3 58.4 68.3 58.4 68.3 58.4 C 68.5 58.2 68.4 58.2 68.7 58.2 C 68.7 58.2 68.6 58.2 68.6 58.3 C 68.8 58.2 68.7 58.3 68.7 58.4 C 68.9 58.4 68.7 58.2 68.9 58.2 C 68.9 58.3 69.2 58.3 69.0 58.1 C 69.1 58.1 69.1 58.2 69.2 58.2 C 69.1 58.1 69.3 58.2 69.4 58.1 C 69.2 58.1 69.0 58.0 69.1 57.9 C 69.0 58.0 69.3 58.1 69.3 58.0 C 69.2 57.9 69.3 57.7 69.5 57.8 C 69.6 57.9 69.2 57.8 69.3 58.0 C 69.5 57.9 69.6 57.8 69.7 57.9 C 69.6 57.8 69.6 57.8 69.5 57.6 C 69.5 57.7 69.5 57.7 69.5 57.7 C 69.3 57.7 69.4 57.6 69.2 57.6 C 69.3 57.4 69.4 57.7 69.5 57.6 C 69.3 57.5 69.1 56.8 68.6 57.1 C 68.6 57.2 68.7 57.4 68.7 57.5 C 68.6 57.3 68.6 57.4 68.4 57.3 C 68.5 57.2 68.4 57.1 68.3 57.1 C 68.3 57.3 68.1 57.0 67.9 57.2 C 68.0 57.3 68.1 57.3 68.3 57.3 C 68.1 57.8 67.6 57.0 67.4 57.1 C 67.4 57.1 67.4 57.0 67.3 57.0 C 67.3 57.1 67.4 57.2 67.3 57.3 C 66.7 57.0 65.7 57.2 64.8 57.0 C 64.4 57.4 63.9 57.8 63.2 57.4 C 63.4 57.1 63.1 56.9 63.4 56.7 C 63.6 56.7 63.5 56.8 63.6 56.9 C 63.6 56.7 63.6 56.5 63.6 56.3 C 63.5 56.3 63.2 56.4 63.1 56.3 C 63.7 56.2 64.5 55.4 64.3 54.6 C 65.4 52.6 66.5 50.4 67.4 48.2 C 67.6 48.1 67.7 47.6 67.7 47.5 C 67.7 47.4 67.9 47.5 67.9 47.4 C 68.0 47.3 68.0 47.2 67.9 47.2 C 67.7 47.2 67.6 47.2 67.4 47.1 C 67.4 47.0 67.4 46.8 67.5 46.8 C 67.4 46.9 67.5 47.0 67.6 47.0 C 67.8 47.0 67.9 46.9 68.0 46.7 C 68.4 46.9 68.2 47.3 68.3 47.5 C 68.4 46.8 68.8 46.3 68.9 45.8 C 69.1 45.3 69.0 44.8 69.2 44.2 C 68.8 44.9 68.9 45.9 68.4 46.3 C 68.4 46.1 68.5 45.8 68.5 45.7 C 68.3 45.8 68.4 46.0 68.3 46.2 C 68.2 46.3 68.1 46.2 68.0 46.2 C 68.0 46.4 68.1 46.5 68.1 46.6 C 67.9 46.7 67.9 46.5 67.9 46.4 C 68.3 45.9 68.0 44.9 68.7 44.6 C 68.6 44.4 68.7 44.2 68.6 44.1 C 69.1 43.5 69.1 42.5 69.7 42.1 C 69.7 42.3 69.7 42.6 69.7 42.8 C 69.9 42.3 70.1 41.8 70.1 41.3 C 70.0 41.3 70.0 41.5 70.1 41.6 C 69.9 41.6 70.0 41.4 69.9 41.5 C 69.8 41.6 69.9 41.9 69.7 41.9 C 69.8 41.7 69.9 41.3 70.0 41.1 C 70.0 41.2 70.1 41.3 70.1 41.2 C 70.2 41.0 70.1 40.9 70.1 40.8 C 70.6 40.6 70.6 39.7 70.8 39.2 C 70.7 39.4 70.6 39.7 70.5 39.7 C 70.4 39.5 70.5 39.3 70.4 39.2 C 71.2 39.1 71.1 37.8 71.6 37.2 C 71.8 37.3 71.6 37.6 71.8 37.7 C 71.9 37.6 71.9 37.5 72.0 37.5 C 71.8 38.0 71.6 38.6 71.6 39.0 C 71.7 38.7 72.0 38.2 72.1 38.0 C 72.2 38.0 72.2 38.1 72.3 38.0 C 72.4 37.8 72.4 37.7 72.4 37.6 C 72.6 37.7 72.1 38.1 72.3 38.2 C 72.4 38.3 72.6 38.1 72.6 38.3 C 72.6 38.2 72.7 38.2 72.7 38.2 C 72.9 37.5 73.2 37.2 73.4 36.4 C 73.2 36.5 73.2 37.2 72.6 37.3 C 72.6 37.2 72.8 37.2 72.7 37.1 C 72.6 37.0 72.6 37.1 72.5 37.1 C 72.6 37.0 72.7 36.9 72.5 36.9 C 72.7 36.8 72.9 36.7 73.0 36.3 C 72.9 36.3 72.9 36.4 72.8 36.3 C 72.8 35.8 73.6 35.7 73.3 35.2 C 73.6 35.2 73.8 34.8 73.6 34.6 C 73.5 34.6 73.5 34.8 73.4 34.7 C 73.5 34.6 73.6 34.4 73.6 34.3 C 73.6 34.3 73.6 34.2 73.5 34.2 C 73.7 33.8 73.8 33.1 73.9 32.6 C 73.8 32.8 73.5 33.2 73.6 33.5 C 73.5 33.6 73.3 33.6 73.2 33.8 C 73.2 33.9 73.3 33.8 73.3 33.9 C 72.8 34.2 73.3 35.0 72.8 35.3 C 72.8 35.2 72.9 35.1 72.8 35.0 C 72.6 35.2 72.3 35.4 72.4 35.7 C 72.4 35.7 72.5 35.6 72.6 35.6 C 72.3 35.9 72.2 36.7 71.7 36.6 C 71.9 36.1 72.3 35.9 72.3 35.6 C 72.2 35.7 72.1 35.7 72.0 35.6 C 72.1 35.4 72.2 35.4 72.3 35.3 C 72.2 34.8 72.3 34.4 72.5 33.8 C 72.7 33.8 72.9 33.4 72.8 33.2 C 72.9 33.1 73.0 33.2 73.0 33.2 C 73.2 32.7 73.1 32.0 73.5 31.8 C 73.5 32.1 73.1 32.3 73.3 32.5 C 73.6 32.1 73.9 31.5 74.2 31.0 C 74.1 31.0 74.0 31.2 73.8 31.2 C 74.0 31.0 73.8 30.5 74.1 30.2 C 74.1 30.3 74.0 30.5 74.1 30.6 C 74.3 30.5 74.5 30.0 74.6 29.6 C 74.8 29.6 75.1 29.6 75.3 29.5 C 75.0 29.5 74.6 29.5 74.3 29.7 C 74.4 29.3 75.0 29.5 75.2 29.4 C 75.1 29.4 75.2 29.1 75.2 29.1 C 75.3 29.1 75.5 28.8 75.5 28.7 C 75.7 28.8 75.8 28.5 75.9 28.6 C 76.0 28.7 75.8 28.7 75.9 28.7 C 76.0 28.6 76.0 28.6 76.1 28.6 C 76.0 28.7 76.4 28.6 76.5 28.7 C 76.5 29.1 76.9 29.2 77.1 29.2 C 77.1 29.1 77.2 29.0 77.3 29.2 C 77.1 29.3 77.6 29.2 77.3 29.3 C 77.3 29.2 77.2 29.3 77.1 29.4 Z M 69.5 57.5 C 69.7 57.5 69.7 57.5 69.6 57.6 C 69.8 57.7 69.7 57.4 69.9 57.5 C 69.9 57.4 69.9 57.4 69.9 57.4 C 69.8 57.3 69.8 57.3 69.8 57.3 C 69.7 57.5 69.7 57.4 69.5 57.4 C 69.5 57.5 69.5 57.5 69.5 57.6 C 69.6 57.6 69.5 57.5 69.5 57.5 Z M 69.9 57.6 C 69.9 57.6 69.9 57.6 69.9 57.6 C 69.8 57.7 69.7 57.6 69.6 57.7 C 69.8 57.7 69.9 57.8 70.1 57.9 C 70.1 57.8 70.0 57.8 69.9 57.7 C 69.9 57.7 70.0 57.7 70.0 57.6 C 69.9 57.6 69.9 57.6 69.9 57.6 Z M 69.7 57.7 C 69.6 57.8 69.9 57.8 69.8 57.9 C 69.8 57.9 69.8 57.9 69.8 58.0 C 69.9 57.9 69.9 57.9 69.9 57.9 C 69.9 57.8 69.8 57.8 69.7 57.7 Z M 88.0 45.3 C 88.1 45.4 88.0 45.6 88.2 45.6 C 88.2 45.5 88.1 45.4 88.0 45.3 Z M 74.8 30.9 C 74.9 30.9 75.0 30.8 74.8 30.8 C 74.9 30.7 75.1 30.8 75.2 30.8 C 75.3 30.6 75.3 30.4 75.2 30.3 C 75.4 30.2 75.3 30.1 75.5 30.1 C 75.5 30.1 75.5 30.0 75.5 30.0 C 75.4 29.9 75.3 29.9 75.2 29.9 C 75.2 29.8 75.3 29.8 75.4 29.8 C 75.3 29.7 75.1 29.9 75.0 29.8 C 74.9 29.9 74.8 30.0 74.8 30.2 C 74.8 30.3 74.8 30.1 74.9 30.1 C 75.1 30.3 74.8 30.7 74.8 30.8 C 74.8 30.9 74.9 30.8 74.8 30.9 Z M 75.1 30.9 C 74.9 30.8 75.0 31.1 75.0 31.1 C 75.1 31.2 75.1 31.0 75.1 30.9 Z M 75.2 31.2 C 75.1 31.1 75.1 31.3 75.0 31.4 C 75.2 31.4 75.2 31.3 75.2 31.2 Z M 74.6 32.6 C 74.4 32.5 74.4 32.8 74.4 32.9 C 74.5 32.9 74.5 32.7 74.6 32.6 Z M 77.3 33.9 C 77.3 34.2 77.9 34.2 78.1 34.2 C 77.9 33.9 77.6 34.2 77.3 33.9 Z M 78.1 34.4 C 78.0 34.6 78.2 34.6 78.3 34.6 C 78.6 34.7 78.1 34.4 78.1 34.4 Z M 76.8 34.0 C 76.8 34.2 76.6 34.4 76.5 34.7 C 76.8 34.7 77.1 34.7 77.5 34.8 C 77.5 34.5 77.7 34.4 77.9 34.4 C 77.8 34.2 77.2 34.2 76.8 34.0 Z M 76.5 33.7 C 76.4 33.7 76.4 33.7 76.3 33.8 C 76.4 33.9 76.5 33.9 76.5 33.9 C 76.6 33.8 76.4 33.8 76.5 33.7 Z M 78.4 34.7 C 78.4 34.6 78.1 34.7 78.0 34.6 C 78.0 34.7 78.0 34.8 77.9 34.9 C 78.0 35.0 78.2 35.0 78.2 35.0 C 78.3 34.9 78.2 34.7 78.4 34.7 Z M 76.6 34.0 C 76.5 34.0 76.5 34.0 76.4 34.0 C 76.4 34.2 76.2 34.4 76.2 34.6 C 76.4 34.6 76.5 34.1 76.6 34.0 Z M 74.2 33.8 C 74.0 33.7 74.0 34.0 74.0 34.1 C 74.1 34.0 74.1 33.9 74.2 33.8 Z M 76.4 34.8 C 76.0 35.5 75.5 36.4 75.8 37.1 C 75.9 36.4 76.4 35.5 76.6 34.9 C 76.6 34.9 76.5 34.8 76.4 34.8 Z M 80.2 37.5 C 80.4 37.6 80.1 37.6 80.0 37.6 C 79.8 38.2 79.3 38.8 79.0 39.4 C 79.2 39.4 78.9 39.7 79.1 39.8 C 79.4 39.4 79.5 38.8 79.9 38.9 C 80.0 38.6 80.0 38.1 80.2 37.9 C 80.3 38.0 80.3 38.1 80.2 38.2 C 80.3 38.1 80.5 38.0 80.6 37.8 C 80.4 37.6 80.4 37.5 80.1 37.4 C 80.2 37.4 80.2 37.5 80.1 37.6 C 80.2 37.7 80.1 37.4 80.2 37.5 Z M 75.6 36.3 C 75.4 36.6 75.3 37.3 75.2 37.7 C 75.5 37.3 75.4 36.8 75.6 36.3 Z M 81.5 38.9 C 81.4 38.9 81.4 39.1 81.4 39.2 C 81.5 39.2 81.6 39.1 81.7 39.2 C 81.7 39.1 81.5 39.0 81.5 38.9 Z M 80.8 38.6 C 80.7 38.6 80.7 39.0 80.6 39.0 C 80.6 39.1 80.7 39.0 80.8 39.0 C 80.8 38.9 80.8 38.8 80.8 38.6 Z M 81.7 39.6 C 81.7 39.8 82.1 40.0 82.2 39.8 C 82.1 39.7 81.9 39.7 81.7 39.6 Z M 81.5 39.6 C 81.4 39.6 81.4 39.6 81.3 39.6 C 81.3 39.6 81.3 39.7 81.3 39.7 C 81.4 39.8 81.4 39.7 81.5 39.8 C 81.5 39.7 81.5 39.7 81.5 39.6 Z M 79.9 39.0 C 79.6 39.4 79.4 39.5 79.2 40.0 C 79.3 40.0 79.3 40.1 79.4 40.2 C 79.5 39.8 79.7 39.4 79.9 39.0 Z M 81.7 39.9 C 81.7 40.2 81.8 40.4 81.8 40.6 C 81.9 40.5 81.8 40.1 81.7 39.9 Z M 75.2 37.9 C 75.0 37.9 75.1 38.1 75.1 38.2 C 75.2 38.1 75.1 38.0 75.2 37.9 Z M 78.9 39.5 C 78.7 39.6 78.8 39.8 78.8 39.9 C 78.9 39.9 78.9 39.6 78.9 39.5 Z M 83.1 41.3 C 82.9 41.4 82.7 41.8 83.0 41.9 C 83.0 41.7 83.2 41.5 83.1 41.3 Z M 76.1 38.5 C 76.0 38.4 76.0 38.5 75.9 38.5 C 75.8 38.8 75.7 39.0 75.8 39.2 C 75.8 39.3 75.7 39.2 75.7 39.3 C 75.5 39.3 75.5 39.1 75.4 39.0 C 75.4 39.2 75.4 39.5 75.3 39.7 C 75.2 39.8 75.2 39.6 75.3 39.6 C 75.0 40.2 74.6 41.2 74.3 41.8 C 74.7 41.4 75.0 41.1 75.3 40.4 C 75.3 40.6 75.3 40.9 75.2 41.3 C 75.7 41.0 75.8 40.0 75.9 39.5 C 75.9 39.5 75.8 39.5 75.8 39.6 C 75.8 39.2 76.3 38.8 76.1 38.5 Z M 83.5 41.9 C 83.3 42.3 83.3 42.9 83.1 43.3 C 83.5 43.3 83.8 42.8 83.9 42.5 C 83.7 42.4 83.8 42.8 83.6 42.8 C 83.4 42.5 83.7 42.1 83.5 41.9 Z M 78.6 41.2 C 78.8 40.9 78.7 40.4 78.8 40.1 C 78.6 40.4 78.7 40.8 78.6 41.2 Z M 84.0 42.6 C 83.8 42.8 83.9 43.1 83.8 43.4 C 84.1 43.4 84.3 43.4 84.6 43.5 C 84.4 43.2 84.1 42.9 84.0 42.6 Z M 74.7 38.8 C 74.5 38.9 74.6 39.1 74.5 39.3 C 74.7 39.2 74.7 39.0 74.7 38.8 Z M 85.4 43.8 C 85.3 44.1 85.5 44.3 85.8 44.4 C 85.7 44.2 85.7 43.9 85.4 43.8 Z M 85.8 44.0 C 85.7 44.2 85.9 44.2 86.0 44.3 C 86.1 44.2 86.0 44.1 85.8 44.0 Z M 84.1 43.9 C 84.0 44.0 84.0 44.1 84.1 44.2 C 84.2 44.1 84.2 44.1 84.2 44.1 C 84.2 44.0 84.1 44.0 84.1 43.9 Z M 82.3 43.3 C 82.2 43.3 82.2 43.3 82.2 43.3 C 82.2 43.4 82.1 43.5 82.2 43.7 C 82.3 43.6 82.3 43.4 82.3 43.3 Z M 83.7 44.0 C 83.6 43.9 83.6 44.0 83.5 44.1 C 83.6 44.1 83.7 44.2 83.7 44.0 Z M 73.4 41.5 C 72.4 42.4 71.9 43.8 71.2 45.2 C 71.8 45.3 71.7 44.5 72.1 44.1 C 72.2 44.0 72.1 44.2 72.1 44.2 C 72.3 44.2 72.3 43.8 72.5 43.6 C 72.6 45.9 70.2 48.3 69.5 51.1 C 69.7 51.0 70.1 50.2 70.3 49.8 C 70.4 50.2 70.0 50.7 69.8 51.2 C 69.8 51.4 70.1 51.2 70.2 51.6 C 69.9 52.2 69.6 52.6 69.3 53.3 C 70.9 52.3 70.9 49.9 71.9 48.3 C 72.2 48.3 71.8 48.5 72.1 48.6 C 72.3 48.4 72.4 48.3 72.6 48.1 C 72.7 48.1 72.8 48.2 72.7 48.4 C 73.1 47.7 73.1 46.8 72.6 46.3 C 73.3 45.7 73.5 44.4 73.9 43.4 C 73.7 43.6 73.3 44.6 72.9 44.8 C 72.9 43.9 73.9 42.2 73.3 41.7 C 73.4 41.7 73.4 41.6 73.4 41.5 Z M 79.3 44.4 C 79.0 44.7 78.5 45.1 78.5 45.7 C 78.7 45.6 78.9 45.5 79.0 45.2 C 79.2 45.4 79.3 44.6 79.3 44.4 Z M 70.6 40.8 C 70.3 41.2 70.1 41.9 69.9 42.5 C 69.9 42.7 70.0 42.7 70.0 42.8 C 69.9 43.0 70.0 43.2 70.0 43.0 C 70.2 42.3 70.6 41.5 70.6 40.8 Z M 79.0 46.7 C 78.9 46.7 78.9 46.7 78.9 46.7 C 78.8 46.8 78.7 46.8 78.6 47.1 C 78.9 47.1 78.6 47.3 78.8 47.4 C 78.9 47.1 78.9 46.9 79.0 46.7 Z M 69.9 42.9 C 69.7 43.0 69.8 43.3 69.7 43.5 C 69.8 43.4 69.8 43.1 69.9 42.9 Z M 89.0 51.1 C 89.0 51.3 89.1 51.4 89.1 51.6 C 89.3 51.6 89.3 51.7 89.3 51.8 C 89.4 51.7 89.2 51.3 89.0 51.1 Z M 78.0 47.0 C 77.9 47.1 77.8 47.4 77.8 47.5 C 78.0 47.4 77.9 47.1 78.0 47.0 Z M 89.4 52.0 C 89.3 51.9 89.3 52.0 89.2 52.1 C 89.4 52.1 89.4 52.2 89.3 52.3 C 89.3 52.3 89.4 52.3 89.4 52.2 C 89.5 52.3 89.3 52.4 89.3 52.4 C 89.4 52.7 89.4 53.2 89.8 53.4 C 89.7 53.2 89.7 53.0 89.5 52.8 C 89.7 52.6 89.5 52.2 89.4 52.0 Z M 89.2 52.4 C 89.1 52.3 89.1 52.3 89.1 52.3 C 89.0 52.4 88.9 52.5 88.8 52.7 C 89.0 52.7 89.1 52.5 89.2 52.4 Z M 77.6 47.9 C 77.4 48.1 77.2 48.5 77.1 48.8 C 77.4 48.7 77.5 48.2 77.6 47.9 Z M 80.9 50.0 C 80.6 50.3 80.5 50.9 80.4 51.4 C 81.1 51.4 80.9 50.5 80.9 50.0 Z M 70.0 45.5 C 70.0 45.5 69.9 45.5 69.9 45.6 C 69.6 45.5 69.6 46.0 69.5 46.3 C 69.3 46.8 68.9 47.6 68.9 47.9 C 69.2 47.1 69.6 46.4 70.0 45.5 Z M 68.7 45.2 C 68.6 45.2 68.5 45.3 68.4 45.2 C 68.3 45.3 68.4 45.4 68.4 45.4 C 68.5 45.4 68.6 45.3 68.7 45.2 Z M 81.5 50.7 C 81.5 50.7 81.5 50.7 81.5 50.8 C 81.5 50.9 81.4 50.9 81.3 50.8 C 81.2 51.1 81.1 51.2 81.0 51.4 C 81.1 51.5 81.3 51.5 81.5 51.6 C 81.5 51.3 81.5 51.0 81.5 50.7 Z M 69.0 45.9 C 68.9 46.0 68.6 46.7 68.9 46.9 C 69.0 46.6 69.1 46.2 69.0 45.9 Z M 74.6 48.6 C 74.3 48.8 74.1 49.4 73.9 49.8 C 74.0 49.9 74.1 49.7 74.2 49.7 C 74.3 50.4 73.9 51.3 73.4 52.1 C 73.5 52.1 73.5 52.1 73.6 52.2 C 74.5 51.3 74.3 50.3 74.6 49.2 C 74.3 49.4 74.7 48.7 74.6 48.6 Z M 81.8 51.8 C 81.7 51.8 81.6 51.7 81.5 51.7 C 81.5 51.9 81.6 52.0 81.5 52.2 C 81.6 52.1 81.8 52.0 81.8 51.8 Z M 80.9 51.5 C 80.9 51.5 80.8 51.4 80.8 51.4 C 80.7 51.5 80.6 51.7 80.6 51.8 C 80.7 51.9 80.8 51.6 80.9 51.5 Z M 80.4 51.4 C 80.2 51.6 80.1 52.0 80.0 52.2 C 80.4 52.1 80.2 51.7 80.4 51.4 Z M 80.6 52.0 C 80.5 52.0 80.4 52.4 80.5 52.1 C 80.4 52.1 80.4 52.1 80.4 52.1 C 80.4 52.2 80.4 52.2 80.4 52.2 C 80.3 52.3 80.5 52.3 80.6 52.3 C 80.7 52.2 80.5 52.2 80.6 52.0 Z M 76.9 50.4 C 76.7 50.5 76.8 50.8 76.7 50.9 C 76.8 50.9 76.8 50.6 76.9 50.4 Z M 81.5 52.5 C 81.3 52.5 81.3 52.8 81.2 52.9 C 81.3 53.0 81.3 53.1 81.4 53.2 C 81.5 52.9 81.4 52.7 81.5 52.5 Z M 80.7 52.4 C 80.6 52.5 80.5 52.4 80.4 52.4 C 80.4 52.5 80.5 52.5 80.4 52.6 C 80.5 52.6 80.5 52.5 80.6 52.6 C 80.7 52.5 80.7 52.5 80.7 52.4 Z M 80.4 52.5 C 80.3 52.4 80.3 52.4 80.3 52.4 C 80.2 52.5 80.2 52.5 80.2 52.6 C 80.3 52.6 80.3 52.6 80.4 52.5 Z M 80.7 52.6 C 80.7 52.8 80.7 53.0 80.6 53.2 C 80.9 53.3 81.0 53.1 81.1 52.9 C 81.0 52.8 80.9 52.7 80.7 52.6 Z M 68.8 47.6 C 68.5 47.7 68.3 48.5 68.1 49.0 C 68.0 49.1 68.0 48.9 67.9 49.0 C 67.8 49.2 67.8 49.3 67.8 49.4 C 67.9 49.5 67.9 49.4 67.9 49.4 C 68.0 49.6 67.7 50.1 67.8 50.3 C 68.1 50.1 68.2 49.4 68.2 49.1 C 68.6 48.9 68.8 48.0 68.8 47.6 Z M 80.4 52.6 C 80.2 52.7 80.3 52.9 80.1 53.0 C 80.2 53.0 80.3 53.1 80.3 53.1 C 80.4 53.0 80.4 52.8 80.4 52.6 Z M 76.8 51.3 C 76.7 51.3 76.5 51.6 76.7 51.7 C 76.8 51.5 76.7 51.4 76.8 51.3 Z M 68.3 47.7 C 68.0 47.5 67.7 48.3 67.8 48.5 C 67.9 48.4 67.9 48.2 67.9 48.1 C 68.1 48.2 67.8 48.4 68.0 48.4 C 68.2 48.2 68.2 47.9 68.3 47.7 Z M 69.1 48.5 C 68.8 48.5 68.2 49.2 68.5 49.4 C 68.7 49.2 68.9 48.8 69.1 48.5 Z M 76.0 51.9 C 75.9 52.1 75.7 52.6 75.7 52.8 C 75.7 52.8 75.7 52.7 75.8 52.6 C 75.9 52.6 75.8 52.7 75.8 52.8 C 75.9 52.8 76.0 52.7 76.2 52.7 C 76.1 52.4 76.0 52.2 76.0 51.9 Z M 75.6 53.2 C 75.4 53.2 75.5 53.4 75.4 53.5 C 75.5 53.5 75.6 53.3 75.6 53.2 Z M 83.2 57.0 C 83.1 57.1 83.1 57.1 83.1 57.2 C 83.2 57.2 83.2 57.1 83.3 57.2 C 83.3 57.1 83.2 57.1 83.2 57.0 Z M 67.2 50.5 C 67.2 50.5 67.2 50.5 67.1 50.5 C 67.0 50.8 67.0 51.0 67.0 51.3 C 67.2 51.1 67.1 50.8 67.2 50.5 Z M 67.9 51.1 C 67.7 51.4 67.5 51.9 67.5 52.2 C 67.7 51.9 67.8 51.5 67.9 51.1 Z M 77.9 56.0 C 77.8 56.1 77.9 56.2 77.8 56.2 C 78.0 56.3 78.2 55.9 78.5 56.1 C 78.5 56.0 78.5 55.9 78.6 56.0 C 78.5 55.7 78.0 56.0 77.9 56.0 Z M 75.4 54.6 C 75.3 54.5 75.3 54.6 75.2 54.6 C 75.1 54.7 75.2 54.7 75.1 54.8 C 75.2 54.9 75.2 54.8 75.4 54.9 C 75.3 54.8 75.4 54.7 75.4 54.6 Z M 76.3 55.0 C 76.0 54.9 75.7 55.0 75.4 54.9 C 75.6 55.0 76.1 55.1 76.3 55.0 Z M 80.4 57.1 C 80.4 57.1 80.2 57.1 80.2 57.0 C 80.2 56.9 80.2 56.8 80.3 56.9 C 80.0 56.5 79.6 56.8 79.2 56.7 C 79.1 56.8 79.1 56.8 79.0 57.0 C 78.9 56.8 78.8 57.0 78.7 57.1 C 78.6 57.1 78.6 57.0 78.6 57.0 C 78.5 56.9 78.6 57.1 78.6 57.1 C 78.8 57.1 79.0 57.1 79.2 57.1 C 79.3 57.2 79.2 57.3 79.2 57.3 C 79.3 57.3 79.4 57.4 79.4 57.4 C 79.3 56.9 79.9 57.1 80.2 57.2 C 80.2 57.1 80.2 57.2 80.4 57.1 Z M 69.2 52.1 C 69.0 52.1 69.0 52.6 68.8 52.7 C 69.0 52.9 69.2 52.3 69.2 52.1 Z M 71.1 55.9 C 71.4 56.1 71.0 56.1 71.1 56.3 C 71.0 56.3 71.1 56.2 70.9 56.2 C 70.9 56.2 70.9 56.3 70.9 56.3 C 71.0 56.2 71.1 56.4 71.1 56.2 C 71.3 56.3 71.2 56.5 71.4 56.4 C 71.5 56.2 71.3 56.3 71.3 56.2 C 71.3 56.1 71.4 56.2 71.5 56.3 C 71.8 55.6 71.9 54.7 72.2 53.8 C 71.6 54.2 71.3 55.3 71.0 56.1 C 70.9 56.1 71.2 56.0 71.1 55.9 Z M 74.5 55.0 C 74.4 55.1 74.2 54.8 74.2 55.0 C 74.6 55.2 74.2 55.2 74.2 55.5 C 74.4 55.3 74.4 55.5 74.6 55.2 C 74.6 55.1 74.3 55.2 74.5 55.0 Z M 74.9 55.3 C 74.7 55.3 74.9 55.5 74.6 55.4 C 74.5 55.4 74.8 55.5 74.7 55.6 C 74.8 55.6 74.8 55.5 74.7 55.5 C 74.8 55.4 74.9 55.5 75.0 55.4 C 75.0 55.3 75.0 55.5 74.9 55.4 C 74.9 55.4 74.8 55.3 74.9 55.3 Z M 72.7 54.4 C 72.6 54.3 72.5 54.8 72.5 54.9 C 72.7 54.9 72.6 54.6 72.7 54.4 Z M 74.0 55.0 C 74.0 54.9 73.8 54.8 73.7 54.9 C 73.7 55.0 73.6 55.0 73.7 55.0 C 73.7 55.1 73.8 55.0 73.7 55.0 C 73.8 54.9 73.9 55.1 73.9 55.0 C 74.0 55.0 73.9 55.1 73.9 55.1 C 73.9 55.2 74.0 55.1 74.0 55.0 Z M 74.1 55.0 C 74.1 55.1 74.2 55.1 74.2 55.1 C 74.2 55.1 74.1 55.2 74.1 55.2 C 74.1 55.3 74.2 55.2 74.3 55.2 C 74.3 55.1 74.2 55.1 74.1 55.0 Z M 77.1 56.6 C 77.0 56.7 77.1 56.7 77.1 56.8 C 76.9 56.9 76.7 56.7 76.7 57.0 C 77.0 56.9 77.5 57.6 77.6 57.1 C 77.7 57.3 78.0 57.4 78.2 57.4 C 78.1 57.2 78.1 57.1 78.3 57.2 C 78.3 56.9 78.0 57.2 78.1 57.0 C 78.1 56.9 78.0 57.0 78.0 57.0 C 78.0 57.0 78.0 56.9 77.9 56.9 C 77.9 56.5 77.4 56.6 77.1 56.6 Z M 75.1 55.7 C 75.1 55.6 75.0 55.6 75.0 55.5 C 74.9 55.6 74.9 55.7 74.8 55.7 C 74.8 55.8 74.9 55.8 74.9 55.8 C 75.0 55.9 74.9 55.5 75.1 55.7 Z M 74.7 55.6 C 74.7 55.6 74.6 55.7 74.6 55.6 C 74.5 55.8 74.6 55.8 74.5 56.0 C 74.6 56.0 74.6 55.9 74.6 55.9 C 74.9 55.9 74.5 55.8 74.7 55.6 Z M 72.8 54.8 C 72.7 54.9 72.7 55.0 72.6 55.1 C 72.7 55.1 72.8 54.9 72.8 54.8 Z M 74.3 55.7 C 74.4 55.7 74.5 55.7 74.5 55.7 C 74.3 55.6 74.3 55.7 74.2 55.8 C 74.3 55.8 74.3 55.8 74.3 55.7 C 74.3 55.7 74.3 55.8 74.3 55.8 C 74.4 55.8 74.4 55.8 74.3 55.7 Z M 65.8 54.5 C 66.0 54.4 65.8 54.7 65.9 54.7 C 66.1 54.5 66.2 54.2 66.2 53.9 C 66.2 53.9 66.2 53.9 66.2 54.0 C 66.1 53.5 66.6 53.0 66.6 52.5 C 66.8 52.3 66.6 52.4 66.6 52.6 C 66.1 53.6 65.7 54.5 65.3 55.5 C 65.4 55.5 65.3 55.6 65.3 55.6 C 65.4 55.7 65.4 55.7 65.4 55.8 C 65.4 56.0 65.2 55.8 65.2 55.9 C 65.2 55.9 65.2 56.0 65.2 56.1 C 65.4 56.1 65.4 56.0 65.5 56.1 C 65.7 55.6 65.7 55.5 65.9 55.0 C 65.8 55.0 65.8 55.0 65.7 54.9 C 65.8 54.7 65.9 54.6 65.8 54.5 Z M 74.0 55.5 C 73.9 55.5 73.9 55.7 73.9 55.7 C 74.0 55.8 74.1 55.7 74.1 55.8 C 74.1 55.8 74.1 55.7 74.2 55.7 C 74.1 55.4 73.9 55.9 74.0 55.5 Z M 73.7 55.7 C 73.7 55.6 73.5 55.6 73.5 55.7 C 73.6 55.8 73.6 55.8 73.7 55.7 C 73.7 55.7 73.7 55.7 73.6 55.7 C 73.6 55.6 73.7 55.6 73.7 55.7 Z M 68.3 53.4 C 67.9 53.9 67.6 54.8 67.1 55.3 C 67.2 55.0 67.5 54.6 67.7 54.1 C 67.5 54.1 67.4 54.5 67.3 54.6 C 67.2 54.2 67.7 53.8 67.9 53.3 C 67.4 53.6 67.3 54.3 66.9 54.7 C 67.0 54.6 67.1 54.7 67.2 54.7 C 67.1 54.9 67.0 55.1 66.9 55.2 C 67.1 55.4 67.5 55.4 67.8 55.5 C 68.0 55.0 68.3 54.5 68.3 54.1 C 68.1 54.3 68.0 54.6 67.8 54.6 C 67.8 54.2 68.2 53.8 68.3 53.4 Z M 72.1 56.2 C 72.1 56.0 71.9 56.1 71.9 56.2 C 71.9 56.2 71.9 56.2 71.9 56.1 C 71.8 56.2 71.8 56.2 71.7 56.1 C 71.6 56.3 71.8 56.3 71.9 56.4 C 72.1 56.4 71.9 56.1 72.1 56.2 Z M 67.8 55.6 C 67.3 55.5 67.2 55.4 66.8 55.4 C 66.8 55.5 66.8 55.6 66.7 55.7 C 67.3 55.9 67.9 56.1 68.5 56.2 C 68.5 56.3 68.6 56.3 68.6 56.3 C 68.7 56.3 68.6 56.3 68.6 56.3 C 68.3 56.1 68.0 56.0 67.8 56.0 C 67.7 55.9 67.8 55.8 67.8 55.6 Z M 70.5 57.0 C 70.5 57.0 70.2 56.8 70.2 57.0 C 70.4 57.0 70.3 57.1 70.5 57.0 Z M 70.3 57.3 C 70.3 57.3 70.3 57.2 70.3 57.2 C 70.3 57.2 70.3 57.1 70.2 57.1 C 70.2 57.3 70.0 57.2 69.8 57.1 C 70.0 57.1 70.0 57.1 70.1 57.0 C 70.1 57.0 70.1 57.0 70.1 57.0 C 70.3 57.0 70.0 56.9 70.0 56.8 C 70.0 57.1 69.5 56.7 69.6 57.1 C 69.6 57.1 69.6 57.0 69.6 56.9 C 69.5 57.0 69.3 56.9 69.2 57.1 C 69.6 57.0 69.1 57.2 69.6 57.3 C 69.8 57.2 70.0 57.2 70.3 57.3 Z M 68.4 56.4 C 67.8 56.1 66.7 55.8 65.9 55.6 C 65.8 55.8 65.6 55.9 65.5 56.2 C 65.9 56.5 66.4 56.3 67.1 56.3 C 67.7 56.4 68.0 56.5 68.4 56.4 Z M 70.3 57.4 C 70.2 57.5 70.1 57.6 70.0 57.6 C 70.0 57.8 70.3 57.6 70.3 57.4 Z M 70.4 57.6 C 70.4 57.5 70.5 57.5 70.5 57.4 C 70.4 57.5 70.4 57.4 70.3 57.4 C 70.3 57.5 70.3 57.5 70.4 57.6 Z M 65.7 56.8 C 65.5 56.7 65.1 56.6 65.0 56.9 C 65.2 56.8 65.5 56.9 65.7 56.8 Z M 69.5 58.6 C 69.4 58.7 69.4 58.7 69.3 58.8 C 69.3 58.7 69.2 59.0 69.1 58.9 C 69.2 58.9 69.3 58.6 69.5 58.6 Z M 86.2 42.4 C 86.1 42.4 86.0 42.3 86.0 42.4 C 86.0 42.6 86.3 42.8 86.3 43.0 C 85.8 42.4 85.3 41.5 85.1 40.8 C 85.4 41.4 85.9 41.8 86.2 42.4 Z M 87.0 44.4 C 87.0 44.3 86.9 44.3 86.9 44.2 C 87.0 44.2 87.0 44.2 87.0 44.2 C 87.0 44.1 86.9 44.0 86.9 43.9 C 87.0 43.9 87.0 44.0 87.1 44.1 C 87.0 44.2 87.1 44.4 87.0 44.4 Z M 69.2 57.6 C 69.1 57.8 69.2 57.7 69.2 57.8 C 69.1 57.9 68.9 57.8 68.9 57.8 C 69.0 57.8 68.9 57.9 68.9 57.9 C 68.9 57.9 69.0 58.0 69.0 58.0 C 69.0 58.1 68.9 58.2 68.9 58.2 C 68.9 58.1 68.9 58.0 68.9 58.0 C 68.8 58.0 68.9 58.2 68.8 58.1 C 68.7 58.0 68.9 57.9 68.9 57.7 C 69.0 57.7 69.1 57.8 69.1 57.7 C 69.1 57.6 69.1 57.5 69.0 57.5 C 69.1 57.5 69.1 57.5 69.2 57.5 C 69.1 57.6 69.1 57.6 69.2 57.6 Z M 68.1 58.3 C 68.0 58.2 68.0 58.2 68.1 58.1 C 68.2 58.0 68.3 58.1 68.5 58.0 C 68.4 58.2 68.3 58.1 68.2 58.2 C 68.2 58.2 68.1 58.2 68.1 58.1 C 68.0 58.2 68.2 58.3 68.1 58.3 Z M 68.1 58.3 " fill="#EA3C43"></path></g></svg>