<?xml version="1.0" encoding="UTF-8" standalone="no"?><svg xmlns="http://www.w3.org/2000/svg" xmlns:xlink="http://www.w3.org/1999/xlink" clip-rule="evenodd" stroke-miterlimit="10" viewBox="0 0 217 75"><desc>SVG generated by Keynote</desc><defs></defs><g transform="matrix(1.00, 0.00, -0.00, -1.00, 0.0, 75.0)"><path d="M 54.0 6.5 C 53.7 6.6 53.3 6.7 52.8 6.8 C 53.0 6.8 53.2 6.9 53.2 7.0 C 53.7 6.8 54.3 6.7 55.2 6.5 C 55.2 6.4 54.7 6.5 54.4 6.6 C 54.0 6.7 54.1 6.5 54.0 6.5 C 54.0 6.5 54.0 6.5 54.0 6.5 Z M 49.4 67.4 C 48.6 67.2 49.5 67.6 49.8 67.7 C 49.8 67.7 49.9 67.6 50.2 67.7 C 50.2 67.9 49.5 67.8 48.9 67.8 C 46.8 67.2 48.5 67.2 49.4 67.4 C 49.4 67.4 49.4 67.4 49.4 67.4 Z M 164.8 67.7 C 166.5 67.4 164.6 67.5 164.4 67.5 C 165.2 67.3 164.4 67.0 165.5 66.8 C 165.7 66.9 166.1 66.9 166.3 66.9 C 165.8 67.0 165.2 67.1 165.1 67.3 C 165.7 67.1 166.6 66.9 166.7 67.0 C 165.4 67.3 166.5 67.3 166.8 67.4 C 165.6 67.6 165.2 67.9 164.8 67.7 C 164.8 67.7 164.8 67.7 164.8 67.7 Z M 191.1 15.8 C 191.8 16.1 192.4 16.3 192.2 16.4 C 191.4 16.1 191.0 15.9 190.6 15.6 C 190.4 15.7 190.6 15.9 189.9 15.7 C 189.3 15.2 189.8 15.0 190.2 15.1 C 190.2 15.3 192.6 16.2 191.1 15.8 C 191.1 15.8 191.1 15.8 191.1 15.8 Z M 143.6 5.3 C 142.0 5.0 143.5 5.6 141.8 5.3 C 141.9 5.1 141.7 4.8 142.8 4.9 C 142.8 5.1 143.5 5.1 143.6 5.3 C 143.6 5.3 143.6 5.3 143.6 5.3 Z M 116.3 71.0 C 116.4 71.2 117.6 71.1 117.3 71.3 C 116.7 71.3 116.1 71.3 115.5 71.3 C 115.3 71.2 115.6 71.0 116.3 71.0 C 116.3 71.0 116.3 71.0 116.3 71.0 Z M 175.6 62.8 C 177.3 62.6 179.0 61.8 178.5 62.1 C 179.2 62.2 177.6 63.1 177.6 62.9 C 177.3 62.6 174.3 63.2 175.6 62.8 C 175.6 62.8 175.6 62.8 175.6 62.8 Z M 59.3 65.1 C 61.2 65.6 60.9 64.8 62.1 65.4 C 61.7 65.3 61.5 65.3 61.3 65.4 C 61.6 65.5 62.1 65.5 62.1 65.6 C 61.2 65.5 60.0 65.4 59.3 65.1 C 59.3 65.1 59.3 65.1 59.3 65.1 Z M 82.8 3.3 C 83.1 3.2 83.3 3.2 83.2 3.1 C 84.6 3.0 84.5 2.8 85.4 2.9 C 85.5 3.2 84.3 3.2 83.2 3.3 C 83.2 3.3 82.9 3.4 82.8 3.3 C 82.8 3.3 82.8 3.3 82.8 3.3 Z M 122.1 3.5 C 122.1 3.3 121.3 3.2 122.6 3.2 C 124.1 3.5 122.7 3.7 121.2 3.8 C 121.2 3.9 121.2 4.0 121.2 4.1 C 121.8 4.1 122.2 4.1 122.5 4.2 C 122.8 3.8 123.8 4.6 126.1 4.5 C 125.0 4.6 126.2 4.9 124.7 4.7 C 125.1 5.0 124.1 4.9 124.3 5.1 C 124.9 5.0 126.4 5.1 126.1 4.8 C 126.9 4.8 127.5 4.9 127.8 5.0 C 128.4 5.2 126.4 4.9 127.0 5.2 C 127.4 5.3 127.5 5.3 127.8 5.4 C 127.9 5.3 127.7 5.1 128.3 5.1 C 129.7 5.3 128.0 5.4 130.0 5.6 C 130.1 5.4 129.5 5.4 129.6 5.2 C 130.5 5.1 130.4 5.3 131.3 5.3 C 131.5 5.4 130.7 5.4 131.3 5.5 C 131.9 5.2 133.1 5.9 134.4 5.7 C 133.6 5.1 134.6 5.8 135.8 5.4 C 136.0 5.5 135.2 5.8 136.1 5.9 C 135.9 5.2 139.7 5.8 136.6 5.0 C 138.3 5.1 138.9 4.7 137.6 4.5 C 140.5 4.9 139.6 4.5 140.7 4.5 C 141.7 4.7 140.0 4.6 140.6 4.9 C 139.4 4.7 139.7 4.9 138.9 4.7 C 138.9 4.8 138.7 4.8 138.4 4.9 C 139.6 4.8 141.0 5.3 140.1 5.5 C 139.5 5.4 140.1 5.2 139.3 5.1 C 139.5 5.5 138.4 5.0 138.4 5.2 C 138.9 5.6 137.2 5.7 138.8 5.9 C 138.8 5.8 138.8 5.6 138.8 5.5 C 139.2 5.5 139.7 5.6 140.1 5.6 C 140.4 5.9 140.1 6.0 140.5 6.1 C 141.2 6.2 141.6 6.2 141.8 6.1 C 140.9 6.0 139.9 5.7 141.4 5.8 C 140.8 6.2 143.4 6.1 142.2 6.2 C 143.8 6.6 144.6 6.3 144.7 6.6 C 145.6 6.7 145.1 6.4 146.0 6.5 C 147.6 6.9 147.3 6.6 149.4 7.0 C 149.7 6.7 149.6 7.1 150.2 7.2 C 150.3 7.1 150.3 7.0 150.3 6.8 C 151.0 7.2 152.6 7.5 154.4 7.5 C 154.8 7.7 154.5 7.8 155.6 8.0 C 156.8 7.8 158.2 8.4 159.7 8.3 C 159.8 8.5 160.7 8.7 161.3 8.7 C 161.5 8.8 160.7 9.0 161.6 9.2 C 162.2 9.0 161.2 8.8 162.5 8.9 C 162.3 9.1 163.7 8.9 163.6 9.2 C 163.2 9.2 162.8 9.2 162.4 9.2 C 162.9 9.3 162.8 9.4 163.2 9.5 C 163.2 9.2 164.1 9.7 164.4 9.8 C 164.3 9.6 164.5 9.6 164.8 9.5 C 165.5 9.7 166.0 9.8 166.4 9.8 C 167.2 10.1 165.8 9.9 166.7 10.1 C 167.2 9.6 168.0 10.4 169.8 10.5 C 170.2 10.7 170.9 11.0 172.0 11.3 C 172.2 11.2 170.9 11.0 170.9 10.8 C 172.6 11.3 170.7 10.6 171.7 10.9 C 174.0 11.5 175.5 11.9 177.8 12.8 C 177.8 12.6 179.7 13.0 179.7 13.1 C 179.2 13.0 180.5 13.7 181.3 13.9 C 181.6 13.6 183.9 13.9 184.1 13.8 C 184.5 14.1 184.4 14.1 184.5 14.5 C 186.7 15.4 187.9 15.5 189.1 16.3 C 189.0 16.1 190.0 16.4 190.8 16.7 C 190.5 16.8 190.0 16.7 189.5 16.7 C 190.6 17.1 190.7 17.3 191.6 17.6 C 192.8 17.4 193.9 18.8 194.8 18.6 C 196.2 19.2 195.9 19.3 197.0 19.9 C 197.1 19.8 197.2 19.7 197.6 19.9 C 196.8 19.5 196.1 19.4 195.8 18.9 C 197.7 19.8 192.6 16.6 195.8 17.8 C 195.8 18.0 195.4 18.0 196.1 18.4 C 197.8 19.1 196.9 18.4 196.2 18.1 C 197.4 18.5 198.5 19.2 197.8 18.5 C 200.4 19.7 198.7 19.1 199.4 19.7 C 203.8 21.9 208.4 25.1 211.0 29.2 C 211.3 29.2 212.4 31.5 212.5 32.3 C 213.3 33.4 213.7 34.7 213.4 35.1 C 213.8 35.3 213.5 36.6 213.7 36.7 C 213.7 36.2 213.8 35.8 213.9 36.4 C 213.9 38.2 213.4 40.8 213.2 41.9 C 212.7 42.4 212.4 43.6 212.1 44.4 C 211.9 44.4 212.2 43.8 211.9 44.3 C 211.9 44.5 211.1 46.1 210.7 46.4 C 211.1 45.9 211.2 45.3 210.7 45.9 C 210.8 46.0 210.2 46.8 210.5 46.7 C 209.7 47.6 209.3 48.2 208.5 48.9 C 209.1 48.2 209.3 47.8 209.3 47.6 C 208.9 48.2 208.6 48.7 208.0 48.9 C 208.4 49.1 207.4 49.8 206.5 50.8 C 206.1 50.9 205.9 51.0 205.0 51.6 C 204.7 52.1 206.5 50.8 205.6 51.6 C 205.5 51.5 204.5 52.1 204.9 52.1 C 203.6 52.9 203.0 53.5 201.8 54.0 C 203.3 53.2 202.0 53.6 201.7 53.8 C 201.4 54.0 200.9 54.2 200.9 54.3 C 201.0 54.4 201.7 53.9 201.8 54.0 C 200.8 54.5 200.7 55.0 200.2 55.0 C 200.7 54.8 200.7 54.6 200.1 54.9 C 200.2 55.3 197.0 56.7 198.0 56.0 C 198.0 56.1 199.2 55.4 199.3 55.3 C 198.9 55.4 197.1 56.4 197.4 56.0 C 198.4 55.4 198.5 55.6 199.6 54.9 C 199.7 54.7 200.3 54.2 200.7 53.9 C 198.9 55.0 198.6 55.5 198.2 55.3 C 197.3 55.8 198.0 55.8 196.5 56.5 C 194.3 57.5 196.0 56.4 195.4 56.6 C 193.5 57.6 194.2 57.7 195.2 57.5 C 193.6 58.2 193.2 58.6 191.1 59.3 C 191.2 59.2 191.4 59.0 192.1 58.6 C 192.2 58.6 193.9 58.1 193.7 58.0 C 193.4 57.7 192.0 58.2 189.8 59.0 C 190.4 59.1 190.5 58.9 188.1 59.8 C 188.7 60.0 187.0 60.2 187.0 60.4 C 187.2 60.5 188.0 60.1 188.8 59.8 C 188.8 60.0 188.5 60.2 187.8 60.6 C 187.2 60.6 186.9 60.9 185.4 61.3 C 185.2 61.2 186.3 60.8 186.4 60.5 C 185.6 60.8 185.5 61.0 184.7 61.3 C 183.9 61.3 183.9 61.0 183.8 60.7 C 184.7 60.3 186.2 59.8 185.0 60.0 C 188.4 58.8 184.9 60.4 186.2 60.0 C 187.6 59.2 187.0 59.9 189.1 59.0 C 189.7 58.8 189.9 58.6 190.1 58.4 C 190.0 58.5 188.7 58.7 190.0 58.2 C 190.4 58.2 191.2 58.0 192.2 57.6 C 192.2 57.5 190.0 58.3 192.1 57.4 C 193.2 56.9 192.4 57.6 193.8 57.0 C 193.7 56.9 194.1 56.7 194.2 56.6 C 192.2 57.6 194.5 56.3 193.1 56.8 C 194.8 55.9 193.5 56.9 194.6 56.3 C 194.6 56.2 196.5 55.6 196.4 55.3 C 195.8 55.7 194.4 56.3 194.5 56.0 C 195.8 55.5 200.8 52.5 199.1 53.9 C 199.7 53.4 202.8 51.0 202.7 51.3 C 201.7 51.9 201.9 52.0 201.8 52.3 C 203.5 50.8 204.4 50.3 205.7 48.7 C 204.0 50.2 205.1 48.8 203.9 49.5 C 203.4 49.9 202.7 50.3 202.6 50.5 C 203.0 50.6 203.7 49.9 203.9 49.5 C 204.1 49.7 204.2 49.9 204.3 50.0 C 202.1 51.5 200.9 52.5 199.6 53.1 C 200.7 52.5 197.5 54.0 198.7 53.2 C 199.3 53.1 200.5 52.4 201.5 51.8 C 201.4 51.7 201.4 51.7 201.4 51.6 C 201.8 51.3 202.4 50.9 202.3 50.8 C 201.1 51.7 200.3 52.0 199.4 52.7 C 199.4 52.7 199.3 52.6 199.3 52.6 C 199.1 52.7 198.9 52.8 198.9 52.7 C 199.4 52.5 200.0 52.1 200.0 52.0 C 199.0 52.5 198.7 52.4 197.5 53.1 C 197.6 52.7 195.9 53.3 197.6 52.2 C 198.0 52.3 198.9 51.8 199.0 52.0 C 199.5 51.8 200.4 51.1 200.8 50.7 C 200.2 50.9 199.3 51.4 199.1 51.2 C 199.8 50.7 200.3 50.3 200.9 50.2 C 199.5 51.3 201.8 49.8 202.5 49.6 C 202.3 49.6 201.9 49.8 201.6 49.8 C 202.7 49.1 203.3 48.9 203.1 48.5 C 204.2 47.5 204.2 47.9 204.9 47.3 C 204.2 47.5 205.3 46.7 204.6 46.9 C 205.7 45.8 205.1 46.8 205.5 46.4 C 205.9 46.1 205.8 46.0 206.1 45.6 C 206.7 45.2 207.5 44.2 207.8 44.3 C 208.1 43.8 208.3 43.8 208.5 43.4 C 208.5 43.2 208.5 43.0 208.6 42.8 C 208.7 42.7 209.0 42.5 208.9 42.3 C 208.0 43.4 208.2 43.0 207.0 44.1 C 207.1 44.2 206.9 44.4 207.2 44.2 C 206.6 45.1 206.3 45.3 205.6 46.0 C 205.3 46.0 205.0 45.9 204.4 46.7 C 204.4 46.4 204.2 46.5 204.4 46.2 C 204.9 45.9 205.4 45.5 205.9 45.1 C 205.9 45.0 205.7 45.0 205.9 44.7 C 206.2 44.5 206.6 44.2 206.7 43.8 C 206.8 43.9 206.8 44.0 206.8 44.2 C 207.7 43.1 207.1 43.3 207.8 42.6 C 207.5 42.6 207.2 43.2 207.4 42.6 C 207.8 41.9 208.0 41.8 208.2 41.4 C 208.2 41.3 208.1 41.3 208.2 41.1 C 208.5 40.7 208.0 42.5 208.8 41.7 C 208.6 41.5 209.0 40.6 209.2 40.6 C 209.3 40.9 208.8 41.4 209.0 41.5 C 209.7 39.8 209.5 41.6 210.0 39.8 C 209.9 39.8 209.8 39.7 209.7 39.7 C 209.6 40.4 209.4 40.4 209.1 40.3 C 208.9 40.9 208.6 41.0 208.5 41.6 C 208.2 41.2 208.7 41.1 208.9 40.5 C 208.7 40.4 208.5 40.9 208.2 40.9 C 209.0 39.7 208.7 39.4 209.1 38.1 C 208.8 38.4 209.1 37.4 208.9 37.5 C 209.0 38.6 208.3 38.1 208.2 38.2 C 208.1 38.9 208.6 38.6 208.7 39.1 C 208.4 39.2 208.3 39.1 208.0 39.0 C 208.2 38.4 208.1 38.5 208.0 38.0 C 208.2 37.7 208.7 37.3 208.8 37.9 C 208.8 37.8 208.6 37.0 208.8 36.9 C 208.8 37.7 208.9 36.8 209.1 37.3 C 209.2 36.6 208.7 35.6 208.6 34.7 C 208.5 34.9 208.4 34.6 208.2 34.7 C 208.8 35.3 208.3 35.6 208.4 36.3 C 208.3 36.0 208.2 36.2 208.1 36.4 C 208.2 35.7 207.8 35.4 207.9 34.8 C 207.8 34.8 207.7 34.9 207.6 34.9 C 207.5 34.0 207.4 34.1 206.9 33.5 C 206.9 33.2 207.4 33.4 207.7 33.3 C 207.4 33.1 206.7 31.8 206.9 32.7 C 206.4 31.9 206.9 31.9 206.2 31.2 C 206.0 31.3 206.6 32.0 206.1 31.9 C 205.6 31.3 206.1 31.5 205.5 31.0 C 205.6 30.9 205.8 30.7 205.2 30.1 C 205.5 30.7 205.1 30.1 204.8 30.0 C 205.0 30.4 205.2 30.6 205.3 30.8 C 204.4 29.7 204.1 29.5 203.0 28.6 C 203.6 28.7 203.1 28.2 203.8 28.7 C 203.1 28.3 202.4 27.3 201.9 27.1 C 202.3 27.5 203.0 28.1 203.2 28.4 C 201.0 26.7 199.4 26.0 196.9 24.2 C 197.4 24.4 198.0 24.8 198.1 24.8 C 197.8 24.6 197.3 24.3 197.4 24.3 C 198.3 24.8 199.2 25.3 199.6 25.6 C 200.3 26.1 199.1 25.4 199.8 26.0 C 200.1 25.9 201.4 27.0 201.0 26.4 C 199.7 25.7 198.5 24.7 198.0 24.0 C 196.4 23.6 197.8 24.3 196.0 23.9 C 196.1 23.8 195.8 23.5 195.3 23.3 C 195.6 23.8 193.7 22.6 193.5 22.5 C 194.4 22.8 197.2 24.1 195.9 23.0 C 196.3 23.9 192.6 21.2 193.2 22.0 C 191.2 21.2 192.1 21.2 190.8 20.9 C 190.8 20.8 191.0 20.8 190.4 20.5 C 189.8 20.3 189.6 20.3 189.3 20.2 C 192.3 21.6 191.3 21.5 193.0 22.4 C 192.7 22.3 192.4 22.1 192.5 22.2 C 192.5 22.3 192.4 22.3 192.0 22.1 C 192.0 21.7 190.5 21.5 190.2 21.1 C 190.7 21.3 191.3 21.6 191.2 21.4 C 188.7 20.4 189.4 20.3 185.6 18.7 C 186.7 19.3 185.2 18.8 183.8 18.4 C 182.9 18.0 182.6 17.8 182.3 17.6 C 181.9 17.4 181.1 17.0 180.4 16.8 C 180.3 17.4 179.0 16.3 177.2 16.2 C 177.5 15.9 175.3 15.2 174.8 15.4 C 174.8 15.2 174.0 15.1 173.4 14.9 C 173.3 14.7 174.0 14.8 173.5 14.7 C 173.0 14.6 173.4 15.0 172.7 14.8 C 171.9 14.5 172.1 14.3 171.0 14.0 C 170.9 14.2 171.5 14.3 170.9 14.4 C 169.9 14.0 168.9 13.8 169.7 14.2 C 168.2 13.9 169.0 13.6 167.6 13.3 C 168.0 13.5 167.9 13.6 167.2 13.5 C 166.7 13.2 166.6 13.1 166.5 12.9 C 166.0 13.0 166.1 13.1 164.9 12.8 C 164.9 12.9 164.9 13.0 164.9 13.1 C 164.3 12.9 163.5 12.8 163.3 12.7 C 164.4 13.0 164.1 12.7 164.5 12.7 C 163.5 12.4 161.5 11.8 163.0 12.4 C 161.5 12.2 162.3 12.0 161.1 11.8 C 161.8 12.2 161.1 11.9 159.9 11.7 C 160.0 12.0 159.1 11.6 158.3 11.5 C 158.4 11.7 158.2 11.8 157.5 11.7 C 157.5 11.5 157.1 11.4 156.3 11.3 C 156.3 11.4 157.9 11.8 156.3 11.6 C 155.5 11.3 155.5 11.0 154.3 10.8 C 154.1 10.5 155.5 10.9 155.2 10.6 C 154.1 10.6 153.8 10.4 152.3 10.1 C 152.9 10.7 149.2 10.3 151.0 10.7 C 150.5 10.7 149.7 10.9 149.3 10.6 C 149.9 10.6 148.9 10.3 149.0 10.2 C 148.2 10.2 146.6 9.8 146.5 10.0 C 148.1 10.1 148.0 10.3 148.5 10.6 C 146.2 10.4 144.2 10.0 144.4 9.8 C 144.4 9.9 144.0 9.8 143.9 9.9 C 144.8 10.0 145.2 10.4 144.3 10.3 C 144.5 10.1 143.8 10.0 143.1 9.8 C 143.0 10.0 140.0 9.4 140.5 9.8 C 141.8 9.7 142.7 10.2 141.8 10.2 C 141.0 9.9 139.3 9.6 139.7 9.5 C 139.3 9.5 138.8 9.5 138.4 9.6 C 138.0 9.8 139.0 9.8 138.8 10.0 C 138.2 9.9 137.2 9.9 137.1 9.8 C 138.8 9.9 136.2 9.5 138.0 9.5 C 136.9 9.4 136.7 9.3 135.9 9.2 C 135.8 9.2 135.5 9.2 135.4 9.3 C 136.2 9.2 136.9 9.4 136.7 9.6 C 135.1 9.5 135.4 9.3 134.1 9.2 C 133.7 9.3 131.9 9.5 131.1 9.3 C 132.8 9.4 130.9 9.1 132.0 9.1 C 133.5 9.4 134.0 9.1 134.6 9.0 C 133.9 8.8 132.6 8.6 132.4 8.9 C 133.2 9.0 133.3 8.8 133.7 8.8 C 133.7 9.0 133.4 9.1 132.8 9.1 C 132.1 8.8 130.5 8.9 131.6 8.7 C 130.5 8.7 129.3 8.4 128.1 8.5 C 129.4 8.6 130.3 8.8 130.7 9.0 C 129.6 9.0 128.6 8.7 128.5 8.9 C 128.6 9.1 130.3 9.1 130.6 9.3 C 129.3 9.5 127.2 8.7 128.9 9.3 C 128.1 9.2 127.1 9.1 126.7 9.0 C 127.7 9.0 126.7 8.6 126.3 8.6 C 125.5 8.5 124.8 8.5 124.5 8.6 C 125.8 8.6 126.7 9.0 125.9 8.9 C 125.6 8.8 125.4 8.9 125.0 9.0 C 124.9 8.8 123.5 8.9 123.3 8.7 C 123.3 8.8 124.0 8.9 124.1 9.0 C 123.3 9.0 122.1 9.3 121.5 9.0 C 122.0 9.0 122.7 9.0 122.8 8.9 C 120.5 8.5 119.8 8.2 117.1 7.9 C 117.4 7.9 117.6 7.9 117.5 7.8 C 115.8 7.7 114.7 7.6 114.9 7.4 C 113.8 7.4 113.3 7.6 112.7 7.7 C 113.8 7.8 114.2 7.6 114.9 7.8 C 114.5 7.9 115.8 8.3 116.2 8.5 C 118.1 8.3 118.2 8.7 120.2 8.6 C 119.6 8.8 121.6 8.7 121.0 9.0 C 119.2 8.5 117.5 8.7 114.9 8.5 C 115.2 8.3 115.5 8.2 114.5 8.0 C 112.8 7.9 113.6 8.2 112.2 8.2 C 111.7 8.0 112.5 7.9 111.8 7.8 C 111.3 7.9 110.0 7.9 109.6 7.7 C 111.4 7.7 109.2 7.5 110.5 7.3 C 109.9 7.3 109.5 7.3 109.1 7.3 C 110.9 7.6 107.3 7.6 108.7 7.8 C 106.2 7.9 108.5 7.2 106.5 7.3 C 107.5 7.4 106.2 7.6 104.7 7.5 C 104.3 7.3 102.8 7.3 101.6 7.2 C 102.2 7.3 102.7 7.3 101.6 7.5 C 102.2 7.6 103.2 7.6 103.8 7.5 C 103.8 7.6 104.0 7.6 104.3 7.7 C 102.8 7.8 103.4 7.9 102.9 7.9 C 102.5 7.8 101.4 7.9 101.2 7.7 C 101.2 7.8 100.8 7.8 100.7 7.9 C 102.6 7.9 100.4 8.3 101.6 8.3 C 102.4 8.3 101.9 8.0 102.9 8.0 C 103.9 8.3 102.1 8.4 101.6 8.6 C 102.5 8.8 103.5 8.4 103.8 8.7 C 102.7 9.0 100.9 8.9 99.4 8.8 C 99.5 9.2 97.0 8.8 96.8 9.2 C 96.6 9.1 96.3 9.1 95.9 9.0 C 95.5 9.3 95.0 9.0 94.6 9.0 C 94.6 9.1 94.7 9.2 95.0 9.3 C 93.2 9.2 92.8 9.3 90.7 9.5 C 90.3 9.4 89.9 9.3 89.8 9.1 C 90.3 9.0 90.7 8.9 91.1 8.8 C 88.2 9.0 90.1 9.5 88.0 9.3 C 88.1 9.4 89.5 9.6 88.5 9.7 C 86.6 9.5 84.1 10.0 84.1 9.3 C 82.5 9.2 81.5 9.7 80.7 9.5 C 80.2 9.5 80.0 9.6 79.8 9.7 C 80.3 9.8 81.0 9.9 81.6 10.0 C 82.5 9.8 83.0 10.0 82.0 9.7 C 83.4 9.5 83.8 9.7 84.6 9.7 C 82.6 10.1 80.8 10.0 80.8 10.4 C 80.1 10.3 79.6 10.2 79.0 10.0 C 78.8 10.2 76.6 10.5 76.4 10.3 C 77.9 10.2 79.4 9.8 78.1 9.7 C 74.5 10.3 72.4 10.0 69.3 10.7 C 69.2 10.6 69.4 10.4 68.8 10.5 C 68.9 10.6 68.8 10.7 68.4 10.8 C 67.5 10.9 66.9 10.9 65.6 11.1 C 65.6 10.9 65.4 10.8 64.7 10.8 C 64.3 11.1 63.1 11.8 62.3 11.8 C 63.1 11.7 62.0 11.5 61.5 11.6 C 62.0 11.9 57.9 11.9 59.1 12.1 C 57.5 12.4 56.8 12.4 56.7 12.3 C 56.1 12.4 55.7 12.6 55.2 12.7 C 54.8 12.4 52.1 13.2 51.7 13.2 C 52.6 13.1 52.7 12.7 52.0 12.9 C 51.5 13.1 49.1 13.9 48.7 13.9 C 48.8 13.8 48.9 13.5 50.1 13.2 C 48.1 13.6 48.2 13.9 47.6 14.3 C 47.6 14.0 46.7 14.5 46.5 14.6 C 45.8 14.6 46.5 14.5 46.4 14.3 C 45.7 14.4 45.4 14.3 44.5 14.5 C 44.9 14.7 43.8 14.9 43.5 14.9 C 43.4 15.1 42.9 15.3 42.1 15.6 C 43.1 14.9 37.6 16.4 39.0 16.3 C 37.9 16.8 37.8 16.4 36.5 16.8 C 36.3 17.0 35.5 17.2 36.2 17.1 C 35.7 17.3 35.1 17.4 34.8 17.5 C 34.6 17.5 34.2 17.5 33.1 18.0 C 34.2 17.9 30.9 18.7 31.6 18.9 C 30.5 18.8 29.0 19.9 27.2 20.3 C 27.2 20.3 26.8 20.5 26.7 20.6 C 26.5 20.8 28.8 20.0 27.3 20.6 C 25.5 21.2 26.5 20.7 26.2 20.7 C 21.6 22.7 17.1 25.1 14.2 27.3 C 14.6 27.1 14.6 27.2 14.1 27.7 C 13.0 27.9 10.5 30.7 10.3 31.2 C 9.9 31.3 9.2 32.7 8.9 32.9 C 9.1 32.6 9.2 32.0 8.9 32.5 C 8.9 33.1 8.5 33.4 8.5 34.0 C 8.1 34.1 7.8 35.8 7.6 34.9 C 7.5 35.2 7.4 35.4 7.3 35.5 C 7.6 35.6 7.5 35.9 7.8 35.4 C 7.2 36.7 7.4 37.1 7.3 38.1 C 7.4 38.3 7.5 37.5 7.6 38.1 C 7.5 38.1 7.5 38.1 7.4 38.1 C 7.4 38.4 7.6 38.4 7.5 38.5 C 7.3 38.5 7.3 38.2 7.0 38.2 C 7.2 38.7 6.9 39.1 7.2 39.2 C 7.1 38.5 7.6 38.9 7.4 39.4 C 7.2 39.0 8.0 41.1 8.4 41.7 C 8.3 42.2 8.0 41.0 7.9 41.2 C 8.5 42.4 8.4 42.4 8.8 42.4 C 9.1 43.1 9.1 43.5 9.9 44.2 C 10.2 44.8 9.5 44.0 9.9 44.6 C 10.2 44.8 10.4 44.9 10.9 45.3 C 11.6 46.9 15.7 49.1 17.6 51.2 C 16.8 50.5 18.0 51.1 19.3 51.8 C 19.3 52.0 19.1 52.0 19.6 52.3 C 19.6 52.1 20.1 52.2 21.0 52.7 C 21.0 52.8 20.8 52.9 21.3 53.1 C 21.8 53.1 22.8 53.9 23.6 54.1 C 23.8 54.5 21.9 53.4 21.7 53.5 C 23.9 54.8 24.5 54.7 26.4 55.7 C 25.4 55.3 27.1 56.2 27.4 56.4 C 27.0 56.0 28.7 56.5 27.6 55.9 C 28.3 56.2 29.6 56.6 29.7 56.8 C 29.2 56.6 28.6 56.4 28.5 56.4 C 29.5 56.8 30.8 57.5 31.3 57.5 C 30.6 57.2 30.2 57.0 30.3 56.8 C 30.6 56.8 30.9 56.9 31.5 57.0 C 29.7 57.0 34.6 58.4 34.9 58.4 C 35.3 58.9 35.6 59.0 35.4 59.1 C 37.5 59.8 36.7 59.3 37.4 59.4 C 37.2 59.6 36.8 59.7 37.9 60.2 C 37.8 59.8 39.1 60.3 38.8 59.8 C 41.7 60.5 42.3 61.0 44.1 61.5 C 44.1 61.4 43.6 61.2 44.1 61.3 C 44.9 61.6 45.7 61.9 46.2 62.2 C 46.7 62.1 46.1 61.9 46.7 61.9 C 48.0 62.5 47.6 62.7 48.8 63.2 C 50.3 63.3 49.7 63.3 50.7 63.3 C 50.3 63.2 49.8 62.9 50.4 63.0 C 51.2 63.4 51.6 63.8 51.8 63.9 C 51.1 63.8 50.6 63.6 50.3 63.5 C 50.0 63.6 49.1 63.4 49.8 63.7 C 48.9 63.4 47.8 63.2 46.4 62.9 C 46.8 63.2 45.2 62.6 45.6 63.0 C 47.2 63.3 47.5 63.6 49.0 63.9 C 48.7 63.5 50.2 64.0 50.5 64.1 C 50.6 64.0 51.6 64.2 51.4 64.0 C 52.5 64.2 52.5 64.3 53.7 64.5 C 53.7 64.6 53.5 64.7 54.0 64.8 C 54.5 64.6 54.8 65.1 55.2 65.1 C 55.0 64.8 56.7 65.3 56.8 65.1 C 56.3 65.0 55.7 64.9 55.6 64.8 C 57.5 65.2 56.1 64.7 55.7 64.4 C 55.8 64.5 55.0 64.7 54.9 64.5 C 56.5 64.6 52.7 63.7 54.2 64.0 C 55.4 64.3 55.3 64.1 56.5 64.4 C 57.9 65.1 56.1 65.0 57.6 65.6 C 58.5 65.6 59.1 65.7 59.2 65.5 C 59.4 65.7 59.6 65.8 60.0 65.9 C 60.4 65.8 58.8 65.4 60.0 65.6 C 60.6 65.7 59.9 66.0 61.2 66.1 C 61.8 66.0 59.7 65.6 60.8 65.7 C 62.0 66.3 60.6 65.6 62.1 65.8 C 62.2 65.8 62.4 65.9 62.9 66.0 C 62.9 66.1 62.7 66.2 63.2 66.3 C 63.6 66.0 63.8 66.6 64.9 66.7 C 65.5 66.5 63.8 66.3 64.1 66.1 C 65.3 66.6 66.1 66.4 66.6 66.5 C 65.5 66.6 68.1 66.9 68.2 67.1 C 67.9 66.8 68.5 67.0 69.9 66.9 C 70.0 67.4 71.6 67.3 72.0 67.7 C 72.2 67.6 72.6 67.5 72.8 67.5 C 72.3 67.4 71.8 67.3 72.0 67.2 C 72.4 67.2 72.8 67.3 73.3 67.3 C 74.0 67.6 72.1 67.9 74.9 68.2 C 74.6 67.8 75.8 67.9 76.6 67.9 C 76.6 67.6 75.5 67.8 75.4 67.6 C 76.4 67.5 77.4 67.8 77.9 68.0 C 79.6 68.0 81.6 68.4 84.0 68.4 C 84.6 68.7 82.0 68.5 83.6 68.7 C 84.3 68.8 83.9 68.5 84.9 68.7 C 83.9 69.6 91.4 69.3 91.9 69.7 C 92.2 69.5 94.3 69.8 94.1 69.4 C 92.7 69.6 91.7 69.2 91.0 69.0 C 89.7 69.1 92.2 69.4 91.0 69.4 C 90.9 69.2 89.1 69.2 89.3 69.0 C 91.1 69.1 88.3 68.7 89.7 68.6 C 91.5 68.7 95.0 68.6 94.1 68.9 C 94.1 68.8 93.4 68.7 93.3 68.8 C 95.2 69.0 96.4 68.9 97.2 68.7 C 98.1 69.0 101.7 68.7 100.8 68.8 C 101.1 69.1 98.7 68.7 99.0 69.0 C 102.7 69.2 102.8 69.0 105.2 69.2 C 104.4 68.9 107.8 68.7 107.5 68.9 C 107.5 69.1 108.2 69.3 109.7 69.0 C 109.5 69.3 110.2 69.3 111.0 69.4 C 111.4 69.2 110.4 69.2 110.5 69.0 C 111.3 69.0 112.1 69.0 112.8 69.0 C 112.8 69.1 112.7 69.2 113.2 69.2 C 114.0 69.1 117.0 68.8 116.8 68.9 C 115.5 69.3 118.8 69.1 116.8 69.4 C 117.3 69.4 117.4 69.5 118.1 69.4 C 118.1 69.3 118.1 69.2 118.1 69.1 C 119.8 69.0 119.0 69.5 120.3 69.4 C 120.5 69.3 121.1 69.3 121.2 69.2 C 120.7 69.2 120.6 69.3 119.9 69.3 C 120.7 68.9 118.4 69.1 118.5 68.9 C 120.1 68.8 120.1 69.0 120.8 69.1 C 122.7 68.9 121.8 69.0 123.9 69.0 C 123.9 68.9 123.3 68.9 123.4 68.7 C 125.9 68.7 125.7 69.2 127.4 68.9 C 127.0 69.0 125.5 69.3 126.5 69.2 C 127.7 69.0 128.0 68.8 129.6 68.6 C 129.7 68.7 129.5 68.9 130.0 68.8 C 130.7 68.7 130.7 68.5 131.3 68.4 C 131.4 68.5 132.3 68.3 132.6 68.3 C 133.2 68.4 132.4 68.5 133.1 68.6 C 134.4 68.4 135.0 67.8 136.1 67.8 C 136.0 68.1 137.2 67.9 138.3 67.8 C 138.5 68.1 140.7 67.8 142.1 67.7 C 141.8 67.5 143.3 67.4 142.9 67.2 C 142.2 67.3 141.8 67.3 141.6 67.2 C 143.3 67.0 143.9 67.4 145.0 66.9 C 145.7 67.0 146.5 67.0 147.6 67.0 C 147.7 66.8 145.6 67.0 146.7 66.8 C 146.8 66.9 147.2 66.8 147.5 66.7 C 147.4 67.0 148.3 66.9 148.9 67.0 C 149.8 66.7 151.9 66.7 150.9 66.5 C 152.4 66.3 151.5 66.8 152.6 66.7 C 152.0 66.4 154.0 66.1 153.0 66.1 C 154.5 65.8 154.5 66.2 153.8 66.4 C 155.3 66.3 155.6 66.0 156.3 66.0 C 155.6 65.9 157.7 65.4 156.6 65.7 C 156.3 66.0 158.0 65.6 158.3 65.7 C 157.8 65.6 158.5 65.5 157.5 65.5 C 158.5 65.3 160.0 65.0 161.1 65.0 C 162.3 64.6 163.5 64.4 163.0 64.7 C 164.2 64.4 163.8 64.5 165.0 64.3 C 165.0 64.3 164.6 64.3 164.5 64.3 C 166.2 63.9 165.9 64.2 168.0 63.7 C 167.9 64.0 169.2 63.7 169.7 63.8 C 168.8 64.0 168.1 64.1 167.3 64.2 C 167.2 64.3 167.9 64.2 167.4 64.4 C 167.3 64.3 166.9 64.4 166.6 64.4 C 168.0 64.3 164.9 65.2 165.9 64.7 C 165.9 64.8 165.9 64.8 166.2 64.7 C 165.9 64.5 166.0 64.6 166.2 64.3 C 165.5 64.6 164.8 64.4 164.6 64.7 C 164.7 64.8 165.4 64.6 165.4 64.7 C 163.7 65.2 164.9 64.5 163.5 64.8 C 163.2 65.1 164.0 65.1 164.3 65.1 C 163.0 65.4 161.9 65.6 161.5 65.5 C 160.4 65.8 161.7 65.7 160.8 66.0 C 160.4 65.9 160.4 65.7 159.6 65.9 C 158.7 66.1 160.1 66.0 159.2 66.2 C 158.2 66.2 159.8 65.7 158.3 65.9 C 158.7 66.2 157.0 66.1 157.1 66.3 C 158.0 66.1 158.1 66.5 157.6 66.3 C 155.6 66.3 154.3 67.4 152.3 67.1 C 152.3 67.2 152.0 67.3 151.9 67.4 C 153.4 67.3 155.6 67.0 156.1 67.3 C 157.2 67.0 157.0 66.8 157.2 66.7 C 158.6 66.8 158.5 66.8 157.8 67.3 C 155.4 67.8 154.4 67.7 152.8 67.9 C 152.0 68.2 152.9 68.0 153.3 68.1 C 148.4 68.5 152.2 68.7 150.4 68.9 C 150.4 68.7 150.1 68.7 149.6 68.7 C 149.6 68.9 148.8 68.9 148.7 69.0 C 149.1 69.0 149.2 69.0 149.2 69.1 C 147.9 69.4 148.4 69.0 148.3 68.9 C 149.2 68.8 149.8 68.7 149.9 68.5 C 148.7 68.8 147.8 68.7 147.0 69.1 C 145.8 68.9 147.5 68.3 146.9 68.1 C 147.1 67.9 146.2 68.8 145.3 69.1 C 143.8 69.2 143.8 69.5 142.3 69.6 C 141.9 69.4 143.7 69.4 143.6 69.2 C 143.2 69.2 143.1 69.2 142.7 69.2 C 141.7 69.3 141.8 69.5 141.0 69.7 C 140.6 69.5 140.3 69.7 139.8 69.8 C 138.8 69.8 140.3 69.6 139.3 69.6 C 138.2 69.7 137.5 70.1 137.2 70.1 C 137.1 70.0 137.2 69.8 136.7 69.9 C 135.5 70.1 135.2 70.2 136.7 70.2 C 135.4 70.3 134.8 70.4 135.0 70.7 C 137.1 70.5 137.6 70.4 138.5 70.7 C 138.9 70.4 139.5 70.5 140.3 70.5 C 139.8 70.1 141.1 70.4 141.5 70.1 C 141.0 70.1 140.5 70.1 140.2 70.1 C 142.4 69.9 142.3 69.9 144.0 69.4 C 144.0 69.5 144.3 69.5 144.5 69.5 C 143.9 69.7 142.4 69.8 142.4 70.0 C 143.6 70.2 144.0 69.7 145.4 69.8 C 145.9 69.6 144.2 69.7 145.4 69.5 C 145.9 69.6 146.6 69.7 147.5 69.7 C 148.4 69.5 148.8 69.3 149.6 69.1 C 149.7 69.2 149.8 69.3 150.5 69.2 C 150.4 69.1 149.7 69.1 150.4 69.0 C 152.7 69.0 154.2 69.0 156.3 68.5 C 155.5 68.5 153.7 68.5 154.6 68.4 C 155.6 68.4 156.8 67.9 157.9 68.0 C 158.2 68.0 156.7 68.1 157.1 68.4 C 158.0 68.2 158.6 68.2 159.1 68.1 C 159.1 68.0 160.2 67.9 159.9 67.7 C 159.1 67.8 158.9 68.1 158.7 68.1 C 159.3 67.3 161.7 67.8 163.2 67.5 C 164.1 67.2 162.4 67.4 163.5 67.1 C 164.2 66.9 164.7 67.3 163.6 67.6 C 162.8 67.7 162.6 68.0 162.4 67.8 C 162.1 67.9 161.6 67.9 161.6 68.0 C 162.2 67.9 162.1 68.1 162.4 68.1 C 161.7 68.2 161.6 68.7 160.9 68.6 C 161.3 68.5 161.5 68.4 161.7 68.3 C 159.5 68.7 158.8 68.6 157.6 68.7 C 158.3 68.8 157.5 68.9 157.6 69.1 C 158.6 68.8 160.4 68.7 159.3 68.9 C 158.5 68.8 158.0 69.6 157.3 69.4 C 157.8 69.3 157.7 69.2 158.0 69.1 C 157.2 69.2 157.2 69.0 156.3 69.1 C 153.7 69.9 151.6 69.6 147.2 70.7 C 145.7 70.9 148.6 70.4 148.5 70.2 C 148.0 70.2 147.9 70.2 147.6 70.2 C 147.6 70.5 146.8 70.3 146.3 70.6 C 146.4 70.4 144.3 70.8 143.3 70.7 C 143.3 70.8 143.4 70.9 142.9 71.0 C 139.7 71.0 134.0 72.0 131.5 71.9 C 131.6 72.1 130.6 72.1 130.3 72.3 C 128.7 72.3 129.4 72.1 127.2 72.5 C 126.0 72.6 127.4 72.3 127.6 72.2 C 124.2 72.5 121.2 72.4 119.1 72.8 C 118.0 72.9 119.1 72.6 116.9 72.6 C 116.8 73.0 113.3 72.5 112.8 72.9 C 111.5 73.0 109.0 72.5 110.1 72.9 C 108.3 72.9 109.5 72.5 108.8 72.5 C 107.5 72.6 109.2 73.1 107.9 73.2 C 108.0 72.9 106.9 73.0 106.1 72.8 C 107.1 72.8 107.8 72.8 107.9 72.6 C 107.0 72.8 107.1 72.6 105.6 72.6 C 104.6 72.8 101.6 72.9 100.7 72.5 C 100.7 72.6 100.9 72.7 101.1 72.8 C 100.3 72.8 99.2 72.5 99.3 72.8 C 97.3 72.8 96.5 72.5 95.3 72.7 C 94.4 72.8 95.6 72.5 93.1 72.4 C 93.0 72.6 88.5 72.3 87.3 72.0 C 87.2 72.4 87.0 72.0 86.4 72.0 C 86.3 72.1 86.5 72.2 85.9 72.2 C 85.9 72.1 85.5 72.1 85.1 72.1 C 85.4 71.8 83.4 72.1 83.3 71.8 C 83.7 71.8 83.7 71.7 83.4 71.6 C 83.2 71.9 81.4 71.3 81.6 71.5 C 82.0 71.7 83.2 71.7 82.9 71.9 C 81.1 71.8 81.8 71.6 80.7 71.5 C 80.8 71.6 81.4 71.7 80.7 71.7 C 79.5 71.5 80.6 71.7 79.8 71.4 C 79.2 71.4 78.0 71.5 77.6 71.4 C 77.7 71.4 77.4 71.2 77.2 71.2 C 75.0 70.9 69.9 70.6 67.8 70.0 C 67.7 70.1 67.2 70.1 67.3 70.2 C 66.1 69.9 66.2 70.0 64.9 69.7 C 64.9 69.8 64.8 69.9 64.8 70.0 C 63.1 69.9 64.7 69.7 63.6 69.5 C 63.4 70.1 63.0 69.3 62.0 69.1 C 61.8 69.2 61.3 69.2 61.5 69.4 C 59.9 69.1 60.1 68.8 58.7 68.7 C 59.0 68.8 59.1 69.6 58.9 69.8 C 58.7 69.6 58.3 69.5 57.7 69.3 C 58.5 69.2 58.2 68.2 56.3 68.2 C 57.3 68.3 57.7 68.5 57.4 68.6 C 56.0 68.4 55.5 68.1 54.2 67.9 C 54.0 68.1 54.9 68.3 54.5 68.5 C 54.2 68.5 54.1 68.5 54.1 68.6 C 52.8 68.3 52.8 68.1 51.3 68.0 C 51.4 67.8 51.7 67.9 52.2 68.1 C 52.1 67.8 52.2 67.7 53.0 67.8 C 53.1 68.0 52.5 68.1 53.8 68.3 C 53.8 68.2 53.8 68.0 53.8 67.9 C 53.0 67.7 50.9 67.1 50.7 67.2 C 51.1 67.4 51.8 67.6 51.4 67.7 C 49.9 67.4 49.6 67.0 48.4 66.6 C 46.3 66.2 42.7 65.3 43.0 65.7 C 41.8 65.3 42.2 65.4 41.2 65.1 C 41.4 65.4 39.9 64.9 40.0 65.1 C 41.3 65.4 40.9 65.4 42.2 65.6 C 42.1 65.8 41.9 65.8 41.4 65.7 C 41.3 65.6 40.8 65.4 40.0 65.2 C 40.1 65.3 40.8 65.7 39.9 65.5 C 39.8 65.4 39.6 65.3 39.2 65.2 C 39.2 65.1 39.2 65.0 39.3 64.8 C 39.8 64.9 40.4 65.0 40.8 65.0 C 40.4 64.9 40.4 64.8 40.1 64.7 C 39.8 64.8 38.4 64.3 38.2 64.4 C 38.8 64.5 39.2 64.8 38.5 64.6 C 38.4 64.6 37.5 64.2 37.1 64.2 C 38.3 64.7 37.8 64.6 38.4 65.0 C 37.0 64.7 37.3 64.4 35.6 64.0 C 35.7 63.8 35.7 63.7 36.1 63.7 C 35.7 63.3 34.9 63.1 33.4 62.6 C 31.9 62.2 30.5 61.8 29.9 61.6 C 30.8 61.9 32.0 62.0 30.6 61.5 C 30.5 61.6 29.5 61.2 29.3 61.2 C 28.7 61.4 29.8 62.1 30.8 62.7 C 29.7 62.3 29.4 62.3 28.4 61.9 C 28.1 61.7 29.3 61.7 28.0 61.2 C 27.6 61.5 25.6 60.3 25.1 60.4 C 26.0 60.7 26.5 61.1 25.6 60.8 C 25.8 60.7 24.0 60.1 24.0 59.9 C 25.5 60.4 26.0 60.3 26.9 60.7 C 25.7 60.2 27.8 60.8 25.9 60.0 C 25.0 59.9 24.4 59.9 22.5 59.1 C 21.9 58.7 22.6 58.8 21.7 58.3 C 21.8 58.7 19.8 57.8 21.1 58.1 C 20.5 57.8 20.1 57.6 19.8 57.4 C 20.6 58.0 16.1 56.1 16.7 56.6 C 16.8 56.3 16.8 55.9 16.6 55.7 C 15.7 55.5 14.8 54.8 12.9 53.5 C 12.8 53.8 12.6 53.3 11.8 52.8 C 11.6 52.8 12.2 53.4 11.7 53.0 C 10.9 52.3 10.9 52.3 10.8 52.0 C 10.2 51.6 9.8 51.2 9.5 50.9 C 9.4 51.0 9.6 51.2 9.7 51.3 C 7.7 49.3 6.6 48.5 5.4 46.8 C 5.8 47.6 6.2 47.5 5.8 47.0 C 5.5 46.6 5.2 46.3 5.0 46.2 C 5.1 46.7 5.1 46.5 4.5 45.6 C 4.0 44.9 4.4 46.1 4.0 45.5 C 3.7 44.8 4.1 45.1 3.9 44.7 C 3.8 44.4 3.6 44.0 3.4 43.7 C 3.6 44.4 3.2 43.8 2.9 43.2 C 3.3 43.5 3.2 43.3 2.7 42.1 C 2.8 42.0 3.1 42.6 3.0 42.1 C 2.9 41.8 2.3 41.0 2.4 40.1 C 2.4 40.4 2.5 40.5 2.6 40.4 C 2.2 39.6 2.5 38.8 2.6 38.0 C 2.4 38.8 2.2 38.4 2.0 38.8 C 2.2 37.9 1.9 37.0 2.3 36.4 C 2.1 37.5 2.8 36.5 2.9 35.8 C 2.6 35.6 2.6 36.8 2.3 36.4 C 2.1 36.0 2.6 35.1 2.5 34.7 C 2.3 34.7 2.4 35.2 2.3 35.3 C 2.4 34.7 2.1 35.5 2.2 35.0 C 2.5 34.7 2.3 34.2 2.4 33.9 C 2.5 33.5 3.2 32.8 3.2 32.3 C 3.1 32.3 2.9 32.9 2.8 32.9 C 3.3 31.1 3.9 30.7 4.7 29.1 C 4.9 28.9 5.1 28.7 5.5 28.3 C 5.4 28.2 5.5 27.9 5.8 27.5 C 6.4 27.0 7.0 26.5 7.8 25.7 C 7.8 26.0 7.5 26.4 8.6 25.4 C 8.6 25.3 8.1 25.7 8.5 25.3 C 8.5 25.3 8.8 25.1 8.8 25.0 C 8.8 25.0 8.8 24.9 8.7 24.9 C 8.4 25.2 8.1 25.5 7.8 25.7 C 7.8 25.6 7.6 25.6 7.3 25.8 C 8.5 24.5 8.8 24.9 9.5 24.0 C 9.9 24.1 10.3 23.9 9.7 24.8 C 10.4 24.1 10.9 23.5 11.0 23.2 C 10.0 24.0 10.2 23.5 9.8 23.6 C 10.5 23.1 10.4 23.0 10.7 22.7 C 11.6 22.3 10.1 23.7 11.7 22.6 C 10.4 23.2 12.5 21.6 13.5 21.1 C 13.2 21.1 12.9 21.3 13.3 20.9 C 15.6 19.3 15.8 20.2 17.2 18.9 C 17.1 19.1 17.9 18.7 18.2 18.6 C 16.9 19.4 16.6 19.6 16.1 20.0 C 16.2 20.0 16.6 19.8 17.0 19.6 C 17.0 19.5 17.3 19.3 17.9 19.1 C 18.2 18.7 17.9 18.5 18.9 17.7 C 19.0 17.8 18.9 18.0 19.5 17.7 C 19.9 17.3 19.2 18.3 21.6 17.1 C 21.1 17.2 20.8 17.2 20.9 16.9 C 22.0 16.3 21.8 16.5 23.4 15.7 C 24.2 15.8 22.5 16.6 22.2 17.1 C 23.2 16.5 24.0 15.9 25.3 15.5 C 24.3 15.8 25.1 15.2 26.2 14.7 C 27.2 14.4 26.2 15.1 27.5 14.7 C 28.4 14.2 28.8 13.9 27.9 14.1 C 30.0 13.4 29.4 13.3 31.3 12.7 C 31.5 12.8 30.9 13.0 30.2 13.2 C 30.3 13.2 30.1 13.4 30.9 13.2 C 32.0 12.5 34.7 11.7 35.5 11.2 C 37.2 11.2 38.9 10.1 40.6 9.9 C 40.0 10.3 42.8 9.4 43.7 9.4 C 44.1 9.2 45.6 8.3 45.1 8.7 C 45.3 9.0 46.3 8.6 47.1 8.5 C 47.1 8.5 47.0 8.4 47.0 8.3 C 48.7 7.9 49.2 8.0 49.8 8.1 C 51.9 7.5 54.3 7.4 56.9 6.6 C 57.7 6.8 58.2 6.6 59.9 6.5 C 59.8 6.3 61.1 6.1 62.3 5.9 C 61.9 5.7 63.1 5.6 63.1 5.5 C 62.0 5.6 62.3 5.3 61.8 5.3 C 63.2 5.3 63.9 4.7 65.1 4.8 C 63.7 5.1 63.3 5.5 63.1 5.9 C 64.8 5.5 65.7 5.5 66.1 5.7 C 66.2 5.5 66.0 5.4 65.6 5.3 C 66.2 5.3 66.7 5.2 67.3 5.1 C 67.4 5.2 66.7 5.4 67.3 5.3 C 67.7 5.2 68.1 5.1 68.5 4.9 C 69.1 5.1 67.9 5.2 67.8 5.4 C 70.0 5.2 69.0 4.8 70.2 4.6 C 70.6 4.7 70.5 5.0 71.6 4.9 C 72.0 4.7 72.1 4.4 73.2 4.3 C 74.0 4.3 73.2 4.7 74.1 4.6 C 74.2 4.5 74.6 4.5 75.0 4.5 C 74.9 4.4 75.3 4.3 75.8 4.2 C 76.0 4.3 76.8 4.1 77.1 4.0 C 77.2 4.2 78.6 4.3 78.9 4.1 C 78.9 4.0 78.1 4.1 78.0 4.0 C 79.0 4.0 79.7 3.9 80.2 3.8 C 80.5 4.3 82.1 3.7 84.1 3.8 C 85.4 3.6 83.9 3.4 85.4 3.2 C 86.4 3.3 85.2 3.4 85.5 3.7 C 85.7 3.7 87.2 3.8 87.2 3.5 C 87.2 3.4 86.5 3.5 86.4 3.4 C 87.5 3.1 87.5 3.4 88.1 3.5 C 88.0 3.3 88.8 3.2 89.0 3.0 C 92.2 2.7 92.2 3.2 93.5 3.3 C 93.5 3.2 94.3 3.2 94.3 3.1 C 93.4 3.2 92.2 3.1 93.5 3.0 C 93.3 3.1 95.1 2.9 95.2 2.8 C 95.0 2.7 93.8 2.8 94.3 2.5 C 96.0 2.4 95.3 2.9 96.6 2.6 C 96.7 2.8 96.0 2.8 95.7 2.9 C 96.2 2.9 97.0 2.8 97.0 2.9 C 96.4 3.0 96.4 3.2 96.1 3.3 C 97.0 3.1 98.6 3.3 97.5 3.0 C 99.3 3.0 101.0 2.8 99.7 2.6 C 101.2 2.5 100.4 2.9 101.5 2.6 C 101.4 2.9 101.0 3.1 102.0 3.3 C 102.2 3.1 103.0 3.0 102.9 2.8 C 105.0 2.8 105.6 3.1 106.5 3.3 C 105.7 2.9 106.8 3.2 107.8 3.0 C 108.5 3.1 107.9 3.4 109.6 3.3 C 107.7 2.9 111.8 3.2 111.0 2.8 C 113.2 3.0 113.2 3.0 115.5 3.1 C 115.3 3.3 114.7 3.4 113.7 3.4 C 114.4 3.2 111.7 3.2 111.9 3.3 C 111.9 3.4 111.9 3.4 111.9 3.5 C 113.6 3.4 114.7 3.5 115.5 3.7 C 115.8 3.5 116.6 3.4 116.4 3.1 C 118.0 3.5 119.7 3.1 120.4 3.4 C 119.8 3.4 119.3 3.4 119.5 3.6 C 120.1 3.5 120.9 3.5 120.8 3.3 C 119.5 3.2 119.3 3.1 118.6 3.3 C 119.2 3.1 117.3 2.9 118.6 2.9 C 118.6 3.3 121.3 2.8 120.4 3.0 C 119.0 3.1 122.0 3.3 122.1 3.5 C 122.1 3.5 122.1 3.5 122.1 3.5 Z M 156.7 69.0 C 158.0 68.7 156.4 68.7 155.5 68.9 C 155.8 68.9 155.9 69.0 155.9 69.2 C 156.3 69.1 156.7 69.0 156.7 69.0 C 156.7 69.0 156.7 69.0 156.7 69.0 Z M 142.9 67.4 C 142.5 67.7 144.6 67.3 145.5 67.2 C 145.2 67.2 144.9 67.2 145.5 67.1 C 144.5 67.0 144.3 67.4 142.9 67.4 C 142.9 67.4 142.9 67.4 142.9 67.4 Z M 94.1 69.8 C 94.4 69.8 95.3 69.8 95.4 69.9 C 95.9 69.9 95.8 69.8 95.9 69.7 C 96.9 69.7 95.6 70.0 97.2 69.9 C 97.8 69.5 94.5 69.3 94.1 69.8 C 94.1 69.8 94.1 69.8 94.1 69.8 Z M 105.1 6.8 C 105.8 6.9 104.3 7.1 104.7 7.4 C 107.2 7.2 105.3 6.9 108.7 6.9 C 108.5 6.9 108.2 6.8 108.3 6.7 C 106.6 6.8 106.5 7.0 106.9 6.5 C 106.2 6.6 106.0 7.1 105.1 6.8 C 105.1 6.8 105.1 6.8 105.1 6.8 Z M 136.7 9.1 C 136.5 9.0 136.3 8.9 136.3 8.8 C 135.3 8.8 135.5 8.9 134.2 8.7 C 134.3 9.1 135.6 9.1 136.7 9.1 C 136.7 9.1 136.7 9.1 136.7 9.1 Z M 207.5 34.2 C 207.6 34.4 207.7 34.5 207.7 34.6 C 207.8 34.5 208.3 34.7 207.9 34.1 C 207.8 34.0 207.9 34.2 207.9 34.3 C 207.8 34.2 207.6 33.9 207.5 34.0 C 207.6 34.2 207.6 34.2 207.5 34.2 C 207.5 34.2 207.5 34.2 207.5 34.2 Z M 198.3 52.6 C 199.7 51.5 195.6 53.2 198.3 52.6 C 198.3 52.6 198.3 52.6 198.3 52.6 C 198.3 52.6 198.3 52.6 198.3 52.6 Z M 202.9 53.1 C 203.0 53.1 203.3 52.9 203.3 52.8 C 204.5 52.0 203.4 52.9 204.1 52.6 C 205.0 51.8 203.5 52.6 204.5 51.6 C 204.2 51.7 203.6 52.6 202.9 53.1 C 202.9 53.1 202.9 53.1 202.9 53.1 Z M 15.5 20.0 C 14.4 20.8 14.3 21.2 14.2 21.5 C 14.9 21.0 15.6 20.7 15.9 20.6 C 17.3 19.7 14.9 21.1 14.6 21.2 C 14.6 20.9 15.7 20.2 15.5 20.0 C 15.5 20.0 15.5 20.0 15.5 20.0 Z M 12.1 22.4 C 11.7 22.8 11.2 23.3 11.3 23.5 C 11.9 23.0 12.0 23.0 12.1 23.1 C 12.5 22.6 11.8 22.9 12.1 22.4 C 12.1 22.4 12.1 22.4 12.1 22.4 Z M 19.2 18.4 C 18.6 18.7 18.9 18.7 18.9 18.9 C 19.7 18.4 19.9 18.5 20.8 18.0 C 20.8 17.9 20.7 17.9 20.7 17.8 C 19.9 18.1 19.9 18.3 19.3 18.6 C 19.3 18.5 19.2 18.4 19.2 18.4 C 19.2 18.4 19.2 18.4 19.2 18.4 Z M 9.3 25.0 C 7.7 26.4 7.5 27.3 6.9 28.5 C 7.8 27.4 8.3 26.1 9.2 25.5 C 10.1 24.6 8.8 25.7 8.8 25.6 C 8.8 25.5 9.1 25.2 9.3 25.0 C 9.3 25.0 9.3 25.0 9.3 25.0 Z M 2.7 39.0 C 2.6 39.4 3.0 40.0 3.2 41.0 C 3.2 40.8 3.3 40.6 3.4 40.6 C 3.1 39.2 2.8 40.1 2.7 39.0 C 2.7 39.0 2.7 39.0 2.7 39.0 Z M 6.1 46.7 C 6.7 47.5 5.9 46.2 6.3 46.5 C 5.7 45.7 5.2 44.8 5.0 44.9 C 5.7 45.8 5.8 45.9 6.1 46.7 C 6.1 46.7 6.1 46.7 6.1 46.7 Z M 11.1 51.7 C 12.1 52.3 10.8 51.1 11.4 51.2 C 11.0 50.9 11.0 51.1 10.9 51.2 C 10.7 50.9 10.5 50.7 10.0 50.3 C 10.2 50.7 11.4 51.5 11.1 51.7 C 11.1 51.7 11.1 51.7 11.1 51.7 Z M 48.4 9.0 C 47.7 9.3 47.9 9.5 46.5 9.7 C 48.7 9.2 47.6 10.2 50.5 9.5 C 50.0 9.5 50.3 9.3 50.5 9.4 C 51.5 9.0 49.4 9.5 50.4 9.0 C 49.6 9.2 50.1 9.4 49.3 9.6 C 48.4 9.5 47.9 9.5 48.4 9.0 C 48.4 9.0 48.4 9.0 48.4 9.0 Z M 50.5 9.7 C 51.3 9.6 51.2 9.2 51.7 9.3 C 52.0 9.2 51.9 9.2 52.0 9.1 C 51.7 9.2 51.7 9.1 51.6 9.1 C 50.9 9.3 50.3 9.5 50.5 9.7 C 50.5 9.7 50.5 9.7 50.5 9.7 Z M 43.3 11.4 C 44.6 11.0 45.0 11.0 45.5 10.7 C 46.1 10.9 46.4 10.3 47.1 10.5 C 48.3 10.1 47.4 10.2 47.0 10.2 C 48.2 9.8 47.4 10.3 48.6 10.0 C 48.7 9.7 47.2 10.1 47.3 9.8 C 46.4 10.0 46.4 10.2 45.9 10.4 C 45.4 10.4 45.5 10.3 45.4 10.2 C 44.4 10.5 44.4 10.3 43.6 10.6 C 43.4 10.8 43.8 10.8 44.7 10.5 C 43.7 10.9 43.4 11.2 42.2 11.4 C 42.9 10.9 39.3 11.8 39.7 12.1 C 40.6 11.9 40.3 11.8 40.7 11.6 C 42.0 11.5 42.8 11.2 43.3 11.4 C 43.3 11.4 43.3 11.4 43.3 11.4 Z M 20.1 18.8 C 19.6 19.0 19.3 19.1 18.7 19.5 C 18.5 19.3 19.3 18.9 18.5 19.2 C 17.5 19.7 17.4 19.9 16.8 20.2 C 17.2 20.1 19.3 19.3 18.3 19.9 C 18.6 19.9 19.3 19.6 20.2 19.1 C 19.0 19.3 21.6 18.4 22.6 18.0 C 22.3 17.7 24.4 17.3 25.1 16.7 C 24.4 16.8 22.4 17.9 21.5 18.3 C 21.9 18.1 18.9 19.0 20.1 18.8 C 20.1 18.8 20.1 18.8 20.1 18.8 Z M 53.6 8.9 C 53.8 8.8 54.7 8.6 54.0 8.7 C 54.3 8.5 55.1 8.5 54.7 8.2 C 55.1 8.2 55.5 8.1 55.9 8.0 C 55.8 8.2 54.7 8.3 55.2 8.5 C 56.0 8.2 55.7 8.4 56.8 8.2 C 56.2 8.5 56.8 8.4 56.5 8.8 C 56.8 8.6 57.7 8.5 57.6 8.3 C 59.2 8.1 57.2 8.7 59.3 8.3 C 59.3 8.5 57.8 8.8 57.3 8.7 C 57.1 9.0 59.8 8.4 61.4 8.2 C 60.0 8.2 61.0 7.8 61.7 7.5 C 62.1 7.5 61.7 7.7 62.5 7.7 C 63.2 7.6 63.6 7.4 63.8 7.5 C 64.3 7.4 64.1 7.3 64.1 7.1 C 65.1 7.0 64.4 7.5 65.8 7.2 C 64.7 7.0 65.9 6.8 67.9 6.6 C 67.7 6.5 67.1 6.6 67.0 6.5 C 67.3 6.3 68.4 6.5 68.7 6.5 C 69.4 6.4 69.0 6.3 68.3 6.4 C 68.7 6.3 69.1 6.1 69.6 6.0 C 67.5 6.2 64.1 6.7 60.3 7.0 C 61.1 7.1 60.3 7.3 59.1 7.4 C 59.0 7.3 59.4 7.2 59.9 7.1 C 58.6 7.0 58.8 7.6 56.7 7.8 C 55.6 7.9 57.9 7.4 56.7 7.5 C 55.9 7.7 55.5 8.0 55.1 7.8 C 53.8 8.1 53.5 8.5 51.6 8.9 C 52.7 8.8 53.3 9.2 54.4 8.9 C 54.4 8.8 53.9 8.9 53.6 8.9 C 53.6 8.9 53.6 8.9 53.6 8.9 Z M 12.2 23.2 C 11.6 23.6 11.4 24.0 11.2 24.0 C 10.2 24.8 11.4 24.1 11.7 24.0 C 12.1 23.6 12.2 23.4 12.2 23.2 C 12.2 23.2 12.2 23.2 12.2 23.2 Z M 99.8 72.1 C 101.5 72.2 101.1 71.9 102.5 71.9 C 101.4 71.8 101.2 71.6 99.4 71.6 C 99.3 71.8 99.3 72.0 99.8 72.1 C 99.8 72.1 99.8 72.1 99.8 72.1 Z M 16.0 20.8 C 16.9 20.0 15.0 21.8 14.9 21.6 C 13.9 22.5 16.0 21.1 15.1 22.0 C 16.0 21.2 16.7 21.1 17.9 20.2 C 17.8 20.1 16.7 20.7 15.8 21.3 C 15.6 21.2 16.1 20.9 16.0 20.8 C 16.0 20.8 16.0 20.8 16.0 20.8 Z M 82.5 70.6 C 81.4 70.7 83.6 71.1 84.2 71.3 C 84.3 70.9 84.0 71.0 82.5 70.6 C 82.5 70.6 82.5 70.6 82.5 70.6 Z M 111.5 71.8 C 112.1 71.5 109.5 71.8 110.1 71.5 C 109.3 71.5 109.2 71.6 109.2 71.7 C 108.8 71.6 107.5 71.6 107.9 71.4 C 107.7 71.2 109.9 71.5 109.2 71.2 C 109.9 71.1 110.0 71.2 110.5 71.2 C 109.2 71.2 109.9 71.5 111.5 71.6 C 111.5 71.3 110.7 71.4 111.5 71.2 C 111.6 71.3 112.4 71.5 112.3 71.9 C 113.7 71.8 112.9 71.4 114.6 71.4 C 114.4 71.3 113.4 71.3 112.8 71.2 C 112.9 71.0 114.5 71.4 114.1 71.0 C 114.5 71.2 115.4 71.3 115.5 71.6 C 114.2 71.7 113.4 71.9 112.3 72.0 C 113.3 72.2 114.7 71.6 116.4 71.8 C 116.2 71.6 117.2 71.6 116.8 71.4 C 118.1 71.4 117.5 71.7 117.3 71.8 C 117.6 71.9 120.2 71.7 120.0 71.5 C 120.2 71.7 123.2 71.5 123.1 71.2 C 124.0 71.4 125.3 70.9 125.7 71.3 C 126.3 71.1 127.3 71.1 128.4 71.0 C 128.7 70.8 126.8 71.0 126.6 70.8 C 126.3 70.6 128.7 70.8 128.4 70.6 C 128.4 70.5 128.4 70.5 128.4 70.4 C 127.5 70.5 126.6 70.7 125.7 70.8 C 125.1 70.8 125.9 70.7 125.7 70.6 C 125.1 70.7 122.3 71.2 122.2 70.7 C 120.3 70.9 118.9 70.9 118.1 71.1 C 117.0 71.1 118.8 70.9 118.1 70.8 C 114.8 71.2 110.7 70.9 107.9 71.2 C 107.3 71.2 107.5 71.1 107.4 70.9 C 103.6 71.1 106.8 71.4 103.8 71.3 C 103.8 71.1 105.3 71.1 105.2 70.9 C 104.1 70.9 103.9 71.0 102.5 71.0 C 102.5 71.1 102.5 71.2 102.5 71.3 C 101.3 71.3 101.8 71.0 101.2 70.9 C 99.7 70.9 100.1 71.1 99.4 70.7 C 98.0 70.8 96.7 70.9 95.3 70.7 C 94.4 70.8 96.2 71.3 97.6 71.3 C 97.5 71.4 97.1 71.4 97.1 71.5 C 95.5 71.2 95.2 70.7 92.7 70.6 C 94.6 70.9 91.7 70.6 91.4 70.4 C 90.3 70.4 91.1 70.8 91.8 70.8 C 91.7 70.9 91.0 70.7 90.9 70.6 C 90.8 71.0 93.2 71.3 95.8 71.3 C 94.6 71.6 97.6 71.3 96.2 71.8 C 98.3 71.7 96.5 71.4 98.9 71.5 C 98.7 71.4 98.2 71.3 98.0 71.2 C 99.8 71.2 99.3 71.5 101.2 71.5 C 101.5 71.3 100.2 71.3 100.3 71.2 C 102.3 71.4 102.9 71.5 104.3 71.8 C 104.6 71.6 104.2 71.4 106.5 71.6 C 106.5 71.6 106.5 71.7 106.5 71.7 C 105.4 71.7 105.2 72.1 107.9 72.1 C 108.1 72.0 107.2 72.0 106.5 72.0 C 106.8 71.8 107.7 71.8 108.8 71.7 C 109.3 71.8 109.9 71.9 109.2 71.9 C 109.6 72.1 110.0 71.7 111.5 71.8 C 111.5 71.8 111.5 71.8 111.5 71.8 Z M 3.2 37.4 C 3.2 37.7 3.3 37.9 3.3 38.4 C 3.5 38.6 3.4 37.7 3.6 37.7 C 3.6 37.1 3.3 37.6 3.2 37.4 C 3.2 37.4 3.2 37.4 3.2 37.4 Z M 6.5 29.1 C 6.3 29.0 6.2 29.6 5.7 30.2 C 5.8 30.5 6.2 29.7 6.4 29.8 C 6.9 29.1 5.9 29.8 6.5 29.1 C 6.5 29.1 6.5 29.1 6.5 29.1 Z M 4.5 32.5 C 4.1 32.8 4.4 32.9 4.7 32.2 C 4.8 32.4 4.8 32.6 4.7 33.0 C 5.1 32.6 4.8 32.2 5.3 31.5 C 5.0 31.7 4.8 32.0 4.5 32.5 C 4.5 32.5 4.5 32.5 4.5 32.5 Z M 4.0 33.7 C 4.0 34.2 3.7 34.5 3.7 35.3 C 3.9 35.1 4.3 33.4 4.3 33.1 C 4.2 32.8 3.6 34.6 4.0 33.7 C 4.0 33.7 4.0 33.7 4.0 33.7 Z M 65.5 68.4 C 65.9 68.4 65.8 68.3 65.9 68.3 C 67.2 68.8 69.0 69.0 67.5 69.1 C 68.9 69.1 70.1 69.6 71.3 69.8 C 72.3 69.9 71.8 69.6 72.6 69.7 C 73.8 69.9 71.9 69.7 72.1 69.9 C 72.4 70.1 72.8 69.7 74.3 70.0 C 73.9 69.6 75.6 70.2 75.1 69.7 C 76.0 70.0 76.2 69.8 77.3 69.9 C 77.2 69.8 76.2 69.7 76.1 69.5 C 75.5 69.2 75.5 69.7 76.5 69.7 C 75.9 69.9 74.4 69.4 73.9 69.5 C 73.4 69.2 75.3 69.6 74.8 69.3 C 74.4 69.3 74.0 69.3 73.9 69.3 C 73.3 69.2 72.9 69.1 72.7 69.0 C 73.0 69.0 73.1 69.0 73.1 69.1 C 73.9 69.2 72.3 68.6 74.0 68.8 C 73.7 68.7 73.0 68.6 73.1 68.5 C 72.7 68.2 73.1 69.1 71.4 68.7 C 70.2 68.8 74.0 69.2 73.0 69.6 C 70.6 69.2 72.0 69.0 70.1 68.7 C 70.1 68.9 70.1 69.0 69.6 68.9 C 69.7 69.0 70.4 69.1 70.9 69.2 C 70.8 69.2 70.1 69.1 69.6 69.1 C 69.7 69.2 70.1 69.2 70.1 69.3 C 68.5 69.0 68.7 68.5 70.1 68.6 C 70.1 68.4 68.2 68.1 67.6 68.2 C 68.1 68.4 67.6 68.3 68.0 68.6 C 68.4 68.7 68.3 68.6 68.4 68.5 C 69.2 68.7 68.5 68.7 68.4 68.8 C 67.6 68.6 67.6 68.4 66.7 68.5 C 67.0 68.4 67.2 68.4 67.2 68.3 C 66.8 68.2 66.3 68.2 65.9 68.1 C 65.9 68.3 65.4 68.2 65.5 68.4 C 65.5 68.4 65.5 68.4 65.5 68.4 Z M 87.8 71.3 C 89.2 71.4 88.5 71.1 87.8 71.1 C 88.1 71.0 88.6 71.0 89.1 71.0 C 88.7 70.9 88.3 70.9 86.9 70.8 C 88.2 70.6 86.9 70.0 84.8 69.9 C 84.1 70.3 85.9 70.5 85.2 70.8 C 86.8 70.7 87.6 70.9 87.8 71.3 C 87.8 71.3 87.8 71.3 87.8 71.3 Z M 11.7 24.0 C 11.1 24.5 10.4 25.1 9.9 25.6 C 10.1 25.7 12.1 24.2 11.7 24.0 C 11.7 24.0 11.7 24.0 11.7 24.0 Z M 71.2 6.1 C 71.6 6.1 71.7 6.1 71.7 6.1 C 72.9 5.9 71.1 6.0 71.7 5.7 C 71.2 5.8 70.8 5.8 70.4 5.9 C 70.3 6.0 72.1 5.9 70.8 6.2 C 70.9 6.2 71.3 6.2 71.2 6.1 C 71.2 6.1 71.2 6.1 71.2 6.1 Z M 3.5 36.8 C 3.6 37.4 3.9 37.0 3.8 38.3 C 4.0 37.9 3.9 37.6 3.9 36.8 C 3.8 36.8 3.7 36.8 3.5 36.8 C 3.5 36.8 3.5 36.8 3.5 36.8 Z M 59.2 67.8 C 60.2 68.2 60.6 67.7 62.5 68.2 C 61.6 67.7 60.4 67.9 59.2 67.8 C 59.2 67.8 59.2 67.8 59.2 67.8 Z M 131.9 70.4 C 131.3 70.4 132.1 70.3 131.0 70.2 C 130.4 70.4 130.2 70.5 129.3 70.6 C 130.5 70.8 132.7 70.3 133.7 70.7 C 134.7 70.5 134.6 70.3 134.9 70.1 C 134.4 70.1 134.2 70.1 134.1 70.1 C 133.5 70.5 132.7 70.0 131.9 70.4 C 131.9 70.4 131.9 70.4 131.9 70.4 Z M 82.1 70.5 C 81.3 70.2 82.7 70.3 83.0 70.1 C 83.6 70.2 83.4 70.4 83.4 70.5 C 84.2 70.5 84.4 70.4 84.3 70.2 C 82.9 70.0 81.1 69.9 82.2 69.7 C 80.8 69.5 81.5 69.9 80.8 69.9 C 80.1 69.6 80.8 69.6 80.9 69.4 C 80.5 69.4 79.4 69.6 79.6 69.3 C 77.5 69.4 78.4 69.9 79.9 70.4 C 81.3 70.3 79.7 70.1 82.1 70.5 C 82.1 70.5 82.1 70.5 82.1 70.5 Z M 29.7 60.0 C 29.9 60.1 30.9 60.5 30.9 60.6 C 32.2 60.8 33.4 60.9 34.7 61.1 C 34.6 60.8 32.8 60.4 33.5 60.8 C 33.0 60.5 31.8 60.0 31.2 59.7 C 30.0 59.2 29.5 59.5 29.4 59.1 C 28.3 58.8 28.9 59.1 27.2 58.3 C 29.8 59.6 26.2 58.1 25.9 58.3 C 27.5 58.9 28.9 59.4 28.8 59.1 C 30.0 59.7 31.3 60.2 31.5 60.5 C 31.4 60.6 30.4 60.2 29.7 60.0 C 29.7 60.0 29.7 60.0 29.7 60.0 Z M 36.4 61.4 C 36.1 61.4 35.9 61.3 35.4 61.2 C 35.6 61.3 35.7 61.5 35.6 61.6 C 36.5 61.9 36.7 61.8 37.0 62.1 C 37.8 62.4 36.9 61.7 38.1 62.2 C 38.0 62.1 37.4 61.9 37.4 61.8 C 37.3 62.0 36.8 61.8 36.4 61.4 C 36.4 61.4 36.4 61.4 36.4 61.4 Z M 47.6 64.9 C 48.6 65.1 47.1 64.6 47.6 64.5 C 47.4 64.5 45.5 64.0 45.8 63.9 C 45.3 63.4 43.3 63.6 43.6 63.3 C 43.2 63.2 43.3 63.3 43.2 63.4 C 44.5 63.7 44.4 63.8 43.5 63.6 C 43.6 63.8 44.4 63.9 45.0 64.1 C 45.1 64.0 44.6 63.8 44.7 63.7 C 45.8 64.1 46.6 64.5 47.6 64.9 C 47.6 64.9 47.6 64.9 47.6 64.9 Z M 119.4 4.6 C 118.4 4.6 117.7 4.6 117.2 4.7 C 117.5 4.8 118.0 4.7 118.5 4.7 C 118.7 4.8 118.2 4.8 117.6 4.8 C 118.1 5.1 120.0 4.9 119.4 4.6 C 119.4 4.6 119.4 4.6 119.4 4.6 Z M 110.5 4.5 C 109.5 4.4 108.8 4.5 108.7 4.6 C 109.1 4.8 108.9 4.5 109.6 4.5 C 110.0 4.6 110.3 4.7 110.5 4.8 C 110.9 4.8 110.8 4.7 111.0 4.6 C 111.3 4.6 111.3 4.7 111.4 4.7 C 112.6 4.5 110.0 4.7 110.5 4.5 C 110.5 4.5 110.5 4.5 110.5 4.5 Z M 41.3 63.2 C 41.0 63.0 40.8 62.8 39.9 62.5 C 40.1 62.7 39.4 62.5 38.8 62.4 C 39.6 62.8 40.0 62.8 41.3 63.2 C 41.3 63.2 41.3 63.2 41.3 63.2 Z M 56.5 9.0 C 55.3 9.0 55.4 9.3 53.7 9.5 C 53.7 9.6 53.8 9.6 53.8 9.7 C 54.8 9.3 55.3 9.4 56.5 9.0 C 56.5 9.0 56.5 9.0 56.5 9.0 Z M 210.7 43.2 C 210.6 43.1 210.2 44.0 210.0 43.9 C 210.3 44.3 209.6 44.4 208.4 45.9 C 208.4 45.9 208.4 45.8 208.5 45.6 C 207.5 46.8 209.0 45.4 209.3 45.3 C 210.0 44.3 210.2 44.3 210.7 43.2 C 210.7 43.2 210.7 43.2 210.7 43.2 Z M 118.6 70.4 C 118.5 70.4 118.8 70.4 119.0 70.4 C 119.3 70.4 119.6 70.4 119.9 70.4 C 119.8 70.1 118.3 70.0 119.4 69.6 C 119.0 69.6 119.0 69.7 119.0 69.7 C 116.9 70.5 115.1 69.4 112.3 69.9 C 111.9 69.9 112.0 70.0 111.9 70.0 C 112.2 70.0 112.3 70.1 112.3 70.1 C 112.7 69.8 115.2 70.1 114.1 70.2 C 114.2 70.3 114.5 70.3 114.5 70.2 C 114.9 70.2 115.2 70.2 115.5 70.2 C 115.3 70.1 114.7 70.1 114.5 70.0 C 116.0 70.1 117.7 70.1 116.8 70.4 C 117.7 70.4 118.0 70.2 118.6 70.1 C 119.1 70.1 119.2 70.4 118.6 70.4 C 118.6 70.4 118.6 70.4 118.6 70.4 Z M 130.1 69.7 C 131.4 69.7 130.9 69.5 132.3 69.4 C 131.4 69.3 130.4 69.7 129.2 69.6 C 129.4 69.6 130.0 69.6 130.1 69.7 C 130.1 69.7 130.1 69.7 130.1 69.7 Z M 104.3 70.1 C 104.6 69.8 103.4 69.8 102.1 69.8 C 101.8 70.0 103.0 70.1 104.3 70.1 C 104.3 70.1 104.3 70.1 104.3 70.1 Z M 110.1 70.1 C 111.4 70.0 108.5 70.1 109.2 69.8 C 108.6 69.8 107.9 69.8 107.9 69.7 C 107.4 69.8 107.4 69.9 106.5 69.9 C 106.6 70.0 108.0 69.9 107.9 70.1 C 108.9 70.0 109.1 70.0 110.1 70.1 C 110.1 70.1 110.1 70.1 110.1 70.1 Z M 111.0 70.1 C 111.8 70.0 110.8 69.6 109.7 69.7 C 110.1 69.8 110.3 70.0 111.0 70.1 C 111.0 70.1 111.0 70.1 111.0 70.1 Z M 11.9 49.3 C 12.4 49.6 12.2 49.2 12.7 49.6 C 12.8 49.5 11.0 48.1 12.5 49.2 C 12.1 48.5 11.6 48.6 11.0 48.0 C 11.1 48.3 11.2 48.5 10.9 48.2 C 10.6 48.2 12.3 49.3 11.9 49.3 C 11.9 49.3 11.9 49.3 11.9 49.3 Z M 13.8 50.7 C 14.2 51.0 14.1 50.8 13.9 50.7 C 14.0 50.6 14.5 51.1 15.0 51.3 C 14.9 51.4 14.4 50.5 14.6 50.4 C 12.8 49.3 13.9 50.5 13.8 50.7 C 13.8 50.7 13.8 50.7 13.8 50.7 Z M 15.7 51.8 C 16.8 52.8 18.7 53.8 19.7 54.1 C 18.9 53.2 16.4 51.9 15.7 51.8 C 15.7 51.8 15.7 51.8 15.7 51.8 Z M 7.2 43.6 C 7.8 45.3 10.6 48.0 8.7 45.2 C 8.6 45.4 7.2 43.7 6.9 42.8 C 6.8 42.8 6.1 41.9 6.3 41.8 C 5.8 41.2 7.2 44.1 7.2 43.6 C 7.2 43.6 7.2 43.6 7.2 43.6 Z M 21.7 54.5 C 20.9 54.3 21.7 55.1 20.6 54.4 C 20.0 54.1 20.8 54.6 20.5 54.6 C 21.9 55.3 25.1 56.5 25.3 56.9 C 26.2 57.1 26.5 57.1 28.0 57.7 C 28.1 57.6 22.5 55.6 21.7 54.7 C 21.8 54.6 23.6 55.4 21.7 54.5 C 21.7 54.5 21.7 54.5 21.7 54.5 Z M 56.8 10.4 C 56.8 10.2 55.2 10.6 55.5 10.3 C 54.7 10.7 53.8 10.7 52.9 11.1 C 52.5 11.1 52.6 10.7 51.2 11.0 C 51.2 11.2 51.9 11.0 51.3 11.3 C 50.1 11.6 50.3 11.2 48.9 11.6 C 49.2 12.0 46.0 12.4 46.4 12.7 C 47.1 12.5 47.0 12.3 48.3 12.1 C 48.7 12.0 48.5 12.2 49.0 12.1 C 48.7 12.4 48.0 12.2 47.6 12.5 C 47.7 12.6 48.6 12.4 48.8 12.6 C 49.3 12.4 48.6 12.5 48.7 12.3 C 50.2 11.9 48.7 12.9 50.3 12.5 C 49.9 12.3 49.9 12.3 50.2 12.0 C 50.9 12.0 52.8 11.4 51.8 11.9 C 51.9 12.1 53.1 11.6 52.9 11.4 C 53.6 11.3 53.7 11.4 53.7 11.4 C 55.4 11.0 55.6 10.8 55.2 10.6 C 55.5 10.3 55.8 10.7 56.8 10.4 C 56.8 10.4 56.8 10.4 56.8 10.4 Z M 5.8 35.4 C 5.7 34.8 5.7 36.1 5.6 36.7 C 5.7 36.0 6.0 36.3 6.2 35.5 C 6.0 35.8 5.9 35.7 6.1 35.2 C 6.0 35.1 5.6 36.2 5.8 35.4 C 5.8 35.4 5.8 35.4 5.8 35.4 Z M 31.4 59.0 C 32.0 59.4 35.4 60.3 36.3 60.6 C 36.3 60.4 35.7 60.3 34.5 60.0 C 33.4 59.6 32.3 59.3 32.1 59.0 C 31.1 58.7 32.5 59.3 31.4 59.0 C 31.4 59.0 31.4 59.0 31.4 59.0 Z M 42.3 13.2 C 41.9 13.4 42.1 13.4 42.3 13.3 C 42.2 13.4 41.4 13.6 40.9 13.8 C 41.7 13.7 40.7 14.0 41.0 14.2 C 40.6 14.3 40.4 14.4 40.3 14.5 C 40.2 14.1 38.1 15.4 40.4 14.8 C 39.9 14.7 40.1 14.7 41.0 14.3 C 42.1 14.2 42.8 13.8 43.2 14.0 C 43.9 13.8 44.1 13.6 45.0 13.4 C 45.3 13.5 46.1 13.4 45.5 13.9 C 47.1 13.5 45.9 13.2 47.2 12.8 C 48.5 12.7 46.7 13.3 47.0 13.4 C 47.3 13.3 47.3 13.4 47.4 13.4 C 47.9 13.3 47.8 13.1 47.3 13.2 C 47.5 13.1 48.7 12.6 48.4 13.0 C 49.2 12.7 47.1 12.5 46.1 13.0 C 45.5 13.2 45.4 12.7 46.0 12.6 C 45.7 12.5 44.6 13.3 44.9 12.7 C 44.4 12.9 43.9 13.0 43.4 13.1 C 43.5 13.1 43.8 13.1 43.8 13.2 C 43.3 13.3 42.8 13.4 42.3 13.5 C 42.7 13.3 42.7 13.2 42.3 13.2 C 42.3 13.2 42.3 13.2 42.3 13.2 Z M 24.4 56.1 C 25.7 56.7 26.0 56.7 27.1 57.1 C 26.7 56.7 23.9 55.7 24.4 56.1 C 24.4 56.1 24.4 56.1 24.4 56.1 Z M 63.7 9.9 C 63.6 9.9 62.9 10.0 62.9 9.9 C 64.1 9.6 62.7 9.7 63.6 9.2 C 62.0 9.6 61.6 10.3 63.8 10.1 C 65.4 9.8 62.1 10.2 63.7 9.9 C 63.7 9.9 63.7 9.9 63.7 9.9 Z M 58.8 10.6 C 57.9 10.9 60.4 10.6 60.9 10.6 C 60.9 10.6 60.9 10.7 61.0 10.8 C 62.3 10.2 60.4 10.4 61.6 9.7 C 60.0 9.9 59.3 9.9 58.0 10.2 C 58.1 10.3 58.4 10.2 58.4 10.2 C 59.4 10.0 58.7 10.5 57.6 10.5 C 58.0 10.6 58.9 10.4 59.6 10.4 C 59.4 10.3 59.2 10.3 59.2 10.2 C 60.1 10.0 59.8 10.3 60.4 10.2 C 60.4 10.3 58.9 10.7 58.8 10.6 C 58.8 10.6 58.8 10.6 58.8 10.6 Z M 144.1 8.2 C 143.3 8.2 145.0 8.7 144.9 9.0 C 145.8 9.2 146.0 9.1 146.5 9.2 C 146.3 9.0 145.3 8.8 144.9 8.6 C 145.1 8.4 146.2 8.9 146.6 8.7 C 147.2 8.4 144.5 8.6 144.1 8.2 C 144.1 8.2 144.1 8.2 144.1 8.2 Z M 20.8 21.4 C 20.3 21.7 20.6 21.6 20.8 21.5 C 20.8 21.6 20.0 22.0 20.0 21.9 C 19.3 22.3 20.4 21.9 19.6 22.3 C 19.5 22.5 20.8 21.7 20.8 21.6 C 21.8 21.1 21.2 21.7 21.5 21.7 C 22.4 21.3 21.9 21.2 23.3 20.7 C 22.4 20.9 21.7 21.1 20.8 21.4 C 20.8 21.4 20.8 21.4 20.8 21.4 Z M 66.5 9.1 C 66.7 8.9 65.6 9.6 64.5 9.5 C 63.1 9.7 65.4 9.6 64.1 9.8 C 65.2 9.7 66.5 9.3 68.2 9.1 C 68.6 8.9 65.9 9.3 67.4 9.0 C 67.3 8.9 66.9 9.0 66.9 9.1 C 66.6 9.1 66.6 9.1 66.5 9.1 C 66.5 9.1 66.5 9.1 66.5 9.1 Z M 65.0 9.9 C 65.0 9.9 65.4 9.8 65.4 9.8 C 65.9 9.7 65.9 9.9 65.4 10.0 C 66.1 10.2 66.0 9.7 67.5 9.7 C 66.8 9.5 66.5 9.4 67.8 9.4 C 68.9 9.1 65.4 9.6 65.0 9.9 C 65.0 9.9 65.0 9.9 65.0 9.9 Z M 130.4 7.1 C 130.5 7.2 131.4 7.3 132.1 7.3 C 131.2 7.5 127.7 7.1 127.3 6.9 C 126.9 7.0 126.5 7.0 126.4 6.9 C 126.4 7.0 125.4 7.0 126.0 7.1 C 125.9 7.2 125.1 7.1 125.1 7.2 C 123.8 7.1 125.5 7.1 125.1 6.9 C 123.5 7.0 123.9 6.9 122.0 6.7 C 122.3 7.0 124.4 7.0 124.2 7.3 C 125.6 7.1 127.2 7.4 128.1 7.7 C 126.8 7.2 131.9 7.4 134.2 7.7 C 134.1 7.8 135.0 7.8 135.9 8.0 C 136.6 8.3 136.4 7.8 135.1 7.8 C 135.2 7.6 136.9 7.9 137.7 8.0 C 136.8 7.7 137.3 7.7 136.9 7.6 C 135.2 7.4 136.7 7.6 136.4 7.8 C 136.0 7.7 135.6 7.7 135.1 7.7 C 137.4 7.5 131.8 7.3 133.8 7.5 C 132.1 7.4 132.0 7.1 130.4 7.1 C 130.4 7.1 130.4 7.1 130.4 7.1 Z M 88.8 6.9 C 88.5 6.9 87.1 7.2 87.0 7.0 C 85.3 7.3 86.8 7.4 84.8 7.5 C 85.0 7.6 85.7 7.5 85.8 7.6 C 86.5 7.5 87.3 7.4 87.0 7.1 C 87.9 7.1 88.2 7.0 88.8 7.0 C 88.6 7.1 88.2 7.2 87.5 7.2 C 87.4 7.4 87.7 7.5 88.8 7.4 C 89.3 7.2 89.0 7.0 88.8 6.9 C 88.8 6.9 88.8 6.9 88.8 6.9 Z M 84.4 7.5 C 84.2 7.4 83.9 7.4 84.0 7.3 C 83.3 7.1 83.7 7.6 83.1 7.7 C 82.6 7.7 82.8 7.6 82.7 7.5 C 81.9 7.6 81.3 7.7 80.9 7.6 C 79.8 7.8 82.3 7.7 82.7 7.8 C 83.5 7.7 83.2 7.5 84.4 7.5 C 84.4 7.5 84.4 7.5 84.4 7.5 Z M 71.5 8.5 C 71.3 8.3 70.9 8.7 70.3 8.7 C 70.8 8.9 72.0 8.6 71.2 9.0 C 72.4 8.9 72.5 8.9 73.7 8.7 C 74.5 8.9 73.7 8.5 72.4 8.8 C 72.6 8.7 73.2 8.6 73.2 8.5 C 74.1 8.8 76.2 7.9 74.9 8.4 C 74.6 8.3 74.3 8.3 74.1 8.2 C 73.8 8.4 70.9 8.7 71.5 8.5 C 71.5 8.5 71.5 8.5 71.5 8.5 Z M 31.7 17.4 C 34.0 16.5 34.8 16.2 36.2 15.9 C 36.3 16.0 36.2 16.0 35.9 16.1 C 36.2 16.1 36.7 16.0 37.3 15.7 C 37.2 15.6 36.9 15.8 36.9 15.8 C 35.8 16.0 36.7 15.7 36.8 15.4 C 35.4 15.7 33.3 16.8 32.1 16.9 C 31.3 17.2 32.3 16.9 31.7 17.4 C 31.7 17.4 31.7 17.4 31.7 17.4 Z M 209.4 41.4 C 209.4 41.6 209.2 42.0 209.4 41.9 C 209.5 41.6 209.5 41.3 209.6 40.9 C 209.3 41.6 209.1 41.4 208.6 42.2 C 208.9 42.0 209.1 42.1 209.4 41.4 C 209.4 41.4 209.4 41.4 209.4 41.4 Z M 75.8 8.1 C 75.9 8.2 75.9 8.3 75.4 8.4 C 75.3 8.6 76.6 8.3 76.7 8.5 C 77.1 8.4 77.0 8.3 77.5 8.2 C 77.3 8.1 76.2 8.3 76.6 8.0 C 77.0 8.0 77.0 8.0 77.1 8.1 C 78.0 7.8 76.6 7.9 75.8 8.1 C 75.8 8.1 75.8 8.1 75.8 8.1 Z M 148.3 9.0 C 147.7 8.9 148.2 9.1 148.7 9.2 C 147.4 9.3 149.4 9.7 149.4 9.9 C 148.9 9.7 147.2 9.6 147.0 9.5 C 146.5 9.5 147.0 9.7 145.7 9.6 C 145.8 9.8 147.3 9.8 146.9 9.6 C 147.3 10.0 148.7 9.8 148.6 10.1 C 150.4 10.4 150.9 10.3 151.1 10.0 C 149.3 9.9 150.2 9.6 148.7 9.4 C 148.7 9.4 149.2 9.4 149.5 9.5 C 149.4 9.3 148.7 9.1 148.3 9.0 C 148.3 9.0 148.3 9.0 148.3 9.0 Z M 102.9 6.5 C 101.9 6.5 102.0 6.7 102.0 6.9 C 102.4 6.9 103.0 6.8 103.8 6.8 C 103.6 6.7 102.4 6.8 102.9 6.5 C 102.9 6.5 102.9 6.5 102.9 6.5 Z M 141.5 8.5 C 141.4 8.4 141.1 8.4 141.1 8.5 C 140.0 8.4 139.8 8.2 139.4 8.0 C 138.8 8.0 139.0 8.2 139.0 8.3 C 140.0 8.2 139.7 8.5 141.1 8.6 C 141.0 8.5 141.2 8.5 141.5 8.5 C 141.5 8.5 141.5 8.5 141.5 8.5 Z M 112.2 6.6 C 111.7 6.7 112.0 6.7 112.2 6.7 C 111.6 7.0 109.8 6.7 109.1 6.9 C 109.0 7.1 111.3 7.0 108.7 7.1 C 109.2 7.3 111.5 7.1 112.7 7.2 C 112.4 7.4 110.8 7.4 110.9 7.7 C 112.3 7.5 113.8 7.4 114.0 7.1 C 112.0 7.0 112.7 6.8 112.2 6.6 C 112.2 6.6 112.2 6.6 112.2 6.6 Z M 114.4 6.8 C 114.3 6.7 113.9 6.9 113.1 6.8 C 114.2 7.1 114.9 7.0 117.1 7.1 C 117.1 7.1 117.1 7.0 117.1 7.0 C 117.6 7.0 118.0 7.0 118.5 7.0 C 116.5 6.7 116.0 6.9 114.0 6.9 C 113.9 6.8 114.2 6.8 114.4 6.8 C 114.4 6.8 114.4 6.8 114.4 6.8 Z M 56.9 11.1 C 57.5 11.1 57.9 11.2 58.9 11.1 C 58.8 10.8 58.2 10.8 56.9 11.1 C 56.9 11.1 56.9 11.1 56.9 11.1 Z M 143.2 8.8 C 144.3 8.8 142.1 8.7 142.7 9.0 C 143.6 9.2 144.6 9.4 144.8 9.7 C 146.5 9.6 142.9 9.1 143.2 8.8 C 143.2 8.8 143.2 8.8 143.2 8.8 Z M 135.5 8.6 C 135.0 8.6 135.0 8.2 135.5 8.5 C 136.7 8.6 134.5 8.2 136.3 8.4 C 135.6 8.2 133.8 8.0 132.9 8.0 C 132.9 8.2 134.6 8.3 134.6 8.5 C 134.7 8.6 134.4 8.6 134.2 8.5 C 134.3 8.7 134.7 8.5 135.5 8.6 C 135.5 8.6 135.5 8.6 135.5 8.6 Z M 129.0 7.8 C 129.7 7.9 130.6 8.1 132.0 8.2 C 131.1 8.0 130.5 7.7 129.0 7.8 C 129.0 7.8 129.0 7.8 129.0 7.8 Z M 205.3 29.5 C 204.8 29.0 205.1 29.7 205.1 29.8 C 205.6 30.3 205.7 30.2 206.2 30.9 C 206.2 30.5 205.5 30.1 205.3 29.5 C 205.3 29.5 205.3 29.5 205.3 29.5 Z M 206.9 31.7 C 206.8 31.8 207.4 32.6 207.3 32.7 C 208.0 32.9 207.7 33.9 208.0 33.8 C 208.1 33.9 208.1 34.1 208.2 34.4 C 208.4 33.7 207.4 32.3 206.9 31.7 C 206.9 31.7 206.9 31.7 206.9 31.7 Z M 121.5 7.8 C 120.3 7.7 121.8 8.2 120.6 8.1 C 120.5 8.2 122.8 8.4 121.5 8.4 C 123.3 8.7 121.4 7.9 121.5 7.8 C 121.5 7.8 121.5 7.8 121.5 7.8 Z M 99.8 7.9 C 99.9 7.8 98.3 7.9 97.6 7.9 C 97.6 8.0 98.2 8.0 98.5 8.0 C 98.3 8.0 98.1 8.1 97.6 8.2 C 98.0 8.3 99.2 8.0 99.8 7.9 C 99.8 7.9 99.8 7.9 99.8 7.9 Z M 123.9 3.8 C 124.6 4.0 125.6 4.3 126.1 4.0 C 126.9 4.2 125.6 4.2 126.5 4.4 C 127.8 4.4 127.2 4.6 129.2 4.6 C 128.8 4.8 130.3 4.9 130.5 5.1 C 129.7 5.1 128.7 4.8 128.3 5.0 C 129.0 5.0 128.6 5.2 128.3 5.1 C 126.9 4.8 129.9 4.9 128.3 4.6 C 127.8 4.9 125.5 4.2 123.9 4.1 C 124.5 4.0 122.7 3.8 123.9 3.8 C 123.9 3.8 123.9 3.8 123.9 3.8 Z M 131.8 4.7 C 132.9 4.8 133.4 5.4 133.1 5.3 C 133.1 5.2 131.9 5.1 131.8 5.2 C 132.1 5.2 132.3 5.3 132.2 5.3 C 130.3 5.2 131.0 5.0 130.5 4.8 C 131.6 4.8 131.9 4.9 132.3 4.9 C 132.0 4.8 131.8 4.8 131.8 4.7 C 131.8 4.7 131.8 4.7 131.8 4.7 Z M 153.8 11.2 C 153.6 11.1 153.4 11.2 153.0 11.2 C 153.0 10.8 150.8 11.0 150.6 10.8 C 151.1 10.7 152.1 10.9 152.6 10.8 C 152.1 10.7 152.0 10.6 151.4 10.6 C 151.6 10.4 152.7 10.6 153.1 10.5 C 153.2 10.6 153.8 10.5 153.9 10.7 C 152.3 10.6 154.7 11.4 153.8 11.2 C 153.8 11.2 153.8 11.2 153.8 11.2 Z M 111.4 7.9 C 111.2 8.2 113.1 8.8 111.3 9.0 C 111.0 8.8 110.8 8.6 110.9 8.3 C 109.8 8.5 109.3 8.2 108.7 8.5 C 106.7 7.7 110.2 8.5 111.4 7.9 C 111.4 7.9 111.4 7.9 111.4 7.9 Z M 104.2 8.2 C 104.6 7.9 103.6 8.0 103.8 7.8 C 104.7 7.9 107.4 7.7 106.5 7.8 C 105.6 7.9 105.6 8.1 104.2 8.2 C 104.2 8.2 104.2 8.2 104.2 8.2 Z M 54.8 64.7 C 53.5 64.7 53.0 64.1 53.7 64.1 C 53.4 64.3 55.3 64.5 54.8 64.7 C 54.8 64.7 54.8 64.7 54.8 64.7 Z M 6.2 48.1 C 6.8 49.0 7.3 49.4 7.3 49.7 C 6.5 48.9 6.7 48.9 6.0 48.2 C 5.9 48.2 5.5 47.8 5.5 47.7 C 5.8 48.1 5.9 47.9 6.2 48.1 C 6.2 48.1 6.2 48.1 6.2 48.1 Z M 77.1 3.9 C 77.0 3.9 76.5 3.9 76.7 3.7 C 78.0 3.6 79.5 3.3 80.6 3.1 C 80.6 3.2 80.6 3.3 80.6 3.4 C 78.5 3.5 77.9 3.7 77.1 3.9 C 77.1 3.9 77.1 3.9 77.1 3.9 Z M 74.4 3.7 C 74.3 3.9 75.0 4.1 74.1 4.2 C 74.1 4.0 72.4 3.9 73.2 3.8 C 73.4 3.9 73.9 3.9 74.4 3.7 C 74.4 3.7 74.4 3.7 74.4 3.7 Z M 148.7 5.8 C 149.7 5.9 148.3 5.5 148.3 5.4 C 149.1 5.6 150.1 5.7 150.4 5.9 C 149.7 5.8 149.1 6.1 148.7 5.8 C 148.7 5.8 148.7 5.8 148.7 5.8 Z M 132.7 4.7 C 130.5 4.6 131.5 4.2 129.2 4.0 C 130.2 3.9 132.2 4.1 132.8 3.9 C 132.7 4.1 133.2 4.1 133.2 4.3 C 132.4 4.2 132.3 4.1 131.4 4.1 C 131.7 4.3 131.7 4.2 131.4 4.5 C 132.0 4.5 132.4 4.5 132.7 4.5 C 132.6 4.6 133.4 4.7 132.7 4.7 C 132.7 4.7 132.7 4.7 132.7 4.7 Z M 148.2 6.4 C 149.1 6.4 149.8 6.9 149.0 6.7 C 148.9 6.6 148.3 6.7 148.2 6.5 C 149.4 6.6 147.2 6.3 147.8 6.2 C 148.5 6.3 148.8 6.2 148.7 6.0 C 149.1 6.1 149.9 6.2 149.9 6.3 C 149.6 6.3 149.1 6.2 149.1 6.3 C 149.3 6.3 149.6 6.3 149.5 6.4 C 148.7 6.3 148.4 6.3 148.2 6.4 C 148.2 6.4 148.2 6.4 148.2 6.4 Z M 142.3 5.7 C 143.4 5.8 143.5 6.1 143.9 6.3 C 142.4 6.0 142.1 5.7 141.0 5.4 C 142.3 5.6 143.6 5.4 144.0 5.6 C 143.4 5.6 142.4 5.5 142.3 5.7 C 142.3 5.7 142.3 5.7 142.3 5.7 Z M 166.0 65.5 C 165.0 65.6 164.3 65.6 163.2 65.7 C 162.9 66.0 164.9 66.1 164.1 66.1 C 163.0 66.3 163.7 65.9 162.8 66.0 C 163.7 66.2 159.1 67.0 158.9 66.7 C 159.6 66.6 159.8 66.5 159.6 66.4 C 161.5 66.0 162.2 65.7 163.5 65.4 C 164.6 65.5 167.5 65.0 168.9 64.3 C 170.0 64.5 171.7 63.6 173.1 63.6 C 173.4 63.4 171.9 63.7 173.0 63.3 C 173.8 63.4 173.3 63.6 174.3 63.5 C 174.3 63.4 174.0 63.3 174.5 63.1 C 174.5 63.3 175.1 63.1 175.3 63.1 C 173.3 63.6 175.5 63.4 174.0 63.9 C 173.3 64.0 174.6 63.3 172.8 63.8 C 172.1 64.0 171.5 64.3 171.7 64.5 C 171.2 64.6 170.9 64.7 170.6 64.8 C 171.3 64.4 168.1 65.5 169.5 64.8 C 169.6 64.8 170.6 64.6 171.3 64.3 C 170.6 64.2 169.8 64.6 168.7 64.9 C 168.1 64.8 168.8 64.6 168.2 64.7 C 167.3 65.1 168.6 65.0 168.0 65.3 C 168.3 65.2 168.7 65.1 168.7 65.2 C 167.1 65.3 166.5 65.7 165.7 65.8 C 166.2 65.6 164.7 65.8 166.0 65.5 C 166.0 65.5 166.0 65.5 166.0 65.5 Z M 179.2 61.9 C 179.6 61.8 179.9 61.7 180.3 61.6 C 180.4 61.8 179.1 62.2 180.0 62.1 C 178.5 62.6 180.0 61.8 179.2 61.9 C 179.2 61.9 179.2 61.9 179.2 61.9 Z M 171.8 63.0 C 171.2 62.8 171.6 63.3 171.1 63.5 C 172.0 63.2 172.8 62.9 173.0 63.2 C 171.9 63.3 171.5 63.5 170.4 63.8 C 171.4 63.2 169.2 63.8 168.8 63.6 C 169.6 63.4 170.2 63.1 171.3 62.8 C 171.2 63.0 172.8 62.7 171.8 63.0 C 171.8 63.0 171.8 63.0 171.8 63.0 Z M 174.6 61.9 C 174.9 62.0 176.4 61.5 176.1 61.8 C 175.2 62.1 174.9 62.2 175.1 62.4 C 174.4 62.6 174.3 62.5 173.7 62.7 C 173.2 62.5 174.3 62.2 174.7 62.0 C 174.4 62.0 174.2 62.0 174.6 61.9 C 174.6 61.9 174.6 61.9 174.6 61.9 Z M 204.9 46.3 C 205.3 46.3 204.2 47.1 204.0 47.2 C 204.4 47.1 204.3 47.3 203.7 48.0 C 203.7 47.5 202.8 48.5 201.9 48.7 C 201.8 49.0 202.8 48.4 201.8 49.3 C 200.9 49.8 200.2 50.4 198.7 51.4 C 198.2 51.4 198.8 50.9 199.2 50.6 C 198.2 51.3 198.4 50.9 197.6 51.4 C 197.8 51.4 197.2 51.8 196.9 51.9 C 198.2 51.0 194.8 52.6 196.3 51.7 C 196.4 51.8 196.7 51.5 197.0 51.3 C 196.8 51.8 198.7 50.6 199.1 50.5 C 199.6 49.6 201.5 48.6 203.2 47.4 C 203.4 47.5 202.9 47.9 203.4 47.6 C 203.4 47.5 203.9 47.1 204.1 46.8 C 204.1 46.9 204.4 46.8 204.7 46.5 C 204.7 46.5 204.7 46.4 204.9 46.3 C 204.9 46.3 204.9 46.3 204.9 46.3 Z M 95.4 68.1 C 95.6 67.7 92.7 67.8 91.9 67.9 C 92.1 67.5 97.1 67.8 95.4 68.1 C 95.4 68.1 95.4 68.1 95.4 68.1 Z M 112.7 68.0 C 112.0 68.0 112.5 68.2 111.9 68.3 C 111.8 68.0 110.1 68.5 110.1 68.3 C 110.9 68.1 111.4 68.1 112.7 68.0 C 112.7 68.0 112.7 68.0 112.7 68.0 Z M 128.6 67.5 C 127.4 67.6 129.3 67.6 129.1 67.7 C 128.0 67.8 126.8 67.8 126.9 67.6 C 127.9 67.7 128.5 67.3 128.6 67.5 C 128.6 67.5 128.6 67.5 128.6 67.5 Z M 104.8 67.8 C 103.7 67.7 105.5 67.4 105.6 67.6 C 104.5 67.6 106.4 67.8 107.4 67.7 C 107.4 68.0 106.9 68.0 107.4 68.2 C 105.9 68.3 107.2 67.9 106.1 68.0 C 105.3 68.1 106.1 68.1 106.1 68.3 C 105.6 68.3 105.2 68.3 104.8 68.3 C 104.8 68.1 104.8 68.0 104.8 67.9 C 105.3 67.9 105.8 67.9 105.6 67.7 C 105.2 67.7 105.1 67.8 104.8 67.8 C 104.8 67.8 104.8 67.8 104.8 67.8 Z M 183.4 57.2 C 182.5 57.5 183.3 57.4 184.0 57.2 C 184.1 57.0 184.5 56.4 185.6 56.3 C 183.5 57.2 186.4 56.4 185.2 56.9 C 184.6 56.9 183.4 57.6 182.2 57.9 C 181.7 57.9 182.8 57.2 183.4 57.2 C 183.4 57.2 183.4 57.2 183.4 57.2 Z M 187.3 55.9 C 187.2 55.9 186.8 56.0 186.2 56.3 C 186.8 55.8 185.9 56.2 186.7 55.8 C 186.6 55.9 189.4 54.9 187.8 55.6 C 186.3 56.0 188.3 55.6 188.9 55.3 C 188.2 55.6 187.0 56.4 186.8 56.2 C 187.2 56.1 187.5 56.0 187.3 55.9 C 187.3 55.9 187.3 55.9 187.3 55.9 Z M 207.7 41.5 C 207.6 41.3 207.5 41.7 207.3 41.8 C 207.9 40.7 208.2 39.9 208.3 39.4 C 208.2 39.9 208.4 39.9 208.6 39.7 C 208.3 40.2 208.4 40.3 208.2 40.5 C 208.2 40.0 208.1 40.8 207.7 41.5 C 207.7 41.5 207.7 41.5 207.7 41.5 Z M 207.7 41.5 " fill="#EA3C43"></path></g></svg>