<?xml version="1.0" encoding="UTF-8" standalone="no"?><svg xmlns="http://www.w3.org/2000/svg" xmlns:xlink="http://www.w3.org/1999/xlink" clip-rule="evenodd" stroke-miterlimit="10" viewBox="0 0 102 68"><desc>SVG generated by Keynote</desc><defs></defs><g transform="matrix(1.00, 0.00, -0.00, -1.00, 0.0, 68.0)"><path d="M 36.5 34.4 C 36.6 34.4 36.6 34.4 36.7 34.4 C 36.7 34.3 36.7 34.3 36.7 34.2 C 36.6 34.2 36.5 34.2 36.4 34.1 C 36.4 34.2 36.5 34.2 36.5 34.2 C 36.6 34.3 36.5 34.3 36.5 34.4 C 36.5 34.4 36.5 34.4 36.5 34.4 Z M 52.5 40.4 C 52.4 40.3 52.5 40.6 52.5 40.6 C 52.5 40.6 52.6 40.5 52.6 40.5 C 52.5 40.7 52.4 40.7 52.3 40.8 C 52.0 40.5 52.4 40.3 52.5 40.4 C 52.5 40.4 52.5 40.4 52.5 40.4 Z M 67.5 46.3 C 67.8 46.4 67.6 46.1 67.6 46.0 C 67.8 46.0 67.8 45.6 68.0 45.6 C 67.9 45.7 68.0 45.8 67.9 45.9 C 67.9 45.9 67.8 45.9 67.7 45.9 C 67.8 46.0 68.0 46.0 67.9 46.1 C 67.7 46.1 67.8 46.3 67.8 46.5 C 67.6 46.4 67.5 46.6 67.5 46.3 C 67.5 46.3 67.5 46.3 67.5 46.3 Z M 19.2 26.1 C 19.1 26.0 19.1 26.0 19.2 25.9 C 19.2 25.9 19.3 26.0 19.3 26.0 C 19.3 25.9 19.4 25.8 19.4 25.8 C 19.4 26.0 19.3 26.3 19.2 26.4 C 19.3 26.2 19.0 26.2 19.2 26.1 C 19.2 26.1 19.2 26.1 19.2 26.1 Z M 25.7 28.3 C 25.8 28.5 25.8 27.9 26.0 28.1 C 25.9 28.3 25.8 28.6 25.7 28.5 C 25.7 28.4 25.6 28.4 25.7 28.3 C 25.7 28.3 25.7 28.3 25.7 28.3 Z M 61.9 42.0 C 61.9 42.2 62.0 42.2 61.9 42.4 C 61.9 42.3 61.8 42.3 61.7 42.3 C 61.8 42.1 61.8 42.0 61.9 42.0 C 61.9 42.0 61.9 42.0 61.9 42.0 Z M 70.1 44.8 C 70.2 45.2 70.7 44.9 70.5 45.1 C 70.5 45.4 70.0 45.7 70.2 45.5 C 70.2 45.2 69.9 44.8 70.1 44.8 C 70.1 44.8 70.1 44.8 70.1 44.8 Z M 55.4 37.0 C 55.6 37.3 55.8 36.7 55.8 37.0 C 55.8 37.0 55.7 37.1 55.7 37.1 C 55.7 37.2 55.8 37.2 55.8 37.3 C 55.6 37.2 55.4 37.3 55.4 37.0 C 55.4 37.0 55.4 37.0 55.4 37.0 Z M 32.9 32.3 C 32.9 32.3 32.8 32.4 32.8 32.5 C 32.6 32.4 32.6 32.5 32.5 32.4 C 32.6 32.1 32.7 32.2 32.9 32.3 C 32.9 32.3 32.9 32.3 32.9 32.3 C 32.9 32.3 32.9 32.3 32.9 32.3 Z M 28.3 29.5 C 28.3 29.7 28.3 29.8 28.2 29.8 C 28.1 29.5 28.3 29.3 28.6 29.3 C 28.6 29.2 28.7 29.1 28.7 29.0 C 28.6 29.0 28.6 28.9 28.6 28.8 C 28.4 29.2 28.5 28.5 28.1 28.6 C 28.3 28.5 28.3 28.2 28.4 28.4 C 28.5 28.1 28.6 28.2 28.6 28.0 C 28.5 28.1 28.3 28.0 28.3 28.3 C 28.2 28.3 28.1 28.2 28.1 28.1 C 28.1 27.9 28.3 28.1 28.3 27.9 C 28.2 27.8 28.3 27.8 28.2 27.8 C 28.2 27.8 28.1 28.0 28.1 28.0 C 27.9 27.8 28.2 27.7 28.0 27.6 C 27.9 27.7 28.0 27.8 27.9 27.9 C 27.7 28.0 27.8 27.8 27.6 27.9 C 27.7 27.7 27.8 27.7 27.7 27.6 C 27.5 28.0 27.6 27.3 27.3 27.6 C 27.2 28.1 27.3 27.5 27.0 27.9 C 27.0 27.7 27.2 27.5 27.1 27.4 C 26.9 28.0 26.5 27.6 26.7 28.3 C 26.5 28.2 26.2 28.6 26.4 28.7 C 26.1 28.5 26.1 28.8 25.9 28.8 C 25.8 28.7 26.0 28.7 26.0 28.5 C 26.2 28.6 26.2 28.4 26.2 28.6 C 26.3 28.5 26.3 28.4 26.4 28.4 C 26.2 28.5 26.1 28.1 26.4 27.9 C 26.4 27.9 26.2 28.1 26.3 28.2 C 26.4 27.9 26.4 28.3 26.5 28.1 C 26.6 27.8 26.9 27.6 26.7 27.5 C 26.6 27.6 26.6 27.7 26.5 27.8 C 26.5 27.8 26.4 27.8 26.4 27.8 C 26.4 27.5 26.5 27.4 26.5 27.3 C 26.4 27.3 26.3 27.3 26.3 27.4 C 26.4 27.5 26.4 27.7 26.2 27.7 C 26.5 27.3 26.0 27.5 26.3 27.3 C 26.1 27.1 25.9 27.4 26.0 27.1 C 25.8 27.0 25.8 27.3 25.7 27.2 C 25.6 26.9 25.5 27.3 25.3 27.0 C 25.1 27.3 25.3 26.9 25.2 26.9 C 25.1 27.0 25.1 27.1 25.0 27.2 C 25.0 27.0 24.8 26.8 24.5 26.9 C 24.5 26.8 24.6 26.7 24.4 26.6 C 24.1 26.9 24.1 26.5 23.8 26.7 C 23.8 26.5 23.7 26.5 23.6 26.5 C 23.6 26.4 23.8 26.2 23.7 26.2 C 23.5 26.3 23.6 26.5 23.4 26.5 C 23.5 26.3 23.2 26.6 23.3 26.3 C 23.3 26.3 23.4 26.2 23.5 26.2 C 23.4 26.1 23.5 26.0 23.5 26.0 C 23.4 26.3 23.3 26.0 23.3 25.9 C 23.3 26.0 23.2 26.1 23.1 26.2 C 23.0 26.1 22.9 26.1 22.9 26.2 C 22.8 26.0 23.0 26.0 22.9 25.9 C 22.6 26.5 22.8 25.8 22.3 26.0 C 22.4 25.8 22.3 25.7 22.1 25.6 C 22.0 25.8 22.3 25.8 22.2 25.9 C 22.0 25.7 22.2 26.1 22.0 26.0 C 21.7 25.7 21.5 25.6 21.2 25.3 C 21.1 25.5 20.8 25.5 20.8 25.4 C 20.9 25.4 20.8 25.1 20.7 25.0 C 20.5 25.4 20.2 25.6 20.1 25.8 C 20.1 25.6 20.1 25.6 20.2 25.3 C 20.1 25.1 19.8 25.4 19.9 24.9 C 19.8 25.1 19.7 25.1 19.6 25.2 C 19.7 25.0 19.8 24.9 19.9 24.8 C 19.8 24.7 19.8 24.6 19.7 24.6 C 19.3 25.2 19.5 24.3 19.2 24.9 C 19.0 24.9 19.1 24.6 19.0 24.6 C 18.9 24.7 18.9 24.8 18.8 24.9 C 18.9 24.8 19.1 24.7 19.0 24.9 C 18.8 24.9 19.2 25.7 18.7 25.9 C 18.7 25.7 18.8 25.6 18.8 25.5 C 18.5 25.6 18.6 25.8 18.7 25.8 C 18.5 25.9 18.4 25.7 18.4 26.1 C 18.0 26.0 18.3 25.9 18.2 25.7 C 17.6 25.7 16.9 25.5 16.2 24.9 C 16.1 25.2 15.8 24.8 15.7 24.6 C 15.4 24.7 15.2 24.7 15.2 24.4 C 15.1 24.6 15.0 24.1 14.9 24.3 C 15.0 24.3 15.0 24.5 14.9 24.5 C 14.7 24.2 14.2 24.0 14.0 24.1 C 14.0 23.8 13.7 23.7 13.5 23.8 C 13.6 23.7 13.7 23.7 13.6 23.6 C 13.6 23.7 13.2 23.8 13.2 23.6 C 13.3 23.7 13.5 23.4 13.4 23.3 C 13.3 23.5 13.2 23.4 13.1 23.6 C 13.0 23.4 12.8 23.5 12.7 23.3 C 12.9 23.3 13.0 23.3 13.1 23.1 C 12.9 23.2 12.8 23.2 12.8 23.0 C 12.7 23.4 12.6 23.1 12.3 23.2 C 12.3 23.0 12.3 22.9 12.2 22.9 C 12.0 23.0 12.3 23.2 12.1 23.2 C 12.2 23.1 12.1 22.9 12.0 23.1 C 11.9 22.9 11.7 23.1 11.6 22.8 C 11.8 23.0 11.8 22.6 11.8 22.5 C 11.7 22.5 11.6 22.5 11.6 22.5 C 11.6 22.6 11.7 22.6 11.7 22.7 C 11.6 22.6 11.4 22.9 11.4 22.7 C 11.5 22.7 11.5 22.6 11.5 22.6 C 11.3 22.9 11.0 22.5 11.2 22.4 C 11.2 22.5 11.3 22.5 11.4 22.4 C 11.4 22.3 11.1 22.3 11.3 22.1 C 11.4 22.1 11.3 22.3 11.5 22.3 C 11.6 22.2 11.7 22.2 11.8 22.1 C 11.5 22.0 11.4 22.2 11.5 21.9 C 11.3 21.9 11.3 22.2 11.1 22.1 C 10.9 21.9 11.2 21.8 11.2 21.7 C 10.9 21.7 10.8 22.0 10.9 22.3 C 10.7 22.2 10.6 22.3 10.4 22.2 C 10.4 22.1 10.5 22.0 10.6 21.9 C 10.6 22.0 10.7 22.2 10.8 22.1 C 10.9 21.8 10.8 21.6 10.6 21.4 C 10.5 21.8 10.6 21.6 10.3 21.5 C 10.2 21.8 10.3 21.4 10.2 21.6 C 10.1 21.7 10.2 21.7 10.3 21.7 C 10.2 21.9 10.2 22.0 10.1 22.0 C 10.1 21.9 10.0 22.0 9.9 21.8 C 9.9 21.6 10.1 21.6 10.1 21.5 C 10.1 21.5 10.0 21.6 9.9 21.6 C 9.9 21.3 10.1 21.0 10.2 20.7 C 10.3 20.7 10.4 20.8 10.4 20.6 C 10.7 20.7 10.3 20.9 10.4 21.0 C 10.6 20.7 10.4 21.1 10.6 21.2 C 10.7 21.2 10.7 21.1 10.8 21.1 C 10.8 21.0 10.8 20.7 10.9 20.8 C 10.9 20.9 10.9 21.1 11.0 21.2 C 11.0 21.0 10.9 20.8 11.1 20.9 C 11.2 21.0 11.0 21.3 11.1 21.3 C 11.2 21.2 11.2 21.2 11.3 21.2 C 11.0 21.1 11.4 21.0 11.3 20.8 C 11.5 20.8 11.2 21.1 11.3 21.1 C 11.4 21.0 11.5 21.3 11.6 21.1 C 11.5 21.1 11.3 21.0 11.5 20.8 C 11.6 20.9 12.3 21.0 11.9 21.3 C 12.1 21.2 12.7 21.1 12.6 21.2 C 12.5 21.1 12.4 21.3 12.3 21.4 C 12.7 21.3 12.8 21.5 13.2 21.4 C 12.9 21.2 13.3 20.9 13.2 20.7 C 13.1 20.6 13.0 20.5 12.9 20.6 C 12.8 20.9 13.0 20.8 13.1 20.7 C 13.0 20.9 13.0 21.1 12.9 21.3 C 12.6 20.9 12.3 21.1 12.2 20.9 C 12.3 21.0 12.0 20.5 12.2 20.5 C 12.2 20.7 12.4 20.8 12.5 20.9 C 12.6 20.8 12.6 20.8 12.6 20.7 C 12.7 20.7 12.8 20.8 12.8 20.7 C 12.6 20.7 12.6 20.4 12.4 20.5 C 12.4 20.5 12.4 20.4 12.4 20.4 C 12.4 20.3 12.4 20.3 12.4 20.3 C 12.5 20.3 12.6 20.3 12.6 20.3 C 12.5 20.1 12.5 19.9 12.4 19.8 C 12.5 19.6 12.4 19.2 12.7 19.2 C 12.7 19.4 12.8 19.6 12.7 19.7 C 12.7 19.8 12.9 19.8 13.0 19.7 C 13.0 19.5 12.9 19.4 13.0 19.2 C 13.1 19.2 13.2 19.1 13.2 19.4 C 12.9 19.4 13.3 19.6 13.3 19.9 C 13.3 19.8 13.3 19.7 13.3 19.6 C 13.5 19.6 13.5 19.9 13.6 19.5 C 13.9 19.5 13.7 19.8 13.9 19.8 C 13.9 19.5 14.0 19.7 14.1 19.4 C 14.3 19.4 14.0 19.7 14.1 19.7 C 14.2 19.8 14.3 19.7 14.3 19.7 C 14.4 19.9 14.6 20.0 14.5 20.3 C 14.7 20.3 14.6 20.4 14.7 20.4 C 14.8 20.4 14.9 20.3 14.9 20.3 C 14.9 20.3 15.0 20.5 15.0 20.4 C 14.9 19.9 15.0 19.9 14.8 19.6 C 14.7 19.7 14.6 19.7 14.7 19.8 C 14.4 19.8 14.4 19.6 14.3 19.5 C 14.3 19.4 14.4 19.0 14.2 19.2 C 14.3 18.9 14.3 18.8 14.4 18.8 C 14.4 19.0 14.5 19.1 14.6 19.2 C 14.6 19.2 14.7 19.0 14.7 19.0 C 14.7 19.2 14.8 19.3 14.9 19.2 C 14.9 19.3 14.8 19.4 14.8 19.4 C 15.0 19.6 15.0 19.2 15.2 19.5 C 15.2 19.3 15.1 19.3 15.3 19.2 C 15.5 19.2 15.5 19.4 15.5 19.5 C 15.6 19.4 15.6 19.3 15.6 19.3 C 15.7 19.6 15.2 19.7 15.3 20.1 C 15.4 19.8 15.6 20.0 15.6 20.2 C 15.4 20.3 15.4 20.0 15.3 20.2 C 15.7 20.3 15.2 20.5 15.6 20.8 C 15.6 20.7 15.7 20.6 15.7 20.5 C 15.5 20.4 15.6 20.2 15.7 20.0 C 15.5 20.0 15.6 19.6 15.4 19.8 C 15.6 19.3 15.5 19.8 15.7 19.9 C 15.8 19.7 15.6 19.6 15.7 19.4 C 16.0 19.7 16.2 19.4 16.4 19.9 C 16.4 19.6 16.6 19.9 16.6 19.7 C 16.3 19.7 16.7 19.1 16.7 19.0 C 16.5 18.9 16.4 19.4 16.2 19.5 C 16.3 19.2 16.3 19.1 16.5 18.8 C 16.6 19.0 16.6 18.9 16.8 18.9 C 16.9 19.1 16.8 19.6 16.6 19.6 C 16.6 19.6 16.9 19.6 16.8 19.7 C 16.6 19.6 16.8 19.9 16.6 19.9 C 16.8 20.1 17.2 20.0 17.3 20.3 C 17.3 20.1 17.4 20.1 17.5 20.0 C 17.2 20.1 17.3 19.6 17.1 19.5 C 17.2 19.5 17.2 19.4 17.2 19.3 C 17.4 19.5 17.6 19.3 17.6 19.6 C 17.6 19.5 17.7 19.5 17.7 19.4 C 17.9 19.7 17.9 19.6 18.1 19.5 C 18.1 19.6 17.9 20.0 17.8 20.2 C 17.9 20.1 18.2 20.3 18.1 20.0 C 18.3 20.1 18.1 20.4 18.3 20.4 C 18.4 20.2 18.2 20.1 18.4 19.9 C 18.6 19.9 18.4 20.2 18.6 20.0 C 18.5 20.2 18.5 20.4 18.6 20.5 C 18.6 20.3 18.7 20.4 18.8 20.3 C 18.7 20.2 18.7 20.1 18.7 20.1 C 18.9 20.2 19.0 20.2 19.2 20.3 C 19.0 20.5 19.1 20.6 18.9 20.7 C 19.1 20.6 19.2 20.9 19.3 20.8 C 19.3 20.7 19.1 20.7 19.1 20.5 C 19.6 20.6 20.0 20.4 20.2 20.9 C 20.1 20.9 20.0 20.9 20.0 20.9 C 20.0 21.0 20.1 21.0 20.1 21.1 C 20.0 21.0 19.8 20.9 19.7 21.0 C 19.6 20.8 19.9 20.8 19.8 20.7 C 19.7 20.9 19.5 20.7 19.5 21.0 C 19.8 20.9 19.9 21.2 19.8 21.6 C 20.2 21.2 20.0 21.2 20.4 20.8 C 20.3 21.0 20.3 21.0 20.4 21.1 C 20.5 20.7 20.7 21.0 20.7 21.0 C 20.5 21.1 20.1 21.2 20.2 21.5 C 20.3 20.9 20.5 21.8 20.6 21.4 C 20.9 21.4 20.6 21.7 20.9 21.5 C 20.9 21.6 20.8 21.7 20.9 21.7 C 20.9 21.7 21.0 21.7 21.0 21.6 C 20.7 21.4 21.0 21.1 20.8 21.0 C 20.8 21.0 20.8 21.0 20.8 20.9 C 20.9 20.9 20.9 20.8 20.9 20.9 C 20.8 21.2 21.1 20.9 21.1 21.1 C 21.0 21.1 21.0 21.1 20.9 21.2 C 21.2 21.3 21.1 21.6 21.4 21.8 C 21.3 21.7 21.5 21.7 21.6 21.7 C 21.8 21.8 21.6 22.1 21.8 22.2 C 22.0 21.6 22.0 22.3 22.5 22.1 C 22.3 22.4 22.6 22.6 22.8 22.4 C 22.7 22.5 22.9 22.5 23.0 22.6 C 22.9 22.7 22.8 22.7 22.9 22.8 C 23.0 22.8 23.0 22.5 23.1 22.6 C 23.2 22.7 23.1 22.9 23.3 23.0 C 23.4 22.8 23.2 22.8 23.4 22.7 C 23.5 22.8 23.7 22.9 23.6 22.6 C 23.9 22.6 23.6 23.0 23.8 23.1 C 23.8 23.0 23.8 22.9 24.0 22.9 C 24.0 23.1 23.9 23.2 23.9 23.3 C 24.1 23.1 24.1 23.1 24.2 23.2 C 24.2 23.1 24.3 23.0 24.3 23.0 C 24.4 23.0 24.5 23.0 24.5 23.1 C 24.4 23.0 24.3 23.2 24.3 23.3 C 24.4 23.4 24.6 23.7 24.5 23.4 C 24.7 23.3 24.5 23.6 24.7 23.6 C 24.7 23.3 24.7 23.6 24.9 23.6 C 25.0 23.3 25.0 23.6 25.1 23.6 C 25.2 23.5 25.3 23.4 25.4 23.4 C 25.3 23.5 25.4 23.6 25.5 23.6 C 25.5 23.5 25.3 23.3 25.6 23.4 C 25.6 23.5 25.5 23.8 25.7 23.9 C 25.6 24.1 25.5 23.9 25.4 24.2 C 25.7 24.0 25.6 24.2 25.8 24.3 C 25.9 23.9 26.5 24.0 26.3 23.7 C 26.4 23.7 26.6 23.4 26.6 23.7 C 26.5 23.7 26.5 24.0 26.5 24.0 C 26.6 24.0 26.8 24.2 26.8 24.1 C 26.6 24.0 26.7 23.8 26.7 23.7 C 27.1 23.7 27.3 23.9 27.2 24.1 C 27.2 24.0 27.2 24.0 27.3 24.0 C 27.2 24.0 27.2 23.6 27.4 23.6 C 27.3 23.8 27.3 23.9 27.4 24.0 C 27.5 23.8 27.8 24.3 27.8 23.9 C 27.6 24.1 27.6 23.7 27.8 23.6 C 27.8 23.8 28.0 24.0 27.8 24.2 C 27.9 24.2 28.0 24.1 28.1 24.1 C 28.2 23.9 28.1 23.8 28.2 23.7 C 28.3 23.7 28.4 23.7 28.4 23.8 C 28.1 23.8 28.4 24.0 28.1 24.1 C 28.3 24.1 28.3 24.3 28.4 24.3 C 28.4 24.3 28.4 24.3 28.5 24.2 C 28.3 24.3 28.3 24.2 28.4 23.9 C 28.6 24.0 28.5 24.2 28.7 24.3 C 28.8 24.1 29.1 23.9 29.2 24.2 C 28.9 24.0 29.1 24.3 29.0 24.3 C 28.8 24.1 28.7 24.3 28.5 24.5 C 28.5 24.6 28.7 24.8 28.8 24.5 C 28.7 24.5 28.7 24.6 28.6 24.6 C 28.6 24.5 28.7 24.4 28.8 24.4 C 28.8 24.6 29.1 24.5 28.9 24.7 C 29.1 24.6 29.1 24.9 29.3 24.8 C 29.2 24.7 29.1 24.6 29.1 24.4 C 29.3 24.4 29.3 24.7 29.4 24.5 C 29.5 24.3 29.2 24.3 29.2 24.1 C 29.5 23.9 29.5 24.7 29.5 24.1 C 29.6 24.2 29.7 24.3 29.7 24.4 C 29.6 24.4 29.6 24.7 29.6 24.8 C 29.7 24.8 29.8 24.8 29.9 24.7 C 29.7 24.7 29.7 24.4 29.8 24.4 C 29.8 24.6 29.9 24.4 30.0 24.4 C 29.9 24.5 30.1 24.5 30.1 24.6 C 30.2 24.5 30.1 24.5 30.1 24.4 C 30.2 24.3 30.5 24.1 30.5 24.4 C 30.4 24.4 30.3 24.4 30.3 24.4 C 30.4 24.9 30.4 25.2 30.7 25.5 C 30.7 25.5 30.6 25.5 30.6 25.6 C 30.8 25.7 30.9 25.9 30.8 26.0 C 31.0 26.0 31.1 25.9 31.2 25.8 C 31.1 25.7 31.0 25.9 31.0 25.7 C 31.0 25.6 31.0 25.2 31.0 25.0 C 30.7 25.1 30.8 24.7 30.5 24.8 C 30.7 24.6 30.4 24.7 30.5 24.5 C 30.6 24.9 30.9 24.7 31.2 25.0 C 31.1 25.2 31.0 25.3 31.1 25.5 C 31.3 25.7 31.3 25.3 31.4 25.4 C 31.4 25.6 31.3 25.6 31.4 25.8 C 31.5 25.7 31.6 25.8 31.6 26.0 C 31.4 25.9 31.6 26.2 31.4 26.3 C 31.4 26.3 31.5 26.3 31.5 26.4 C 31.4 26.0 31.9 26.2 31.8 25.9 C 32.1 25.9 31.6 26.5 31.8 26.5 C 31.8 26.3 32.0 26.3 32.1 26.4 C 32.1 26.7 32.3 26.8 32.4 26.9 C 32.4 26.7 32.3 26.7 32.5 26.6 C 32.5 26.5 32.3 26.5 32.2 26.5 C 32.3 26.4 32.3 26.4 32.3 26.3 C 32.5 26.3 32.4 26.2 32.5 26.1 C 32.5 26.3 32.7 26.3 32.7 26.4 C 32.7 26.4 32.7 26.4 32.8 26.3 C 32.5 26.2 32.9 26.0 32.8 25.9 C 32.7 25.9 32.7 26.1 32.5 26.1 C 32.5 25.7 32.8 25.8 32.9 25.6 C 32.9 25.4 32.6 25.6 32.7 25.3 C 33.0 25.1 33.1 25.4 33.3 25.6 C 33.4 25.3 33.5 25.8 33.7 25.4 C 33.7 25.5 33.7 25.6 33.7 25.7 C 33.9 25.5 33.8 25.8 33.9 25.8 C 33.9 25.7 34.0 25.6 33.9 25.5 C 34.1 25.7 34.2 25.7 34.5 25.7 C 34.5 25.9 34.5 26.0 34.4 26.2 C 34.4 26.2 34.3 26.2 34.2 26.3 C 34.6 26.5 34.6 25.8 34.7 26.2 C 34.7 26.1 34.7 25.8 34.8 25.8 C 34.9 26.1 35.4 26.0 35.1 26.7 C 35.2 26.9 35.5 26.6 35.5 26.9 C 35.6 26.9 35.6 26.9 35.7 26.8 C 35.7 26.7 35.6 26.5 35.6 26.4 C 35.4 26.4 35.5 26.2 35.5 26.6 C 35.3 26.5 35.3 26.3 35.2 26.2 C 35.5 26.1 35.7 26.4 35.8 26.1 C 35.9 26.3 35.9 26.5 35.9 26.6 C 36.0 26.5 36.3 26.5 36.2 26.8 C 36.1 26.6 35.7 26.8 35.9 27.1 C 36.4 27.1 36.5 27.6 37.0 27.5 C 37.0 27.6 36.9 27.8 37.0 27.8 C 37.0 27.7 37.1 27.6 37.1 27.6 C 37.3 27.7 37.3 27.8 37.5 27.8 C 37.4 28.0 37.4 28.2 37.4 28.3 C 37.6 28.1 37.9 27.7 38.0 27.8 C 37.9 27.8 37.9 28.1 38.0 28.2 C 38.1 27.8 38.4 28.6 38.4 28.2 C 38.6 28.3 38.6 28.5 38.6 28.6 C 38.7 28.6 38.8 28.6 38.9 28.5 C 38.8 28.9 39.3 28.8 39.3 29.0 C 39.2 28.8 39.0 29.2 39.1 29.2 C 39.3 29.0 39.7 29.0 39.8 29.1 C 39.7 29.2 39.6 29.4 39.4 29.4 C 39.7 29.5 39.8 29.2 40.0 29.0 C 39.9 29.3 40.1 29.1 40.2 29.1 C 40.2 29.3 40.1 29.2 40.0 29.4 C 40.1 29.4 40.1 29.6 40.3 29.6 C 40.3 29.4 40.4 29.6 40.5 29.6 C 40.5 29.5 40.7 29.4 40.8 29.4 C 40.5 29.7 41.3 30.1 41.2 29.8 C 41.5 29.6 41.3 30.1 41.5 30.2 C 41.6 30.0 41.7 30.2 41.7 30.0 C 41.9 30.0 41.7 30.2 41.9 30.2 C 41.9 29.9 42.1 30.4 42.2 30.0 C 42.1 30.4 42.5 30.0 42.5 30.4 C 42.6 30.3 42.6 30.3 42.7 30.3 C 42.7 30.2 42.5 30.0 42.7 30.0 C 42.8 30.3 42.7 30.3 42.7 30.4 C 43.2 30.5 43.8 30.9 44.3 31.2 C 44.3 31.1 44.3 31.0 44.5 31.0 C 44.4 31.5 45.2 31.5 45.3 31.4 C 45.3 31.7 45.7 31.6 45.7 31.8 C 45.6 31.7 45.4 31.9 45.6 32.0 C 45.8 31.7 45.8 32.0 46.0 31.8 C 46.0 32.1 46.5 32.0 46.1 32.4 C 46.2 32.4 46.2 32.4 46.2 32.5 C 46.4 32.2 46.4 32.3 46.3 32.1 C 46.6 32.5 46.8 32.3 47.0 32.6 C 47.1 32.4 46.9 32.2 47.1 32.3 C 47.1 32.3 47.1 32.4 47.1 32.4 C 47.1 32.4 47.2 32.3 47.2 32.5 C 47.1 32.6 47.0 32.5 46.9 32.8 C 47.1 32.7 47.1 33.1 47.2 32.9 C 47.0 32.8 47.3 32.4 47.3 32.7 C 47.2 32.8 47.8 32.9 48.0 32.8 C 48.0 33.1 47.8 32.8 47.8 33.0 C 48.1 33.0 48.0 33.1 48.2 32.9 C 48.3 33.0 48.3 33.2 48.6 33.1 C 48.7 33.3 48.5 33.3 48.6 33.4 C 48.7 33.3 48.8 33.2 48.9 33.2 C 49.0 33.8 50.0 33.4 50.0 34.2 C 50.0 34.0 50.2 33.9 50.4 34.0 C 50.3 34.1 50.3 34.2 50.3 34.3 C 50.4 34.1 50.5 34.0 50.6 34.1 C 50.6 34.2 50.5 34.3 50.6 34.4 C 50.7 34.1 50.8 34.4 50.9 34.3 C 50.8 34.6 50.6 34.4 50.6 34.5 C 50.8 34.8 50.9 34.6 51.1 34.8 C 51.0 34.7 51.1 35.0 51.1 35.1 C 51.2 34.8 51.4 34.8 51.3 34.6 C 51.4 34.6 51.5 34.6 51.5 34.7 C 51.5 34.7 51.4 34.7 51.4 34.8 C 51.5 34.8 51.5 35.1 51.6 34.9 C 51.6 34.8 51.6 34.7 51.6 34.6 C 51.7 34.5 51.8 34.5 51.8 34.4 C 51.4 34.9 52.0 34.9 52.1 34.7 C 52.0 35.1 52.0 35.1 51.9 35.3 C 52.1 35.4 52.2 35.1 52.3 35.1 C 52.2 35.3 52.1 35.5 52.2 35.7 C 52.3 35.4 52.5 35.5 52.6 35.2 C 53.1 35.3 53.0 35.7 53.3 35.7 C 53.4 35.7 53.3 35.6 53.4 35.6 C 53.5 35.7 53.6 35.9 53.6 36.0 C 53.7 35.9 53.7 35.8 53.8 35.7 C 53.9 36.1 53.7 36.3 53.8 36.6 C 54.1 36.5 54.0 36.6 54.2 36.4 C 54.2 36.3 54.1 36.2 54.2 36.2 C 54.3 36.5 54.2 36.7 54.2 36.8 C 54.1 36.8 54.1 36.7 54.1 36.6 C 54.0 36.8 53.8 36.7 53.9 36.9 C 53.8 36.8 53.6 36.7 53.4 36.6 C 53.4 36.9 53.2 36.6 53.2 36.9 C 53.4 36.9 53.4 37.1 53.6 37.2 C 53.7 36.9 53.9 37.1 53.9 37.2 C 54.0 37.0 54.1 37.2 54.1 36.9 C 54.3 37.0 54.2 37.1 54.4 37.1 C 54.4 37.2 54.3 37.3 54.4 37.4 C 54.6 37.2 54.5 37.5 54.5 37.5 C 54.6 37.3 54.8 37.5 54.9 37.3 C 54.8 37.3 54.7 37.3 54.7 37.2 C 55.0 37.3 54.9 37.0 54.9 36.8 C 54.9 36.9 54.6 37.2 54.7 37.0 C 55.0 36.9 54.5 36.5 54.7 36.6 C 54.8 36.8 54.9 36.6 55.1 36.7 C 55.1 37.2 54.8 37.3 54.8 37.7 C 55.0 37.6 55.1 37.7 55.2 37.5 C 55.2 37.6 55.2 37.7 55.2 37.7 C 55.3 37.6 55.2 37.4 55.4 37.4 C 55.4 37.5 55.2 37.8 55.4 37.8 C 55.6 37.6 55.3 37.5 55.5 37.5 C 55.5 37.9 55.5 37.4 55.7 37.4 C 55.7 37.5 55.7 37.5 55.8 37.5 C 55.7 37.6 55.6 37.8 55.7 37.8 C 55.9 37.5 55.7 38.0 55.9 38.0 C 56.1 37.8 55.8 37.8 55.9 37.6 C 56.0 37.9 56.2 37.7 56.3 37.7 C 56.1 37.9 56.4 38.0 56.3 38.2 C 56.4 37.9 56.4 38.1 56.7 37.9 C 56.6 38.3 56.9 38.1 56.8 38.5 C 56.9 38.4 57.0 38.3 57.1 38.2 C 57.0 38.2 56.9 38.1 57.0 38.0 C 57.1 38.0 57.1 38.1 57.2 38.1 C 57.2 38.3 56.8 38.7 57.2 38.8 C 57.2 38.5 57.4 38.5 57.6 38.4 C 57.6 38.2 57.4 38.4 57.4 38.2 C 57.6 38.1 57.7 38.3 57.7 38.5 C 58.0 38.5 58.2 38.7 58.5 38.7 C 58.5 38.9 58.2 38.8 58.4 39.0 C 58.4 39.0 58.5 38.8 58.6 38.9 C 58.1 39.9 59.3 39.5 59.2 39.9 C 59.4 39.7 59.6 39.9 59.7 39.6 C 59.4 39.8 59.4 39.4 59.4 39.2 C 59.1 39.3 59.4 39.5 59.2 39.5 C 59.3 39.4 59.0 39.4 59.1 39.2 C 59.4 39.3 59.1 39.0 59.3 38.8 C 59.6 38.9 60.1 38.9 59.9 39.1 C 59.9 39.0 59.8 39.0 59.8 39.1 C 60.0 39.3 60.2 39.2 60.4 39.0 C 60.4 39.3 61.0 39.1 60.8 39.2 C 60.8 39.4 60.6 39.1 60.5 39.3 C 61.0 39.6 61.0 39.4 61.3 39.7 C 61.3 39.4 61.8 39.4 61.7 39.5 C 61.6 39.7 61.6 39.9 61.9 39.8 C 61.8 40.0 61.8 40.1 61.9 40.2 C 62.0 40.0 61.9 40.0 62.0 39.8 C 62.1 39.8 62.2 39.9 62.3 39.9 C 62.2 40.0 62.2 40.1 62.2 40.2 C 62.4 40.1 62.9 40.0 62.8 40.1 C 62.5 40.4 62.9 40.5 62.6 40.6 C 62.7 40.6 62.6 40.7 62.7 40.7 C 62.8 40.6 62.8 40.5 62.9 40.4 C 63.1 40.5 62.8 40.8 63.0 40.9 C 63.0 40.8 63.1 40.8 63.2 40.7 C 63.1 40.7 63.1 40.8 63.0 40.7 C 63.2 40.4 62.9 40.4 63.0 40.2 C 63.2 40.3 63.1 40.5 63.2 40.6 C 63.5 40.6 63.3 40.6 63.6 40.8 C 63.6 40.7 63.5 40.6 63.6 40.5 C 63.9 40.7 63.7 41.2 63.9 41.1 C 63.9 41.1 63.6 41.2 63.7 41.3 C 63.9 41.2 64.1 41.0 64.3 41.1 C 64.3 41.2 64.2 41.3 64.2 41.3 C 64.4 41.3 64.4 41.1 64.6 41.0 C 64.5 41.1 64.7 41.1 64.7 41.1 C 64.7 41.3 64.6 41.3 64.7 41.4 C 64.8 41.5 65.1 41.0 65.2 41.1 C 65.1 41.4 65.3 41.4 65.5 41.4 C 65.4 41.7 65.7 41.7 65.8 41.9 C 65.9 41.6 66.0 41.8 66.1 41.6 C 66.0 41.5 66.0 41.4 66.0 41.3 C 66.2 41.4 66.1 41.9 66.4 41.6 C 66.4 41.8 66.5 42.0 66.6 42.1 C 66.7 42.0 66.4 41.8 66.6 41.8 C 66.6 41.9 66.6 41.8 66.7 41.8 C 66.6 42.0 66.7 42.2 66.7 42.3 C 66.9 42.2 67.0 42.6 67.0 42.3 C 67.3 42.3 67.0 42.7 67.1 42.7 C 67.2 42.4 67.4 42.5 67.4 42.3 C 67.6 42.3 67.4 42.7 67.3 42.7 C 67.5 42.9 67.6 42.7 67.6 42.9 C 67.6 42.6 68.0 42.6 67.8 42.7 C 67.6 42.9 67.9 42.9 67.9 43.0 C 67.9 42.8 68.0 42.8 67.9 42.6 C 68.1 42.6 68.3 42.7 68.4 43.0 C 68.6 42.9 68.8 43.0 68.6 43.2 C 68.8 43.2 68.7 43.2 68.9 43.3 C 68.9 43.2 68.9 43.2 68.9 43.1 C 69.1 43.2 69.0 43.4 69.3 43.5 C 69.2 43.8 69.4 43.8 69.4 44.0 C 69.3 43.9 69.2 43.8 69.1 43.7 C 69.0 43.9 69.1 44.0 69.0 44.0 C 69.0 43.9 69.0 43.8 69.0 43.8 C 69.1 44.1 68.6 44.1 68.8 43.9 C 68.8 43.9 68.8 44.0 68.8 44.0 C 68.9 43.7 68.8 43.8 69.0 43.6 C 68.8 43.6 68.9 43.3 68.8 43.5 C 68.7 43.6 68.8 43.6 68.8 43.7 C 68.5 43.7 68.8 43.4 68.6 43.4 C 68.5 43.6 68.6 43.7 68.5 43.9 C 68.4 43.8 68.2 43.7 68.2 43.5 C 68.0 43.6 68.1 43.7 68.0 43.8 C 68.0 43.7 68.0 43.5 67.9 43.4 C 67.8 43.5 67.9 43.6 67.8 43.6 C 67.7 43.4 68.0 43.4 67.8 43.2 C 67.7 43.6 67.7 43.1 67.6 43.3 C 67.7 43.3 67.6 43.6 67.6 43.4 C 67.5 43.0 67.0 43.7 66.9 43.1 C 66.9 43.2 66.8 43.2 66.8 43.2 C 66.9 43.5 67.2 43.6 67.1 44.0 C 67.3 44.0 67.4 43.7 67.4 43.7 C 67.5 44.0 67.5 44.1 67.2 44.4 C 66.9 44.3 66.8 44.0 66.7 43.9 C 66.5 44.0 66.6 44.0 66.6 44.1 C 66.1 43.6 66.3 44.5 66.1 44.3 C 66.1 44.2 66.1 44.1 66.1 44.1 C 66.0 44.2 65.9 44.1 65.9 44.2 C 65.9 44.2 65.9 44.2 65.9 44.3 C 65.7 44.3 65.8 44.1 65.9 44.0 C 66.0 44.1 66.1 44.1 66.2 43.9 C 66.0 44.0 65.9 43.7 65.7 43.9 C 65.7 43.5 66.1 43.3 66.1 43.0 C 66.2 42.9 65.8 43.5 65.6 43.6 C 65.4 43.5 65.3 43.7 65.1 43.7 C 65.2 43.4 65.3 43.6 65.4 43.4 C 65.3 43.4 65.4 43.4 65.3 43.3 C 65.2 43.3 65.1 43.5 65.0 43.5 C 65.0 43.3 64.9 43.4 64.8 43.5 C 64.7 43.3 65.0 43.3 64.8 43.2 C 64.7 43.1 64.5 43.4 64.5 43.3 C 64.5 43.2 64.6 43.1 64.5 43.1 C 64.3 43.2 64.2 43.2 64.4 43.4 C 64.2 43.3 64.1 43.3 64.0 43.6 C 64.3 43.7 64.4 43.7 64.4 44.1 C 64.5 43.8 64.5 44.0 64.6 44.1 C 64.7 43.7 64.7 44.2 64.8 44.0 C 64.8 43.9 64.8 43.9 64.7 43.8 C 65.0 43.9 65.0 43.9 65.4 43.7 C 65.3 43.8 65.3 43.9 65.3 43.9 C 65.2 44.0 65.0 43.8 65.0 44.0 C 65.0 44.4 65.2 44.0 65.3 44.3 C 65.4 44.2 65.3 44.0 65.4 44.0 C 65.4 44.2 65.5 44.4 65.5 44.5 C 65.7 44.5 65.8 44.5 65.9 44.4 C 65.9 44.5 65.9 44.6 66.0 44.6 C 66.0 44.5 65.9 44.4 66.0 44.4 C 66.2 44.8 66.3 45.1 66.7 45.1 C 66.6 45.0 66.5 44.6 66.6 44.7 C 66.6 44.9 66.9 44.7 67.0 44.9 C 67.0 45.0 66.9 44.8 66.8 45.2 C 66.9 45.2 67.0 45.3 67.0 45.4 C 67.1 45.2 67.2 45.4 67.2 45.1 C 67.1 45.1 67.0 45.3 67.0 45.2 C 67.4 44.6 67.3 45.6 67.5 45.7 C 67.7 45.6 67.5 45.4 67.7 45.4 C 67.8 45.4 67.7 45.9 67.5 45.9 C 67.4 45.8 67.3 46.1 67.4 45.8 C 67.3 45.8 67.3 45.7 67.2 45.8 C 67.3 45.9 67.2 46.0 67.2 46.1 C 67.1 46.0 66.9 46.4 67.0 46.1 C 67.0 46.2 67.1 46.1 67.1 46.0 C 66.8 46.0 66.8 45.8 66.7 45.6 C 66.7 45.8 66.6 45.7 66.5 45.9 C 66.7 45.9 66.9 46.1 66.7 46.1 C 66.7 45.8 66.3 46.5 66.4 46.2 C 66.4 46.2 66.5 46.0 66.6 46.0 C 66.5 45.9 66.5 45.7 66.4 45.7 C 65.9 45.9 65.9 45.1 65.1 45.4 C 64.9 45.3 65.3 45.4 65.4 45.2 C 65.3 45.1 65.4 45.1 65.3 45.1 C 65.2 45.3 65.2 45.0 65.1 45.2 C 65.2 45.0 64.8 45.1 64.8 44.8 C 64.7 44.9 64.7 45.0 64.6 45.0 C 64.3 44.5 63.4 44.7 63.2 44.3 C 63.2 44.5 63.0 44.4 62.9 44.5 C 62.8 44.4 62.9 44.2 62.6 44.4 C 62.4 44.3 62.6 44.2 62.7 44.2 C 62.2 44.1 61.9 43.7 61.6 43.9 C 61.4 43.9 61.6 43.7 61.4 43.5 C 61.2 43.9 61.0 43.2 60.8 43.6 C 60.6 43.5 60.5 43.0 60.5 43.3 C 60.3 43.3 60.5 43.0 60.4 43.0 C 60.3 42.9 60.3 43.6 60.1 43.5 C 60.2 43.3 60.0 43.3 60.0 43.1 C 60.1 43.1 60.2 43.1 60.3 43.0 C 60.1 43.1 60.2 42.9 60.0 42.9 C 59.8 43.0 59.4 43.0 59.4 42.6 C 59.4 42.7 59.4 42.8 59.4 42.9 C 59.3 42.9 59.2 42.6 59.1 42.9 C 58.9 42.8 58.9 42.5 58.6 42.7 C 58.5 42.7 58.8 42.4 58.4 42.3 C 58.3 42.5 57.8 42.3 57.7 42.0 C 57.6 42.3 57.7 42.0 57.6 42.0 C 57.6 42.1 57.5 42.2 57.4 42.2 C 57.5 42.1 57.4 42.1 57.3 42.1 C 57.5 41.8 57.1 42.2 57.2 41.9 C 57.2 41.9 57.3 41.7 57.3 41.7 C 57.1 41.9 57.1 41.4 57.0 41.7 C 57.0 41.8 57.2 41.8 57.1 41.9 C 56.8 42.0 57.0 41.7 56.9 41.6 C 56.9 41.7 56.9 41.8 56.8 41.8 C 56.7 41.7 56.8 41.8 56.8 41.6 C 56.7 41.6 56.5 41.7 56.4 41.7 C 56.4 41.7 56.4 41.5 56.4 41.5 C 56.2 41.3 55.4 41.3 55.3 40.9 C 55.2 41.0 55.1 41.0 55.1 41.1 C 55.0 40.9 54.9 41.0 54.8 40.8 C 54.8 40.9 54.7 41.0 54.7 41.1 C 54.4 41.2 54.8 40.8 54.6 40.8 C 54.4 41.3 54.6 40.6 54.5 40.5 C 54.4 40.6 54.3 40.6 54.3 40.8 C 54.1 40.7 54.2 40.4 54.0 40.4 C 54.0 40.5 53.8 41.2 53.7 41.4 C 53.7 41.3 53.7 41.2 53.6 41.1 C 53.8 40.9 54.1 40.1 53.7 40.2 C 53.9 40.2 53.9 40.3 53.8 40.5 C 53.6 40.4 53.6 40.3 53.4 40.2 C 53.3 40.4 53.4 40.5 53.2 40.7 C 53.2 40.7 53.1 40.8 53.1 40.8 C 53.0 40.7 53.0 40.6 52.8 40.6 C 52.8 40.5 52.9 40.5 52.9 40.6 C 53.0 40.4 53.0 40.2 53.2 40.3 C 53.1 40.4 53.0 40.6 53.2 40.6 C 53.2 40.5 53.3 40.4 53.3 40.2 C 53.2 40.2 53.0 39.9 52.9 40.0 C 52.9 40.1 53.0 40.2 52.8 40.4 C 52.7 40.2 52.7 40.0 52.6 39.8 C 52.3 39.7 51.7 39.4 51.7 39.8 C 51.5 39.6 51.6 39.7 51.4 39.6 C 51.4 39.8 51.2 39.6 51.1 39.8 C 51.4 39.8 51.3 39.8 51.5 39.8 C 51.4 40.0 51.4 40.1 51.3 40.1 C 51.3 40.0 51.3 39.9 51.1 39.9 C 51.1 39.9 51.1 40.2 51.0 40.1 C 51.0 40.1 51.0 40.0 50.9 40.0 C 51.0 39.9 51.0 39.8 51.1 39.7 C 51.2 39.6 51.3 39.6 51.4 39.5 C 51.3 39.5 51.3 39.4 51.3 39.4 C 51.2 39.5 51.0 39.3 51.0 39.4 C 51.1 39.5 51.1 39.6 50.9 39.6 C 50.9 39.6 50.8 39.4 50.7 39.5 C 50.9 39.7 50.8 39.7 50.8 40.0 C 50.6 40.0 50.7 39.7 50.4 39.7 C 50.5 39.5 50.6 39.3 50.7 39.2 C 50.7 38.7 50.1 39.0 50.0 38.9 C 50.1 39.0 50.3 38.7 50.2 38.6 C 50.2 38.7 50.1 38.6 50.0 38.7 C 49.8 39.1 49.8 39.4 49.8 39.7 C 49.7 39.6 49.7 39.7 49.6 39.7 C 49.6 39.5 49.8 39.2 49.7 39.1 C 49.6 39.5 49.5 39.1 49.3 39.3 C 49.4 39.3 49.4 39.5 49.3 39.5 C 49.4 39.3 49.2 39.3 49.2 39.2 C 49.4 39.1 49.6 38.9 49.6 39.0 C 49.5 38.9 49.8 38.8 49.6 38.7 C 49.5 38.8 49.3 39.0 49.1 39.0 C 49.1 38.9 49.3 38.7 49.2 38.6 C 49.1 38.9 48.8 38.8 49.1 38.7 C 49.0 38.6 49.0 38.6 48.9 38.5 C 49.0 38.8 48.3 38.9 48.3 39.1 C 48.4 38.7 48.5 38.5 48.5 38.4 C 48.3 38.6 48.3 38.3 48.0 38.2 C 47.9 38.5 47.9 38.2 47.8 38.2 C 47.7 38.4 47.8 38.5 47.7 38.5 C 47.6 38.3 47.6 38.3 47.6 38.2 C 47.5 38.1 47.5 38.1 47.4 38.0 C 47.4 38.1 47.4 38.2 47.4 38.3 C 47.1 37.8 46.8 38.1 46.5 37.9 C 46.6 38.1 46.8 37.7 46.7 37.7 C 46.6 37.7 46.5 37.7 46.4 37.8 C 46.4 38.0 46.4 37.9 46.3 37.8 C 46.1 37.8 46.2 38.2 46.1 38.1 C 46.0 38.0 46.1 37.9 46.1 37.8 C 46.0 37.8 46.0 37.8 45.9 37.7 C 46.0 37.9 45.8 38.0 45.7 38.0 C 45.9 37.8 45.9 37.7 45.6 37.7 C 45.7 37.6 45.8 37.5 45.7 37.5 C 45.7 37.4 45.4 37.7 45.3 37.4 C 45.4 37.4 45.4 37.4 45.5 37.3 C 45.2 37.4 45.3 37.0 45.2 36.9 C 45.2 37.1 45.1 37.3 45.1 37.5 C 45.0 37.2 44.8 37.4 44.8 37.1 C 44.9 37.2 45.0 36.6 44.8 36.6 C 44.7 36.8 44.9 36.8 44.8 37.1 C 44.6 37.2 44.6 36.8 44.5 37.0 C 44.4 37.2 44.6 37.0 44.5 37.2 C 44.4 37.1 44.5 37.3 44.4 37.3 C 44.5 37.0 44.3 37.3 44.2 37.3 C 44.2 37.2 44.2 36.8 44.0 37.0 C 44.0 37.1 44.1 37.1 44.1 37.2 C 43.7 37.2 43.8 36.8 43.4 37.0 C 43.4 36.8 43.4 36.7 43.3 36.7 C 43.3 36.8 43.2 36.8 43.1 36.8 C 43.0 36.7 43.0 36.5 42.8 36.4 C 42.9 36.2 43.1 36.1 42.9 36.0 C 42.8 36.1 42.9 36.2 42.8 36.2 C 42.8 36.2 42.8 36.1 42.7 36.2 C 42.7 36.2 42.7 36.3 42.7 36.3 C 42.7 36.3 42.8 36.4 42.8 36.4 C 42.8 36.5 42.8 36.6 42.8 36.7 C 42.5 36.7 42.7 36.3 42.4 36.4 C 42.6 36.0 42.5 35.9 42.8 35.8 C 42.6 35.7 42.5 35.8 42.3 36.0 C 42.5 36.0 42.4 36.3 42.4 36.4 C 42.3 36.4 42.2 36.5 42.1 36.5 C 42.1 36.3 42.4 36.2 42.2 36.0 C 42.3 36.4 42.0 36.2 41.9 36.1 C 41.8 36.2 41.9 36.2 41.8 36.3 C 41.4 36.3 41.7 35.5 41.4 35.9 C 41.4 35.7 41.3 35.7 41.3 35.6 C 41.5 35.6 41.6 35.6 41.7 35.6 C 41.7 35.5 41.7 35.4 41.6 35.4 C 41.6 35.5 41.5 35.5 41.5 35.4 C 41.4 35.5 41.3 35.9 41.1 36.0 C 41.1 35.9 41.1 35.8 41.1 35.7 C 40.9 35.9 41.3 35.4 41.0 35.4 C 41.0 35.5 41.0 35.6 40.9 35.7 C 40.7 35.8 40.8 35.7 40.6 35.7 C 40.7 35.3 40.9 35.3 41.0 35.1 C 40.9 35.1 40.7 35.3 40.6 35.1 C 40.7 35.3 40.5 35.4 40.4 35.4 C 40.3 35.4 40.5 35.1 40.4 35.0 C 40.3 35.1 40.1 35.2 40.2 35.4 C 40.0 35.2 40.0 35.5 39.8 35.4 C 39.9 35.3 39.9 35.3 39.9 35.4 C 40.0 35.3 40.0 35.2 40.0 35.1 C 39.8 35.3 39.5 35.2 39.3 35.3 C 39.3 34.8 38.8 35.2 38.6 34.9 C 38.8 34.7 38.3 34.7 38.2 34.4 C 38.1 34.5 37.7 34.8 37.9 34.7 C 38.0 34.4 37.8 34.4 37.7 34.3 C 37.7 34.4 37.7 34.4 37.6 34.5 C 37.4 34.4 37.4 34.2 37.4 34.0 C 37.0 34.0 36.8 33.5 36.3 33.6 C 36.4 33.3 36.3 33.4 36.1 33.1 C 36.0 33.3 35.8 33.3 35.7 33.2 C 35.6 33.4 35.5 33.3 35.5 33.4 C 35.6 33.5 35.4 33.8 35.5 33.9 C 35.4 33.6 35.1 34.0 35.0 33.7 C 35.3 33.7 35.4 33.4 35.6 33.1 C 35.3 33.0 35.3 32.9 35.3 32.7 C 35.2 32.9 35.2 33.0 35.2 33.1 C 35.1 33.1 35.1 33.0 35.0 33.0 C 35.0 32.9 35.1 32.8 35.1 32.8 C 35.0 32.8 34.9 32.9 34.8 32.9 C 34.8 32.7 35.0 32.8 35.0 32.7 C 34.8 32.5 34.7 33.0 34.5 33.0 C 34.6 32.8 34.7 32.6 34.5 32.5 C 34.4 32.6 34.3 32.8 34.2 32.7 C 34.1 32.7 34.3 32.4 34.2 32.3 C 34.2 32.4 34.1 32.4 34.1 32.3 C 34.1 32.4 34.0 32.5 33.9 32.5 C 33.9 32.3 33.8 32.4 33.7 32.4 C 33.8 32.3 33.7 31.9 33.6 32.1 C 33.6 32.2 33.7 32.2 33.7 32.3 C 33.5 32.2 33.4 32.2 33.3 32.2 C 33.5 31.7 33.1 32.0 33.0 31.7 C 32.8 31.8 32.9 32.1 32.6 32.1 C 32.6 31.9 32.7 31.9 32.8 31.7 C 32.8 31.6 32.7 31.4 32.6 31.6 C 32.5 31.7 32.6 31.7 32.6 31.8 C 32.4 31.9 32.5 31.7 32.5 31.5 C 32.4 31.7 32.3 31.7 32.2 31.9 C 31.7 31.8 31.9 31.4 31.8 31.2 C 31.8 31.3 31.7 31.2 31.6 31.3 C 31.8 31.2 31.9 31.5 31.7 31.5 C 31.8 31.4 31.5 31.4 31.4 31.5 C 31.4 31.6 31.6 31.6 31.4 31.8 C 31.2 31.8 31.5 31.4 31.2 31.5 C 31.3 31.4 31.4 31.4 31.4 31.4 C 31.4 31.3 31.3 31.3 31.3 31.2 C 31.4 31.2 31.5 31.0 31.5 30.9 C 31.4 31.0 31.2 30.8 31.3 31.1 C 31.1 31.0 30.8 31.0 30.9 31.3 C 30.7 31.3 30.9 31.0 30.7 31.1 C 30.8 30.9 30.9 30.8 30.8 30.5 C 30.8 30.7 30.7 30.7 30.6 30.9 C 30.3 30.8 30.3 30.5 30.3 30.2 C 30.3 30.6 30.3 30.3 30.0 30.5 C 30.0 30.3 30.2 30.1 29.9 30.1 C 30.0 30.5 29.6 30.0 29.6 30.4 C 29.4 30.2 29.4 30.2 29.1 30.0 C 29.2 29.8 29.3 29.8 29.5 29.8 C 29.3 30.0 29.6 30.1 29.7 30.0 C 29.7 29.9 29.7 29.9 29.7 29.8 C 29.5 29.8 29.4 29.6 29.3 29.5 C 29.2 29.6 29.1 29.7 29.0 29.9 C 28.9 29.6 28.5 29.9 28.6 29.6 C 28.6 29.6 28.7 29.6 28.7 29.5 C 28.6 29.5 28.5 29.5 28.4 29.7 C 28.6 29.9 28.6 29.9 28.8 29.8 C 28.6 29.9 28.8 30.1 28.6 30.1 C 28.8 29.8 28.2 30.2 28.4 30.0 C 28.6 29.9 28.3 29.7 28.3 29.5 C 28.3 29.5 28.3 29.5 28.3 29.5 Z M 66.5 45.7 C 66.7 45.7 66.6 45.3 66.4 45.3 C 66.5 45.4 66.4 45.5 66.4 45.6 C 66.4 45.6 66.5 45.6 66.5 45.7 C 66.5 45.7 66.5 45.7 66.5 45.7 Z M 66.0 41.7 C 65.9 42.0 66.2 41.9 66.3 42.0 C 66.3 41.9 66.3 41.8 66.4 41.8 C 66.3 41.6 66.1 42.0 66.0 41.7 C 66.0 41.7 66.0 41.7 66.0 41.7 Z M 59.5 40.0 C 59.6 40.0 59.7 39.9 59.7 40.1 C 59.7 40.1 59.8 39.9 59.8 39.9 C 60.0 39.9 59.7 40.2 59.9 40.2 C 60.2 39.8 59.8 39.5 59.5 40.0 C 59.5 40.0 59.5 40.0 59.5 40.0 Z M 31.8 27.1 C 31.8 26.9 32.1 26.8 32.1 26.6 C 31.7 26.6 31.8 27.0 31.4 26.7 C 31.4 26.8 31.4 26.9 31.4 27.0 C 31.6 26.9 31.7 26.8 31.5 27.2 C 31.6 27.2 31.8 26.8 31.8 27.1 C 31.8 27.1 31.8 27.1 31.8 27.1 Z M 28.2 24.5 C 28.2 24.5 28.2 24.6 28.2 24.7 C 28.3 24.6 28.3 24.6 28.5 24.7 C 28.6 24.4 28.4 24.4 28.2 24.5 C 28.2 24.5 28.2 24.5 28.2 24.5 Z M 17.8 19.6 C 17.8 19.6 17.7 19.6 17.7 19.6 C 17.7 19.7 17.4 20.0 17.7 20.0 C 17.7 19.9 17.7 19.9 17.6 19.9 C 17.7 19.8 17.8 19.9 17.8 19.7 C 17.8 19.7 17.8 19.7 17.8 19.6 C 17.8 19.6 17.8 19.6 17.8 19.6 Z M 12.5 19.9 C 12.8 19.7 12.5 19.0 12.5 19.9 C 12.5 19.9 12.5 19.9 12.5 19.9 C 12.5 19.9 12.5 19.9 12.5 19.9 Z M 11.9 22.6 C 11.9 22.7 11.9 22.7 11.9 22.7 C 12.1 22.8 11.9 22.8 11.9 23.0 C 12.2 22.9 12.0 22.6 12.3 22.5 C 12.3 22.4 12.0 22.7 11.9 22.6 C 11.9 22.6 11.9 22.6 11.9 22.6 Z M 41.6 35.8 C 41.8 35.8 42.0 35.6 42.1 35.4 C 42.0 35.3 41.9 35.3 41.9 35.2 C 41.7 35.2 42.0 35.4 42.0 35.4 C 41.9 35.6 41.7 35.6 41.6 35.8 C 41.6 35.8 41.6 35.8 41.6 35.8 Z M 42.2 35.9 C 42.3 35.9 42.4 35.8 42.5 35.6 C 42.4 35.6 42.4 35.5 42.4 35.5 C 42.3 35.5 42.4 35.7 42.2 35.9 C 42.2 35.9 42.2 35.9 42.2 35.9 Z M 41.3 35.3 C 41.4 35.3 41.4 35.2 41.5 35.1 C 41.4 35.0 41.4 34.9 41.3 34.9 C 41.3 35.0 41.2 35.0 41.2 35.1 C 41.3 35.2 41.3 35.1 41.4 35.1 C 41.4 35.2 41.3 35.3 41.3 35.3 C 41.3 35.3 41.3 35.3 41.3 35.3 Z M 42.8 35.9 C 43.1 36.0 43.4 35.7 43.7 35.4 C 43.5 35.4 43.1 35.8 43.0 35.6 C 42.8 35.6 43.0 35.8 42.9 35.8 C 42.9 35.9 42.8 35.9 42.8 35.9 C 42.8 35.9 42.8 35.9 42.8 35.9 Z M 45.4 36.9 C 45.4 37.1 45.6 36.8 45.8 36.9 C 45.8 36.8 45.7 36.7 45.8 36.6 C 45.6 36.5 45.5 37.0 45.4 36.9 C 45.4 36.9 45.4 36.9 45.4 36.9 Z M 46.8 37.3 C 47.0 37.4 46.8 37.2 46.9 37.0 C 46.8 37.0 46.6 36.9 46.5 37.1 C 46.7 37.0 46.8 37.0 46.8 37.3 C 46.8 37.3 46.8 37.3 46.8 37.3 Z M 47.8 37.7 C 48.0 37.7 47.9 37.4 48.0 37.2 C 48.0 37.2 47.9 37.3 47.9 37.4 C 47.9 37.4 47.8 37.3 47.7 37.3 C 47.7 37.4 47.9 37.5 47.8 37.7 C 47.8 37.7 47.8 37.7 47.8 37.7 Z M 37.8 33.5 C 38.0 33.5 38.0 33.2 38.2 33.4 C 37.9 33.2 38.4 32.6 37.9 32.6 C 37.9 32.7 37.8 32.8 37.9 32.6 C 37.6 32.7 38.0 32.8 37.7 33.0 C 37.8 33.0 37.9 32.8 38.0 32.8 C 38.0 33.1 38.1 33.2 37.8 33.5 C 37.8 33.5 37.8 33.5 37.8 33.5 Z M 38.0 32.3 C 37.9 32.2 37.7 32.7 37.8 32.4 C 37.7 32.4 37.7 32.5 37.6 32.5 C 37.7 32.6 37.7 32.6 37.7 32.6 C 37.8 32.6 37.9 32.6 38.0 32.3 C 38.0 32.3 38.0 32.3 38.0 32.3 Z M 39.0 32.8 C 38.8 32.8 38.8 32.6 38.7 32.8 C 38.7 32.4 38.5 32.9 38.5 32.5 C 38.3 32.5 38.4 32.7 38.4 32.8 C 38.2 32.9 38.4 32.6 38.2 32.6 C 38.1 32.9 38.3 32.9 38.2 33.1 C 38.3 33.2 38.4 33.0 38.5 33.0 C 38.6 33.0 38.5 33.1 38.5 33.2 C 38.7 33.2 38.6 33.4 38.7 33.4 C 38.8 33.2 38.8 33.1 38.6 33.1 C 38.8 33.1 39.0 33.0 39.1 33.1 C 38.9 33.3 39.4 33.6 39.5 33.2 C 39.4 33.1 39.3 33.3 39.3 33.4 C 39.1 33.1 39.0 33.1 39.0 32.8 C 39.0 32.8 39.0 32.8 39.0 32.8 Z M 41.6 34.6 C 41.6 34.6 41.6 34.7 41.7 34.7 C 41.6 34.9 41.5 34.8 41.6 35.0 C 41.7 35.1 41.7 35.0 41.8 35.0 C 41.8 34.9 41.7 34.6 41.8 34.5 C 41.9 34.4 41.8 34.3 41.7 34.3 C 41.7 34.6 41.5 34.2 41.4 34.2 C 41.3 34.5 41.2 34.0 41.1 34.2 C 41.0 34.4 41.4 34.3 41.5 34.4 C 41.4 34.4 41.5 35.0 41.6 34.6 C 41.6 34.6 41.6 34.6 41.6 34.6 Z M 37.5 32.3 C 37.4 32.4 37.3 32.4 37.4 32.4 C 37.3 32.5 37.2 32.3 37.1 32.7 C 37.1 32.7 37.0 32.6 37.0 32.6 C 37.0 32.5 37.2 32.6 37.2 32.4 C 37.0 32.4 37.1 32.3 37.0 32.3 C 37.1 32.1 37.1 32.0 37.2 31.8 C 37.1 31.9 37.0 31.8 37.0 32.0 C 36.8 31.9 37.1 31.7 36.9 31.6 C 36.9 31.4 37.1 31.5 37.2 31.7 C 37.3 31.5 36.8 31.4 36.7 31.3 C 36.8 31.5 36.5 31.7 36.4 31.9 C 36.3 31.8 36.4 31.7 36.4 31.5 C 36.3 31.5 36.2 31.6 36.2 31.4 C 36.1 31.4 36.1 31.6 36.0 31.7 C 35.9 31.6 36.1 31.3 35.9 31.3 C 35.9 31.7 35.7 31.7 35.5 31.5 C 35.5 31.6 35.6 31.7 35.5 31.8 C 35.4 31.9 35.4 31.6 35.4 31.5 C 35.3 31.5 35.3 31.6 35.4 31.6 C 35.3 31.7 35.2 31.7 35.2 31.8 C 35.4 31.9 35.9 32.0 36.3 32.6 C 36.2 32.4 36.4 32.4 36.5 32.5 C 36.5 32.6 36.4 32.6 36.3 32.6 C 36.4 33.0 36.6 32.4 36.8 32.6 C 36.9 32.8 36.6 32.7 36.7 32.9 C 36.8 32.9 37.0 32.8 36.9 33.0 C 37.1 33.0 37.3 32.7 37.6 32.9 C 37.5 32.7 37.6 32.1 37.4 32.2 C 37.4 32.3 37.4 32.3 37.5 32.3 C 37.5 32.3 37.5 32.3 37.5 32.3 Z M 42.5 35.3 C 42.6 35.4 42.7 35.2 42.7 35.4 C 42.9 35.4 42.7 35.1 42.7 35.1 C 42.6 35.1 42.6 35.2 42.5 35.3 C 42.5 35.3 42.5 35.3 42.5 35.3 Z M 59.5 42.2 C 59.6 42.4 59.7 42.1 59.9 42.1 C 59.8 42.0 59.8 41.8 59.6 41.8 C 59.5 41.9 59.4 42.1 59.5 42.2 C 59.5 42.2 59.5 42.2 59.5 42.2 Z M 42.0 34.9 C 41.8 35.1 42.3 34.7 42.2 34.9 C 42.4 34.8 42.1 34.7 42.3 34.6 C 42.2 34.6 42.2 34.4 41.9 34.5 C 41.9 34.6 42.0 34.7 42.1 34.7 C 42.1 34.9 42.0 34.8 42.0 34.9 C 42.0 34.9 42.0 34.9 42.0 34.9 Z M 57.5 40.7 C 57.3 40.9 57.5 41.2 57.5 41.3 C 57.7 41.0 57.6 41.1 57.5 40.7 C 57.5 40.7 57.5 40.7 57.5 40.7 Z M 61.1 42.4 C 61.3 42.2 60.8 42.3 61.0 42.1 C 60.9 42.0 60.9 42.1 60.8 42.2 C 60.8 42.1 60.6 42.1 60.8 41.9 C 60.8 41.7 61.0 42.0 61.0 41.7 C 61.1 41.7 61.1 41.8 61.2 41.9 C 61.0 41.8 61.0 42.1 61.1 42.2 C 61.2 42.0 61.1 42.0 61.3 41.9 C 61.2 42.0 61.3 42.2 61.1 42.6 C 61.3 42.6 61.4 42.2 61.6 42.3 C 61.6 42.1 61.5 42.1 61.4 42.0 C 61.6 41.7 61.6 42.3 61.7 41.9 C 61.6 42.1 61.7 42.3 61.6 42.5 C 61.4 42.5 61.3 42.6 61.1 42.7 C 61.1 42.9 61.5 42.4 61.6 42.8 C 61.7 42.6 61.8 42.6 61.8 42.4 C 62.0 42.5 61.8 42.8 61.8 42.8 C 61.7 43.0 62.1 43.0 62.1 42.8 C 62.1 43.0 62.5 43.1 62.6 42.8 C 62.6 43.0 63.0 42.7 62.9 43.1 C 63.0 43.0 63.1 43.1 63.2 43.2 C 63.4 42.9 63.1 42.9 63.1 42.8 C 63.2 42.5 63.4 42.9 63.4 42.7 C 63.4 42.7 63.5 42.6 63.5 42.6 C 63.3 42.6 63.2 42.6 63.1 42.6 C 63.0 42.6 63.1 42.6 63.1 42.4 C 63.0 42.5 62.5 42.7 62.7 42.2 C 62.4 42.3 62.3 42.1 62.1 42.3 C 62.0 42.2 62.2 42.2 62.2 42.0 C 61.7 42.1 61.3 41.5 60.8 41.7 C 60.8 41.7 60.8 41.5 60.9 41.4 C 60.3 41.4 60.6 41.9 60.3 41.6 C 60.4 41.4 60.5 41.5 60.6 41.3 C 60.5 41.2 60.4 41.4 60.2 41.2 C 60.2 41.3 60.2 41.4 60.1 41.5 C 60.0 41.5 60.1 41.2 60.1 41.1 C 59.9 41.1 59.9 41.3 59.9 40.9 C 59.7 41.0 59.5 41.0 59.4 40.8 C 59.2 40.9 59.3 41.3 59.4 41.4 C 59.4 41.5 59.4 41.5 59.3 41.6 C 59.2 41.3 59.3 40.8 59.0 40.7 C 59.2 41.0 58.9 40.7 58.9 40.5 C 58.8 40.5 58.7 40.8 58.8 40.8 C 58.8 40.9 58.7 40.8 58.8 40.7 C 58.6 41.1 58.8 41.3 59.2 41.3 C 58.9 41.7 59.5 41.4 59.1 41.8 C 59.4 41.8 59.3 41.5 59.6 41.6 C 59.6 41.5 59.5 41.4 59.6 41.3 C 59.8 41.4 59.6 41.7 59.9 41.7 C 60.0 41.5 59.8 41.5 59.9 41.3 C 60.0 41.7 60.1 41.8 60.2 42.1 C 60.3 41.9 60.3 41.7 60.5 42.0 C 60.5 42.0 60.5 42.1 60.5 42.1 C 60.4 42.0 60.1 42.4 60.5 42.6 C 60.6 42.4 60.5 42.4 60.4 42.3 C 60.5 42.2 60.6 42.2 60.7 42.2 C 60.8 42.3 60.8 42.4 60.7 42.4 C 60.7 42.6 60.9 42.2 61.1 42.4 C 61.1 42.4 61.1 42.4 61.1 42.4 Z M 45.3 36.3 C 45.4 36.2 45.4 36.2 45.5 36.3 C 45.6 36.1 45.4 36.1 45.5 35.9 C 45.4 35.9 45.4 36.2 45.3 36.3 C 45.3 36.3 45.3 36.3 45.3 36.3 Z M 43.8 35.5 C 43.7 35.7 43.9 35.4 44.0 35.6 C 44.1 35.4 44.0 35.4 44.0 35.2 C 43.9 35.1 43.9 35.6 43.8 35.5 C 43.8 35.5 43.8 35.5 43.8 35.5 Z M 44.5 35.8 C 44.4 36.0 44.6 35.7 44.4 35.7 C 44.5 35.5 44.6 35.4 44.7 35.4 C 44.7 35.1 44.5 35.5 44.4 35.4 C 44.4 35.5 44.4 35.7 44.5 35.8 C 44.5 35.8 44.5 35.8 44.5 35.8 Z M 44.7 35.8 C 44.8 35.7 44.8 36.0 45.0 35.9 C 45.0 35.7 44.7 35.7 44.6 35.7 C 44.5 35.9 44.8 36.0 44.7 35.8 C 44.7 35.8 44.7 35.8 44.7 35.8 Z M 55.4 39.5 C 55.5 39.6 55.5 39.5 55.5 39.4 C 55.6 39.8 55.8 39.8 55.5 40.1 C 55.8 40.0 55.8 40.3 55.9 40.4 C 56.1 40.5 56.1 40.3 56.2 40.3 C 56.4 40.4 56.1 40.4 56.1 40.5 C 56.0 40.7 56.2 40.3 56.4 40.5 C 56.5 40.1 56.5 40.6 56.6 40.2 C 56.7 40.4 56.8 40.3 56.9 40.3 C 57.0 40.2 56.8 40.1 56.9 40.0 C 56.9 39.7 56.7 40.1 56.9 40.1 C 56.7 40.3 56.6 39.9 56.5 40.1 C 56.5 39.8 56.7 40.1 56.7 39.8 C 56.7 39.8 56.6 39.8 56.6 39.9 C 56.5 39.8 56.5 39.7 56.5 39.6 C 56.5 39.6 56.5 39.7 56.5 39.7 C 56.6 39.8 56.6 39.3 56.8 39.4 C 56.8 39.3 56.7 39.3 56.7 39.1 C 56.7 39.0 56.5 39.7 56.4 39.4 C 56.1 39.6 56.6 39.8 56.3 40.2 C 56.0 40.0 56.3 39.7 56.1 39.6 C 56.1 39.7 56.0 39.8 56.0 39.8 C 55.9 39.9 56.0 39.9 56.1 39.9 C 56.1 40.0 56.0 39.9 55.9 39.9 C 55.9 40.0 55.9 40.0 55.9 40.1 C 55.7 39.9 55.9 39.5 56.2 39.4 C 56.3 39.2 56.0 39.1 55.9 39.2 C 55.9 39.4 55.8 39.3 55.8 39.6 C 55.8 39.6 55.9 39.5 55.9 39.5 C 56.0 39.6 55.8 39.6 55.8 39.7 C 55.7 39.6 55.8 39.4 55.6 39.5 C 55.7 39.5 55.7 39.4 55.8 39.3 C 55.7 39.3 55.6 39.3 55.6 39.3 C 55.5 39.4 55.5 39.4 55.4 39.5 C 55.4 39.5 55.4 39.5 55.4 39.5 Z M 58.1 41.3 C 58.2 41.4 58.2 41.2 58.1 41.2 C 58.2 41.1 58.3 41.1 58.4 41.1 C 58.3 41.0 58.3 41.0 58.1 40.9 C 58.4 40.7 58.4 40.2 58.1 40.1 C 57.8 40.5 58.1 40.7 57.9 40.9 C 58.1 40.8 58.2 41.0 58.1 41.3 C 58.1 41.3 58.1 41.3 58.1 41.3 Z M 42.8 35.0 C 42.9 35.0 43.0 35.1 43.1 35.1 C 43.2 34.9 42.9 34.6 42.8 35.0 C 42.8 35.0 42.8 35.0 42.8 35.0 Z M 35.1 31.4 C 35.0 31.4 35.0 31.3 35.0 31.3 C 34.8 31.3 35.0 31.5 34.9 31.7 C 34.9 31.7 35.0 31.7 35.0 31.7 C 35.1 31.7 34.9 31.4 35.1 31.4 C 35.1 31.3 35.1 31.4 35.1 31.4 C 35.1 31.4 35.1 31.4 35.1 31.4 Z M 45.3 35.9 C 45.4 35.9 45.5 35.6 45.7 35.8 C 45.7 35.5 45.6 35.6 45.5 35.6 C 45.4 35.7 45.4 35.8 45.3 35.9 C 45.3 35.9 45.3 35.9 45.3 35.9 Z M 54.4 39.6 C 54.5 39.8 54.7 39.3 54.9 39.6 C 54.9 39.2 54.6 39.5 54.4 39.6 C 54.4 39.6 54.4 39.6 54.4 39.6 Z M 63.8 43.0 C 63.8 42.9 63.9 42.9 63.8 42.7 C 63.7 42.7 63.6 42.9 63.5 42.8 C 63.6 43.1 63.9 43.0 63.9 43.4 C 64.1 43.4 64.1 43.2 64.3 43.0 C 64.2 43.0 64.2 43.0 64.2 42.9 C 64.0 43.2 64.1 42.6 63.8 43.0 C 63.8 43.0 63.8 43.0 63.8 43.0 Z M 57.5 40.6 C 57.4 40.5 57.7 40.5 57.8 40.3 C 57.8 40.4 57.7 40.5 57.7 40.6 C 57.8 40.7 57.9 40.6 57.9 40.4 C 57.8 40.2 57.5 40.1 57.8 39.9 C 57.6 39.8 57.6 40.1 57.5 40.1 C 57.5 39.9 57.6 39.9 57.7 39.7 C 57.6 39.7 57.4 39.9 57.5 39.6 C 57.1 39.8 57.1 40.2 57.2 40.7 C 57.4 40.5 57.3 40.3 57.5 40.6 C 57.5 40.6 57.5 40.6 57.5 40.6 Z M 50.5 37.5 C 50.5 37.6 50.6 37.6 50.6 37.7 C 50.8 37.6 51.0 37.4 51.2 37.2 C 51.2 37.0 51.0 37.1 51.0 37.3 C 51.0 37.1 50.9 37.0 50.9 36.8 C 50.8 36.8 50.6 37.2 50.7 36.8 C 50.6 36.9 50.6 37.0 50.5 36.8 C 50.7 37.2 50.3 36.9 50.2 37.1 C 50.4 37.2 50.5 37.3 50.6 37.0 C 50.7 37.2 50.8 37.3 50.7 37.5 C 50.7 37.6 50.6 37.5 50.5 37.5 C 50.5 37.5 50.5 37.5 50.5 37.5 Z M 51.4 37.1 C 51.4 37.2 51.3 37.2 51.2 37.1 C 51.3 37.2 51.2 37.3 51.2 37.5 C 51.3 37.5 51.4 37.4 51.4 37.6 C 51.5 37.7 51.5 37.3 51.6 37.5 C 51.7 37.4 51.5 37.4 51.6 37.3 C 51.5 37.4 51.4 37.4 51.4 37.1 C 51.4 37.1 51.4 37.1 51.4 37.1 Z M 53.0 38.3 C 53.1 38.3 53.0 38.1 53.1 38.0 C 53.1 38.0 52.8 37.8 52.9 37.7 C 53.0 37.3 52.4 37.8 52.6 37.4 C 52.5 37.4 52.5 37.6 52.5 37.6 C 52.7 37.7 52.6 37.8 52.5 37.8 C 52.4 37.9 52.6 37.9 52.7 38.0 C 52.7 37.8 52.7 37.8 52.7 37.7 C 52.8 37.8 52.9 38.1 53.0 38.3 C 53.0 38.3 53.0 38.3 53.0 38.3 Z M 29.2 28.5 C 29.3 28.6 29.4 28.6 29.5 28.5 C 29.5 28.4 29.4 28.5 29.3 28.4 C 29.3 28.3 29.4 28.3 29.5 28.3 C 29.5 28.1 29.2 28.2 29.2 28.5 C 29.2 28.5 29.2 28.5 29.2 28.5 Z M 30.3 28.9 C 30.4 29.0 30.5 29.0 30.6 28.9 C 30.6 28.7 30.5 28.9 30.4 28.9 C 30.4 28.8 30.4 28.7 30.4 28.6 C 30.3 28.6 30.3 28.7 30.3 28.8 C 30.2 28.8 30.2 28.7 30.2 28.7 C 30.0 28.8 30.4 28.7 30.3 28.9 C 30.3 28.9 30.3 28.9 30.3 28.9 Z M 52.1 37.8 C 52.1 37.6 52.1 37.5 52.0 37.4 C 51.9 37.6 51.8 37.5 51.7 37.5 C 51.8 37.8 51.9 37.7 52.1 37.8 C 52.1 37.8 52.1 37.8 52.1 37.8 Z M 37.3 31.6 C 37.4 31.9 37.5 31.5 37.7 31.8 C 37.7 31.7 37.8 31.6 37.8 31.6 C 37.6 31.7 37.6 31.5 37.3 31.6 C 37.3 31.6 37.3 31.6 37.3 31.6 Z M 14.3 22.2 C 14.4 22.1 14.1 22.1 14.2 21.9 C 14.0 22.3 14.2 21.6 13.8 21.6 C 13.8 21.5 13.9 21.5 13.9 21.5 C 13.7 21.3 13.9 21.8 13.9 22.0 C 14.1 22.0 14.0 22.2 14.3 22.2 C 14.3 22.2 14.3 22.2 14.3 22.2 Z M 62.4 41.6 C 62.4 41.7 62.4 41.7 62.5 41.7 C 62.5 41.7 62.5 41.7 62.6 41.8 C 62.7 41.5 62.5 41.2 62.8 41.0 C 62.8 41.0 62.7 41.0 62.7 41.0 C 62.2 41.6 62.4 40.4 61.9 40.7 C 61.8 40.7 61.8 40.8 61.8 40.8 C 61.8 40.8 61.8 40.9 61.8 40.9 C 62.0 40.6 62.1 41.1 62.0 41.2 C 61.9 41.3 62.0 41.2 62.0 41.2 C 62.1 41.2 62.1 41.2 62.1 41.2 C 62.1 41.1 62.1 41.1 62.1 41.0 C 62.2 41.1 62.4 41.3 62.2 41.5 C 62.3 41.5 62.4 41.4 62.5 41.4 C 62.6 41.4 62.5 41.6 62.4 41.6 C 62.4 41.6 62.4 41.6 62.4 41.6 Z M 63.9 42.1 C 64.1 42.3 64.1 42.0 64.3 42.1 C 64.2 41.9 64.0 42.1 63.9 41.9 C 63.9 42.0 63.9 42.0 63.9 42.1 C 63.9 42.1 63.9 42.1 63.9 42.1 Z M 60.8 40.5 C 60.9 40.3 60.8 40.2 60.6 40.1 C 60.5 40.4 60.6 40.4 60.8 40.5 C 60.8 40.5 60.8 40.5 60.8 40.5 Z M 61.5 40.8 C 61.7 40.8 61.3 40.7 61.5 40.5 C 61.4 40.4 61.4 40.4 61.4 40.3 C 61.3 40.4 61.3 40.5 61.2 40.4 C 61.1 40.6 61.3 40.5 61.2 40.7 C 61.4 40.6 61.4 40.6 61.5 40.8 C 61.5 40.8 61.5 40.8 61.5 40.8 Z M 61.6 40.9 C 61.8 40.8 61.8 40.4 61.6 40.3 C 61.6 40.5 61.6 40.7 61.6 40.9 C 61.6 40.9 61.6 40.9 61.6 40.9 Z M 48.6 35.5 C 48.7 35.5 48.7 35.2 48.8 35.3 C 48.9 35.2 48.5 35.0 48.8 35.1 C 48.8 34.8 48.6 35.2 48.5 35.1 C 48.5 35.2 48.5 35.2 48.4 35.2 C 48.3 35.4 48.7 35.3 48.6 35.5 C 48.6 35.5 48.6 35.5 48.6 35.5 Z M 48.9 35.6 C 49.0 35.6 49.0 35.5 49.0 35.5 C 49.0 35.4 49.1 35.5 49.2 35.5 C 49.1 35.6 49.2 35.1 49.3 35.0 C 48.9 35.0 49.0 35.4 48.9 35.6 C 48.9 35.6 48.9 35.6 48.9 35.6 Z M 49.3 35.6 C 49.4 35.8 49.7 35.9 49.9 35.7 C 49.9 35.3 49.5 35.3 49.3 35.6 C 49.3 35.6 49.3 35.6 49.3 35.6 Z M 47.5 34.7 C 47.7 35.2 48.5 35.0 48.0 34.6 C 47.9 34.8 47.5 34.7 47.4 34.5 C 47.3 34.6 47.0 34.7 47.1 34.6 C 46.9 34.7 47.5 35.0 47.5 34.7 C 47.5 34.7 47.5 34.7 47.5 34.7 Z M 50.3 35.4 C 50.1 35.4 50.1 35.9 50.0 35.7 C 49.9 35.7 50.0 35.8 49.9 35.9 C 50.1 36.0 50.6 35.9 50.5 36.1 C 50.6 36.1 50.7 35.9 50.9 36.0 C 50.9 35.9 50.2 36.0 50.2 35.5 C 50.3 35.4 50.5 35.5 50.3 35.4 C 50.3 35.4 50.3 35.4 50.3 35.4 Z M 37.8 30.3 C 37.8 30.5 38.0 30.4 37.9 30.7 C 38.1 30.4 38.2 30.7 38.4 30.5 C 38.4 30.6 38.3 30.9 38.4 31.1 C 38.5 30.9 38.4 30.9 38.6 30.8 C 38.8 30.8 38.6 31.0 38.8 31.0 C 39.0 30.7 39.3 31.2 39.4 30.8 C 39.3 30.7 39.2 30.9 39.1 30.8 C 39.0 30.7 39.1 30.6 39.0 30.6 C 39.2 30.4 39.1 30.8 39.3 30.6 C 39.3 30.5 39.2 30.4 39.2 30.3 C 39.1 30.2 39.2 30.4 39.1 30.5 C 38.9 30.4 39.4 30.0 39.1 29.9 C 39.1 30.2 39.0 30.2 38.9 30.4 C 38.9 30.2 38.5 30.3 38.8 30.1 C 38.8 29.9 38.6 30.1 38.5 30.2 C 38.4 30.2 38.4 30.1 38.5 30.0 C 38.2 30.0 38.1 30.2 38.0 30.5 C 37.9 30.7 38.0 30.3 37.8 30.3 C 37.8 30.3 37.8 30.3 37.8 30.3 Z M 45.7 33.9 C 45.5 34.1 45.9 33.9 46.0 34.1 C 45.9 34.0 46.0 33.7 45.9 33.6 C 45.9 33.7 45.9 33.7 45.8 33.7 C 45.7 33.8 45.9 34.0 45.7 33.9 C 45.7 33.9 45.7 33.9 45.7 33.9 Z M 51.2 36.2 C 51.2 36.4 51.5 36.3 51.7 36.4 C 51.8 36.1 51.2 36.4 51.3 36.0 C 51.2 36.0 51.3 36.2 51.2 36.2 C 51.2 36.2 51.2 36.2 51.2 36.2 Z M 39.8 31.5 C 39.9 31.5 39.9 31.4 39.9 31.4 C 39.9 31.3 40.0 31.4 40.1 31.4 C 40.1 31.2 40.2 31.2 40.3 31.0 C 40.4 31.0 40.4 31.0 40.4 30.9 C 40.3 31.3 40.9 30.8 40.6 30.6 C 40.5 30.9 40.5 30.9 40.3 30.9 C 40.3 30.6 40.0 30.8 40.1 30.5 C 40.0 30.5 39.9 30.6 39.8 30.6 C 39.8 30.4 39.7 30.2 39.9 29.9 C 39.7 29.8 39.6 30.4 39.4 30.4 C 39.3 30.2 39.6 30.2 39.7 30.0 C 39.6 30.0 39.7 29.9 39.7 29.8 C 39.6 29.8 39.5 30.0 39.6 30.0 C 39.5 30.1 39.2 30.2 39.4 30.0 C 39.2 30.0 39.3 30.7 39.6 30.6 C 39.7 30.6 39.5 31.0 39.4 30.9 C 39.4 31.1 39.7 30.7 39.5 31.1 C 39.6 31.2 39.7 31.2 39.7 31.2 C 39.8 31.2 39.7 31.1 39.7 31.1 C 39.8 31.1 39.9 31.1 40.0 31.2 C 39.9 31.2 39.8 31.3 39.8 31.5 C 39.8 31.5 39.8 31.5 39.8 31.5 Z M 50.5 35.8 C 50.6 35.9 50.7 35.8 50.8 35.8 C 50.9 35.6 50.5 35.6 50.5 35.8 C 50.5 35.8 50.5 35.8 50.5 35.8 Z M 37.2 29.2 C 37.2 29.3 37.3 29.3 37.2 29.4 C 37.0 29.4 37.2 29.6 36.9 30.0 C 37.2 29.9 37.5 29.4 37.2 29.1 C 37.0 29.0 37.4 29.3 37.2 29.2 C 37.2 29.2 37.2 29.2 37.2 29.2 Z M 37.8 29.7 C 38.0 29.6 37.7 29.4 37.6 29.2 C 37.6 29.2 37.7 29.1 37.7 29.0 C 37.4 29.3 37.6 29.5 37.2 29.9 C 37.4 30.1 37.5 30.2 37.7 30.1 C 37.7 30.1 37.7 30.1 37.7 30.1 C 37.5 30.0 37.7 29.8 37.9 30.0 C 37.9 29.8 37.7 29.8 37.6 29.7 C 37.6 29.8 37.6 29.8 37.6 29.9 C 37.5 29.9 37.6 29.8 37.5 29.7 C 37.5 29.6 37.8 29.5 37.8 29.7 C 37.8 29.7 37.8 29.7 37.8 29.7 Z M 26.6 25.5 C 26.8 25.6 26.7 25.2 26.8 24.8 C 26.7 24.8 26.6 24.8 26.6 24.8 C 26.5 25.0 26.7 25.1 26.7 25.2 C 26.5 25.5 26.5 25.1 26.4 25.3 C 26.2 25.6 26.7 25.3 26.6 25.5 C 26.6 25.5 26.6 25.5 26.6 25.5 Z M 42.6 32.2 C 42.7 32.2 42.7 32.1 42.6 32.1 C 42.7 32.0 42.8 32.0 42.8 32.1 C 42.9 32.1 42.8 32.0 42.9 32.0 C 43.0 31.9 42.7 31.9 42.7 32.0 C 42.5 32.0 42.8 31.7 42.8 31.6 C 42.7 31.6 42.6 31.8 42.5 31.7 C 42.5 31.8 42.6 32.0 42.6 32.2 C 42.6 32.2 42.6 32.2 42.6 32.2 Z M 36.6 29.5 C 36.5 29.6 36.9 29.2 36.9 29.5 C 37.1 29.6 36.9 29.2 37.1 29.3 C 37.0 29.2 36.7 29.3 36.5 29.2 C 36.4 29.3 36.8 29.4 36.5 29.4 C 36.5 29.5 36.6 29.5 36.6 29.4 C 36.6 29.4 36.6 29.5 36.6 29.5 C 36.6 29.5 36.6 29.5 36.6 29.5 Z M 37.0 29.1 C 37.1 29.0 37.0 29.0 37.0 29.1 C 36.9 29.0 37.0 28.8 37.1 28.9 C 37.1 28.6 36.9 29.0 36.8 28.8 C 36.8 29.0 36.7 29.2 36.6 28.9 C 36.4 29.1 36.9 29.2 37.0 29.1 C 37.0 29.1 37.0 29.1 37.0 29.1 Z M 28.5 26.1 C 28.5 26.0 28.4 26.0 28.3 26.0 C 28.5 25.8 28.9 26.1 28.9 26.3 C 28.9 26.3 29.0 26.2 29.0 26.3 C 29.0 26.3 29.2 26.2 29.1 26.1 C 29.2 26.1 29.3 26.1 29.3 26.0 C 29.5 26.2 29.2 26.2 29.2 26.3 C 29.5 26.2 29.4 26.4 29.6 26.5 C 29.6 26.3 29.3 26.2 29.5 25.9 C 29.2 26.1 29.1 25.9 29.0 25.6 C 29.1 26.0 28.4 25.9 28.1 25.7 C 28.1 25.6 28.0 25.6 27.9 25.4 C 27.9 25.1 27.8 25.6 28.0 25.6 C 27.9 25.7 27.7 25.5 27.6 25.5 C 27.7 25.7 27.6 25.8 27.6 25.9 C 27.8 26.0 27.7 25.8 27.8 25.7 C 27.8 25.7 27.9 25.7 27.9 25.7 C 27.5 26.0 28.3 25.9 28.1 25.9 C 28.3 25.9 28.2 26.2 28.5 26.1 C 28.5 26.1 28.5 26.1 28.5 26.1 Z M 33.7 28.3 C 33.7 28.3 34.0 28.2 33.9 28.4 C 34.2 28.4 34.1 28.1 34.4 28.2 C 34.4 28.1 34.3 28.1 34.3 28.0 C 34.2 28.0 34.0 28.0 34.0 28.3 C 33.9 28.2 33.8 28.3 33.7 28.3 C 33.8 28.2 33.9 28.1 34.0 28.2 C 34.0 28.0 34.1 27.9 33.9 27.8 C 33.8 28.0 33.7 28.2 33.7 28.3 C 33.7 28.3 33.7 28.3 33.7 28.3 Z M 34.4 28.3 C 34.4 28.3 34.4 28.4 34.3 28.5 C 34.3 28.8 34.5 28.2 34.6 28.3 C 34.6 28.3 34.6 28.4 34.5 28.5 C 34.7 28.5 34.7 28.5 34.8 28.6 C 35.0 28.5 34.7 28.3 34.7 28.2 C 34.6 28.2 34.5 28.4 34.4 28.3 C 34.4 28.3 34.4 28.3 34.4 28.3 Z M 36.0 29.2 C 35.9 29.4 36.1 29.1 36.2 29.2 C 36.2 28.9 36.0 29.0 36.2 28.8 C 36.1 28.6 36.0 28.6 35.9 28.6 C 35.8 28.4 35.8 28.8 36.0 28.8 C 35.9 28.9 35.9 28.8 35.8 28.9 C 35.9 28.5 35.3 29.0 35.6 28.8 C 35.6 28.8 35.6 28.9 35.6 29.0 C 35.7 28.9 36.1 29.1 36.0 29.2 C 36.0 29.2 36.0 29.2 36.0 29.2 Z M 41.6 31.2 C 41.4 31.2 41.4 31.2 41.2 31.0 C 41.2 31.0 41.2 30.9 41.3 30.9 C 41.3 30.8 41.2 30.8 41.1 30.8 C 41.0 30.9 41.1 30.9 41.1 30.9 C 41.2 31.1 41.1 31.0 41.0 31.2 C 41.1 31.5 41.5 31.2 41.5 31.5 C 41.6 31.5 41.5 31.4 41.6 31.2 C 41.6 31.2 41.6 31.2 41.6 31.2 Z M 15.2 20.5 C 15.2 20.5 15.1 20.5 15.0 20.6 C 15.1 20.6 15.2 20.6 15.3 20.6 C 15.2 20.5 15.3 20.2 15.1 20.1 C 15.2 20.2 15.1 20.4 15.2 20.5 C 15.2 20.5 15.2 20.5 15.2 20.5 Z M 35.4 28.9 C 35.5 28.8 35.5 28.7 35.6 28.7 C 35.7 28.5 35.5 28.5 35.5 28.4 C 35.4 28.4 35.4 28.5 35.3 28.5 C 35.3 28.6 35.5 28.6 35.3 28.8 C 35.3 28.8 35.3 28.8 35.3 28.7 C 35.1 28.8 35.3 28.9 35.4 28.9 C 35.4 28.9 35.4 28.9 35.4 28.9 Z M 26.2 25.1 C 26.3 25.1 26.2 25.0 26.2 24.9 C 26.4 24.8 26.2 24.5 26.3 24.3 C 26.3 24.5 26.6 24.5 26.6 24.6 C 26.7 24.6 26.7 24.3 26.9 24.4 C 26.9 24.2 26.7 24.3 26.6 24.4 C 26.7 24.1 26.4 24.4 26.5 24.1 C 26.3 24.0 26.1 24.1 26.0 24.3 C 26.3 24.3 26.0 24.7 26.3 24.7 C 26.2 24.8 26.2 24.7 26.1 24.7 C 26.1 24.9 26.2 25.0 26.2 25.1 C 26.2 25.1 26.2 25.1 26.2 25.1 Z M 32.0 27.5 C 32.1 27.5 32.2 27.3 32.2 27.1 C 32.2 27.2 32.1 27.2 32.0 27.1 C 32.0 27.3 32.1 27.3 32.0 27.5 C 32.0 27.5 32.0 27.5 32.0 27.5 Z M 27.2 25.2 C 27.2 25.3 27.2 25.2 27.2 25.2 C 27.4 25.2 27.4 25.4 27.4 25.5 C 27.5 25.5 27.5 25.3 27.6 25.2 C 27.3 25.4 27.5 25.1 27.3 25.0 C 27.3 25.1 27.2 25.2 27.2 25.2 C 27.2 25.2 27.2 25.2 27.2 25.2 Z M 30.9 26.8 C 30.9 26.9 30.9 26.8 30.9 26.8 C 31.1 26.5 31.2 26.9 31.3 26.8 C 31.4 26.6 31.1 26.5 31.5 26.6 C 31.5 26.4 31.2 26.4 31.0 26.3 C 31.1 26.1 31.3 26.2 31.4 25.9 C 31.2 26.0 31.0 26.1 30.8 26.4 C 31.0 26.5 30.9 26.7 30.9 26.8 C 30.9 26.8 30.9 26.8 30.9 26.8 Z M 30.6 26.6 C 30.6 26.7 30.7 26.6 30.8 26.6 C 30.8 26.3 30.7 26.4 30.4 26.2 C 30.4 26.3 30.4 26.3 30.3 26.4 C 30.3 26.3 30.2 26.3 30.2 26.3 C 30.3 26.6 30.4 26.5 30.7 26.5 C 30.7 26.6 30.7 26.6 30.6 26.6 C 30.6 26.6 30.6 26.6 30.6 26.6 Z M 38.1 29.6 C 38.1 29.5 38.1 29.3 38.0 29.2 C 37.9 29.4 37.9 29.6 38.1 29.6 C 38.1 29.6 38.1 29.6 38.1 29.6 Z M 27.0 24.9 C 26.8 25.0 27.2 25.0 27.2 24.7 C 27.1 24.6 27.0 24.5 27.0 24.2 C 26.7 24.5 27.2 24.7 27.0 24.9 C 27.0 24.9 27.0 24.9 27.0 24.9 Z M 28.2 24.8 C 28.3 24.9 28.2 25.2 28.2 25.0 C 28.0 24.9 28.2 25.2 28.0 25.1 C 28.1 25.2 28.3 25.4 28.4 25.3 C 28.5 25.1 28.3 25.1 28.3 24.9 C 28.3 24.9 28.4 24.9 28.4 24.9 C 28.4 24.8 28.3 24.9 28.2 24.8 C 28.2 24.8 28.2 24.8 28.2 24.8 Z M 28.9 25.5 C 28.9 25.4 28.8 25.2 28.6 25.1 C 28.7 25.3 28.7 25.6 28.9 25.5 C 28.9 25.5 28.9 25.5 28.9 25.5 Z M 18.5 20.9 C 18.6 21.0 18.6 20.7 18.6 20.6 C 18.5 20.6 18.4 20.7 18.3 20.6 C 18.3 20.9 18.5 20.7 18.5 20.9 C 18.5 20.9 18.5 20.9 18.5 20.9 Z M 18.1 20.6 C 18.1 20.4 17.9 20.4 17.9 20.3 C 17.6 20.7 17.8 19.9 17.6 20.2 C 17.6 20.2 17.6 20.1 17.5 20.1 C 17.5 20.5 17.9 20.5 18.1 20.6 C 18.1 20.6 18.1 20.6 18.1 20.6 Z M 30.1 25.5 C 30.2 25.6 30.2 25.1 30.3 25.2 C 30.3 25.1 30.1 25.0 30.3 25.0 C 30.1 24.7 30.1 25.4 30.1 25.5 C 30.1 25.5 30.1 25.5 30.1 25.5 Z M 32.9 26.4 C 32.8 26.5 33.1 26.5 33.1 26.6 C 33.2 26.5 33.1 26.5 33.0 26.4 C 33.1 26.4 33.1 26.3 33.2 26.3 C 33.2 26.1 33.0 26.4 32.9 26.4 C 32.9 26.4 32.9 26.4 32.9 26.4 Z M 28.2 29.2 C 28.2 29.0 28.2 28.7 28.0 29.0 C 27.9 28.8 28.1 28.8 28.1 28.6 C 27.9 28.7 28.0 28.5 27.7 28.5 C 27.9 28.2 27.7 28.2 27.7 28.0 C 27.8 28.0 27.9 28.3 28.0 28.1 C 27.9 28.1 28.1 27.9 28.0 28.0 C 28.2 28.2 27.7 28.2 27.9 28.5 C 28.0 28.2 28.1 28.8 28.3 28.9 C 28.2 29.1 28.4 29.3 28.2 29.2 C 28.2 29.2 28.2 29.2 28.2 29.2 Z M 27.4 28.4 C 27.2 28.3 27.4 27.8 27.4 27.8 C 27.4 27.9 27.5 28.0 27.6 27.9 C 27.5 27.9 27.5 27.9 27.5 27.8 C 27.8 27.9 27.6 28.1 27.6 28.3 C 27.4 28.3 27.4 28.2 27.4 28.3 C 27.4 28.3 27.4 28.3 27.4 28.4 C 27.4 28.4 27.4 28.4 27.4 28.4 Z M 25.9 23.4 C 25.9 23.6 26.0 23.4 26.1 23.4 C 26.0 23.8 26.4 23.4 26.4 23.6 C 26.3 23.7 26.1 23.7 26.0 23.7 C 26.1 23.8 26.1 23.9 26.2 23.8 C 26.1 24.0 25.9 23.9 25.8 24.1 C 25.9 23.9 25.7 24.1 25.7 24.0 C 26.0 23.9 25.8 23.4 25.9 23.4 C 25.9 23.4 25.9 23.4 25.9 23.4 Z M 31.5 25.7 C 31.6 25.5 31.5 24.8 31.9 24.7 C 31.9 24.9 31.8 25.1 31.7 25.4 C 31.9 25.3 31.8 25.5 32.0 25.3 C 32.0 26.1 31.8 25.2 31.5 25.7 C 31.5 25.7 31.5 25.7 31.5 25.7 Z M 32.4 25.8 C 32.3 26.0 32.4 26.1 32.3 26.2 C 32.3 26.0 31.9 26.1 32.0 26.0 C 32.2 26.0 32.3 25.8 32.4 25.8 C 32.4 25.8 32.4 25.8 32.4 25.8 Z M 54.6 37.2 C 54.4 37.3 54.4 36.9 54.6 36.8 C 54.4 37.0 54.8 37.0 54.6 37.2 C 54.6 37.2 54.6 37.2 54.6 37.2 Z M 46.7 38.1 C 46.8 38.3 46.9 38.3 46.9 38.5 C 46.7 38.5 46.8 38.3 46.6 38.3 C 46.6 38.4 46.5 38.4 46.5 38.3 C 46.6 38.3 46.6 38.2 46.7 38.1 C 46.7 38.1 46.7 38.1 46.7 38.1 Z M 33.7 32.5 C 33.7 32.6 33.7 32.7 33.6 32.8 C 33.5 32.6 33.2 32.7 33.0 32.8 C 33.1 32.7 33.1 32.6 33.2 32.5 C 33.4 32.7 33.5 32.6 33.7 32.5 C 33.7 32.5 33.7 32.5 33.7 32.5 Z M 33.9 33.1 C 33.9 33.0 33.9 32.7 34.1 32.7 C 34.0 32.9 34.1 33.2 34.0 33.2 C 34.0 33.0 34.0 33.0 33.9 33.1 C 33.9 33.1 33.9 33.1 33.9 33.1 Z M 25.0 28.1 C 24.8 28.0 24.9 28.3 24.9 28.4 C 24.8 28.3 24.7 28.3 24.7 28.1 C 24.8 28.2 25.0 27.8 25.0 28.1 C 25.0 28.1 25.0 28.1 25.0 28.1 Z M 27.2 28.4 C 27.5 28.5 27.3 28.8 27.5 29.0 C 27.3 29.1 27.1 29.0 26.9 29.1 C 27.0 29.0 26.9 28.9 27.0 28.8 C 27.1 28.8 27.1 28.9 27.2 29.0 C 27.3 28.7 27.2 28.8 27.3 28.6 C 27.3 28.6 27.2 28.6 27.1 28.6 C 27.2 28.5 27.1 28.4 27.2 28.4 C 27.2 28.4 27.2 28.4 27.2 28.4 Z M 25.3 27.5 C 25.1 27.5 25.2 27.2 25.2 27.2 C 25.2 27.4 25.3 27.2 25.3 27.3 C 25.1 27.3 25.4 27.5 25.3 27.7 C 25.2 27.6 25.1 27.7 25.1 27.8 C 25.0 27.8 24.9 27.8 24.9 27.7 C 25.0 27.7 25.0 27.7 25.1 27.7 C 25.0 27.7 25.0 27.6 25.0 27.6 C 25.1 27.6 25.2 27.6 25.3 27.5 C 25.3 27.5 25.3 27.5 25.3 27.5 Z M 26.0 27.8 C 25.9 27.7 26.0 27.5 26.0 27.3 C 26.1 27.5 26.1 27.8 26.1 28.0 C 26.0 27.9 25.7 28.1 25.7 27.9 C 25.8 27.9 26.0 28.0 26.0 27.8 C 26.0 27.8 26.0 27.8 26.0 27.8 Z M 68.5 44.6 C 68.4 44.4 68.4 44.2 68.3 44.1 C 68.1 44.3 68.2 44.8 68.2 44.6 C 68.0 44.6 68.2 44.3 68.1 44.3 C 68.1 44.6 67.4 44.4 67.6 44.1 C 67.6 44.1 67.7 44.0 67.8 43.9 C 68.0 44.0 68.2 43.9 68.4 43.9 C 68.4 44.2 68.8 44.5 69.1 44.3 C 69.1 44.8 69.6 44.4 69.6 44.8 C 69.8 44.7 69.6 44.5 69.8 44.5 C 69.8 44.8 69.7 44.9 69.8 45.0 C 69.8 44.9 69.8 44.8 69.9 44.8 C 69.9 44.9 69.9 44.9 69.9 45.0 C 69.7 44.9 69.8 45.4 69.6 45.3 C 69.5 45.2 69.8 45.0 69.6 44.9 C 69.4 44.9 69.3 44.9 69.2 45.2 C 69.2 45.1 69.1 45.2 69.0 45.2 C 69.3 44.9 68.6 45.1 69.0 44.9 C 69.0 44.9 69.1 45.0 69.3 44.9 C 69.3 44.6 69.1 44.7 68.9 44.8 C 68.9 44.6 69.0 44.5 68.9 44.5 C 68.7 44.5 68.9 44.8 68.7 44.9 C 68.8 44.9 68.8 44.9 68.8 45.0 C 68.6 44.7 68.5 44.9 68.3 44.8 C 68.5 44.7 68.3 44.6 68.5 44.6 C 68.5 44.6 68.5 44.6 68.5 44.6 Z M 70.6 45.1 C 70.7 45.2 70.7 45.2 70.8 45.2 C 70.7 45.4 70.5 45.4 70.6 45.6 C 70.3 45.5 70.7 45.3 70.6 45.1 C 70.6 45.1 70.6 45.1 70.6 45.1 Z M 69.8 43.9 C 69.9 43.6 69.7 44.1 69.6 44.1 C 69.8 44.1 69.9 44.1 69.8 44.4 C 69.7 44.2 69.6 44.2 69.4 44.2 C 69.7 44.0 69.4 43.9 69.4 43.6 C 69.6 43.6 69.7 43.5 69.9 43.6 C 69.8 43.7 70.0 43.9 69.8 43.9 C 69.8 43.9 69.8 43.9 69.8 43.9 Z M 70.4 43.7 C 70.4 43.9 70.7 43.9 70.5 44.1 C 70.4 44.0 70.3 44.1 70.3 44.3 C 70.1 44.3 70.2 44.2 70.1 44.1 C 70.1 43.8 70.3 43.9 70.4 43.8 C 70.3 43.8 70.3 43.7 70.4 43.7 C 70.4 43.7 70.4 43.7 70.4 43.7 Z M 14.3 19.2 C 14.2 19.5 14.0 19.3 14.0 19.2 C 14.0 19.4 13.9 19.5 13.8 19.5 C 13.9 19.2 13.7 19.3 13.7 18.9 C 13.6 19.1 13.7 19.2 13.5 19.2 C 13.4 19.1 13.2 19.1 12.9 19.1 C 13.0 18.8 13.1 18.8 13.2 18.8 C 13.0 18.8 13.2 18.6 13.0 18.5 C 13.0 18.7 12.9 18.7 12.9 18.6 C 13.1 18.6 12.8 18.2 13.0 18.2 C 13.0 18.3 13.0 18.2 13.1 18.2 C 12.9 18.5 13.2 18.5 13.2 18.7 C 13.6 18.2 13.8 18.5 14.0 18.8 C 14.0 19.0 13.9 19.0 13.9 19.1 C 14.0 19.0 14.1 19.0 14.2 19.0 C 14.1 19.1 14.1 19.2 14.2 19.3 C 14.2 19.2 14.2 19.2 14.3 19.2 C 14.3 19.2 14.3 19.2 14.3 19.2 Z M 60.3 38.4 C 60.5 38.0 60.1 38.1 59.9 38.2 C 60.1 37.8 60.7 38.1 60.3 38.4 C 60.3 38.4 60.3 38.4 60.3 38.4 Z M 62.6 39.0 C 62.5 39.0 62.5 39.2 62.4 39.2 C 62.5 39.0 62.1 39.3 62.2 39.1 C 62.4 38.9 62.5 39.0 62.6 39.0 C 62.6 39.0 62.6 39.0 62.6 39.0 Z M 64.6 39.9 C 64.4 39.9 64.7 40.1 64.6 40.2 C 64.4 40.1 64.3 40.0 64.4 39.8 C 64.5 40.0 64.7 39.7 64.6 39.9 C 64.6 39.9 64.6 39.9 64.6 39.9 Z M 61.7 38.4 C 61.6 38.3 62.0 38.0 61.9 38.2 C 61.8 38.2 61.9 38.5 62.1 38.5 C 62.0 38.7 61.9 38.6 61.9 38.9 C 61.7 38.9 62.0 38.6 61.8 38.6 C 61.7 38.7 61.8 38.7 61.7 38.9 C 61.7 38.9 61.6 38.9 61.5 38.8 C 61.6 38.7 61.6 38.6 61.7 38.5 C 61.8 38.5 61.8 38.5 61.9 38.4 C 61.8 38.3 61.8 38.4 61.7 38.4 C 61.7 38.4 61.7 38.4 61.7 38.4 Z M 11.6 17.6 C 11.5 17.6 11.5 17.7 11.5 17.8 C 11.6 17.6 11.8 17.2 11.8 17.5 C 11.5 17.6 11.8 17.9 11.6 17.9 C 11.6 17.7 11.4 17.9 11.3 17.8 C 11.3 17.6 11.6 17.4 11.6 17.6 C 11.6 17.6 11.6 17.6 11.6 17.6 Z M 11.9 17.9 C 11.9 17.8 11.9 17.8 11.8 17.8 C 11.9 17.6 11.9 17.5 12.0 17.5 C 11.9 17.6 12.2 17.8 12.0 17.8 C 11.9 17.6 12.0 17.9 12.0 18.0 C 12.0 17.9 11.7 18.1 11.8 17.9 C 11.8 17.9 11.9 18.0 11.9 17.9 C 11.9 17.9 11.9 17.9 11.9 17.9 Z M 15.6 19.1 C 15.7 18.9 15.6 18.9 15.6 18.8 C 15.9 18.9 16.1 19.1 16.2 19.1 C 16.1 19.1 16.0 19.3 16.1 19.4 C 16.0 19.3 15.9 19.4 15.9 19.3 C 16.1 19.1 15.8 19.1 15.6 19.1 C 15.6 19.1 15.6 19.1 15.6 19.1 Z M 15.6 19.1 " fill="#EA3C43"></path><path d="M 69.3 27.8 C 69.1 28.0 69.1 28.2 69.1 28.4 C 69.2 28.3 69.2 27.9 69.3 27.8 Z M 67.6 34.6 C 67.5 34.6 67.5 34.5 67.4 34.4 C 67.6 34.3 67.6 33.9 67.8 33.9 C 67.7 34.2 67.6 34.3 67.6 34.6 Z M 67.1 34.6 C 67.3 34.4 67.3 34.0 67.5 34.0 C 67.4 34.2 67.3 34.5 67.1 34.6 Z M 65.8 38.1 C 65.7 38.0 65.7 37.8 65.8 37.6 C 66.0 37.6 66.0 37.6 66.1 37.7 C 66.0 37.8 65.9 38.0 65.8 38.1 Z M 66.5 47.4 C 66.6 47.1 66.4 46.9 66.3 46.6 C 66.7 46.5 66.7 45.7 67.1 45.7 C 67.0 46.2 66.7 47.1 66.5 47.4 Z M 67.2 55.4 C 67.2 55.7 67.8 55.5 67.9 55.7 C 67.5 55.7 67.3 55.9 66.9 55.8 C 66.9 55.7 67.1 55.7 67.0 55.6 C 66.9 55.5 66.7 55.7 66.6 55.5 C 66.8 55.4 67.0 55.6 67.2 55.4 Z M 64.7 55.3 C 64.7 55.4 64.6 55.5 64.6 55.5 C 64.6 55.4 64.5 55.2 64.7 55.3 C 64.6 55.3 64.7 55.3 64.7 55.3 Z M 72.8 26.7 C 72.9 26.7 72.9 26.8 72.9 26.6 C 73.0 26.7 72.9 26.8 73.1 26.9 C 73.0 26.8 73.1 26.8 73.2 26.8 C 73.3 26.9 73.0 26.8 73.1 26.9 C 73.2 27.0 73.2 27.0 73.3 27.0 C 73.3 26.9 73.2 26.9 73.3 26.8 C 73.4 26.9 73.4 26.8 73.6 26.9 C 73.6 27.0 73.5 27.1 73.7 27.1 C 73.7 27.1 73.6 27.0 73.7 27.0 C 73.8 27.1 73.6 27.1 73.8 27.2 C 73.7 27.2 73.6 27.3 73.5 27.5 C 73.6 27.4 73.6 27.5 73.7 27.5 C 73.9 28.1 74.3 28.6 74.7 29.0 C 74.9 29.3 75.3 29.5 75.5 29.8 C 75.8 30.1 76.0 30.8 76.4 31.2 C 76.3 31.5 76.5 31.6 76.5 31.9 C 76.4 31.9 76.4 31.8 76.4 31.8 C 76.5 31.9 76.5 32.0 76.6 32.1 C 76.9 32.3 77.3 32.3 77.6 32.4 C 77.6 32.7 77.5 33.0 77.6 33.2 C 77.7 33.4 78.1 33.3 78.3 33.5 C 78.1 33.5 77.9 33.4 77.7 33.4 C 77.9 33.9 78.7 34.4 78.7 35.2 C 78.6 35.2 78.6 35.0 78.6 35.1 C 78.7 35.3 78.9 35.5 79.2 35.7 C 79.3 35.6 79.2 35.5 79.2 35.5 C 79.8 36.3 80.6 37.0 81.0 37.9 C 80.8 37.8 80.6 38.1 80.5 38.1 C 80.9 37.4 79.8 37.3 79.9 36.7 C 79.8 36.6 79.7 36.7 79.5 36.7 C 79.4 36.4 79.3 36.2 79.1 35.9 C 79.0 36.3 79.3 36.8 79.7 36.8 C 79.6 37.0 79.6 37.2 79.8 37.2 C 79.8 37.4 79.8 37.3 79.7 37.5 C 79.8 37.6 79.8 37.6 79.9 37.7 C 79.9 37.6 80.0 37.5 80.2 37.6 C 80.1 37.7 80.1 37.8 80.0 37.9 C 80.7 38.5 81.0 39.3 81.7 40.0 C 81.6 40.0 81.6 39.9 81.6 40.0 C 82.1 40.3 82.1 40.8 82.4 41.3 C 82.0 41.1 81.9 40.7 81.6 40.6 C 81.6 41.1 82.8 41.5 82.1 42.0 C 82.1 41.9 82.3 41.8 82.2 41.7 C 82.1 41.7 82.0 41.6 82.0 41.7 C 81.9 42.0 81.8 42.2 81.9 42.3 C 81.9 42.3 82.0 42.2 82.0 42.1 C 82.2 42.4 82.4 42.7 82.7 43.0 C 82.8 42.6 82.5 42.4 82.4 42.0 C 82.7 42.2 83.0 42.5 82.9 42.7 C 82.9 42.7 82.9 42.6 82.8 42.6 C 82.8 42.7 82.9 42.8 82.9 43.0 C 83.0 42.9 83.2 43.0 83.3 42.9 C 83.2 42.5 83.0 42.2 83.0 41.8 C 83.1 42.0 83.4 42.1 83.6 42.0 C 83.7 42.1 83.7 42.2 83.9 42.3 C 84.0 42.1 83.8 42.1 83.9 42.0 C 84.1 42.2 84.0 42.5 84.2 42.8 C 84.2 42.8 84.3 42.8 84.4 42.8 C 84.5 43.1 84.9 43.5 84.7 43.8 C 84.7 43.5 84.6 43.2 84.4 43.1 C 84.5 43.4 84.4 43.8 84.6 44.0 C 84.9 44.3 84.6 44.4 84.6 44.7 C 84.5 45.0 84.7 45.9 85.0 46.0 C 85.0 46.3 85.3 46.6 85.4 46.7 C 85.4 46.2 85.3 45.8 85.4 45.3 C 85.7 46.5 86.2 47.4 86.7 48.4 C 86.7 48.4 86.6 48.5 86.6 48.6 C 86.8 48.9 87.0 49.2 87.2 49.5 C 87.4 49.9 87.7 50.2 87.7 50.5 C 87.3 50.0 86.9 49.4 86.5 48.9 C 86.9 49.6 87.4 50.3 87.8 51.0 C 87.9 50.9 88.2 51.2 88.3 51.0 C 88.9 50.8 90.0 51.9 89.7 52.6 C 89.7 52.7 89.6 52.9 89.4 52.7 C 89.4 52.7 89.5 52.5 89.4 52.5 C 89.3 53.0 88.7 52.3 88.5 52.7 C 88.7 52.9 88.8 53.1 89.0 53.3 C 88.8 53.1 88.6 53.0 88.4 52.8 C 87.1 52.8 85.9 52.9 84.8 53.3 C 84.9 53.3 85.1 53.2 85.1 53.4 C 84.9 53.4 84.6 53.6 84.5 53.5 C 84.5 53.5 84.5 53.5 84.5 53.4 C 83.4 53.6 82.2 54.1 81.2 54.3 C 81.3 54.2 81.1 54.2 81.0 54.2 C 80.9 54.3 80.6 54.1 80.5 54.3 C 80.3 53.9 79.8 54.4 79.6 54.2 C 79.7 54.0 79.7 54.3 79.7 54.1 C 79.6 54.1 79.5 54.1 79.4 54.2 C 79.5 54.3 79.3 54.3 79.4 54.3 C 79.5 54.4 79.6 54.2 79.6 54.4 C 79.5 54.5 79.2 54.3 79.2 54.5 C 79.1 54.5 78.8 54.3 78.9 54.5 C 78.8 54.4 78.7 54.2 78.5 54.4 C 78.6 54.4 78.6 54.6 78.5 54.6 C 78.5 54.5 78.4 54.5 78.4 54.5 C 78.3 54.6 78.2 54.6 78.2 54.7 C 78.0 54.7 77.7 54.6 77.6 54.7 C 77.7 54.7 77.9 54.7 77.8 54.9 C 77.7 55.0 77.4 54.7 77.3 54.9 C 77.3 54.9 77.3 54.9 77.3 54.8 C 77.0 54.8 76.7 55.3 76.6 54.9 C 76.7 55.0 76.8 55.0 76.9 54.9 C 76.6 54.8 76.3 54.8 76.0 54.7 C 76.1 54.8 76.2 54.9 76.2 55.0 C 76.0 55.0 75.9 55.3 75.6 55.2 C 75.7 55.1 75.8 55.2 75.9 55.0 C 75.6 54.8 75.3 55.1 74.9 54.9 C 74.8 54.8 75.2 54.9 75.0 54.8 C 74.9 54.7 74.8 54.7 74.7 54.9 C 74.8 55.2 75.4 55.0 75.4 55.3 C 75.1 55.4 74.8 55.0 74.5 55.0 C 74.5 55.1 74.6 55.2 74.6 55.2 C 74.5 55.2 74.4 55.0 74.2 55.2 C 74.2 55.3 74.2 55.3 74.2 55.4 C 73.8 55.2 73.3 55.5 72.9 55.4 C 73.2 55.5 72.8 55.3 72.8 55.4 C 72.8 55.2 73.1 55.3 73.0 55.1 C 72.8 55.2 72.6 55.5 72.3 55.5 C 72.3 55.3 72.5 55.2 72.3 55.1 C 72.2 55.3 72.1 55.5 72.2 55.6 C 72.0 55.5 71.8 55.7 71.9 55.4 C 71.6 55.3 71.6 55.7 71.4 55.7 C 70.8 55.5 70.4 55.8 69.8 55.6 C 69.7 55.5 69.9 55.5 69.8 55.4 C 69.6 55.4 69.5 55.5 69.4 55.6 C 69.4 55.7 69.5 55.7 69.5 55.8 C 68.9 55.7 68.5 56.1 67.9 55.9 C 68.0 55.8 67.9 55.6 68.0 55.5 C 68.1 55.9 68.6 55.3 68.7 55.7 C 68.8 55.6 68.8 55.5 68.8 55.4 C 69.0 55.4 69.2 55.5 69.3 55.4 C 69.3 55.4 69.3 55.3 69.2 55.2 C 68.9 55.1 68.7 55.1 68.5 55.3 C 68.5 55.2 68.6 55.0 68.4 55.0 C 67.9 55.2 67.3 55.1 66.9 55.3 C 66.9 55.4 67.0 55.3 67.0 55.4 C 66.9 55.4 66.9 55.5 66.8 55.4 C 66.8 55.3 66.8 55.2 66.8 55.1 C 66.6 55.1 66.8 55.3 66.6 55.4 C 66.6 55.3 66.3 55.3 66.3 55.2 C 66.2 55.3 66.1 55.4 66.0 55.4 C 66.0 55.4 66.0 55.3 65.9 55.3 C 65.9 55.6 66.1 55.5 66.2 55.4 C 66.1 55.5 66.1 55.6 66.2 55.7 C 66.3 55.6 66.3 55.4 66.4 55.4 C 66.4 55.6 66.4 55.3 66.5 55.4 C 66.5 55.5 66.3 55.6 66.2 55.8 C 66.2 55.6 66.0 55.6 66.0 55.7 C 66.1 55.6 65.9 55.6 65.8 55.5 C 65.8 55.7 65.5 55.7 65.6 55.8 C 65.8 55.6 65.9 55.7 66.1 55.8 C 66.1 56.0 66.0 55.8 65.9 55.9 C 65.9 55.8 66.0 55.8 65.9 55.7 C 65.8 55.8 65.6 55.9 65.5 55.9 C 65.4 55.7 65.8 55.6 65.7 55.6 C 65.6 55.6 65.5 55.6 65.5 55.5 C 65.5 55.8 65.3 55.8 65.2 55.9 C 65.2 55.9 65.2 55.9 65.3 55.9 C 65.4 56.0 65.3 55.7 65.4 55.8 C 65.4 55.9 65.3 55.9 65.3 56.1 C 65.1 56.0 65.2 56.0 65.1 56.0 C 65.1 56.0 65.0 56.1 65.0 56.2 C 65.0 56.0 64.9 56.3 64.7 56.1 C 64.8 56.0 64.9 56.2 65.0 56.0 C 64.9 56.0 65.0 55.9 64.9 55.9 C 64.9 55.9 64.9 56.0 64.8 56.0 C 64.7 55.9 64.7 56.1 64.5 56.0 C 64.6 55.9 64.7 56.0 64.7 55.9 C 64.6 55.9 64.7 55.8 64.6 55.8 C 64.6 55.9 64.4 56.0 64.2 55.9 C 64.3 55.8 64.4 55.9 64.4 55.8 C 64.4 55.8 64.3 55.8 64.3 55.7 C 64.6 55.6 64.4 55.5 64.7 55.5 C 64.7 55.6 64.6 55.6 64.7 55.6 C 64.8 55.6 64.7 55.7 64.8 55.7 C 64.9 55.7 64.8 55.5 64.9 55.6 C 64.9 55.6 65.2 55.6 65.1 55.5 C 65.2 55.4 65.1 55.5 65.2 55.6 C 65.2 55.4 65.4 55.6 65.4 55.4 C 65.3 55.5 65.0 55.4 65.1 55.3 C 65.1 55.3 65.3 55.4 65.3 55.4 C 65.3 55.3 65.4 55.0 65.5 55.1 C 65.6 55.2 65.2 55.2 65.4 55.3 C 65.5 55.3 65.7 55.2 65.7 55.2 C 65.6 55.1 65.6 55.1 65.5 55.0 C 65.5 55.0 65.5 55.0 65.5 55.1 C 65.3 55.1 65.4 54.9 65.2 55.0 C 65.3 54.7 65.4 55.1 65.5 54.9 C 65.3 54.8 65.1 54.2 64.7 54.4 C 64.7 54.6 64.7 54.7 64.8 54.9 C 64.7 54.7 64.6 54.7 64.4 54.7 C 64.5 54.6 64.4 54.5 64.4 54.5 C 64.3 54.6 64.1 54.4 63.9 54.6 C 64.1 54.7 64.2 54.7 64.3 54.7 C 64.1 55.2 63.6 54.3 63.4 54.5 C 63.4 54.5 63.4 54.4 63.4 54.4 C 63.4 54.5 63.4 54.5 63.4 54.6 C 62.7 54.4 61.7 54.6 60.8 54.4 C 60.4 54.8 60.0 55.2 59.2 54.8 C 59.4 54.5 59.1 54.4 59.4 54.1 C 59.6 54.2 59.5 54.3 59.6 54.3 C 59.6 54.1 59.7 53.9 59.7 53.7 C 59.5 53.7 59.2 53.8 59.2 53.8 C 59.7 53.6 60.5 52.9 60.3 52.1 C 61.3 50.0 62.5 47.8 63.3 45.6 C 63.5 45.5 63.6 45.0 63.5 44.9 C 63.6 44.8 63.8 44.9 63.8 44.8 C 63.8 44.7 63.9 44.6 63.8 44.6 C 63.6 44.5 63.5 44.6 63.3 44.5 C 63.3 44.4 63.3 44.2 63.4 44.2 C 63.3 44.3 63.4 44.4 63.5 44.4 C 63.6 44.4 63.8 44.3 63.9 44.1 C 64.3 44.2 64.1 44.6 64.2 44.9 C 64.3 44.2 64.7 43.7 64.8 43.1 C 64.9 42.6 64.8 42.1 65.1 41.6 C 64.7 42.3 64.8 43.2 64.2 43.6 C 64.3 43.4 64.4 43.2 64.3 43.1 C 64.1 43.2 64.3 43.4 64.2 43.6 C 64.1 43.7 64.0 43.6 63.9 43.6 C 63.8 43.8 64.0 43.9 64.0 44.0 C 63.8 44.1 63.8 43.9 63.8 43.8 C 64.1 43.3 63.9 42.2 64.5 42.0 C 64.5 41.8 64.6 41.6 64.5 41.5 C 64.9 40.9 64.9 39.8 65.5 39.4 C 65.5 39.7 65.5 39.9 65.5 40.2 C 65.7 39.6 65.9 39.1 65.9 38.7 C 65.8 38.7 65.8 38.8 65.9 38.9 C 65.7 39.0 65.8 38.7 65.7 38.8 C 65.6 39.0 65.7 39.3 65.5 39.3 C 65.7 39.0 65.7 38.6 65.8 38.5 C 65.8 38.6 65.9 38.6 65.9 38.5 C 66.0 38.4 65.9 38.3 65.9 38.1 C 66.3 37.9 66.4 37.0 66.6 36.5 C 66.5 36.7 66.4 37.0 66.2 37.0 C 66.2 36.9 66.3 36.7 66.2 36.6 C 67.0 36.5 66.8 35.2 67.3 34.5 C 67.5 34.6 67.3 34.9 67.5 35.0 C 67.6 34.9 67.6 34.8 67.7 34.8 C 67.6 35.3 67.4 35.9 67.4 36.3 C 67.5 36.0 67.8 35.6 67.9 35.3 C 68.0 35.3 68.0 35.4 68.0 35.3 C 68.1 35.1 68.1 35.0 68.2 34.9 C 68.4 35.0 67.9 35.4 68.1 35.5 C 68.1 35.6 68.3 35.4 68.3 35.6 C 68.4 35.5 68.4 35.6 68.5 35.5 C 68.6 34.8 68.9 34.5 69.1 33.7 C 68.9 33.8 68.9 34.6 68.4 34.6 C 68.3 34.5 68.5 34.5 68.4 34.4 C 68.4 34.3 68.4 34.5 68.3 34.4 C 68.3 34.3 68.5 34.3 68.3 34.2 C 68.5 34.1 68.7 34.0 68.7 33.6 C 68.7 33.6 68.6 33.7 68.6 33.6 C 68.5 33.1 69.3 33.0 69.0 32.5 C 69.3 32.5 69.5 32.1 69.3 31.9 C 69.2 31.9 69.2 32.1 69.1 32.0 C 69.2 31.9 69.3 31.7 69.3 31.6 C 69.3 31.6 69.3 31.5 69.2 31.5 C 69.4 31.1 69.5 30.4 69.6 29.9 C 69.5 30.1 69.2 30.5 69.3 30.8 C 69.2 30.9 69.0 30.9 68.9 31.1 C 68.9 31.2 69.0 31.1 69.0 31.2 C 68.5 31.5 69.0 32.3 68.5 32.6 C 68.5 32.5 68.6 32.4 68.5 32.3 C 68.4 32.5 68.0 32.8 68.1 33.0 C 68.2 33.0 68.2 32.9 68.3 32.9 C 68.0 33.2 67.9 34.1 67.5 33.9 C 67.6 33.4 68.0 33.2 68.0 32.9 C 67.9 33.0 67.9 33.0 67.8 32.9 C 67.8 32.7 68.0 32.7 68.0 32.6 C 67.9 32.1 68.0 31.7 68.2 31.1 C 68.4 31.1 68.6 30.7 68.5 30.5 C 68.6 30.4 68.7 30.5 68.7 30.5 C 68.9 30.0 68.7 29.3 69.2 29.1 C 69.1 29.4 68.8 29.6 68.9 29.8 C 69.3 29.4 69.5 28.8 69.9 28.3 C 69.7 28.3 69.6 28.5 69.5 28.5 C 69.7 28.3 69.5 27.8 69.7 27.5 C 69.7 27.6 69.7 27.8 69.7 27.9 C 70.0 27.7 70.1 27.3 70.3 26.9 C 70.5 26.9 70.7 26.9 70.9 26.8 C 70.6 26.8 70.2 26.8 69.9 27.0 C 70.0 26.6 70.6 26.8 70.9 26.7 C 70.7 26.7 70.8 26.4 70.8 26.4 C 70.9 26.3 71.1 26.1 71.1 25.9 C 71.3 26.1 71.4 25.8 71.5 25.9 C 71.6 26.0 71.4 25.9 71.6 26.0 C 71.6 25.9 71.6 25.8 71.7 25.8 C 71.6 25.9 72.0 25.9 72.1 25.9 C 72.1 26.4 72.5 26.5 72.8 26.5 C 72.7 26.4 72.9 26.3 72.9 26.4 C 72.7 26.5 73.2 26.4 73.0 26.6 C 73.0 26.5 72.8 26.6 72.8 26.7 Z M 65.6 54.8 C 65.7 54.8 65.7 54.9 65.7 55.0 C 65.9 55.0 65.7 54.8 65.9 54.8 C 65.9 54.8 65.9 54.8 65.9 54.7 C 65.9 54.7 65.9 54.7 65.8 54.7 C 65.7 54.9 65.7 54.8 65.5 54.8 C 65.5 54.8 65.5 54.9 65.5 54.9 C 65.6 54.9 65.5 54.9 65.6 54.8 Z M 66.0 54.9 C 65.9 54.9 65.9 54.9 65.9 55.0 C 65.9 55.1 65.7 55.0 65.6 55.0 C 65.8 55.1 65.9 55.1 66.1 55.3 C 66.1 55.1 66.0 55.2 65.9 55.1 C 66.0 55.1 66.0 55.0 66.0 55.0 C 66.0 55.0 66.0 54.9 66.0 54.9 Z M 65.7 55.1 C 65.7 55.2 65.9 55.2 65.8 55.3 C 65.8 55.3 65.9 55.3 65.9 55.3 C 65.9 55.3 65.9 55.3 66.0 55.3 C 66.0 55.2 65.8 55.1 65.7 55.1 Z M 83.9 42.4 C 83.9 42.5 83.9 42.7 84.1 42.7 C 84.1 42.6 84.0 42.5 83.9 42.4 Z M 70.5 28.2 C 70.5 28.2 70.6 28.1 70.5 28.0 C 70.6 28.0 70.7 28.1 70.8 28.1 C 70.9 27.9 71.0 27.7 70.8 27.5 C 71.0 27.4 70.9 27.4 71.1 27.4 C 71.1 27.4 71.1 27.3 71.1 27.2 C 71.0 27.1 70.9 27.2 70.8 27.1 C 70.9 27.1 71.0 27.1 71.0 27.1 C 71.0 26.9 70.8 27.2 70.6 27.1 C 70.5 27.2 70.4 27.3 70.4 27.5 C 70.5 27.5 70.5 27.4 70.6 27.4 C 70.7 27.5 70.4 28.0 70.4 28.1 C 70.4 28.2 70.5 28.1 70.5 28.2 Z M 70.8 28.2 C 70.6 28.1 70.6 28.4 70.6 28.4 C 70.7 28.4 70.7 28.3 70.8 28.2 Z M 70.9 28.4 C 70.8 28.4 70.8 28.6 70.7 28.7 C 70.9 28.7 70.9 28.6 70.9 28.4 Z M 70.2 29.8 C 70.0 29.8 70.1 30.1 70.0 30.2 C 70.1 30.2 70.2 29.9 70.2 29.8 Z M 73.0 31.2 C 73.0 31.5 73.6 31.4 73.8 31.5 C 73.6 31.1 73.3 31.5 73.0 31.2 Z M 73.8 31.7 C 73.7 31.8 73.9 31.8 74.0 31.8 C 74.3 32.0 73.8 31.6 73.8 31.7 Z M 72.5 31.3 C 72.5 31.4 72.3 31.7 72.2 31.9 C 72.5 31.9 72.8 32.0 73.2 32.1 C 73.2 31.7 73.4 31.6 73.6 31.6 C 73.5 31.4 72.9 31.5 72.5 31.3 Z M 72.2 31.0 C 72.1 30.9 72.1 31.0 72.0 31.1 C 72.1 31.1 72.2 31.2 72.2 31.2 C 72.3 31.1 72.1 31.1 72.2 31.0 Z M 74.1 32.0 C 74.1 31.8 73.8 31.9 73.7 31.8 C 73.7 31.9 73.7 32.1 73.6 32.2 C 73.7 32.2 73.9 32.3 73.9 32.2 C 74.0 32.1 73.9 31.9 74.1 32.0 Z M 72.3 31.2 C 72.2 31.2 72.2 31.2 72.1 31.2 C 72.1 31.4 71.9 31.7 71.9 31.9 C 72.1 31.9 72.2 31.3 72.3 31.2 Z M 69.9 31.0 C 69.7 31.0 69.7 31.3 69.7 31.4 C 69.7 31.3 69.8 31.2 69.9 31.0 Z M 72.1 32.1 C 71.8 32.7 71.2 33.7 71.5 34.4 C 71.6 33.6 72.1 32.8 72.4 32.2 C 72.3 32.1 72.2 32.1 72.1 32.1 Z M 76.0 34.7 C 76.1 34.8 75.9 34.8 75.8 34.9 C 75.6 35.5 75.0 36.0 74.7 36.6 C 74.9 36.7 74.7 36.9 74.9 37.0 C 75.1 36.6 75.2 36.0 75.6 36.1 C 75.8 35.8 75.8 35.3 75.9 35.1 C 76.1 35.2 76.0 35.3 76.0 35.4 C 76.1 35.3 76.2 35.2 76.3 35.0 C 76.2 34.8 76.2 34.7 75.9 34.6 C 75.9 34.6 75.9 34.7 75.8 34.8 C 75.9 34.9 75.9 34.6 76.0 34.7 Z M 71.3 33.6 C 71.1 33.9 71.0 34.6 70.9 35.0 C 71.2 34.6 71.1 34.1 71.3 33.6 Z M 77.2 36.0 C 77.2 36.0 77.2 36.3 77.2 36.3 C 77.3 36.4 77.3 36.3 77.5 36.4 C 77.5 36.2 77.3 36.2 77.2 36.0 Z M 76.6 35.8 C 76.5 35.8 76.5 36.2 76.4 36.2 C 76.3 36.3 76.5 36.2 76.6 36.2 C 76.5 36.1 76.5 36.0 76.6 35.8 Z M 77.5 36.8 C 77.5 37.0 77.9 37.1 78.0 37.0 C 77.9 36.9 77.7 36.9 77.5 36.8 Z M 77.3 36.8 C 77.2 36.8 77.1 36.8 77.1 36.8 C 77.1 36.8 77.1 36.9 77.1 36.9 C 77.2 37.0 77.2 36.9 77.3 37.0 C 77.3 36.9 77.3 36.9 77.3 36.8 Z M 75.6 36.2 C 75.4 36.6 75.2 36.7 75.0 37.2 C 75.1 37.3 75.1 37.4 75.2 37.4 C 75.3 37.1 75.4 36.6 75.6 36.2 Z M 77.5 37.1 C 77.4 37.4 77.6 37.6 77.5 37.8 C 77.7 37.7 77.6 37.3 77.5 37.1 Z M 70.9 35.1 C 70.8 35.2 70.8 35.4 70.8 35.4 C 71.0 35.4 70.8 35.2 70.9 35.1 Z M 74.7 36.7 C 74.5 36.8 74.6 37.0 74.6 37.1 C 74.7 37.1 74.7 36.8 74.7 36.7 Z M 78.9 38.5 C 78.7 38.6 78.5 38.9 78.8 39.0 C 78.8 38.9 79.0 38.6 78.9 38.5 Z M 71.9 35.7 C 71.8 35.7 71.8 35.8 71.7 35.8 C 71.6 36.1 71.5 36.3 71.6 36.5 C 71.6 36.6 71.5 36.5 71.4 36.6 C 71.2 36.5 71.3 36.4 71.2 36.3 C 71.2 36.5 71.1 36.7 71.1 37.0 C 71.0 37.1 71.0 36.9 71.0 36.8 C 70.8 37.5 70.4 38.5 70.1 39.1 C 70.5 38.7 70.8 38.4 71.0 37.7 C 71.1 37.9 71.1 38.2 71.0 38.5 C 71.5 38.2 71.6 37.3 71.7 36.7 C 71.6 36.7 71.6 36.8 71.5 36.9 C 71.6 36.5 72.0 36.1 71.9 35.7 Z M 79.3 39.1 C 79.1 39.4 79.1 40.1 78.9 40.5 C 79.3 40.5 79.6 40.0 79.7 39.6 C 79.6 39.5 79.6 40.0 79.4 39.9 C 79.2 39.7 79.5 39.3 79.3 39.1 Z M 74.4 38.4 C 74.6 38.1 74.5 37.7 74.6 37.3 C 74.4 37.6 74.5 38.0 74.4 38.4 Z M 79.8 39.8 C 79.6 39.9 79.8 40.3 79.6 40.5 C 79.9 40.6 80.2 40.6 80.4 40.6 C 80.2 40.3 80.0 40.1 79.8 39.8 Z M 70.4 36.1 C 70.3 36.2 70.4 36.4 70.2 36.5 C 70.4 36.5 70.5 36.3 70.4 36.1 Z M 81.2 40.9 C 81.2 41.2 81.4 41.4 81.7 41.5 C 81.5 41.3 81.5 41.1 81.2 40.9 Z M 81.7 41.1 C 81.5 41.3 81.8 41.4 81.8 41.5 C 81.9 41.3 81.8 41.2 81.7 41.1 Z M 79.9 41.1 C 79.8 41.2 79.9 41.3 80.0 41.3 C 80.0 41.3 80.1 41.3 80.1 41.2 C 80.0 41.2 80.0 41.1 79.9 41.1 Z M 78.1 40.5 C 78.1 40.4 78.1 40.5 78.0 40.5 C 78.0 40.6 78.0 40.7 78.0 40.8 C 78.1 40.8 78.1 40.6 78.1 40.5 Z M 79.6 41.1 C 79.5 41.1 79.4 41.1 79.4 41.2 C 79.4 41.2 79.6 41.3 79.6 41.1 Z M 69.2 38.8 C 68.2 39.7 67.7 41.1 67.0 42.6 C 67.6 42.7 67.6 41.8 67.9 41.4 C 68.0 41.4 68.0 41.5 68.0 41.5 C 68.2 41.5 68.2 41.1 68.3 40.9 C 68.4 43.2 66.1 45.7 65.5 48.5 C 65.6 48.4 66.0 47.5 66.3 47.1 C 66.3 47.5 65.9 48.1 65.8 48.5 C 65.7 48.8 66.1 48.5 66.1 48.9 C 65.9 49.6 65.5 50.0 65.3 50.7 C 66.8 49.7 66.9 47.2 67.8 45.6 C 68.1 45.6 67.7 45.9 68.0 45.9 C 68.2 45.7 68.3 45.6 68.5 45.4 C 68.6 45.4 68.7 45.5 68.6 45.7 C 69.0 45.0 69.0 44.1 68.4 43.6 C 69.1 43.0 69.4 41.7 69.7 40.7 C 69.5 40.8 69.1 41.9 68.7 42.1 C 68.8 41.2 69.7 39.5 69.1 39.0 C 69.2 39.0 69.2 38.9 69.2 38.8 Z M 75.1 41.6 C 74.9 42.0 74.4 42.4 74.4 42.9 C 74.6 42.8 74.7 42.7 74.8 42.4 C 75.1 42.6 75.1 41.9 75.1 41.6 Z M 66.4 38.2 C 66.1 38.5 65.9 39.3 65.8 39.9 C 65.7 40.0 65.8 40.1 65.8 40.2 C 65.7 40.3 65.8 40.6 65.8 40.4 C 66.1 39.6 66.4 38.9 66.4 38.2 Z M 74.9 43.9 C 74.8 43.9 74.8 43.9 74.7 43.9 C 74.7 44.0 74.5 44.1 74.5 44.3 C 74.7 44.3 74.5 44.6 74.7 44.6 C 74.8 44.4 74.8 44.1 74.9 43.9 Z M 65.7 40.3 C 65.6 40.4 65.6 40.7 65.5 40.9 C 65.7 40.7 65.7 40.4 65.7 40.3 Z M 84.9 48.2 C 85.0 48.3 85.1 48.5 85.0 48.6 C 85.2 48.6 85.2 48.7 85.3 48.8 C 85.3 48.8 85.2 48.3 84.9 48.2 Z M 73.9 44.2 C 73.8 44.3 73.7 44.6 73.7 44.7 C 73.9 44.6 73.8 44.4 73.9 44.2 Z M 85.3 49.0 C 85.2 49.0 85.2 49.1 85.2 49.2 C 85.3 49.2 85.3 49.3 85.3 49.4 C 85.3 49.4 85.3 49.3 85.3 49.3 C 85.4 49.4 85.3 49.5 85.2 49.5 C 85.4 49.8 85.4 50.3 85.8 50.4 C 85.7 50.2 85.7 50.1 85.5 49.9 C 85.7 49.6 85.4 49.3 85.3 49.0 Z M 85.1 49.4 C 85.1 49.4 85.1 49.4 85.0 49.4 C 84.9 49.5 84.9 49.6 84.8 49.7 C 85.0 49.8 85.1 49.6 85.1 49.4 Z M 73.5 45.1 C 73.3 45.4 73.1 45.8 73.0 46.1 C 73.3 46.0 73.4 45.5 73.5 45.1 Z M 76.8 47.2 C 76.5 47.5 76.4 48.1 76.3 48.6 C 77.0 48.6 76.8 47.7 76.8 47.2 Z M 65.9 42.9 C 65.8 42.9 65.8 42.9 65.8 42.9 C 65.5 42.8 65.5 43.3 65.3 43.6 C 65.2 44.2 64.8 44.9 64.8 45.3 C 65.1 44.5 65.5 43.7 65.9 42.9 Z M 64.5 42.6 C 64.4 42.6 64.3 42.6 64.2 42.6 C 64.2 42.7 64.3 42.7 64.2 42.8 C 64.4 42.8 64.4 42.7 64.5 42.6 Z M 77.5 47.9 C 77.4 47.9 77.4 47.9 77.4 47.9 C 77.4 48.1 77.3 48.1 77.2 48.0 C 77.2 48.3 77.1 48.4 77.0 48.6 C 77.0 48.7 77.3 48.7 77.5 48.8 C 77.5 48.5 77.5 48.2 77.5 47.9 Z M 64.9 43.3 C 64.8 43.4 64.5 44.1 64.8 44.3 C 64.8 43.9 65.0 43.5 64.9 43.3 Z M 70.5 45.8 C 70.2 46.0 70.0 46.7 69.8 47.1 C 69.9 47.1 70.0 47.0 70.1 47.0 C 70.2 47.7 69.8 48.6 69.3 49.4 C 69.4 49.4 69.5 49.4 69.6 49.5 C 70.5 48.6 70.2 47.6 70.5 46.5 C 70.2 46.7 70.6 46.0 70.5 45.8 Z M 77.7 49.0 C 77.7 48.9 77.6 48.9 77.5 48.9 C 77.5 49.1 77.5 49.2 77.5 49.4 C 77.6 49.3 77.7 49.1 77.7 49.0 Z M 76.9 48.7 C 76.9 48.7 76.8 48.6 76.7 48.6 C 76.6 48.7 76.6 48.9 76.5 49.0 C 76.7 49.1 76.7 48.8 76.9 48.7 Z M 76.3 48.6 C 76.1 48.8 76.1 49.2 76.0 49.4 C 76.4 49.3 76.1 48.9 76.3 48.6 Z M 76.6 49.2 C 76.5 49.2 76.4 49.6 76.4 49.3 C 76.4 49.3 76.4 49.3 76.4 49.3 C 76.4 49.4 76.3 49.4 76.3 49.4 C 76.3 49.5 76.5 49.5 76.6 49.5 C 76.7 49.4 76.5 49.4 76.6 49.2 Z M 72.8 47.7 C 72.6 47.8 72.7 48.0 72.7 48.2 C 72.8 48.1 72.8 47.8 72.8 47.7 Z M 77.5 49.6 C 77.3 49.7 77.3 50.0 77.2 50.1 C 77.3 50.1 77.2 50.3 77.4 50.3 C 77.5 50.1 77.4 49.9 77.5 49.6 Z M 76.6 49.6 C 76.6 49.7 76.5 49.6 76.4 49.6 C 76.4 49.7 76.4 49.7 76.4 49.8 C 76.5 49.8 76.5 49.7 76.6 49.8 C 76.7 49.7 76.6 49.7 76.6 49.6 Z M 76.3 49.7 C 76.3 49.6 76.3 49.6 76.2 49.6 C 76.2 49.7 76.2 49.7 76.2 49.8 C 76.3 49.8 76.3 49.8 76.3 49.7 Z M 76.7 49.8 C 76.6 50.0 76.7 50.2 76.6 50.4 C 76.9 50.5 77.0 50.2 77.1 50.1 C 76.9 50.0 76.9 49.9 76.7 49.8 Z M 64.7 45.0 C 64.4 45.1 64.2 45.8 64.0 46.4 C 63.9 46.5 63.9 46.3 63.8 46.4 C 63.7 46.5 63.8 46.6 63.7 46.8 C 63.8 46.9 63.8 46.8 63.8 46.7 C 63.9 47.0 63.7 47.4 63.7 47.7 C 64.0 47.5 64.1 46.8 64.1 46.5 C 64.5 46.3 64.7 45.4 64.7 45.0 Z M 76.4 49.8 C 76.2 49.9 76.2 50.1 76.1 50.2 C 76.2 50.2 76.2 50.3 76.3 50.3 C 76.4 50.2 76.3 50.0 76.4 49.8 Z M 72.7 48.5 C 72.6 48.6 72.5 48.9 72.6 49.0 C 72.7 48.8 72.7 48.7 72.7 48.5 Z M 64.2 45.0 C 63.9 44.8 63.6 45.7 63.7 45.9 C 63.8 45.7 63.8 45.6 63.8 45.5 C 64.0 45.5 63.7 45.8 63.9 45.8 C 64.1 45.6 64.1 45.3 64.2 45.0 Z M 65.0 45.8 C 64.7 45.9 64.1 46.5 64.5 46.8 C 64.6 46.5 64.8 46.2 65.0 45.8 Z M 72.0 49.2 C 71.8 49.4 71.6 49.8 71.6 50.1 C 71.7 50.1 71.7 49.9 71.7 49.9 C 71.8 49.9 71.8 50.0 71.8 50.0 C 71.9 50.1 72.0 50.0 72.1 50.0 C 72.1 49.7 72.0 49.5 72.0 49.2 Z M 71.5 50.5 C 71.4 50.5 71.5 50.7 71.4 50.8 C 71.5 50.8 71.6 50.5 71.5 50.5 Z M 79.2 54.2 C 79.2 54.2 79.1 54.2 79.1 54.3 C 79.2 54.4 79.2 54.2 79.3 54.3 C 79.3 54.3 79.3 54.2 79.2 54.2 Z M 63.2 47.9 C 63.1 47.9 63.1 47.9 63.1 47.9 C 63.0 48.1 62.9 48.4 62.9 48.7 C 63.1 48.5 63.0 48.2 63.2 47.9 Z M 63.9 48.5 C 63.7 48.8 63.5 49.3 63.5 49.6 C 63.7 49.3 63.8 48.8 63.9 48.5 Z M 73.9 53.2 C 73.8 53.3 74.0 53.4 73.8 53.4 C 74.0 53.6 74.2 53.2 74.5 53.3 C 74.5 53.3 74.5 53.1 74.6 53.2 C 74.5 52.9 74.0 53.2 73.9 53.2 Z M 71.4 51.9 C 71.3 51.8 71.3 51.9 71.2 51.8 C 71.1 51.9 71.2 52.0 71.1 52.1 C 71.2 52.2 71.2 52.1 71.4 52.2 C 71.3 52.1 71.4 52.0 71.4 51.9 Z M 72.3 52.3 C 72.0 52.2 71.7 52.2 71.4 52.1 C 71.6 52.3 72.1 52.4 72.3 52.3 Z M 76.4 54.3 C 76.4 54.3 76.3 54.3 76.2 54.2 C 76.2 54.1 76.3 54.0 76.3 54.1 C 76.0 53.7 75.6 54.1 75.2 53.9 C 75.2 54.0 75.1 54.1 75.0 54.2 C 74.9 54.0 74.8 54.2 74.7 54.3 C 74.7 54.3 74.6 54.2 74.6 54.2 C 74.5 54.1 74.6 54.3 74.6 54.3 C 74.8 54.3 75.1 54.3 75.3 54.3 C 75.3 54.4 75.2 54.5 75.3 54.5 C 75.4 54.6 75.4 54.6 75.5 54.6 C 75.4 54.1 75.9 54.3 76.2 54.4 C 76.2 54.3 76.3 54.4 76.4 54.3 Z M 65.1 49.5 C 65.0 49.5 65.0 50.0 64.8 50.1 C 65.0 50.2 65.2 49.6 65.1 49.5 Z M 67.1 53.3 C 67.4 53.4 67.0 53.5 67.1 53.7 C 67.0 53.6 67.1 53.5 67.0 53.5 C 66.9 53.6 66.9 53.6 66.9 53.7 C 67.0 53.6 67.1 53.8 67.2 53.5 C 67.3 53.6 67.2 53.8 67.5 53.8 C 67.5 53.5 67.3 53.7 67.3 53.5 C 67.3 53.5 67.4 53.5 67.5 53.6 C 67.8 52.9 67.9 52.0 68.2 51.1 C 67.6 51.6 67.3 52.6 67.0 53.4 C 67.0 53.5 67.2 53.4 67.1 53.3 Z M 70.5 52.3 C 70.4 52.4 70.2 52.1 70.2 52.3 C 70.6 52.5 70.2 52.5 70.2 52.8 C 70.4 52.6 70.4 52.7 70.6 52.5 C 70.6 52.3 70.3 52.5 70.5 52.3 Z M 70.9 52.5 C 70.7 52.6 70.9 52.8 70.6 52.7 C 70.5 52.7 70.8 52.8 70.8 52.9 C 70.8 52.9 70.8 52.8 70.7 52.8 C 70.8 52.7 70.9 52.8 71.0 52.7 C 71.0 52.6 71.0 52.7 70.9 52.7 C 70.9 52.7 70.8 52.6 70.9 52.5 Z M 68.7 51.7 C 68.6 51.6 68.5 52.1 68.5 52.2 C 68.7 52.2 68.5 51.9 68.7 51.7 Z M 70.0 52.3 C 70.0 52.2 69.8 52.1 69.7 52.2 C 69.7 52.3 69.6 52.3 69.7 52.3 C 69.7 52.4 69.8 52.3 69.7 52.3 C 69.8 52.2 69.9 52.4 69.9 52.3 C 70.0 52.3 69.9 52.4 69.9 52.4 C 69.9 52.5 70.0 52.4 70.0 52.3 Z M 70.1 52.3 C 70.1 52.4 70.2 52.4 70.2 52.4 C 70.2 52.4 70.1 52.5 70.1 52.4 C 70.1 52.6 70.2 52.5 70.3 52.5 C 70.3 52.4 70.2 52.4 70.1 52.3 Z M 73.1 53.9 C 73.0 54.0 73.1 54.0 73.1 54.1 C 73.0 54.1 72.8 54.0 72.7 54.2 C 73.1 54.2 73.5 54.8 73.6 54.4 C 73.7 54.5 74.0 54.7 74.2 54.6 C 74.1 54.5 74.1 54.3 74.3 54.4 C 74.4 54.2 74.0 54.5 74.2 54.2 C 74.1 54.2 74.1 54.2 74.0 54.3 C 74.0 54.2 74.1 54.1 73.9 54.2 C 73.9 53.7 73.4 53.9 73.1 53.9 Z M 71.1 53.0 C 71.1 52.9 71.0 52.9 71.1 52.8 C 70.9 52.9 70.9 53.0 70.8 53.0 C 70.8 53.0 70.9 53.1 70.9 53.1 C 71.0 53.1 70.9 52.8 71.1 53.0 Z M 70.7 52.9 C 70.7 52.9 70.7 53.0 70.6 52.9 C 70.5 53.1 70.6 53.1 70.5 53.2 C 70.6 53.3 70.6 53.2 70.6 53.2 C 70.9 53.2 70.5 53.1 70.7 52.9 Z M 68.8 52.1 C 68.7 52.2 68.7 52.3 68.6 52.5 C 68.7 52.4 68.8 52.3 68.8 52.1 Z M 70.4 53.0 C 70.4 53.0 70.5 53.0 70.5 52.9 C 70.4 52.9 70.3 53.0 70.2 53.1 C 70.3 53.1 70.3 53.1 70.3 53.0 C 70.4 53.0 70.4 53.0 70.3 53.1 C 70.4 53.1 70.4 53.0 70.4 53.0 Z M 61.8 51.9 C 62.0 51.8 61.8 52.1 61.9 52.1 C 62.1 51.9 62.2 51.6 62.2 51.3 C 62.2 51.3 62.1 51.3 62.1 51.4 C 62.1 50.9 62.6 50.4 62.6 49.9 C 62.7 49.6 62.6 49.8 62.5 50.0 C 62.1 51.0 61.7 51.9 61.3 52.9 C 61.4 53.0 61.3 53.0 61.3 53.1 C 61.4 53.1 61.4 53.1 61.4 53.2 C 61.4 53.4 61.2 53.2 61.2 53.3 C 61.2 53.4 61.2 53.4 61.2 53.5 C 61.4 53.5 61.4 53.4 61.5 53.6 C 61.7 53.0 61.7 52.9 61.9 52.4 C 61.8 52.4 61.8 52.4 61.7 52.3 C 61.8 52.1 61.8 52.0 61.8 51.9 Z M 70.0 52.8 C 69.9 52.8 69.9 53.0 69.9 53.0 C 70.0 53.1 70.1 52.9 70.1 53.1 C 70.1 53.1 70.1 53.0 70.2 53.0 C 70.1 52.7 70.0 53.1 70.0 52.8 Z M 69.7 52.9 C 69.7 52.9 69.5 52.9 69.5 53.0 C 69.6 53.1 69.6 53.1 69.7 53.0 C 69.7 53.0 69.7 53.0 69.6 53.0 C 69.6 52.9 69.7 52.9 69.7 52.9 Z M 64.3 50.8 C 63.9 51.3 63.6 52.2 63.1 52.7 C 63.2 52.4 63.5 52.0 63.7 51.5 C 63.5 51.5 63.4 51.9 63.3 52.0 C 63.2 51.6 63.7 51.2 63.8 50.6 C 63.4 51.0 63.3 51.7 62.9 52.1 C 63.0 52.0 63.1 52.0 63.1 52.1 C 63.1 52.2 63.0 52.5 62.9 52.6 C 63.1 52.8 63.5 52.8 63.8 52.9 C 64.0 52.4 64.2 51.9 64.3 51.4 C 64.1 51.7 64.0 52.0 63.8 52.0 C 63.8 51.6 64.1 51.2 64.3 50.8 Z M 68.1 53.5 C 68.1 53.4 67.9 53.5 67.9 53.6 C 67.9 53.6 67.9 53.5 67.9 53.5 C 67.8 53.5 67.8 53.5 67.7 53.4 C 67.6 53.6 67.8 53.7 67.9 53.8 C 68.1 53.7 67.9 53.5 68.1 53.5 Z M 63.8 53.0 C 63.3 52.9 63.3 52.8 62.8 52.8 C 62.8 52.9 62.8 53.0 62.8 53.1 C 63.3 53.3 63.9 53.5 64.5 53.6 C 64.5 53.6 64.6 53.7 64.7 53.7 C 64.7 53.7 64.7 53.6 64.6 53.6 C 64.3 53.5 64.1 53.4 63.8 53.4 C 63.7 53.3 63.8 53.2 63.8 53.0 Z M 66.5 54.4 C 66.5 54.3 66.2 54.2 66.2 54.3 C 66.4 54.3 66.4 54.4 66.5 54.4 Z M 66.3 54.6 C 66.3 54.6 66.3 54.6 66.3 54.6 C 66.3 54.5 66.3 54.5 66.2 54.5 C 66.2 54.6 66.0 54.6 65.9 54.5 C 66.0 54.4 66.0 54.5 66.1 54.3 C 66.1 54.3 66.1 54.4 66.1 54.4 C 66.3 54.4 66.1 54.2 66.0 54.2 C 66.0 54.5 65.5 54.1 65.7 54.5 C 65.6 54.4 65.6 54.4 65.6 54.3 C 65.5 54.4 65.3 54.3 65.3 54.4 C 65.6 54.4 65.2 54.6 65.6 54.7 C 65.9 54.6 66.0 54.6 66.3 54.6 Z M 64.4 53.8 C 63.8 53.5 62.7 53.2 61.9 53.0 C 61.8 53.2 61.6 53.3 61.6 53.6 C 61.9 53.9 62.4 53.7 63.1 53.7 C 63.7 53.8 64.0 53.8 64.4 53.8 Z M 66.3 54.8 C 66.2 54.8 66.2 54.9 66.1 54.9 C 66.1 55.1 66.4 54.9 66.3 54.8 Z M 66.5 54.9 C 66.5 54.9 66.5 54.8 66.5 54.8 C 66.4 54.8 66.5 54.7 66.4 54.7 C 66.3 54.8 66.4 54.9 66.5 54.9 Z M 61.7 54.3 C 61.6 54.2 61.1 54.0 61.0 54.3 C 61.2 54.3 61.5 54.3 61.7 54.3 Z M 65.5 56.0 C 65.4 56.1 65.4 56.1 65.3 56.2 C 65.3 56.1 65.2 56.3 65.2 56.3 C 65.2 56.2 65.4 55.9 65.5 56.0 Z M 82.0 39.5 C 81.9 39.5 81.8 39.4 81.8 39.5 C 81.8 39.7 82.1 39.9 82.1 40.1 C 81.6 39.5 81.1 38.6 80.9 38.0 C 81.2 38.5 81.8 38.9 82.0 39.5 Z M 82.9 41.5 C 82.9 41.4 82.7 41.4 82.8 41.3 C 82.8 41.3 82.9 41.3 82.9 41.3 C 82.8 41.2 82.7 41.1 82.7 41.0 C 82.9 41.0 82.9 41.1 83.0 41.2 C 82.9 41.3 82.9 41.5 82.9 41.5 Z M 65.3 55.0 C 65.2 55.1 65.2 55.1 65.2 55.2 C 65.2 55.3 65.0 55.1 64.9 55.1 C 65.0 55.2 65.0 55.2 64.9 55.3 C 65.0 55.3 65.0 55.3 65.0 55.4 C 65.0 55.4 65.0 55.5 64.9 55.5 C 65.0 55.4 65.0 55.4 64.9 55.3 C 64.8 55.4 65.0 55.5 64.8 55.5 C 64.8 55.4 64.9 55.2 64.9 55.1 C 65.0 55.1 65.1 55.1 65.1 55.1 C 65.1 55.0 65.1 54.9 65.1 54.8 C 65.1 54.9 65.2 54.8 65.2 54.8 C 65.1 54.9 65.2 55.0 65.3 55.0 Z M 64.1 55.7 C 64.1 55.6 64.1 55.5 64.1 55.5 C 64.3 55.4 64.3 55.4 64.5 55.4 C 64.5 55.5 64.3 55.5 64.3 55.6 C 64.2 55.6 64.2 55.6 64.1 55.5 C 64.0 55.6 64.3 55.7 64.1 55.7 Z M 64.1 55.7 " fill="#EA3C43"></path></g></svg>