<?xml version="1.0" encoding="UTF-8" standalone="no"?><svg xmlns="http://www.w3.org/2000/svg" xmlns:xlink="http://www.w3.org/1999/xlink" clip-rule="evenodd" stroke-miterlimit="10" viewBox="0 0 215 267"><desc>SVG generated by Keynote</desc><defs></defs><g transform="matrix(1.00, 0.00, -0.00, -1.00, 0.0, 267.0)"><path d="M 213.0 47.1 C 213.0 46.5 212.9 45.7 212.9 44.6 C 212.9 45.1 212.8 45.6 212.8 45.5 C 212.8 46.5 212.8 47.8 212.8 49.9 C 212.9 49.8 212.9 48.8 212.9 48.1 C 212.9 47.2 213.0 47.3 213.0 47.1 C 213.0 47.1 213.0 47.1 213.0 47.1 Z M 10.8 2.5 C 12.6 2.5 10.5 2.3 9.8 2.3 C 9.7 2.3 9.7 2.3 9.0 2.3 C 8.7 2.2 10.2 2.1 11.3 2.1 C 16.3 2.2 12.9 2.5 10.8 2.5 C 10.8 2.5 10.8 2.5 10.8 2.5 Z M 2.1 223.4 C 2.1 227.2 2.3 223.2 2.3 222.6 C 2.4 224.4 2.7 223.0 2.7 225.3 C 2.6 225.7 2.6 226.5 2.5 226.9 C 2.5 225.9 2.5 224.5 2.4 224.3 C 2.4 225.6 2.4 227.5 2.4 227.7 C 2.3 224.8 2.2 227.2 2.1 227.7 C 2.1 225.1 1.9 224.2 2.1 223.4 C 2.1 223.4 2.1 223.4 2.1 223.4 Z M 155.4 264.9 C 154.3 264.9 153.4 264.9 153.6 264.7 C 154.8 264.7 155.5 264.8 156.2 264.8 C 156.3 264.7 155.9 264.6 156.9 264.6 C 158.2 264.8 157.8 265.0 157.3 265.1 C 157.1 265.0 153.3 265.0 155.4 264.9 C 155.4 264.9 155.4 264.9 155.4 264.9 Z M 211.8 224.2 C 211.9 221.0 211.5 223.9 211.6 220.7 C 211.8 220.9 212.0 220.5 212.0 222.7 C 211.9 222.8 211.9 224.0 211.8 224.2 C 211.8 224.2 211.8 224.2 211.8 224.2 Z M 3.5 127.3 C 3.4 127.3 3.4 129.6 3.3 129.0 C 3.3 127.8 3.3 126.7 3.3 125.6 C 3.4 125.4 3.5 125.8 3.5 127.3 C 3.5 127.3 3.5 127.3 3.5 127.3 Z M 3.9 249.3 C 3.6 253.1 3.9 257.3 3.8 256.1 C 3.6 257.5 3.2 253.3 3.4 253.5 C 3.6 253.1 3.8 246.2 3.9 249.3 C 3.9 249.3 3.9 249.3 3.9 249.3 Z M 5.1 16.5 C 5.0 20.4 5.5 20.0 5.2 22.4 C 5.2 21.5 5.2 21.1 5.1 20.7 C 5.1 21.3 5.1 22.3 5.1 22.3 C 5.0 20.3 5.0 18.0 5.1 16.5 C 5.1 16.5 5.1 16.5 5.1 16.5 Z M 212.6 106.2 C 212.6 106.9 212.6 107.2 212.7 107.1 C 212.7 109.8 212.8 109.7 212.7 111.4 C 212.5 111.6 212.5 109.3 212.6 107.2 C 212.5 107.1 212.5 106.4 212.6 106.2 C 212.6 106.2 212.6 106.2 212.6 106.2 Z M 211.9 182.2 C 212.1 182.1 212.1 180.6 212.2 183.1 C 212.0 185.9 211.8 183.3 211.7 180.3 C 211.6 180.3 211.5 180.3 211.4 180.2 C 211.4 181.4 211.4 182.2 211.4 182.8 C 211.7 183.4 211.2 185.1 211.3 189.6 C 211.2 187.5 211.0 189.7 211.1 187.0 C 210.9 187.6 210.9 185.7 210.8 186.0 C 210.9 187.2 210.9 190.1 211.1 189.5 C 211.1 191.0 211.1 192.2 211.0 192.9 C 210.8 193.9 211.0 190.2 210.8 191.2 C 210.8 192.0 210.7 192.1 210.7 192.8 C 210.8 193.0 210.9 192.7 210.9 193.7 C 210.8 196.4 210.7 193.1 210.7 197.0 C 210.8 197.3 210.8 196.2 210.9 196.3 C 211.0 198.1 210.9 197.9 211.0 199.7 C 210.9 200.0 210.8 198.4 210.8 199.6 C 211.1 200.9 210.6 203.1 210.8 205.7 C 211.2 204.2 210.8 206.0 211.1 208.4 C 211.0 208.9 210.8 207.1 210.8 209.0 C 211.3 208.7 211.1 216.3 211.5 210.3 C 211.5 213.6 211.9 214.9 211.9 212.3 C 211.8 218.0 212.1 216.3 212.1 218.5 C 212.1 220.6 212.0 217.2 211.9 218.3 C 211.9 216.0 211.8 216.5 211.9 214.9 C 211.8 214.8 211.7 214.4 211.7 213.8 C 211.8 216.3 211.5 218.9 211.3 217.1 C 211.4 215.9 211.6 217.1 211.6 215.5 C 211.3 215.9 211.6 213.9 211.4 213.7 C 211.2 214.6 211.0 211.2 211.0 214.3 C 211.1 214.4 211.2 214.4 211.3 214.5 C 211.3 215.3 211.3 216.2 211.3 217.0 C 211.1 217.6 211.0 217.0 210.9 217.7 C 210.9 219.1 210.9 219.9 211.0 220.4 C 211.1 218.6 211.2 216.7 211.3 219.6 C 210.9 218.3 211.2 223.6 211.0 221.2 C 210.8 224.2 211.1 226.0 210.9 226.2 C 210.9 227.9 211.1 226.9 211.1 228.9 C 210.9 231.9 211.2 231.6 211.0 235.7 C 211.3 236.4 211.0 236.1 211.0 237.4 C 211.1 237.5 211.2 237.6 211.3 237.6 C 211.1 239.0 211.0 242.4 211.2 246.1 C 211.1 247.0 211.0 246.2 211.0 248.5 C 211.3 251.3 211.0 254.0 211.3 257.3 C 211.1 257.4 211.1 259.5 211.2 260.6 C 211.1 261.1 210.9 259.3 210.9 261.3 C 211.1 262.7 211.1 260.5 211.2 263.2 C 211.1 263.1 211.1 263.4 211.2 263.9 C 210.5 264.0 209.5 264.0 209.3 263.9 C 209.9 263.9 210.4 263.8 211.0 263.8 C 211.0 263.5 211.0 263.2 211.0 263.0 C 211.0 263.4 211.0 263.6 210.9 263.7 C 210.6 263.7 210.5 263.6 209.8 263.6 C 210.3 263.9 208.0 263.6 207.3 263.6 C 207.5 263.7 207.3 263.8 206.7 263.8 C 205.2 263.8 204.0 263.9 203.3 263.9 C 201.3 263.8 204.3 263.8 202.3 263.7 C 201.8 264.2 199.4 263.7 195.7 264.0 C 194.7 263.8 192.9 263.7 190.3 263.7 C 190.2 263.9 192.9 263.8 193.1 263.9 C 189.3 263.9 193.9 264.0 191.4 264.0 C 186.0 263.9 182.5 263.9 176.8 263.8 C 177.0 263.9 172.6 264.0 172.7 264.0 C 173.8 263.9 170.1 263.7 168.2 263.7 C 168.0 264.0 165.4 264.3 165.3 264.4 C 164.5 264.3 164.7 264.3 164.1 264.0 C 160.9 263.9 159.4 264.2 157.2 263.9 C 157.5 264.1 156.0 264.1 154.8 264.1 C 155.1 264.0 155.7 263.9 156.3 263.8 C 154.7 263.8 154.3 263.7 152.9 263.7 C 151.7 264.2 148.8 263.6 147.9 264.1 C 145.5 264.1 145.8 263.9 143.6 263.9 C 143.7 264.0 143.5 264.1 142.9 264.1 C 144.4 264.1 145.4 263.9 146.3 264.1 C 143.0 264.2 152.9 264.7 147.7 264.9 C 147.4 264.8 147.8 264.6 146.7 264.6 C 143.6 264.7 145.6 264.9 146.8 264.9 C 144.8 265.0 142.6 264.9 144.4 265.1 C 139.7 265.2 142.6 265.0 140.8 264.9 C 132.4 265.1 121.7 265.1 110.0 264.9 C 109.7 265.2 103.4 265.0 101.3 264.8 C 98.1 265.0 94.7 265.0 93.6 264.8 C 93.1 265.0 89.6 264.7 89.3 264.9 C 90.7 264.9 91.7 264.9 90.3 265.0 C 85.5 264.9 78.3 264.8 75.6 265.0 C 73.9 264.7 70.8 264.8 68.8 264.9 C 68.4 264.8 70.1 264.8 68.7 264.7 C 68.3 264.9 63.9 265.0 62.8 264.9 C 64.2 264.9 65.6 264.6 63.6 264.6 C 63.6 264.7 61.3 264.7 61.9 264.9 C 59.0 264.8 57.4 264.9 55.0 264.8 C 56.9 264.8 58.1 264.7 58.4 264.6 C 56.7 264.7 55.5 264.7 54.1 264.6 C 54.5 264.8 51.8 264.7 49.1 264.8 C 48.3 264.7 47.7 264.6 45.5 264.6 C 44.5 264.8 49.0 264.8 46.5 264.9 C 46.5 264.8 44.1 264.7 44.8 264.9 C 41.8 264.8 40.3 264.9 37.9 264.7 C 40.9 264.8 38.6 264.5 37.8 264.5 C 37.2 264.5 36.2 264.5 36.2 264.6 C 36.2 264.6 37.7 264.6 37.9 264.7 C 35.8 264.6 35.2 264.9 34.5 264.7 C 35.4 264.7 35.5 264.6 34.4 264.6 C 34.2 264.9 28.1 264.7 30.2 264.6 C 30.2 264.6 32.5 264.6 32.8 264.6 C 32.1 264.5 28.6 264.6 29.3 264.4 C 31.3 264.4 31.2 264.5 33.6 264.4 C 33.8 264.3 35.2 264.3 36.1 264.2 C 32.3 264.2 31.5 264.4 31.0 264.2 C 29.3 264.2 30.3 264.4 27.6 264.4 C 23.6 264.3 26.9 264.1 25.9 264.1 C 22.4 264.2 23.5 264.4 25.0 264.6 C 22.3 264.6 21.4 264.7 18.2 264.7 C 18.3 264.6 18.7 264.5 19.9 264.4 C 20.0 264.5 22.8 264.6 22.5 264.5 C 22.2 264.2 20.0 264.1 16.5 264.1 C 17.3 264.3 17.4 264.2 13.9 264.2 C 14.5 264.5 12.2 264.2 12.1 264.3 C 12.3 264.4 13.6 264.4 14.7 264.4 C 14.7 264.5 14.2 264.6 13.1 264.6 C 12.3 264.5 11.7 264.6 9.6 264.6 C 9.5 264.4 11.0 264.4 11.3 264.3 C 10.1 264.3 9.9 264.4 8.7 264.4 C 7.7 264.2 7.8 264.0 7.9 263.7 C 9.2 263.7 11.3 263.7 9.6 263.5 C 14.6 263.5 9.4 263.8 11.3 263.8 C 13.4 263.6 12.2 263.9 15.5 263.9 C 16.5 263.9 16.9 263.8 17.3 263.8 C 17.0 263.8 15.1 263.6 17.3 263.5 C 17.8 263.7 18.9 263.8 20.7 263.8 C 20.7 263.7 17.1 263.6 20.7 263.6 C 22.4 263.6 20.9 263.9 23.3 263.8 C 23.3 263.8 23.9 263.8 24.1 263.7 C 20.6 263.8 24.7 263.6 22.4 263.5 C 25.4 263.4 22.9 263.7 24.9 263.7 C 25.0 263.5 28.3 263.8 28.3 263.5 C 27.1 263.6 24.6 263.6 24.9 263.4 C 27.1 263.5 37.5 263.3 33.5 263.6 C 34.9 263.5 42.5 263.2 41.9 263.4 C 39.7 263.3 39.8 263.5 39.4 263.6 C 43.6 263.4 45.8 263.5 50.4 263.3 C 45.4 263.3 49.1 263.0 46.1 262.8 C 44.8 262.8 43.0 262.8 42.6 262.9 C 43.3 263.1 45.3 263.0 46.1 262.9 C 46.1 263.0 46.2 263.2 46.2 263.4 C 40.6 263.2 37.7 263.4 35.1 263.3 C 37.3 263.3 30.8 263.1 33.4 263.0 C 34.5 263.1 37.1 263.1 39.4 263.2 C 39.4 263.1 39.4 263.1 39.3 263.0 C 40.3 263.0 41.8 263.0 41.8 262.9 C 38.8 263.0 37.1 262.8 35.0 262.9 C 35.0 262.9 35.0 262.9 35.0 262.8 C 34.5 262.8 34.0 262.8 34.2 262.8 C 35.2 262.8 36.6 262.8 36.7 262.7 C 34.5 262.7 34.1 262.5 31.6 262.5 C 32.1 262.2 28.8 262.0 32.4 261.9 C 33.0 262.1 35.0 262.2 34.9 262.3 C 36.0 262.4 38.2 262.3 39.2 262.2 C 38.1 262.1 36.0 262.1 35.8 261.9 C 37.5 261.8 38.9 261.8 40.0 261.9 C 36.4 262.0 42.0 262.1 43.4 262.3 C 43.0 262.2 42.2 262.1 41.7 262.0 C 44.5 262.0 45.8 262.2 45.9 261.9 C 49.3 261.8 48.6 262.1 51.0 262.0 C 49.4 261.8 52.5 261.9 50.9 261.7 C 54.8 261.6 52.1 261.9 53.5 261.9 C 54.7 261.9 54.9 261.8 56.0 261.8 C 57.9 261.9 61.5 261.9 62.1 262.2 C 63.6 262.2 63.9 262.2 65.5 262.2 C 65.8 262.2 66.3 262.1 67.1 262.0 C 67.3 262.1 68.5 262.2 68.8 262.1 C 64.3 261.8 65.6 261.8 61.0 261.6 C 60.7 261.7 60.0 261.7 61.0 261.8 C 57.9 261.9 57.0 261.7 54.3 261.7 C 53.9 261.6 53.3 261.3 50.9 261.5 C 51.4 261.3 50.7 261.3 51.7 261.2 C 53.0 261.3 54.9 261.4 56.8 261.4 C 56.9 261.4 56.5 261.3 57.5 261.3 C 58.5 261.4 59.9 261.4 61.0 261.3 C 61.0 261.4 60.6 261.5 60.1 261.5 C 64.4 261.6 62.8 261.3 66.0 261.4 C 65.5 261.3 63.5 261.3 65.2 261.2 C 68.0 261.2 68.7 261.3 70.2 261.3 C 70.4 261.3 70.2 261.2 71.1 261.2 C 73.2 261.3 66.7 261.6 70.4 261.8 C 70.5 261.6 74.1 261.7 74.6 261.8 C 73.5 262.0 71.4 261.7 71.3 261.9 C 77.7 261.9 71.5 262.1 78.2 262.2 C 78.1 262.1 78.1 262.1 78.1 262.0 C 75.5 262.0 75.3 261.9 75.4 261.7 C 73.1 261.7 72.1 261.4 70.3 261.6 C 70.9 261.2 72.2 261.5 74.6 261.6 C 74.4 261.4 72.3 261.4 71.9 261.2 C 77.4 261.4 78.4 261.1 83.7 261.4 C 82.4 261.2 86.6 261.4 86.2 261.2 C 81.7 261.2 83.4 260.7 82.6 260.7 C 79.7 260.7 81.1 261.0 79.4 261.1 C 78.5 261.0 78.9 260.9 79.2 260.6 C 81.9 260.7 81.4 260.6 83.5 260.5 C 85.2 260.7 86.8 261.0 84.5 261.1 C 85.0 261.1 88.4 261.0 88.7 261.1 C 85.4 261.1 89.1 261.2 87.1 261.3 C 89.7 261.5 94.1 261.2 97.3 261.4 C 97.0 261.3 98.1 261.3 98.0 261.1 C 94.9 261.3 94.2 260.9 91.1 260.9 C 92.4 260.9 91.7 260.8 91.1 260.7 C 94.1 260.8 95.6 260.7 97.8 260.8 C 97.8 260.8 97.8 260.7 97.7 260.7 C 101.4 260.8 100.9 260.8 103.6 260.6 C 104.7 260.7 103.4 261.0 103.1 261.2 C 104.4 261.1 109.2 261.2 106.3 261.0 C 109.2 261.0 108.6 261.2 111.5 261.2 C 111.4 261.0 108.7 261.0 109.6 260.8 C 112.3 260.8 110.9 261.0 113.0 260.8 C 113.2 261.0 113.3 261.2 115.6 261.1 C 113.9 261.0 115.8 261.1 116.4 261.0 C 115.3 260.9 114.4 260.9 113.8 260.8 C 118.0 260.9 118.8 260.9 122.2 260.8 C 121.1 261.0 123.0 261.1 120.7 261.2 C 122.8 261.1 125.6 261.3 126.7 261.2 C 125.3 261.1 123.2 261.1 122.3 261.0 C 129.0 261.0 132.4 260.8 138.3 261.0 C 137.3 261.0 135.9 261.0 135.8 261.1 C 136.4 261.1 137.5 261.1 137.5 261.1 C 135.5 261.1 133.5 261.1 132.5 261.2 C 130.6 261.1 133.5 261.1 131.5 261.0 C 131.3 261.1 127.7 261.0 129.2 261.3 C 132.2 261.1 135.4 261.3 137.0 261.6 C 139.7 261.2 136.9 261.3 139.9 260.9 C 139.9 261.0 140.7 261.1 141.7 261.1 C 140.5 260.8 144.5 261.0 145.0 261.0 C 143.6 261.1 138.1 261.2 141.1 261.4 C 139.5 261.0 147.7 261.6 145.9 261.2 C 149.5 261.2 148.4 261.4 150.2 261.2 C 150.4 261.3 150.2 261.4 151.2 261.4 C 152.1 261.4 152.4 261.3 152.8 261.3 C 147.7 261.2 149.0 260.9 145.7 260.9 C 146.3 260.9 146.8 260.9 146.6 260.8 C 146.6 260.8 146.6 260.8 147.4 260.8 C 147.8 261.0 150.0 260.7 150.8 260.9 C 149.8 260.9 148.9 260.9 149.3 261.0 C 153.4 261.0 152.9 261.2 158.7 261.3 C 156.9 261.2 159.1 261.2 161.1 261.1 C 163.9 261.2 163.1 261.5 166.4 261.4 C 165.7 261.0 170.0 261.5 173.8 261.2 C 173.6 261.5 178.9 261.5 179.8 261.3 C 180.0 261.4 181.9 261.4 183.2 261.4 C 183.6 261.5 182.1 261.5 183.4 261.6 C 184.5 261.5 183.3 261.3 184.8 261.3 C 186.7 261.4 186.5 261.6 189.2 261.6 C 189.2 261.4 187.7 261.4 189.0 261.3 C 191.4 261.4 193.6 261.4 191.4 261.2 C 194.9 261.2 193.5 261.5 196.8 261.5 C 195.7 261.4 195.8 261.4 197.5 261.3 C 198.8 261.5 199.0 261.5 199.5 261.6 C 200.3 261.5 200.0 261.4 202.7 261.5 C 202.6 261.4 202.6 261.3 202.5 261.3 C 203.7 261.3 205.5 261.2 205.9 261.3 C 203.6 261.3 204.4 261.4 203.6 261.5 C 205.9 261.5 210.5 261.7 206.9 261.5 C 207.8 261.5 208.4 261.5 208.7 261.5 C 208.8 260.7 208.9 261.1 208.9 259.3 C 208.7 260.6 208.8 259.3 208.8 256.7 C 208.6 256.7 208.8 254.9 208.7 253.2 C 208.6 253.4 208.5 252.9 208.5 251.4 C 208.6 251.6 208.6 250.6 208.6 249.0 C 208.5 248.9 208.4 252.3 208.4 248.8 C 208.5 247.2 208.7 247.4 208.7 244.8 C 208.9 244.4 208.9 247.3 209.0 246.8 C 208.9 244.5 209.0 244.0 209.0 240.9 C 208.7 241.8 208.6 234.3 208.4 237.8 C 208.4 236.8 208.2 235.1 208.4 234.4 C 208.4 235.6 208.6 233.7 208.6 233.8 C 208.6 232.3 208.7 229.0 208.6 228.8 C 208.6 232.0 208.4 231.9 208.3 232.8 C 208.2 228.0 208.3 224.0 208.5 224.5 C 208.4 224.4 208.4 223.8 208.4 223.6 C 208.4 225.2 208.1 226.1 208.1 224.2 C 208.3 224.7 208.3 223.4 208.4 221.9 C 208.2 221.7 208.5 215.8 208.2 216.8 C 208.3 219.3 208.1 221.1 208.0 219.1 C 208.1 217.7 208.2 214.4 208.4 215.2 C 208.3 214.3 208.3 213.5 208.2 212.6 C 208.0 211.8 208.0 213.7 207.9 213.2 C 207.9 212.0 207.9 210.1 208.0 209.9 C 208.0 213.3 208.1 208.3 208.2 211.8 C 208.2 209.7 208.3 209.2 208.3 207.6 C 208.3 207.6 208.2 206.9 208.2 206.7 C 208.3 208.3 208.2 209.7 208.0 209.2 C 208.0 206.1 208.2 206.7 208.2 204.2 C 208.1 203.4 207.8 199.8 208.0 198.2 C 207.9 201.5 208.0 198.0 208.1 200.0 C 208.0 203.0 208.2 203.9 208.4 205.1 C 208.5 203.9 208.6 201.4 208.3 200.9 C 208.3 202.5 208.4 202.6 208.4 203.5 C 208.3 203.4 208.2 202.8 208.2 201.7 C 208.3 200.4 208.2 197.2 208.4 199.4 C 208.3 197.2 208.5 194.9 208.4 192.6 C 208.4 195.1 208.3 196.8 208.1 197.5 C 208.1 195.4 208.3 193.5 208.1 193.3 C 208.0 193.5 208.0 196.8 207.9 197.4 C 207.7 194.7 208.2 190.9 207.8 194.0 C 207.9 192.6 207.9 190.5 208.0 189.9 C 208.0 191.7 208.2 189.9 208.3 189.1 C 208.3 187.6 208.2 186.4 208.1 185.8 C 208.2 188.1 208.0 189.8 208.0 188.2 C 208.1 187.8 207.9 187.3 207.9 186.5 C 208.0 186.4 207.9 183.7 208.0 183.3 C 207.9 183.4 207.9 184.6 207.8 184.8 C 207.8 183.2 207.5 180.9 207.8 179.8 C 207.8 180.8 207.8 182.2 207.8 182.3 C 208.1 178.1 208.3 176.8 208.4 171.7 C 208.5 172.3 208.5 172.7 208.6 172.5 C 208.6 169.2 208.7 167.1 208.8 167.6 C 208.8 165.5 208.7 164.4 208.6 163.3 C 208.5 165.4 208.6 166.2 208.5 167.5 C 208.5 166.7 208.1 169.0 208.0 169.9 C 208.2 173.5 207.9 173.7 208.0 177.4 C 207.8 176.3 208.0 180.1 207.8 178.9 C 208.1 175.6 207.8 172.3 208.0 167.4 C 208.1 168.1 208.2 168.7 208.3 166.6 C 208.4 163.5 208.2 165.0 208.2 162.4 C 208.4 161.3 208.4 162.9 208.4 161.6 C 208.4 160.7 208.4 158.2 208.6 157.5 C 208.5 160.9 208.7 156.8 208.8 159.1 C 208.8 158.0 208.8 157.3 208.9 156.6 C 208.6 159.9 208.6 153.2 208.4 155.7 C 208.3 151.1 208.9 155.5 208.9 151.6 C 208.7 153.5 208.6 151.0 208.7 148.2 C 208.9 147.5 208.9 144.6 209.0 142.4 C 208.8 143.6 208.8 144.5 208.7 142.3 C 208.7 143.5 208.7 145.4 208.7 146.5 C 208.7 146.5 208.6 146.9 208.6 147.4 C 208.5 144.6 208.4 145.8 208.4 144.8 C 208.5 144.0 208.5 142.0 208.6 141.5 C 208.5 141.5 208.5 140.8 208.4 140.7 C 208.4 144.2 208.2 140.1 208.1 142.3 C 208.1 143.8 208.3 142.9 208.3 144.8 C 208.1 146.7 208.1 143.3 207.9 142.3 C 207.8 143.9 208.0 145.9 207.8 146.4 C 207.6 144.3 207.7 140.9 207.8 138.1 C 207.5 138.3 207.8 133.5 207.5 133.1 C 207.6 132.7 207.7 132.2 207.7 131.5 C 207.5 130.7 207.8 129.8 207.8 128.9 C 207.7 128.9 207.6 129.1 207.5 129.8 C 207.6 126.4 207.6 125.5 207.5 121.5 C 207.7 120.8 207.8 120.1 207.9 119.7 C 207.9 120.7 208.0 121.6 208.0 122.3 C 208.0 116.7 207.5 120.4 207.8 116.4 C 207.7 116.6 207.5 119.3 207.5 117.3 C 207.7 113.8 207.5 108.8 208.0 108.9 C 208.2 105.8 207.8 103.7 208.1 102.2 C 208.1 101.2 208.0 100.9 208.0 100.5 C 207.8 101.5 207.8 102.8 207.7 103.9 C 207.7 105.8 207.6 106.6 207.8 104.8 C 207.9 107.5 207.7 108.3 207.7 109.8 C 207.5 106.0 207.7 102.5 207.4 102.4 C 207.5 101.0 207.7 100.0 207.8 99.0 C 207.6 98.6 207.6 94.3 207.8 93.9 C 207.7 96.9 207.9 99.8 208.1 97.2 C 207.9 90.0 208.3 85.9 208.1 79.6 C 208.2 79.4 208.3 79.9 208.3 78.7 C 208.2 78.8 208.1 78.6 208.1 77.9 C 208.1 76.0 208.2 74.8 208.1 72.1 C 208.3 72.2 208.4 71.7 208.5 70.2 C 208.3 69.5 208.0 67.0 208.0 65.4 C 208.0 67.0 208.3 64.8 208.3 63.7 C 208.0 64.8 208.5 56.0 208.2 58.6 C 208.2 55.2 208.3 53.7 208.4 53.5 C 208.3 52.3 208.3 51.5 208.3 50.3 C 208.5 49.4 208.3 43.5 208.4 42.6 C 208.3 44.7 208.6 44.9 208.6 43.3 C 208.5 42.3 208.3 37.0 208.4 36.0 C 208.5 36.2 208.6 36.5 208.7 39.1 C 208.7 34.7 208.4 34.9 208.3 33.5 C 208.5 33.5 208.3 31.6 208.3 31.0 C 208.4 29.5 208.3 31.0 208.5 30.8 C 208.5 29.2 208.6 28.6 208.6 26.5 C 208.4 27.3 208.5 24.9 208.6 24.1 C 208.4 23.8 208.3 22.8 208.3 20.9 C 208.6 23.2 208.7 10.0 208.4 13.3 C 208.3 10.8 208.7 10.5 208.6 7.2 C 208.6 7.1 208.6 6.8 208.6 6.5 C 207.9 6.5 207.4 6.5 208.4 6.6 C 208.4 6.6 208.4 6.6 208.4 6.6 C 208.4 6.6 208.4 6.6 208.4 6.6 C 205.8 6.6 207.6 6.4 204.3 6.5 C 205.5 6.7 201.2 6.4 201.6 6.7 C 200.6 6.4 197.6 6.8 195.1 6.5 C 195.1 6.6 194.3 6.6 194.1 6.7 C 193.7 6.7 197.3 6.8 194.9 6.8 C 192.1 6.7 193.7 6.6 193.4 6.5 C 185.7 6.6 176.5 6.5 168.4 6.5 C 169.3 6.6 169.2 6.6 167.4 6.7 C 165.3 6.3 155.6 6.5 154.1 6.6 C 153.3 6.4 148.3 6.6 147.5 6.5 C 148.5 6.5 150.4 6.3 148.4 6.3 C 147.0 6.5 145.3 6.4 143.3 6.5 C 142.4 6.3 136.4 6.6 139.2 6.2 C 138.0 6.2 137.4 6.1 136.7 6.1 C 136.6 6.3 135.4 6.3 137.5 6.4 C 132.0 6.3 130.7 6.4 126.6 6.3 C 125.8 6.4 129.1 6.5 126.5 6.5 C 126.5 6.5 126.5 6.5 126.5 6.4 C 125.6 6.4 125.3 6.5 124.9 6.4 C 125.1 6.3 126.5 6.3 126.6 6.1 C 124.5 6.2 123.2 5.9 122.4 6.1 C 125.3 6.1 123.3 6.5 121.6 6.3 C 123.2 6.2 115.0 6.3 112.3 6.4 C 111.1 6.2 115.2 6.4 114.9 6.2 C 110.0 6.3 110.4 6.2 109.8 6.4 C 107.2 6.4 106.2 6.2 103.1 6.4 C 101.3 6.3 104.2 6.2 102.3 6.2 C 101.2 6.2 100.7 6.3 99.0 6.4 C 94.4 6.0 84.0 6.6 78.8 6.0 C 80.9 6.1 78.2 6.3 75.5 6.2 C 75.3 6.2 75.6 6.1 74.6 6.1 C 74.8 6.2 73.9 6.2 72.1 6.2 C 72.0 6.2 72.2 6.1 71.3 6.1 C 70.6 6.3 68.3 6.1 67.1 6.2 C 66.4 6.0 70.1 6.1 70.3 5.9 C 65.9 5.8 65.3 6.0 62.0 5.9 C 63.7 5.9 60.6 5.7 60.1 5.7 C 61.0 5.9 58.4 6.0 60.3 6.1 C 59.1 6.1 57.2 6.1 56.9 6.1 C 57.6 6.0 58.7 6.1 58.6 6.0 C 57.1 6.0 55.0 5.8 54.4 6.0 C 55.4 6.0 56.1 6.1 56.2 6.2 C 55.8 6.2 55.3 6.3 54.6 6.4 C 56.7 5.9 49.8 6.1 49.5 6.2 C 48.7 5.9 48.3 5.9 48.4 5.8 C 45.5 5.8 46.0 6.0 44.3 6.1 C 44.7 5.8 45.2 5.7 42.4 5.6 C 43.1 5.8 39.8 5.8 41.0 6.1 C 34.1 6.1 32.4 5.9 28.2 5.9 C 28.2 5.9 29.5 6.0 28.3 6.0 C 26.3 5.9 24.5 5.9 23.1 5.8 C 22.2 5.9 23.7 5.9 22.5 6.0 C 19.2 5.8 19.8 5.6 16.9 5.5 C 13.7 5.6 14.8 5.5 13.0 5.7 C 13.9 5.7 15.1 5.8 13.9 5.8 C 11.7 5.6 10.7 5.4 10.1 5.4 C 11.6 5.4 12.8 5.4 13.6 5.5 C 13.9 5.3 16.0 5.3 14.2 5.2 C 16.4 5.3 18.8 5.3 21.9 5.3 C 20.7 5.1 24.6 5.2 23.4 5.0 C 19.9 5.1 19.0 4.9 15.7 5.0 C 16.6 5.2 13.1 5.1 12.4 5.0 C 12.5 5.2 10.1 5.1 10.8 5.3 C 8.3 5.3 8.3 5.2 5.7 5.2 C 5.5 5.1 5.7 5.0 4.7 5.0 C 4.7 5.0 4.7 5.1 4.6 5.1 C 4.7 6.0 4.5 6.6 4.5 7.4 C 4.7 7.0 4.6 10.6 4.8 11.0 C 4.8 10.0 4.7 8.6 4.8 8.5 C 4.8 12.6 5.0 9.5 5.1 8.8 C 5.0 8.9 4.8 7.1 4.9 7.0 C 5.0 9.2 5.1 7.0 5.2 5.6 C 6.1 5.7 6.6 5.7 5.3 5.6 C 5.3 5.6 5.2 5.6 5.2 5.6 C 5.1 8.1 5.3 8.1 5.2 10.6 C 4.9 13.5 4.7 9.6 4.5 12.4 C 4.6 14.5 4.6 15.8 4.7 16.1 C 4.7 16.5 4.6 16.9 4.6 17.6 C 4.7 18.5 4.8 15.3 4.8 17.8 C 4.8 19.1 4.5 17.4 4.6 20.2 C 4.7 21.5 4.8 17.0 4.8 19.6 C 4.5 21.9 4.9 19.1 4.9 22.2 C 4.9 22.4 4.9 22.8 4.9 23.8 C 4.8 23.9 4.6 23.4 4.6 24.4 C 4.9 25.3 4.5 25.5 4.6 27.8 C 4.8 29.2 4.7 25.6 4.9 26.4 C 4.6 28.8 4.9 30.5 4.9 31.4 C 4.7 29.2 4.7 34.6 4.6 34.6 C 4.8 34.2 4.7 35.2 4.9 38.3 C 4.5 38.2 4.8 41.7 4.5 42.2 C 4.6 42.7 4.7 43.6 4.7 44.1 C 4.8 43.1 4.8 42.1 4.9 42.5 C 4.9 43.3 4.9 44.2 4.9 45.1 C 4.7 46.4 4.3 42.4 4.4 48.1 C 4.6 47.6 4.7 50.0 4.7 51.7 C 5.0 51.7 4.7 49.4 4.9 49.3 C 5.0 51.3 4.8 53.2 4.7 54.2 C 4.8 57.6 4.7 61.4 4.8 66.2 C 4.7 67.2 4.7 62.1 4.6 65.2 C 4.6 66.5 4.7 66.0 4.7 67.8 C 3.9 65.5 4.5 80.4 4.2 81.1 C 4.4 81.8 4.3 85.8 4.5 85.5 C 4.3 82.6 4.6 80.9 4.7 79.7 C 4.6 77.0 4.5 81.9 4.5 79.5 C 4.6 79.3 4.5 75.8 4.6 76.2 C 4.6 79.9 4.8 74.5 5.0 77.3 C 5.0 80.7 5.2 87.5 4.9 85.8 C 5.0 85.8 5.0 84.4 4.9 84.1 C 4.8 87.9 5.0 90.2 5.1 91.9 C 5.0 93.5 5.2 100.4 5.1 98.6 C 5.0 99.1 5.2 94.6 5.0 95.2 C 4.9 102.1 5.1 102.4 4.9 106.9 C 5.1 105.6 5.3 112.0 5.2 111.4 C 5.0 111.3 4.8 112.6 5.1 115.5 C 4.9 115.0 4.8 116.5 4.8 117.9 C 4.9 118.7 4.9 116.8 5.1 117.2 C 5.1 118.6 5.1 120.1 5.1 121.5 C 5.0 121.5 4.9 121.2 4.9 122.2 C 5.0 123.8 5.2 129.6 5.1 129.1 C 4.8 126.5 4.8 132.8 4.7 128.9 C 4.7 130.0 4.6 130.0 4.6 131.4 C 4.7 131.5 4.8 131.5 4.9 131.5 C 4.9 134.7 4.6 133.0 4.6 135.6 C 4.7 135.9 4.7 137.1 4.8 137.4 C 4.7 136.3 4.7 136.2 4.7 134.8 C 5.0 136.6 4.9 132.1 5.1 132.5 C 5.1 135.4 4.9 135.3 4.8 136.5 C 4.9 140.3 4.9 138.6 4.8 142.5 C 4.9 142.5 4.9 141.5 5.0 141.8 C 4.9 146.5 4.6 145.9 4.7 149.2 C 4.7 148.5 4.5 145.4 4.5 147.5 C 4.6 149.8 4.8 150.5 4.8 153.5 C 4.7 153.6 4.6 153.3 4.6 154.3 C 4.7 155.6 4.9 155.7 4.9 156.9 C 4.8 157.1 4.9 158.8 4.9 159.5 C 4.8 160.5 4.7 159.0 4.7 160.3 C 4.7 162.8 5.1 164.3 5.1 166.3 C 4.8 166.1 4.9 168.5 4.9 170.6 C 4.7 170.8 4.7 175.2 4.7 178.1 C 4.9 177.5 4.8 180.4 5.0 179.8 C 5.0 178.4 5.0 177.7 5.1 177.4 C 5.1 180.7 4.7 181.6 5.1 184.2 C 4.9 185.4 4.8 186.9 4.8 189.1 C 4.9 189.4 4.9 185.2 5.0 187.5 C 4.9 187.7 5.0 188.4 5.0 189.2 C 4.8 188.8 4.7 190.6 4.6 191.6 C 4.8 193.7 4.5 197.7 4.8 195.9 C 4.8 199.0 4.5 196.9 4.5 199.3 C 4.7 198.1 4.7 202.2 4.9 200.2 C 4.9 203.5 4.6 203.1 4.5 201.8 C 4.5 204.8 4.6 205.5 4.5 206.9 C 4.7 205.5 4.8 210.1 4.7 207.8 C 4.5 207.0 4.6 210.5 4.5 211.1 C 4.7 210.1 4.6 211.7 4.8 209.5 C 4.8 211.8 4.8 215.1 4.6 217.1 C 4.7 219.9 4.8 222.6 4.6 221.3 C 4.6 224.0 4.6 223.0 4.6 225.6 C 4.6 225.6 4.6 224.9 4.7 224.7 C 4.7 228.4 4.6 227.6 4.6 232.4 C 4.3 231.8 4.4 234.9 4.2 235.8 C 4.2 233.8 4.3 232.2 4.3 230.6 C 4.2 230.3 4.2 231.9 4.2 230.6 C 4.2 230.5 4.2 229.7 4.3 229.0 C 4.1 232.0 4.0 225.0 4.2 227.2 C 4.1 227.2 4.1 227.4 4.1 228.0 C 4.3 227.5 4.2 227.5 4.4 228.1 C 4.3 226.5 4.6 225.3 4.4 224.7 C 4.3 224.8 4.3 226.3 4.3 226.4 C 4.2 222.5 4.5 225.3 4.5 222.2 C 4.2 221.5 4.2 223.1 4.1 223.8 C 4.1 221.0 4.1 218.6 4.2 217.9 C 4.1 215.3 4.1 218.0 4.0 216.2 C 4.1 215.3 4.2 215.4 4.2 213.6 C 4.1 211.7 4.1 214.7 4.0 212.8 C 4.1 210.7 4.3 214.2 4.3 211.1 C 4.0 211.8 4.4 208.3 4.2 208.5 C 4.2 210.3 4.0 210.3 4.1 209.4 C 4.4 205.3 3.7 202.3 4.1 198.3 C 4.1 198.3 4.1 197.6 4.0 197.4 C 3.9 200.5 3.9 205.0 3.6 205.8 C 3.7 208.3 3.8 208.0 3.9 208.4 C 3.7 211.3 3.6 211.0 3.4 209.2 C 3.3 204.3 3.5 202.3 3.5 199.1 C 3.4 197.3 3.5 199.2 3.4 199.8 C 3.6 189.8 3.0 197.4 3.1 193.8 C 3.2 193.9 3.2 193.2 3.2 192.2 C 3.2 192.1 3.2 190.7 3.1 190.4 C 3.1 191.1 3.1 191.4 3.0 191.2 C 2.9 188.7 3.1 189.7 3.2 189.6 C 3.2 191.5 3.3 192.8 3.4 193.0 C 3.3 190.5 3.4 188.7 3.2 187.0 C 3.5 184.8 3.8 188.4 4.0 187.2 C 4.1 187.7 3.5 185.5 3.4 183.7 C 3.4 180.6 3.2 180.4 3.2 177.6 C 3.4 176.9 3.3 180.5 3.5 180.3 C 3.5 179.4 3.5 179.3 3.5 178.5 C 3.5 176.5 3.4 176.7 3.3 175.1 C 3.5 174.3 3.4 173.8 3.3 172.6 C 3.4 170.7 3.5 173.7 3.5 171.7 C 3.5 169.6 3.3 168.1 3.3 167.4 C 3.4 167.3 3.5 167.6 3.5 166.6 C 3.4 164.2 3.3 163.6 3.2 166.6 C 3.3 163.9 3.2 162.7 3.0 163.0 C 3.0 167.0 3.0 168.0 2.8 169.8 C 3.0 170.6 2.8 171.7 2.8 173.2 C 3.1 172.4 2.8 175.0 2.9 175.8 C 3.0 174.9 3.0 173.9 3.1 173.3 C 3.0 177.5 3.0 177.5 3.3 181.0 C 3.2 181.0 3.2 181.4 3.1 181.8 C 3.0 180.7 3.1 177.6 2.9 177.5 C 2.7 179.9 3.1 180.8 2.8 183.5 C 3.0 184.7 3.0 181.3 3.1 183.5 C 2.9 184.6 2.8 186.0 2.8 187.7 C 2.8 189.5 2.9 190.5 2.9 192.0 C 2.9 192.2 2.8 192.3 2.8 193.7 C 2.9 193.7 3.0 192.3 3.0 193.8 C 2.8 198.2 2.6 201.2 2.7 205.7 C 2.8 204.1 3.0 200.6 2.9 202.3 C 2.8 204.3 3.1 207.1 2.9 209.1 C 2.8 209.8 3.0 206.7 2.6 207.3 C 2.7 209.3 2.6 210.6 2.6 211.6 C 2.7 211.6 2.7 213.9 2.8 213.4 C 2.8 211.7 2.6 211.2 2.7 210.8 C 3.2 212.3 2.5 217.0 2.5 220.2 C 2.6 222.3 2.7 218.6 2.8 221.0 C 2.8 222.5 2.4 223.3 2.3 221.0 C 2.4 219.4 2.2 218.7 2.4 218.4 C 2.4 217.7 2.4 216.7 2.3 216.7 C 2.3 217.9 2.2 217.6 2.2 218.3 C 2.2 216.7 1.8 216.4 2.0 214.9 C 2.1 215.9 2.1 216.3 2.2 216.7 C 2.1 212.1 2.3 210.7 2.3 208.1 C 2.2 209.5 2.3 208.0 2.1 208.1 C 2.2 210.1 2.0 213.8 2.0 211.5 C 2.2 210.0 1.6 208.6 1.9 207.2 C 1.9 208.4 2.0 208.2 2.0 208.9 C 2.1 207.1 2.2 207.3 2.2 205.5 C 2.0 199.8 2.4 195.7 2.0 186.7 C 2.1 183.6 2.1 189.5 2.3 189.3 C 2.3 188.4 2.3 188.2 2.3 187.6 C 2.1 187.4 2.4 186.0 2.2 184.9 C 2.4 185.2 2.2 180.9 2.3 179.0 C 2.3 178.9 2.2 179.1 2.2 178.1 C 2.4 171.9 2.1 160.4 2.3 155.8 C 2.1 155.9 2.1 153.9 2.0 153.2 C 2.1 150.2 2.2 151.6 2.0 147.2 C 2.0 145.0 2.2 147.7 2.2 148.1 C 2.1 141.6 2.3 136.0 2.1 131.8 C 2.0 129.7 2.2 131.9 2.3 127.6 C 2.0 127.4 2.4 120.9 2.1 119.8 C 2.1 117.2 2.4 112.8 2.2 114.7 C 2.1 111.2 2.4 113.7 2.4 112.3 C 2.4 109.8 2.0 112.7 1.9 110.3 C 2.1 110.7 2.0 108.5 2.2 107.1 C 2.2 109.0 2.2 110.2 2.3 110.5 C 2.2 108.8 2.4 109.0 2.3 106.3 C 2.2 104.2 2.1 98.4 2.3 96.9 C 2.3 96.7 2.2 97.2 2.2 97.6 C 2.1 95.9 2.3 94.0 2.1 94.1 C 2.1 90.3 2.3 88.7 2.1 86.4 C 2.0 84.7 2.3 87.1 2.3 82.2 C 2.1 82.0 2.1 73.3 2.3 71.1 C 2.0 70.8 2.3 70.5 2.3 69.4 C 2.2 69.2 2.1 69.4 2.1 68.4 C 2.2 68.3 2.1 67.5 2.1 66.7 C 2.4 67.5 2.0 63.5 2.2 63.4 C 2.2 64.2 2.4 64.3 2.4 63.5 C 2.2 63.1 2.5 59.8 2.3 60.1 C 2.3 60.8 2.3 63.2 2.2 62.4 C 2.1 59.0 2.3 60.6 2.3 58.3 C 2.3 58.4 2.2 59.7 2.2 58.2 C 2.2 55.9 2.2 58.0 2.3 56.6 C 2.3 55.4 2.2 53.0 2.2 52.1 C 2.2 52.4 2.3 51.7 2.3 51.4 C 2.4 47.1 2.2 36.9 2.4 32.7 C 2.3 32.3 2.3 31.4 2.2 31.6 C 2.3 29.1 2.2 29.2 2.3 26.6 C 2.2 26.5 2.1 26.5 2.1 26.4 C 2.0 22.9 2.3 26.3 2.3 24.0 C 1.9 23.4 2.4 22.8 2.4 20.7 C 2.3 20.4 2.3 19.4 2.2 19.6 C 2.2 16.3 2.5 16.8 2.3 13.8 C 2.3 14.5 1.8 14.4 1.6 13.9 C 1.7 13.5 1.7 12.7 1.7 11.5 C 1.9 13.2 2.6 13.0 2.4 8.7 C 2.4 11.0 2.4 11.8 2.2 11.1 C 2.2 8.0 2.3 7.1 2.3 4.4 C 2.2 3.8 2.1 5.7 1.9 4.8 C 1.9 4.1 1.9 3.8 1.8 3.9 C 1.8 3.2 1.8 2.7 1.8 2.3 C 3.4 2.4 4.0 2.4 6.4 2.3 C 6.5 2.4 5.8 2.5 4.6 2.4 C 5.0 2.5 5.1 2.7 3.3 2.7 C 2.9 2.6 3.6 2.4 2.0 2.4 C 2.0 2.6 2.0 2.9 2.0 3.2 C 2.1 3.3 2.2 3.4 2.3 3.5 C 2.3 3.3 2.3 3.0 2.3 2.8 C 4.5 2.8 8.2 2.9 8.5 2.8 C 7.5 2.7 6.0 2.7 6.5 2.5 C 9.9 2.6 11.0 2.8 13.8 2.9 C 18.5 2.8 26.9 2.9 25.7 2.6 C 28.6 2.6 27.6 2.7 30.1 2.7 C 29.2 2.5 33.0 2.6 32.6 2.5 C 29.5 2.5 30.4 2.5 27.4 2.5 C 27.4 2.4 27.8 2.3 29.0 2.3 C 29.2 2.4 30.5 2.4 32.6 2.4 C 32.2 2.4 30.2 2.2 32.4 2.2 C 32.6 2.2 33.1 2.2 34.1 2.2 C 34.2 2.3 34.3 2.4 34.3 2.5 C 33.2 2.6 31.8 2.6 31.0 2.7 C 31.8 2.7 32.0 2.7 32.8 2.7 C 33.2 2.6 36.9 2.8 37.0 2.6 C 35.6 2.6 34.6 2.5 36.1 2.5 C 36.4 2.5 38.8 2.6 39.6 2.5 C 36.5 2.4 37.7 2.4 35.9 2.2 C 39.4 2.2 39.0 2.4 43.0 2.3 C 43.1 2.5 43.2 2.6 42.2 2.7 C 45.0 3.0 50.7 2.7 52.7 2.8 C 51.3 2.7 49.9 3.0 52.0 3.0 C 51.9 2.9 53.5 2.9 53.7 2.9 C 54.2 2.5 52.3 2.3 50.7 2.1 C 52.3 2.2 52.6 2.1 54.1 2.1 C 54.7 2.2 53.2 2.5 55.2 2.5 C 55.5 2.2 58.8 2.5 59.4 2.3 C 58.0 2.3 57.1 2.2 58.5 2.2 C 58.3 2.3 61.1 2.2 61.2 2.3 C 59.0 2.4 58.4 2.6 57.0 2.6 C 58.8 2.6 55.7 2.7 58.8 2.8 C 60.1 2.6 60.7 2.5 63.9 2.5 C 65.1 2.5 64.1 2.7 65.7 2.7 C 65.2 2.5 68.6 2.5 66.6 2.6 C 67.8 2.6 68.5 2.7 69.1 2.7 C 67.4 2.5 75.5 2.3 74.2 2.2 C 74.3 2.4 74.8 2.6 75.2 2.7 C 76.8 2.5 78.7 2.6 83.1 2.6 C 82.9 2.4 83.8 2.6 85.6 2.6 C 85.9 2.5 84.3 2.4 85.6 2.4 C 87.7 2.5 87.8 2.5 88.2 2.6 C 89.8 2.6 90.9 2.6 91.7 2.6 C 91.8 2.6 91.3 2.5 90.8 2.5 C 96.7 2.7 99.7 2.4 104.7 2.5 C 102.6 2.4 102.2 2.7 103.9 2.6 C 104.9 2.6 105.9 2.6 106.4 2.5 C 105.3 2.3 105.8 2.4 108.2 2.5 C 110.4 2.4 107.4 2.2 109.1 2.2 C 110.9 2.3 109.8 2.3 110.9 2.4 C 111.7 2.4 112.6 2.4 113.5 2.4 C 111.9 2.3 113.7 2.2 115.2 2.2 C 114.1 2.4 114.8 2.4 117.8 2.3 C 118.1 2.4 116.5 2.5 117.8 2.5 C 118.5 2.5 120.9 2.3 123.0 2.5 C 122.3 2.5 121.9 2.5 122.1 2.6 C 124.4 2.4 126.2 2.7 128.2 2.8 C 126.2 2.6 127.3 2.5 126.5 2.3 C 128.5 2.5 131.0 2.3 132.5 2.5 C 129.6 2.5 132.4 2.9 134.2 2.9 C 134.7 2.7 131.6 2.7 132.5 2.5 C 133.6 2.4 135.8 2.6 136.9 2.5 C 136.7 2.3 135.5 2.5 135.2 2.4 C 136.8 2.4 134.7 2.3 136.1 2.3 C 136.9 2.5 137.9 2.2 138.7 2.2 C 139.8 2.3 142.0 2.5 143.0 2.4 C 143.0 2.3 141.5 2.3 141.3 2.3 C 146.1 2.2 147.5 2.4 151.8 2.2 C 152.3 2.3 153.1 2.4 154.4 2.4 C 154.3 2.3 155.1 2.2 156.1 2.2 C 158.0 2.3 159.8 2.4 162.1 2.5 C 161.6 2.6 160.5 2.7 163.7 2.7 C 163.9 2.6 162.6 2.6 163.8 2.6 C 163.8 2.6 164.5 2.6 164.7 2.6 C 164.7 2.5 164.7 2.5 164.8 2.5 C 163.8 2.5 163.0 2.5 162.1 2.5 C 162.3 2.4 162.1 2.3 161.4 2.2 C 165.3 2.1 164.8 2.5 167.4 2.3 C 167.6 2.6 168.4 2.7 166.2 2.9 C 168.4 2.8 170.0 2.7 170.7 2.6 C 168.1 2.6 169.0 2.4 168.3 2.3 C 170.0 2.3 170.1 2.2 171.0 2.2 C 172.8 2.3 168.7 2.5 172.5 2.5 C 169.8 2.3 175.0 2.3 176.9 2.4 C 176.6 2.3 176.0 2.3 177.0 2.2 C 182.3 2.1 181.4 2.7 184.7 2.4 C 184.4 2.5 185.8 2.5 186.4 2.6 C 183.8 2.6 183.1 2.7 182.0 2.7 C 182.1 2.8 182.8 2.8 183.6 2.8 C 183.7 2.7 184.3 2.7 185.4 2.8 C 186.2 2.7 186.2 2.4 188.3 2.2 C 188.5 2.3 188.1 2.4 189.1 2.4 C 190.2 2.2 188.1 2.7 192.4 2.6 C 191.7 2.6 191.4 2.5 191.8 2.3 C 193.9 2.3 193.4 2.4 196.2 2.3 C 196.9 2.6 194.0 2.6 193.1 2.8 C 195.0 2.8 196.7 2.6 198.5 2.7 C 197.1 2.6 198.7 2.5 200.4 2.4 C 201.9 2.4 200.1 2.7 201.9 2.7 C 203.4 2.7 204.3 2.5 203.0 2.4 C 206.2 2.5 205.6 2.3 208.3 2.3 C 208.3 2.4 207.5 2.4 206.6 2.3 C 206.7 2.4 206.3 2.5 207.3 2.5 C 208.6 2.4 210.7 2.4 212.7 2.3 C 212.7 3.2 212.8 4.1 212.8 4.8 C 212.5 8.9 212.9 13.0 212.8 17.0 C 212.6 15.6 212.7 22.1 212.5 24.1 C 212.6 25.2 213.0 28.6 212.8 27.3 C 212.5 27.9 212.6 30.1 212.6 31.9 C 212.6 31.9 212.7 31.8 212.8 31.8 C 212.8 35.6 212.6 36.6 212.4 38.0 C 212.6 42.6 212.3 47.9 212.5 53.5 C 212.3 55.1 212.3 56.3 212.2 59.8 C 212.4 59.6 212.4 62.3 212.4 64.8 C 212.6 64.1 212.5 66.5 212.6 66.5 C 212.6 64.2 212.9 64.9 212.9 63.7 C 212.7 66.8 213.1 68.2 212.9 70.6 C 212.8 67.7 212.6 66.9 212.3 66.6 C 212.4 70.1 212.3 72.0 212.2 72.8 C 212.3 73.0 212.4 72.5 212.4 71.7 C 212.4 72.9 212.4 74.1 212.4 75.2 C 212.3 75.5 212.3 74.0 212.3 75.2 C 212.3 76.1 212.4 77.0 212.4 77.8 C 212.3 78.9 212.3 76.5 212.2 76.2 C 212.1 80.8 212.5 78.7 212.6 81.2 C 212.4 81.9 212.2 81.8 212.2 83.9 C 212.3 84.7 212.5 84.9 212.5 87.3 C 212.5 88.8 212.2 87.3 212.2 89.1 C 212.3 89.3 212.2 90.1 212.2 90.8 C 212.3 90.7 212.4 91.5 212.4 92.5 C 212.3 92.7 212.3 94.4 212.4 95.1 C 212.3 95.3 212.1 98.0 212.2 98.6 C 212.3 98.5 212.3 97.0 212.3 96.9 C 212.3 98.8 212.3 100.1 212.4 101.1 C 212.0 101.8 212.3 104.9 212.1 108.9 C 212.2 111.4 212.4 108.4 212.5 111.5 C 212.4 113.3 212.3 111.1 212.2 111.5 C 212.1 112.0 212.0 114.9 212.2 115.0 C 212.2 115.0 212.2 113.5 212.3 113.3 C 212.4 115.5 212.2 115.5 212.2 116.7 C 212.3 116.6 212.3 118.1 212.4 118.4 C 212.6 124.6 212.2 124.6 212.1 127.1 C 212.2 127.1 212.1 128.6 212.2 128.8 C 212.1 127.0 212.3 124.6 212.3 127.1 C 212.2 126.7 212.3 130.3 212.4 130.5 C 212.5 130.1 212.4 127.8 212.6 128.8 C 212.7 132.0 212.3 130.7 212.5 133.1 C 212.4 133.4 212.4 132.0 212.3 131.4 C 212.3 132.4 212.3 133.8 212.3 134.0 C 212.2 132.7 212.1 132.7 212.0 132.2 C 212.1 133.9 212.0 136.9 212.2 134.8 C 212.2 138.3 212.3 141.6 212.4 139.2 C 212.5 142.0 212.2 140.4 212.4 142.7 C 212.2 142.3 212.1 141.6 211.9 143.5 C 212.0 143.8 212.1 145.3 212.2 145.2 C 212.2 149.3 212.0 150.5 211.8 152.1 C 212.1 150.6 211.9 152.6 212.1 154.7 C 212.0 155.9 211.8 154.7 211.8 158.1 C 212.1 154.5 211.9 162.3 212.2 160.7 C 212.1 165.0 212.1 164.9 212.0 169.4 C 211.9 168.9 211.8 167.8 211.8 165.9 C 212.0 167.2 212.0 162.1 211.8 162.4 C 211.8 162.4 211.8 162.4 211.7 162.4 C 211.8 165.7 211.7 167.8 211.6 169.2 C 211.7 169.9 211.8 171.5 212.0 171.0 C 211.8 174.1 212.1 177.5 211.9 178.8 C 211.9 177.7 211.9 176.7 211.8 177.0 C 211.8 178.3 211.9 179.8 212.0 179.7 C 212.1 177.2 212.1 176.7 212.0 175.4 C 212.1 176.5 212.2 172.9 212.3 175.5 C 212.0 175.3 212.4 180.7 212.2 178.9 C 212.1 176.1 212.1 182.0 211.9 182.2 C 211.9 182.2 211.9 182.2 211.9 182.2 Z M 2.2 206.3 C 2.3 208.9 2.5 205.8 2.5 203.9 C 2.4 204.5 2.3 204.7 2.2 204.7 C 2.3 205.4 2.3 206.2 2.2 206.3 C 2.2 206.3 2.2 206.3 2.2 206.3 Z M 4.9 179.8 C 4.7 178.9 4.8 183.2 4.7 184.9 C 4.8 184.4 4.9 183.8 4.9 184.9 C 5.0 183.2 4.7 182.4 4.9 179.8 C 4.9 179.8 4.9 179.8 4.9 179.8 Z M 4.2 85.3 C 4.2 86.0 4.3 87.7 4.2 87.8 C 4.2 88.8 4.3 88.6 4.4 88.8 C 4.4 90.8 4.1 88.1 4.2 91.3 C 4.6 92.6 4.6 86.2 4.2 85.3 C 4.2 85.3 4.2 85.3 4.2 85.3 Z M 209.2 149.1 C 209.1 150.3 209.0 147.4 208.8 148.2 C 208.9 152.9 209.2 149.4 209.1 155.8 C 209.2 155.4 209.2 154.9 209.3 155.0 C 209.2 152.0 209.1 151.7 209.4 152.5 C 209.4 151.1 209.0 150.7 209.2 149.1 C 209.2 149.1 209.2 149.1 209.2 149.1 Z M 208.4 209.4 C 208.5 208.9 208.5 208.6 208.6 208.6 C 208.5 206.6 208.5 207.0 208.6 204.4 C 208.3 204.6 208.3 207.1 208.4 209.4 C 208.4 209.4 208.4 209.4 208.4 209.4 Z M 100.3 260.8 C 99.8 260.8 99.2 260.8 98.6 260.8 C 99.1 260.9 97.6 261.1 100.5 261.1 C 100.6 261.0 100.1 261.0 99.6 261.0 C 100.1 261.0 101.5 261.0 101.2 260.8 C 100.5 260.9 100.4 260.8 100.3 260.8 C 100.3 260.8 100.3 260.8 100.3 260.8 Z M 33.3 262.5 C 36.6 262.3 28.4 261.9 33.3 262.5 C 33.3 262.5 33.3 262.5 33.3 262.5 C 33.3 262.5 33.3 262.5 33.3 262.5 Z M 40.5 264.6 C 40.6 264.6 41.4 264.6 41.4 264.6 C 44.2 264.6 41.5 264.7 43.1 264.8 C 45.3 264.7 41.9 264.5 44.8 264.4 C 44.1 264.3 42.2 264.6 40.5 264.6 C 40.5 264.6 40.5 264.6 40.5 264.6 Z M 181.2 2.5 C 178.8 2.6 178.0 2.7 177.4 2.9 C 179.0 2.9 180.3 3.0 180.8 3.1 C 183.9 2.9 178.9 2.9 178.4 2.9 C 178.8 2.7 181.0 2.7 181.2 2.5 C 181.2 2.5 181.2 2.5 181.2 2.5 Z M 173.3 2.6 C 172.3 2.7 170.7 2.7 170.5 2.9 C 172.1 2.8 172.2 2.9 172.2 3.0 C 173.6 2.9 172.0 2.8 173.3 2.6 C 173.3 2.6 173.3 2.6 173.3 2.6 Z M 187.9 2.8 C 186.8 2.8 187.1 2.9 186.9 3.0 C 188.5 3.0 188.7 3.1 190.3 3.1 C 190.4 3.0 190.4 2.9 190.5 2.9 C 189.1 2.9 189.0 2.9 187.8 2.9 C 187.8 2.9 187.9 2.8 187.9 2.8 C 187.9 2.8 187.9 2.8 187.9 2.8 Z M 165.4 2.8 C 160.9 2.8 158.7 3.1 155.6 3.4 C 158.9 3.3 162.1 2.9 164.4 3.1 C 167.3 3.0 163.5 2.9 163.6 2.9 C 163.7 2.8 164.7 2.8 165.4 2.8 C 165.4 2.8 165.4 2.8 165.4 2.8 Z M 125.5 2.8 C 124.6 2.7 122.9 3.0 120.3 2.9 C 120.8 3.0 121.2 3.0 121.2 3.1 C 124.9 3.2 122.8 2.8 125.5 2.8 C 125.5 2.8 125.5 2.8 125.5 2.8 Z M 103.9 2.9 C 101.6 2.9 105.1 3.0 103.9 3.2 C 106.4 3.2 109.1 3.2 109.1 3.0 C 106.4 3.1 105.8 3.1 103.9 2.9 C 103.9 2.9 103.9 2.9 103.9 2.9 Z M 88.3 2.9 C 85.8 3.0 89.4 3.2 88.4 3.4 C 89.4 3.3 89.1 3.2 89.2 3.2 C 90.0 3.2 90.6 3.2 91.8 3.2 C 90.9 3.1 88.0 3.1 88.3 2.9 C 88.3 2.9 88.3 2.9 88.3 2.9 Z M 212.0 34.9 C 211.9 33.4 211.7 34.0 211.8 30.7 C 211.8 35.6 211.2 33.4 211.3 39.6 C 211.4 38.6 211.5 39.2 211.4 39.6 C 211.5 41.9 211.5 37.3 211.7 39.4 C 211.7 37.6 211.5 38.8 211.4 37.0 C 211.6 35.1 211.7 33.9 212.0 34.9 C 212.0 34.9 212.0 34.9 212.0 34.9 Z M 211.1 39.8 C 211.1 41.6 211.5 41.3 211.3 42.3 C 211.3 43.1 211.3 42.9 211.4 43.0 C 211.4 42.4 211.4 42.3 211.4 42.1 C 211.4 40.7 211.3 39.2 211.1 39.8 C 211.1 39.8 211.1 39.8 211.1 39.8 Z M 211.1 23.5 C 211.2 26.3 211.1 27.3 211.3 28.6 C 211.0 29.8 211.4 30.4 211.1 32.1 C 211.2 34.9 211.3 32.7 211.4 31.9 C 211.5 34.6 211.2 32.7 211.3 35.4 C 211.5 35.8 211.4 32.3 211.6 32.6 C 211.6 30.5 211.5 30.6 211.4 29.3 C 211.5 28.3 211.6 28.5 211.6 28.3 C 211.6 25.9 211.7 26.0 211.7 24.0 C 211.5 23.6 211.5 24.5 211.5 26.7 C 211.4 24.4 211.3 23.5 211.4 20.8 C 211.6 22.6 211.6 13.9 211.3 14.8 C 211.3 17.2 211.4 16.4 211.5 17.3 C 211.3 20.4 211.4 22.2 211.1 23.5 C 211.1 23.5 211.1 23.5 211.1 23.5 Z M 188.4 3.4 C 187.7 3.3 187.0 3.3 185.8 3.3 C 185.9 3.1 187.4 3.2 186.0 3.1 C 184.2 3.0 183.7 3.1 182.5 3.1 C 183.1 3.2 186.9 3.4 184.8 3.5 C 185.3 3.6 186.5 3.6 188.1 3.6 C 186.5 3.3 190.7 3.6 192.5 3.6 C 192.6 3.3 195.5 3.7 196.9 3.5 C 196.0 3.3 192.3 3.5 190.8 3.5 C 191.6 3.4 186.9 3.1 188.4 3.4 C 188.4 3.4 188.4 3.4 188.4 3.4 Z M 211.3 46.5 C 211.3 47.0 211.4 48.9 211.4 47.4 C 211.5 48.1 211.3 49.7 211.6 48.9 C 211.6 49.8 211.6 50.6 211.6 51.5 C 211.5 51.2 211.6 48.8 211.4 49.9 C 211.5 51.6 211.4 51.0 211.4 53.3 C 211.2 52.2 211.2 53.5 211.0 52.7 C 211.1 53.3 211.1 55.4 211.2 55.2 C 211.2 58.5 211.0 54.4 211.0 58.7 C 210.8 58.7 210.8 55.7 210.9 54.5 C 210.7 54.1 210.8 59.9 210.8 63.1 C 210.9 60.2 211.1 62.3 211.3 63.7 C 211.2 64.7 211.1 63.7 211.0 65.5 C 211.0 67.0 211.1 67.7 211.0 68.1 C 211.0 69.3 211.2 68.7 211.3 68.8 C 211.2 70.9 211.0 69.5 211.0 72.4 C 211.3 70.1 211.3 72.6 211.3 76.5 C 211.3 76.2 211.4 75.0 211.4 74.8 C 211.6 75.3 211.3 77.7 211.3 78.3 C 211.3 79.7 211.4 78.7 211.4 77.4 C 211.4 78.2 211.5 79.0 211.6 79.9 C 211.6 75.6 211.5 68.9 211.8 60.9 C 211.7 62.4 211.6 60.7 211.7 58.3 C 211.8 57.9 211.8 58.9 211.8 60.0 C 212.0 57.1 211.5 57.6 211.7 53.2 C 211.7 50.8 211.8 55.7 211.9 53.1 C 211.9 51.5 211.7 50.5 211.9 49.6 C 211.8 46.9 211.6 46.3 211.6 42.0 C 211.5 44.5 211.1 45.9 211.2 48.3 C 211.3 48.3 211.3 47.2 211.3 46.5 C 211.3 46.5 211.3 46.5 211.3 46.5 Z M 172.2 3.1 C 170.7 3.1 169.8 3.2 169.5 3.1 C 166.9 3.2 169.8 3.3 170.2 3.4 C 171.4 3.3 171.9 3.2 172.2 3.1 C 172.2 3.1 172.2 3.1 172.2 3.1 Z M 2.7 95.3 C 2.6 98.5 2.8 98.0 2.8 100.6 C 2.9 98.5 3.0 98.1 3.0 94.7 C 2.9 94.4 2.7 94.4 2.7 95.3 C 2.7 95.3 2.7 95.3 2.7 95.3 Z M 180.7 3.2 C 182.9 3.0 178.0 3.5 178.1 3.3 C 175.6 3.4 180.3 3.4 177.9 3.6 C 180.1 3.5 181.2 3.6 183.9 3.5 C 183.9 3.4 181.8 3.4 179.7 3.4 C 179.5 3.3 180.6 3.3 180.7 3.2 C 180.7 3.2 180.7 3.2 180.7 3.2 Z M 3.1 62.3 C 3.0 60.0 2.8 64.2 2.7 65.4 C 3.0 65.7 2.9 65.0 3.1 62.3 C 3.1 62.3 3.1 62.3 3.1 62.3 Z M 2.9 117.7 C 3.2 119.1 3.0 113.9 3.2 115.3 C 3.2 113.8 3.1 113.6 3.1 113.5 C 3.1 112.8 3.1 110.3 3.2 111.1 C 3.4 110.7 3.2 114.9 3.4 113.7 C 3.4 115.1 3.4 115.1 3.4 116.2 C 3.4 113.7 3.2 114.8 3.1 117.8 C 3.3 117.9 3.3 116.5 3.4 118.0 C 3.3 118.1 3.2 119.6 2.9 119.4 C 2.9 122.0 3.2 120.6 3.2 123.8 C 3.3 123.6 3.3 121.6 3.4 120.5 C 3.6 120.9 3.2 123.7 3.5 123.1 C 3.3 123.7 3.3 125.5 3.1 125.5 C 3.0 123.0 2.9 121.4 2.8 119.3 C 2.7 121.1 3.1 124.0 2.9 127.0 C 3.0 126.8 3.0 128.7 3.2 128.1 C 3.2 130.6 2.9 129.3 2.9 128.8 C 2.8 129.4 2.9 134.3 3.0 134.0 C 2.9 134.3 2.9 140.1 3.1 140.0 C 3.0 141.6 3.3 144.4 3.0 145.1 C 3.1 146.1 3.1 148.1 3.1 150.3 C 3.3 150.9 3.2 147.1 3.3 147.0 C 3.5 146.4 3.3 150.9 3.4 150.4 C 3.5 150.4 3.5 150.4 3.6 150.5 C 3.5 148.7 3.4 146.9 3.4 145.2 C 3.4 144.0 3.4 145.6 3.6 145.3 C 3.4 144.1 3.2 138.5 3.6 138.5 C 3.5 134.8 3.5 132.3 3.4 130.7 C 3.4 128.5 3.5 132.0 3.6 130.8 C 3.4 124.3 3.7 116.6 3.4 111.2 C 3.4 110.0 3.5 110.5 3.6 110.4 C 3.5 103.0 3.2 109.1 3.3 103.4 C 3.5 103.5 3.4 106.2 3.6 106.1 C 3.6 104.1 3.5 103.6 3.6 101.0 C 3.5 100.9 3.4 100.9 3.3 100.8 C 3.3 98.6 3.5 99.6 3.6 98.5 C 3.6 95.7 3.4 96.3 3.7 95.1 C 3.6 92.5 3.5 90.0 3.6 87.4 C 3.5 85.5 3.2 88.7 3.2 91.4 C 3.1 91.2 3.1 90.5 3.1 90.4 C 3.2 87.4 3.6 87.1 3.6 82.3 C 3.4 85.8 3.5 80.3 3.7 79.8 C 3.7 77.8 3.4 79.1 3.4 80.4 C 3.3 80.1 3.4 78.9 3.5 78.8 C 3.2 78.4 3.1 82.9 3.2 87.9 C 2.9 85.5 3.2 91.4 2.8 88.6 C 2.9 92.6 3.1 89.4 3.1 93.8 C 3.2 93.5 3.2 92.7 3.3 92.3 C 3.4 95.8 3.1 94.6 3.1 98.2 C 3.3 98.9 3.3 96.5 3.4 96.6 C 3.2 100.4 3.1 101.6 3.0 104.1 C 3.1 104.6 3.2 104.1 3.1 108.4 C 3.1 108.4 3.0 108.4 3.0 108.4 C 3.0 106.3 2.7 105.6 2.7 110.8 C 2.8 111.2 2.8 109.6 2.8 108.3 C 2.9 108.9 3.0 110.6 3.0 112.6 C 3.0 113.6 2.9 114.7 2.9 113.4 C 2.7 114.1 3.0 115.0 2.9 117.7 C 2.9 117.7 2.9 117.7 2.9 117.7 Z M 129.8 3.2 C 129.1 3.3 128.4 3.3 127.1 3.3 C 126.5 3.5 128.9 3.4 128.9 3.5 C 130.7 3.5 129.3 3.3 129.8 3.2 C 129.8 3.2 129.8 3.2 129.8 3.2 Z M 153.9 3.4 C 153.8 3.2 152.4 3.4 150.4 3.4 C 149.8 3.5 152.1 3.5 152.1 3.6 C 154.4 3.6 151.6 3.3 153.9 3.4 C 153.9 3.4 153.9 3.4 153.9 3.4 Z M 143.5 3.4 C 142.7 3.2 142.6 3.4 144.4 3.4 C 144.2 3.5 143.8 3.6 142.6 3.7 C 143.8 3.8 144.7 3.5 146.9 3.6 C 146.2 3.5 145.0 3.4 143.5 3.4 C 143.5 3.4 143.5 3.4 143.5 3.4 Z M 140.1 3.4 C 138.8 3.5 138.0 3.3 135.8 3.4 C 136.2 3.5 141.0 3.5 141.8 3.4 C 142.6 3.3 137.5 3.3 140.1 3.4 C 140.1 3.4 140.1 3.4 140.1 3.4 Z M 3.4 28.4 C 3.4 29.3 3.4 29.2 3.5 29.4 C 3.2 31.8 3.3 35.5 3.0 32.4 C 3.2 35.2 2.9 37.6 2.9 39.9 C 2.9 41.9 3.1 41.1 3.1 42.6 C 3.0 45.1 3.0 41.2 2.9 41.7 C 2.7 42.0 3.1 43.1 2.9 46.0 C 3.3 45.4 2.9 48.5 3.2 47.9 C 3.1 49.4 3.2 50.0 3.2 52.2 C 3.4 52.0 3.4 50.0 3.5 49.8 C 3.7 48.9 3.3 48.5 3.4 50.5 C 3.2 49.2 3.5 46.5 3.3 45.4 C 3.5 44.5 3.4 48.2 3.5 47.3 C 3.5 46.5 3.5 45.7 3.4 45.5 C 3.5 44.3 3.5 43.5 3.6 43.1 C 3.6 43.9 3.6 43.9 3.5 43.9 C 3.5 45.5 3.9 42.6 3.9 45.9 C 3.9 45.3 3.9 43.9 4.0 44.3 C 4.1 43.4 3.5 43.9 3.7 40.6 C 3.5 38.2 3.5 45.8 3.2 43.6 C 3.2 38.9 3.5 41.8 3.5 38.0 C 3.5 37.9 3.4 37.9 3.4 36.9 C 3.3 37.0 3.3 38.4 3.3 39.4 C 3.2 39.2 3.3 37.8 3.2 36.8 C 3.2 36.9 3.2 37.7 3.1 37.6 C 3.2 34.4 3.6 35.1 3.7 38.1 C 3.8 38.1 3.8 34.1 3.7 33.0 C 3.6 33.9 3.6 32.8 3.4 33.6 C 3.4 34.4 3.5 34.3 3.5 34.6 C 3.5 36.0 3.4 34.6 3.4 34.4 C 3.4 32.7 3.6 32.9 3.4 31.1 C 3.5 31.5 3.5 32.0 3.6 32.1 C 3.6 31.2 3.6 30.3 3.6 29.5 C 3.5 29.5 3.5 28.4 3.4 28.4 C 3.4 28.4 3.4 28.4 3.4 28.4 Z M 2.9 72.4 C 2.8 75.2 3.0 73.8 3.0 72.5 C 3.1 73.1 3.1 74.1 3.1 75.1 C 3.2 74.4 3.2 73.6 3.2 70.9 C 3.4 73.5 3.8 71.3 3.7 67.0 C 3.4 65.5 3.3 69.1 3.1 67.5 C 3.3 70.7 3.1 72.2 2.9 72.4 C 2.9 72.4 2.9 72.4 2.9 72.4 Z M 170.2 3.4 C 168.5 3.4 166.8 3.4 165.1 3.4 C 165.2 3.6 170.5 3.7 170.2 3.4 C 170.2 3.4 170.2 3.4 170.2 3.4 Z M 211.3 83.3 C 211.3 84.1 211.3 84.2 211.3 84.3 C 211.3 86.8 211.4 83.1 211.6 84.2 C 211.6 83.3 211.6 82.4 211.6 81.6 C 211.5 81.4 211.4 85.2 211.3 82.5 C 211.3 82.7 211.3 83.4 211.3 83.3 C 211.3 83.3 211.3 83.3 211.3 83.3 Z M 131.5 3.5 C 129.9 3.5 130.8 3.8 127.1 3.7 C 128.4 3.8 129.2 3.8 131.4 3.8 C 131.4 3.7 131.4 3.6 131.5 3.5 C 131.5 3.5 131.5 3.5 131.5 3.5 Z M 3.1 15.3 C 2.9 17.3 3.3 18.3 3.2 22.3 C 3.4 20.4 3.1 17.8 3.1 15.3 C 3.1 15.3 3.1 15.3 3.1 15.3 Z M 3.4 157.2 C 3.4 156.0 3.5 157.6 3.5 155.5 C 3.5 154.3 3.4 153.8 3.4 152.1 C 3.2 154.4 3.4 158.8 3.1 160.4 C 3.1 162.5 3.3 162.4 3.4 163.1 C 3.4 162.1 3.4 161.6 3.5 161.5 C 3.2 160.1 3.7 158.8 3.4 157.2 C 3.4 157.2 3.4 157.2 3.4 157.2 Z M 3.2 61.5 C 3.3 60.0 3.4 62.8 3.5 63.4 C 3.5 64.6 3.3 64.1 3.2 64.2 C 3.3 65.7 3.4 66.2 3.5 66.0 C 3.5 63.2 3.5 59.7 3.8 62.0 C 3.8 59.3 3.6 60.6 3.5 59.2 C 3.7 57.9 3.7 59.3 3.9 59.5 C 3.9 58.8 3.7 56.6 3.9 57.0 C 3.7 52.7 3.4 54.3 3.1 57.1 C 3.3 60.0 3.3 56.9 3.2 61.5 C 3.2 61.5 3.2 61.5 3.2 61.5 Z M 54.2 3.8 C 53.9 3.8 52.4 3.8 52.3 3.7 C 50.6 3.9 49.1 4.1 47.5 4.3 C 48.0 4.4 50.2 4.3 49.1 4.1 C 50.0 4.3 51.7 4.3 52.7 4.4 C 54.5 4.5 54.9 4.1 55.3 4.4 C 56.9 4.3 55.9 4.3 58.7 4.3 C 54.2 4.1 60.1 4.2 60.3 4.0 C 57.8 4.0 55.6 4.0 56.0 4.2 C 54.1 4.1 52.1 4.1 51.6 3.9 C 51.7 3.8 53.2 3.8 54.2 3.8 C 54.2 3.8 54.2 3.8 54.2 3.8 Z M 44.2 4.4 C 44.8 4.3 45.5 4.3 46.7 4.3 C 46.0 4.3 45.7 4.2 45.7 4.1 C 43.5 4.1 43.1 4.2 42.2 4.0 C 40.2 4.0 42.9 4.3 39.8 4.2 C 40.0 4.3 41.5 4.2 41.6 4.3 C 41.8 4.2 43.0 4.2 44.2 4.4 C 44.2 4.4 44.2 4.4 44.2 4.4 Z M 17.4 4.0 C 15.2 4.0 18.7 4.1 17.6 4.3 C 18.2 4.2 22.5 4.3 22.0 4.4 C 23.5 4.7 27.4 4.2 27.2 4.5 C 28.2 4.5 27.8 4.4 27.9 4.3 C 25.0 4.4 24.8 4.2 27.0 4.2 C 26.6 4.1 24.8 4.1 23.5 4.1 C 23.5 4.2 24.6 4.3 24.6 4.4 C 21.9 4.3 19.9 4.1 17.4 4.0 C 17.4 4.0 17.4 4.0 17.4 4.0 Z M 211.0 176.7 C 211.0 174.7 211.0 173.4 210.9 172.4 C 210.8 172.9 210.9 174.0 210.9 175.0 C 210.8 175.2 210.8 174.3 210.8 173.2 C 210.6 174.1 210.8 177.8 211.0 176.7 C 211.0 176.7 211.0 176.7 211.0 176.7 Z M 211.0 159.6 C 211.0 157.7 211.0 156.4 210.8 156.1 C 210.7 156.9 210.9 156.6 210.9 157.9 C 210.9 158.6 210.8 159.1 210.7 159.5 C 210.7 160.4 210.8 160.2 210.8 160.5 C 210.9 161.1 210.8 161.2 210.8 161.3 C 211.0 163.7 210.8 158.5 211.0 159.6 C 211.0 159.6 211.0 159.6 211.0 159.6 Z M 32.0 4.1 C 32.9 4.2 33.5 4.3 35.6 4.3 C 35.1 4.2 36.8 4.2 38.1 4.2 C 36.0 4.0 35.0 4.1 32.0 4.1 C 32.0 4.1 32.0 4.1 32.0 4.1 Z M 210.8 52.8 C 211.0 50.1 210.7 50.6 210.8 46.8 C 210.8 46.9 210.7 46.9 210.7 46.9 C 210.8 49.1 210.7 50.2 210.8 52.8 C 210.8 52.8 210.8 52.8 210.8 52.8 Z M 69.3 263.6 C 69.5 263.5 66.8 263.5 66.6 263.4 C 66.2 263.7 64.8 263.2 59.8 263.3 C 59.7 263.2 60.0 263.2 60.7 263.2 C 56.6 263.1 61.9 263.4 62.4 263.5 C 65.6 263.5 66.1 263.7 69.3 263.6 C 69.3 263.6 69.3 263.6 69.3 263.6 Z M 3.9 131.9 C 3.9 131.7 3.9 132.2 3.9 132.7 C 3.9 133.3 3.9 133.8 3.9 134.3 C 4.1 134.3 4.2 131.5 4.5 133.8 C 4.5 133.1 4.4 133.0 4.4 132.9 C 3.9 128.5 4.7 125.8 4.4 120.2 C 4.4 119.4 4.3 119.5 4.3 119.3 C 4.3 120.0 4.2 120.0 4.2 120.1 C 4.5 120.9 4.2 125.6 4.1 123.4 C 4.0 123.6 4.1 124.2 4.1 124.3 C 4.1 124.8 4.1 125.4 4.1 126.0 C 4.2 125.7 4.2 124.6 4.3 124.4 C 4.2 127.0 4.1 130.3 3.9 128.5 C 3.9 130.1 4.0 130.8 4.1 132.0 C 4.1 133.0 3.9 133.0 3.9 131.9 C 3.9 131.9 3.9 131.9 3.9 131.9 Z M 4.0 154.0 C 3.9 156.6 4.1 155.7 4.1 158.3 C 4.2 156.7 4.0 154.6 4.1 152.4 C 4.1 152.7 4.1 153.8 4.0 154.0 C 4.0 154.0 4.0 154.0 4.0 154.0 Z M 4.2 104.8 C 4.4 105.5 4.4 103.2 4.5 100.7 C 4.2 100.1 4.2 102.3 4.2 104.8 C 4.2 104.8 4.2 104.8 4.2 104.8 Z M 4.2 115.9 C 4.3 118.4 4.3 112.7 4.5 114.3 C 4.4 113.1 4.4 111.9 4.5 111.8 C 4.5 110.9 4.4 110.8 4.4 109.2 C 4.3 109.2 4.4 112.0 4.2 111.6 C 4.3 113.6 4.3 113.9 4.2 115.9 C 4.2 115.9 4.2 115.9 4.2 115.9 Z M 4.2 117.5 C 4.3 119.2 4.6 117.3 4.6 115.2 C 4.4 115.9 4.3 116.3 4.2 117.5 C 4.2 117.5 4.2 117.5 4.2 117.5 Z M 90.3 4.7 C 89.1 4.7 90.1 4.9 88.7 4.9 C 88.7 5.0 93.7 5.0 89.5 5.0 C 91.1 5.2 91.9 4.9 93.8 5.0 C 93.2 4.9 92.7 4.9 93.8 4.9 C 94.3 4.7 89.7 4.9 90.3 4.7 C 90.3 4.7 90.3 4.7 90.3 4.7 Z M 85.2 4.7 C 84.2 4.7 84.7 4.8 85.2 4.8 C 85.1 4.9 83.7 4.8 82.7 4.9 C 82.6 4.8 84.6 5.1 84.5 5.3 C 88.8 5.1 85.4 4.9 85.2 4.7 C 85.2 4.7 85.2 4.7 85.2 4.7 Z M 81.0 4.9 C 78.2 4.7 74.3 4.7 72.5 4.9 C 74.6 5.2 79.8 5.1 81.0 4.9 C 81.0 4.9 81.0 4.9 81.0 4.9 Z M 109.0 4.9 C 104.0 4.7 94.0 5.0 103.1 5.2 C 102.7 5.0 108.7 4.9 111.6 5.0 C 111.7 4.9 114.9 4.8 115.0 4.9 C 117.2 4.8 107.9 4.8 109.0 4.9 C 109.0 4.9 109.0 4.9 109.0 4.9 Z M 69.3 5.3 C 70.6 5.2 68.7 4.9 70.9 5.0 C 72.1 4.9 70.5 4.9 70.8 4.8 C 68.2 4.8 62.9 5.0 62.3 4.8 C 61.0 4.9 60.6 5.0 58.1 5.0 C 58.1 5.1 67.1 4.8 69.2 5.2 C 69.1 5.2 65.8 5.3 69.3 5.3 C 69.3 5.3 69.3 5.3 69.3 5.3 Z M 209.8 53.5 C 209.9 53.6 209.8 50.2 210.0 50.8 C 209.8 49.0 209.9 47.1 209.8 45.1 C 209.8 44.4 210.1 44.4 210.1 41.4 C 210.0 41.5 210.0 42.9 209.9 41.6 C 209.9 38.9 210.1 39.5 210.0 36.4 C 209.7 37.1 209.9 29.8 209.6 30.7 C 209.7 32.3 209.8 32.1 209.8 34.9 C 209.7 35.8 209.6 35.5 209.6 36.7 C 209.5 36.0 209.7 34.4 209.6 33.3 C 209.5 33.7 209.5 35.7 209.3 36.1 C 209.4 37.3 209.4 35.7 209.5 35.9 C 209.6 39.2 209.1 36.0 209.2 39.6 C 209.3 38.7 209.3 38.7 209.5 39.3 C 209.4 40.8 209.6 45.0 209.3 42.8 C 209.2 43.1 209.4 45.6 209.5 45.2 C 209.5 46.6 209.5 46.8 209.4 47.0 C 209.5 50.5 209.6 50.9 209.8 50.1 C 210.0 50.7 209.7 51.4 209.8 53.5 C 209.8 53.5 209.8 53.5 209.8 53.5 Z M 136.2 5.0 C 138.2 4.8 133.9 5.0 131.9 5.0 C 134.3 5.0 133.5 5.3 136.1 5.3 C 135.2 5.2 135.4 5.1 137.0 5.1 C 137.5 5.1 133.8 5.0 136.2 5.0 C 136.2 5.0 136.2 5.0 136.2 5.0 Z M 53.0 5.0 C 52.0 4.8 47.7 4.9 45.4 4.9 C 45.9 5.2 51.3 4.8 52.2 5.1 C 53.6 5.1 51.4 5.0 53.0 5.0 C 53.0 5.0 53.0 5.0 53.0 5.0 Z M 210.0 21.1 C 210.0 20.2 209.9 20.7 209.9 21.1 C 209.9 21.0 209.9 19.1 209.9 17.8 C 209.8 19.8 209.7 17.5 209.5 18.1 C 209.5 17.1 209.5 16.6 209.5 16.5 C 209.8 16.1 209.3 11.4 209.2 16.7 C 209.4 15.6 209.4 16.0 209.5 18.2 C 209.3 20.7 209.5 22.4 209.3 23.4 C 209.3 25.0 209.4 25.5 209.4 27.5 C 209.3 28.1 209.2 30.1 208.9 28.8 C 208.9 32.4 209.4 29.6 209.4 32.6 C 209.3 35.6 209.2 31.3 209.0 32.1 C 209.0 32.8 209.0 32.7 208.9 33.0 C 208.9 34.1 209.1 33.9 209.1 32.9 C 209.2 33.2 209.3 36.0 209.1 35.3 C 209.2 37.0 209.7 32.3 209.5 30.0 C 209.4 28.7 209.8 28.4 209.8 29.8 C 209.9 29.2 209.5 26.7 209.9 27.1 C 209.9 26.0 209.9 24.9 209.9 23.7 C 209.8 24.0 209.8 24.6 209.8 24.7 C 209.8 23.6 209.8 22.4 209.8 21.3 C 209.9 22.2 209.9 22.1 210.0 21.1 C 210.0 21.1 210.0 21.1 210.0 21.1 Z M 64.1 5.0 C 62.0 5.0 61.5 5.1 59.9 5.2 C 60.6 5.3 65.2 5.2 64.1 5.0 C 64.1 5.0 64.1 5.0 64.1 5.0 Z M 209.2 68.2 C 209.3 67.9 209.3 66.5 209.3 66.4 C 209.4 69.0 209.5 66.0 209.8 67.9 C 209.7 64.6 209.2 63.7 209.1 68.3 C 209.1 71.5 209.2 64.9 209.2 68.2 C 209.2 68.2 209.2 68.2 209.2 68.2 Z M 209.3 57.9 C 209.3 55.9 209.2 61.2 209.1 62.4 C 209.0 62.4 209.0 62.4 208.9 62.5 C 209.2 65.2 209.3 61.3 209.6 63.7 C 209.7 60.4 209.8 58.9 209.7 56.1 C 209.6 56.3 209.7 56.9 209.7 56.9 C 209.7 59.1 209.4 57.7 209.5 55.4 C 209.4 56.1 209.4 58.1 209.4 59.6 C 209.4 59.2 209.5 58.7 209.6 58.7 C 209.6 60.5 209.5 59.9 209.5 61.3 C 209.4 61.3 209.2 58.1 209.3 57.9 C 209.3 57.9 209.3 57.9 209.3 57.9 Z M 209.6 224.5 C 209.6 222.7 209.4 226.1 209.1 225.7 C 209.1 227.5 209.1 228.0 209.2 229.1 C 209.3 228.7 209.3 226.7 209.4 225.9 C 209.6 226.4 209.4 228.6 209.5 229.4 C 209.8 230.7 209.4 225.1 209.6 224.5 C 209.6 224.5 209.6 224.5 209.6 224.5 Z M 186.0 5.3 C 185.0 5.3 185.5 5.4 185.9 5.4 C 185.7 5.5 184.2 5.5 184.3 5.4 C 182.9 5.4 184.9 5.5 183.3 5.5 C 182.9 5.6 185.7 5.5 185.9 5.5 C 187.8 5.4 186.1 5.7 186.5 5.8 C 188.2 5.8 187.7 5.6 190.0 5.6 C 188.7 5.5 187.5 5.4 186.0 5.3 C 186.0 5.3 186.0 5.3 186.0 5.3 Z M 209.6 73.9 C 209.7 74.2 209.3 72.0 209.5 69.7 C 209.5 66.8 209.3 71.6 209.3 69.0 C 209.2 71.2 209.4 73.9 209.4 77.3 C 209.5 78.1 209.4 72.5 209.5 75.6 C 209.6 75.4 209.6 74.7 209.5 74.7 C 209.5 74.1 209.5 74.0 209.6 73.9 C 209.6 73.9 209.6 73.9 209.6 73.9 Z M 209.2 70.7 C 209.1 70.9 209.1 71.6 209.2 71.6 C 209.2 72.7 209.0 72.8 209.0 71.7 C 208.8 73.2 209.2 72.9 209.0 75.9 C 209.2 74.6 209.3 73.9 209.2 76.6 C 209.3 78.7 209.3 71.6 209.2 70.7 C 209.2 70.7 209.2 70.7 209.2 70.7 Z M 209.5 197.4 C 209.4 197.6 209.5 199.4 209.5 200.7 C 209.3 199.0 209.4 192.2 209.5 191.4 C 209.5 190.7 209.4 189.9 209.5 189.7 C 209.5 189.8 209.4 187.8 209.3 188.8 C 209.3 188.6 209.3 187.1 209.2 187.1 C 209.3 184.6 209.3 187.9 209.5 187.2 C 209.3 184.1 209.4 184.8 209.5 181.3 C 209.3 181.8 209.3 185.7 209.1 185.3 C 209.3 188.2 209.2 191.2 209.0 192.8 C 209.3 190.3 209.4 200.3 209.3 204.8 C 209.2 204.6 209.3 206.3 209.2 208.1 C 209.0 209.3 209.4 209.1 209.3 206.5 C 209.4 206.7 209.3 210.1 209.3 211.6 C 209.4 209.9 209.5 211.0 209.6 210.1 C 209.6 206.8 209.5 209.7 209.4 209.1 C 209.4 208.2 209.4 207.4 209.4 206.5 C 209.7 211.1 209.4 200.1 209.5 204.1 C 209.4 200.6 209.6 200.6 209.5 197.4 C 209.5 197.4 209.5 197.4 209.5 197.4 Z M 209.6 117.9 C 209.6 117.3 209.4 114.6 209.6 114.5 C 209.4 111.1 209.3 114.2 209.3 110.3 C 209.2 110.6 209.2 112.0 209.2 112.0 C 209.2 113.5 209.3 115.0 209.5 114.5 C 209.4 116.3 209.5 116.8 209.5 117.9 C 209.4 117.5 209.4 116.9 209.4 115.4 C 209.2 115.2 209.1 115.7 209.2 118.0 C 209.3 118.9 209.5 118.3 209.6 117.9 C 209.6 117.9 209.6 117.9 209.6 117.9 Z M 209.3 109.5 C 209.4 109.0 209.4 108.5 209.5 108.6 C 209.7 107.3 209.3 108.2 209.3 106.9 C 209.3 105.9 209.4 106.2 209.5 106.1 C 209.4 104.6 209.4 103.4 209.5 102.7 C 209.4 100.4 209.3 105.4 209.2 106.1 C 209.2 107.8 209.4 107.1 209.3 109.5 C 209.3 109.5 209.3 109.5 209.3 109.5 Z M 209.5 84.0 C 209.7 83.6 209.4 82.8 209.5 81.6 C 209.3 82.5 209.4 84.9 209.2 83.4 C 209.1 85.9 209.1 86.0 209.2 88.5 C 209.0 90.1 209.3 88.5 209.2 85.9 C 209.3 86.2 209.3 87.3 209.4 87.5 C 209.0 89.2 209.6 93.3 209.3 90.9 C 209.4 90.1 209.5 89.6 209.5 89.2 C 209.4 88.6 209.4 82.8 209.5 84.0 C 209.5 84.0 209.5 84.0 209.5 84.0 Z M 203.4 5.7 C 206.5 5.7 206.8 5.7 209.4 5.7 C 209.4 5.9 209.3 6.2 209.3 6.5 C 209.3 6.7 209.2 6.5 209.2 5.8 C 209.2 6.6 209.2 7.7 209.2 9.1 C 209.3 9.0 209.3 8.2 209.2 8.3 C 209.4 5.4 209.4 7.7 209.5 8.0 C 209.6 7.1 209.6 6.3 209.6 5.5 C 207.3 5.5 205.4 5.6 204.5 5.5 C 203.2 5.5 204.6 5.5 203.4 5.7 C 203.4 5.7 203.4 5.7 203.4 5.7 Z M 72.2 262.1 C 71.7 262.2 70.3 262.2 70.6 262.3 C 71.8 262.3 72.7 262.2 73.9 262.2 C 71.5 262.1 71.8 261.9 68.7 261.9 C 69.7 262.0 69.6 262.1 72.2 262.1 C 72.2 262.1 72.2 262.1 72.2 262.1 Z M 209.5 92.6 C 209.4 92.7 209.3 92.8 209.3 91.8 C 209.1 91.5 209.2 94.2 209.1 94.3 C 209.1 95.2 209.2 94.9 209.2 96.0 C 209.3 95.6 209.3 93.4 209.5 94.2 C 209.5 94.9 209.4 95.0 209.4 95.1 C 209.5 96.8 209.5 94.2 209.5 92.6 C 209.5 92.6 209.5 92.6 209.5 92.6 Z M 209.5 232.7 C 209.4 231.6 209.4 232.7 209.3 233.6 C 209.2 230.9 209.1 234.8 208.9 234.8 C 209.0 233.9 208.9 230.4 209.0 229.9 C 208.9 228.9 208.8 229.9 208.7 227.2 C 208.6 227.4 208.7 230.5 208.9 229.8 C 208.6 230.4 208.9 233.5 208.7 233.0 C 208.6 236.8 208.8 237.8 209.0 238.3 C 208.9 234.5 209.2 236.7 209.2 233.4 C 209.2 233.5 209.2 234.4 209.2 235.1 C 209.3 235.0 209.4 233.6 209.5 232.7 C 209.5 232.7 209.5 232.7 209.5 232.7 Z M 209.5 144.9 C 209.5 143.0 209.3 143.1 209.2 143.2 C 209.2 143.9 209.2 145.1 209.2 146.6 C 209.3 146.2 209.3 143.9 209.5 144.9 C 209.5 144.9 209.5 144.9 209.5 144.9 Z M 209.2 219.1 C 209.3 219.0 209.3 218.3 209.2 218.3 C 209.2 216.1 209.3 215.7 209.4 215.0 C 209.4 213.8 209.3 214.2 209.2 214.0 C 209.3 216.1 209.1 215.5 209.1 218.2 C 209.2 218.1 209.2 218.4 209.2 219.1 C 209.2 219.1 209.2 219.1 209.2 219.1 Z M 209.3 162.6 C 209.3 161.6 209.3 162.1 209.3 162.6 C 209.1 161.4 209.3 158.0 209.2 156.7 C 209.0 156.5 209.0 160.8 209.0 155.8 C 208.8 156.7 209.0 161.1 208.9 163.3 C 208.8 162.8 208.8 159.8 208.6 159.9 C 208.7 162.6 208.8 165.4 209.0 165.9 C 209.1 162.2 209.2 163.5 209.3 162.6 C 209.3 162.6 209.3 162.6 209.3 162.6 Z M 209.2 166.8 C 209.3 166.5 209.2 165.7 209.2 164.3 C 209.0 166.3 209.1 167.6 209.0 171.8 C 209.1 171.8 209.1 171.9 209.2 171.9 C 209.2 172.7 209.2 173.6 209.2 174.4 C 209.4 170.8 209.2 169.8 209.2 166.0 C 209.2 165.8 209.2 166.3 209.2 166.8 C 209.2 166.8 209.2 166.8 209.2 166.8 Z M 209.2 53.8 C 209.1 55.0 209.0 56.1 209.0 58.2 C 209.2 57.9 209.2 56.6 209.2 53.8 C 209.2 53.8 209.2 53.8 209.2 53.8 Z M 209.1 222.4 C 209.2 224.7 209.1 220.2 208.9 221.4 C 208.8 223.2 208.8 225.1 208.6 225.4 C 208.9 228.9 208.9 221.8 209.1 222.4 C 209.1 222.4 209.1 222.4 209.1 222.4 Z M 208.7 207.0 C 208.7 206.0 209.0 206.2 208.8 207.1 C 208.8 209.5 209.0 205.1 208.9 208.8 C 209.0 207.3 209.1 203.8 209.0 202.1 C 208.8 202.1 208.9 205.3 208.7 205.3 C 208.7 205.5 208.7 205.0 208.7 204.5 C 208.6 204.8 208.7 205.6 208.7 207.0 C 208.7 207.0 208.7 207.0 208.7 207.0 Z M 209.0 194.5 C 208.9 195.9 208.8 197.5 208.8 200.4 C 208.9 198.5 209.1 197.6 209.0 194.5 C 209.0 194.5 209.0 194.5 209.0 194.5 Z M 116.7 261.5 C 118.8 261.5 116.9 261.3 116.6 261.3 C 114.5 261.2 114.8 261.4 112.3 261.3 C 113.2 261.5 115.3 261.3 116.7 261.5 C 116.7 261.5 116.7 261.5 116.7 261.5 Z M 109.1 261.4 C 108.8 261.3 105.9 261.3 105.6 261.2 C 104.1 261.6 101.2 261.0 101.4 261.3 C 100.7 261.2 100.0 261.2 98.8 261.2 C 101.3 261.5 106.6 261.4 109.1 261.4 C 109.1 261.4 109.1 261.4 109.1 261.4 Z M 208.6 180.1 C 208.7 177.9 208.3 180.6 208.4 178.3 C 208.3 178.1 208.3 182.5 208.2 179.9 C 208.1 183.3 208.6 179.8 208.6 180.1 C 208.6 180.1 208.6 180.1 208.6 180.1 Z M 208.4 139.0 C 208.6 139.1 208.5 136.0 208.5 134.8 C 208.4 134.8 208.5 135.8 208.4 136.4 C 208.4 136.1 208.3 135.7 208.3 134.8 C 208.2 135.5 208.4 137.7 208.4 139.0 C 208.4 139.0 208.4 139.0 208.4 139.0 Z M 211.7 185.5 C 211.6 186.9 211.4 188.7 211.7 189.8 C 211.5 191.2 211.5 188.7 211.4 190.5 C 211.5 193.0 211.3 191.7 211.4 195.7 C 211.2 194.8 211.2 197.7 211.0 198.1 C 211.0 196.5 211.2 194.6 211.0 193.8 C 211.0 195.1 210.9 194.3 211.0 193.7 C 211.1 191.2 211.2 197.0 211.3 193.9 C 211.1 192.9 211.5 188.5 211.5 185.5 C 211.6 186.7 211.7 183.3 211.7 185.5 C 211.7 185.5 211.7 185.5 211.7 185.5 Z M 211.4 200.8 C 211.4 202.9 211.0 203.8 211.0 203.2 C 211.1 203.2 211.1 200.9 211.0 200.6 C 211.0 201.2 211.0 201.7 211.0 201.5 C 211.0 197.7 211.1 199.1 211.3 198.2 C 211.3 200.3 211.2 200.9 211.3 201.7 C 211.3 201.2 211.3 200.7 211.4 200.8 C 211.4 200.8 211.4 200.8 211.4 200.8 Z M 208.4 243.7 C 208.5 243.4 208.4 242.8 208.3 241.9 C 208.6 242.0 208.2 237.4 208.4 237.0 C 208.5 238.0 208.5 240.2 208.6 241.3 C 208.6 240.2 208.6 240.0 208.6 238.8 C 208.7 239.1 208.7 241.6 208.9 242.4 C 208.7 242.5 208.9 243.8 208.8 244.0 C 208.7 240.7 208.4 245.6 208.4 243.7 C 208.4 243.7 208.4 243.7 208.4 243.7 Z M 208.4 160.8 C 208.2 160.4 207.8 163.9 207.5 160.6 C 207.7 159.9 207.9 159.5 208.1 159.8 C 208.0 157.8 208.1 156.9 208.0 155.6 C 208.5 151.9 207.9 158.6 208.4 160.8 C 208.4 160.8 208.4 160.8 208.4 160.8 Z M 208.2 147.3 C 208.4 148.0 208.4 146.2 208.5 146.5 C 208.4 148.1 208.6 153.4 208.4 151.6 C 208.4 149.8 208.2 149.8 208.2 147.3 C 208.2 147.3 208.2 147.3 208.2 147.3 Z M 4.7 6.8 C 4.7 6.2 4.7 5.6 4.7 5.2 C 6.4 5.2 7.2 5.4 6.0 5.5 C 6.2 5.4 5.6 5.4 4.9 5.4 C 4.9 6.3 4.9 7.4 4.7 6.8 C 4.7 6.8 4.7 6.8 4.7 6.8 Z M 101.3 2.3 C 98.7 2.2 97.3 2.3 96.9 2.1 C 99.4 2.1 99.1 2.2 101.3 2.2 C 101.4 2.1 102.7 2.1 103.0 2.1 C 101.8 2.2 102.0 2.3 101.3 2.3 C 101.3 2.3 101.3 2.3 101.3 2.3 Z M 212.5 95.0 C 212.5 94.8 212.6 93.7 212.7 94.1 C 212.6 96.8 212.8 99.7 212.9 101.9 C 212.8 101.9 212.7 101.9 212.6 101.9 C 212.7 97.8 212.6 96.7 212.5 95.0 C 212.5 95.0 212.5 95.0 212.5 95.0 Z M 212.8 89.7 C 212.7 89.3 212.5 90.8 212.5 89.0 C 212.7 89.0 212.9 85.6 212.9 87.1 C 212.8 87.7 212.8 88.5 212.8 89.7 C 212.8 89.7 212.8 89.7 212.8 89.7 Z M 211.9 234.6 C 211.9 236.7 212.0 233.8 212.1 233.9 C 212.1 235.4 212.1 237.5 212.0 238.1 C 212.0 236.6 211.7 235.3 211.9 234.6 C 211.9 234.6 211.9 234.6 211.9 234.6 Z M 211.4 202.6 C 211.4 198.1 211.7 200.2 211.8 195.9 C 211.9 197.7 211.9 201.6 212.0 202.9 C 211.9 202.7 211.9 203.7 211.8 203.6 C 211.8 202.0 211.9 201.8 211.9 200.2 C 211.7 200.7 211.7 200.7 211.6 200.0 C 211.6 201.2 211.6 202.0 211.6 202.7 C 211.5 202.3 211.5 203.8 211.4 202.6 C 211.4 202.6 211.4 202.6 211.4 202.6 Z M 211.4 233.4 C 211.4 235.2 211.2 236.5 211.2 235.0 C 211.3 234.8 211.2 233.6 211.3 233.3 C 211.3 235.8 211.4 231.4 211.5 232.6 C 211.5 234.1 211.6 234.7 211.7 234.5 C 211.7 235.5 211.7 237.0 211.6 237.0 C 211.6 236.3 211.6 235.3 211.6 235.3 C 211.6 235.8 211.6 236.3 211.5 236.1 C 211.5 234.6 211.5 233.9 211.4 233.4 C 211.4 233.4 211.4 233.4 211.4 233.4 Z M 211.4 221.4 C 211.4 223.8 211.2 223.9 211.1 224.7 C 211.1 221.5 211.4 221.2 211.5 218.9 C 211.5 221.5 211.7 224.2 211.6 225.0 C 211.5 223.8 211.5 221.7 211.4 221.4 C 211.4 221.4 211.4 221.4 211.4 221.4 Z M 3.5 227.1 C 3.6 225.1 3.8 223.4 3.9 221.2 C 3.7 220.4 3.3 224.5 3.4 222.8 C 3.4 220.5 3.7 222.1 3.7 220.3 C 3.4 222.1 3.4 212.2 3.7 211.8 C 3.7 213.3 3.7 213.8 3.9 213.5 C 3.8 217.5 4.0 219.1 4.0 222.1 C 3.8 224.2 3.7 230.5 4.0 233.9 C 3.6 236.1 4.0 240.2 3.7 243.3 C 3.8 244.1 3.9 240.7 4.0 243.3 C 3.8 244.9 3.7 243.6 3.6 245.8 C 3.7 246.0 3.8 245.5 3.9 246.7 C 3.7 246.5 3.7 247.9 3.7 248.4 C 3.7 243.8 3.4 248.7 3.4 245.0 C 3.5 243.5 3.7 246.6 3.7 242.4 C 3.6 240.9 3.6 239.5 3.4 239.8 C 3.4 238.7 3.3 238.0 3.3 237.3 C 3.5 238.9 3.2 231.4 3.5 234.8 C 3.5 235.0 3.5 237.4 3.5 239.0 C 3.7 237.5 3.6 235.7 3.5 233.0 C 3.7 232.0 3.7 233.6 3.8 232.2 C 3.7 230.1 3.5 233.0 3.4 231.4 C 3.4 232.0 3.4 233.0 3.4 233.0 C 3.6 229.5 3.4 228.0 3.4 226.2 C 3.5 227.5 3.5 224.1 3.5 227.1 C 3.5 227.1 3.5 227.1 3.5 227.1 Z M 3.8 257.8 C 3.8 258.6 3.8 259.5 3.8 260.4 C 3.6 260.5 3.6 257.2 3.4 259.5 C 3.5 255.7 3.7 259.6 3.8 257.8 C 3.8 257.8 3.8 257.8 3.8 257.8 Z M 4.5 240.8 C 4.6 239.6 4.2 240.2 4.2 239.1 C 4.2 241.2 4.3 243.1 4.1 243.3 C 4.2 240.9 4.2 239.8 4.1 237.3 C 4.4 239.8 4.3 234.7 4.5 234.0 C 4.6 235.9 4.6 237.4 4.6 239.9 C 4.5 239.5 4.5 243.2 4.5 240.8 C 4.5 240.8 4.5 240.8 4.5 240.8 Z M 4.7 247.6 C 4.6 248.1 4.7 251.9 4.5 251.0 C 4.5 248.8 4.4 248.0 4.3 248.4 C 4.3 246.8 4.3 246.5 4.3 245.1 C 4.6 244.2 4.5 246.8 4.6 247.6 C 4.6 247.1 4.7 246.7 4.7 247.6 C 4.7 247.6 4.7 247.6 4.7 247.6 Z M 52.6 261.5 C 53.4 261.7 49.9 261.6 49.2 261.6 C 50.2 261.7 49.8 261.8 47.6 261.9 C 48.4 261.6 45.3 261.7 43.4 261.4 C 42.9 261.6 45.4 261.7 42.5 261.7 C 40.3 261.7 38.3 261.8 34.9 261.8 C 34.2 261.6 35.7 261.6 36.5 261.5 C 34.2 261.5 34.9 261.4 33.2 261.4 C 33.5 261.5 32.1 261.5 31.5 261.4 C 34.5 261.4 27.5 261.2 30.7 261.1 C 30.8 261.2 31.6 261.2 32.3 261.1 C 31.5 261.4 35.6 261.3 36.5 261.4 C 38.1 261.0 42.5 261.2 47.5 261.3 C 47.9 261.4 46.3 261.5 47.6 261.5 C 47.7 261.4 49.4 261.4 50.1 261.4 C 50.0 261.5 50.7 261.5 51.8 261.6 C 51.8 261.5 51.9 261.5 52.6 261.5 C 52.6 261.5 52.6 261.5 52.6 261.5 Z M 5.5 88.7 C 5.8 89.1 5.7 83.5 5.6 82.0 C 5.9 82.4 5.8 91.9 5.5 88.7 C 5.5 88.7 5.5 88.7 5.5 88.7 Z M 5.8 121.8 C 5.8 120.4 5.6 121.3 5.6 120.0 C 5.8 120.1 5.4 116.6 5.6 116.7 C 5.8 118.3 5.7 119.3 5.8 121.8 C 5.8 121.8 5.8 121.8 5.8 121.8 Z M 5.7 152.2 C 5.7 149.7 5.6 153.5 5.5 153.0 C 5.5 150.8 5.5 148.6 5.7 148.8 C 5.6 150.7 5.9 152.0 5.7 152.2 C 5.7 152.2 5.7 152.2 5.7 152.2 Z M 6.0 106.7 C 6.0 104.7 6.3 108.2 6.1 108.5 C 6.1 106.2 6.0 109.9 6.0 111.8 C 5.8 111.6 5.8 110.8 5.7 111.6 C 5.6 108.6 5.9 111.2 5.8 109.1 C 5.7 107.7 5.8 109.2 5.6 109.0 C 5.6 108.2 5.6 107.3 5.6 106.5 C 5.7 106.6 5.8 106.6 5.9 106.7 C 5.9 107.7 5.9 108.7 6.0 108.4 C 6.0 107.6 6.0 107.4 6.0 106.7 C 6.0 106.7 6.0 106.7 6.0 106.7 Z M 8.7 261.1 C 7.4 261.2 8.6 261.2 9.6 261.3 C 9.8 261.2 10.6 260.8 12.1 261.0 C 8.8 261.2 13.1 261.3 11.3 261.4 C 10.6 261.2 8.6 261.4 7.0 261.4 C 6.4 261.3 8.0 261.0 8.7 261.1 C 8.7 261.1 8.7 261.1 8.7 261.1 Z M 14.7 261.3 C 14.5 261.2 13.9 261.2 12.9 261.2 C 14.0 261.1 12.5 261.0 13.8 261.0 C 13.7 261.0 18.1 261.1 15.5 261.1 C 13.2 261.0 16.1 261.3 17.2 261.3 C 16.1 261.3 14.0 261.5 13.8 261.3 C 14.3 261.3 14.8 261.3 14.7 261.3 C 14.7 261.3 14.7 261.3 14.7 261.3 Z M 69.3 261.0 C 69.6 260.9 68.1 260.9 67.6 260.8 C 71.9 260.9 75.5 260.9 77.7 260.9 C 75.7 260.9 75.8 261.1 77.0 261.1 C 74.8 261.1 74.3 261.2 73.6 261.1 C 75.3 260.9 71.9 261.0 69.3 261.0 C 69.3 261.0 69.3 261.0 69.3 261.0 Z M 69.3 261.0 " fill="#EA3C43"></path></g></svg>