<?xml version="1.0" encoding="UTF-8" standalone="no"?><svg xmlns="http://www.w3.org/2000/svg" xmlns:xlink="http://www.w3.org/1999/xlink" clip-rule="evenodd" stroke-miterlimit="10" viewBox="0 0 1024 768"><desc>SVG generated by Keynote</desc><defs></defs><g transform="matrix(1.00, 0.00, -0.00, -1.00, 0.0, 768.0)"><g><clipPath id="clip0x7faa584f71a0"><path d="M 0.0 768.0 L 1024.0 768.0 L 1024.0 0.0 L 0.0 0.0 Z M 0.0 768.0 "></path></clipPath><g clip-path="url(#clip0x7faa584f71a0)"><image xlink:href="../../D1633A7A-1E45-48FF-BA06-56002168097B/assets/E532EB3C3E7D08F7018DF18678F5E36F.jpeg" width="2048.00" height="1536.00" transform="matrix(0.50, 0.00, -0.00, -0.50, 0.0, 768.0)"></image></g></g><g><clipPath id="clip0x7faa5854c360"><path d="M 439.0 572.2 L 541.0 572.2 L 541.0 619.6 L 439.0 619.6 Z M 439.0 572.2 "></path></clipPath><g clip-path="url(#clip0x7faa5854c360)"><path d="M 440.0 588.2 L 440.0 603.6 C 440.0 611.9 446.8 619.0 455.0 619.0 L 525.0 619.0 C 533.3 619.0 540.0 611.9 540.0 603.6 L 540.0 588.2 C 540.0 579.9 533.3 573.0 525.0 573.0 L 455.0 573.0 C 446.8 573.0 440.0 579.9 440.0 588.2 Z M 440.0 588.2 " fill="#4B9D51"></path></g></g><g><clipPath id="clip0x7faa58594e50"><path d="M 440.0 571.1 L 540.0 571.1 L 540.0 620.6 L 440.0 620.6 Z M 440.0 571.1 "></path></clipPath><g clip-path="url(#clip0x7faa58594e50)"><text xml:space="preserve" font-family="GillSans-Light,Gill Sans" font-size="29.0" fill="#FEFFFF" transform="matrix(1.00, 0.00, -0.00, -1.00, 462.8, 586.2)">b</text><text xml:space="preserve" font-family="GillSans-Light,Gill Sans" font-size="29.0" fill="#FEFFFF" transform="matrix(1.00, 0.00, -0.00, -1.00, 477.3, 586.2)">u</text><text xml:space="preserve" font-family="GillSans-Light,Gill Sans" font-size="29.0" fill="#FEFFFF" transform="matrix(1.00, 0.00, -0.00, -1.00, 491.6, 586.2)">i</text><text xml:space="preserve" font-family="GillSans-Light,Gill Sans" font-size="29.0" fill="#FEFFFF" transform="matrix(1.00, 0.00, -0.00, -1.00, 497.0, 586.2)">l</text><text xml:space="preserve" font-family="GillSans-Light,Gill Sans" font-size="29.0" fill="#FEFFFF" transform="matrix(1.00, 0.00, -0.00, -1.00, 502.5, 586.2)">d</text></g></g><g><clipPath id="clip0x7faa585a6cd0"><path d="M 254.0 470.2 L 356.0 470.2 L 356.0 517.6 L 254.0 517.6 Z M 254.0 470.2 "></path></clipPath><g clip-path="url(#clip0x7faa585a6cd0)"><path d="M 255.0 486.2 L 255.0 501.6 C 255.0 509.9 261.8 517.0 270.0 517.0 L 340.0 517.0 C 348.3 517.0 355.0 509.9 355.0 501.6 L 355.0 486.2 C 355.0 477.9 348.3 471.0 340.0 471.0 L 270.0 471.0 C 261.8 471.0 255.0 477.9 255.0 486.2 Z M 255.0 486.2 " fill="#4B9C50"></path></g></g><g><clipPath id="clip0x7faa585a7e90"><path d="M 255.0 471.2 L 355.0 471.2 L 355.0 520.9 L 255.0 520.9 Z M 255.0 471.2 "></path></clipPath><g clip-path="url(#clip0x7faa585a7e90)"><text xml:space="preserve" font-family="GillSans-Light,Gill Sans" font-size="29.0" fill="#FEFFFF" transform="matrix(1.00, 0.00, -0.00, -1.00, 270.0, 486.5)">m</text><text xml:space="preserve" font-family="GillSans-Light,Gill Sans" font-size="29.0" fill="#FEFFFF" transform="matrix(1.00, 0.00, -0.00, -1.00, 290.9, 486.5)">a</text><text xml:space="preserve" font-family="GillSans-Light,Gill Sans" font-size="29.0" fill="#FEFFFF" transform="matrix(1.00, 0.00, -0.00, -1.00, 301.9, 486.5)">s</text><text xml:space="preserve" font-family="GillSans-Light,Gill Sans" font-size="29.0" fill="#FEFFFF" transform="matrix(1.00, 0.00, -0.00, -1.00, 310.7, 486.5)">t</text><text xml:space="preserve" font-family="GillSans-Light,Gill Sans" font-size="29.0" fill="#FEFFFF" transform="matrix(1.00, 0.00, -0.00, -1.00, 317.9, 486.5)">e</text><text xml:space="preserve" font-family="GillSans-Light,Gill Sans" font-size="29.0" fill="#FEFFFF" transform="matrix(1.00, 0.00, -0.00, -1.00, 330.4, 486.5)">r</text></g></g><g><clipPath id="clip0x7faa585ab0c0"><path d="M 623.0 470.2 L 725.0 470.2 L 725.0 517.6 L 623.0 517.6 Z M 623.0 470.2 "></path></clipPath><g clip-path="url(#clip0x7faa585ab0c0)"><path d="M 624.0 486.2 L 624.0 501.6 C 624.0 509.9 630.8 517.0 639.0 517.0 L 709.0 517.0 C 717.3 517.0 724.0 509.9 724.0 501.6 L 724.0 486.2 C 724.0 477.9 717.3 471.0 709.0 471.0 L 639.0 471.0 C 630.8 471.0 624.0 477.9 624.0 486.2 Z M 624.0 486.2 " fill="#D99719"></path></g></g><g><clipPath id="clip0x7faa585ac230"><path d="M 624.0 469.1 L 724.0 469.1 L 724.0 518.6 L 624.0 518.6 Z M 624.0 469.1 "></path></clipPath><g clip-path="url(#clip0x7faa585ac230)"><text xml:space="preserve" font-family="GillSans-Light,Gill Sans" font-size="29.0" fill="#FEFFFF" transform="matrix(1.00, 0.00, -0.00, -1.00, 658.3, 484.2)">P</text><text xml:space="preserve" font-family="GillSans-Light,Gill Sans" font-size="29.0" fill="#FEFFFF" transform="matrix(1.00, 0.00, -0.00, -1.00, 673.1, 484.2)">R</text></g></g><g><clipPath id="clip0x7faa585adbe0"><path d="M 313.8 515.2 L 441.1 515.2 L 441.1 601.3 L 313.8 601.3 Z M 313.8 515.2 "></path></clipPath><g clip-path="url(#clip0x7faa585adbe0)"><path d="M 0.0 82.6 C 27.9 30.5 69.3 3.0 124.3 0.0 " fill="none" stroke="#78889F" stroke-width="2.00" transform="matrix(1.00, 0.00, 0.00, -1.00, 315.7, 599.3)"></path></g></g><g><clipPath id="clip0x7faa585aed90"><path d="M 539.0 515.3 L 670.2 515.3 L 670.2 601.6 L 539.0 601.6 Z M 539.0 515.3 "></path></clipPath><g clip-path="url(#clip0x7faa585aed90)"><path d="M 128.2 83.0 C 110.3 28.4 67.5 0.7 0.0 0.0 " fill="none" stroke="#78889F" stroke-width="2.00" transform="matrix(1.00, 0.00, 0.00, -1.00, 540.0, 599.6)"></path></g></g><g><clipPath id="clip0x7faa585afed0"><path d="M 265.6 166.6 L 422.4 166.6 L 422.4 214.1 L 265.6 214.1 Z M 265.6 166.6 "></path></clipPath><g clip-path="url(#clip0x7faa585afed0)"><path d="M 266.6 182.6 L 267.0 198.1 C 267.0 206.4 273.4 213.0 281.6 213.0 L 406.4 213.0 C 414.7 213.0 421.0 206.4 421.0 198.1 L 421.0 182.6 C 421.0 174.3 414.7 168.0 406.4 168.0 L 281.6 168.0 C 273.4 168.0 266.6 174.3 266.6 182.6 Z M 266.6 182.6 " fill="#4B9C50"></path></g></g><g><clipPath id="clip0x7faa585b1020"><path d="M 266.6 167.6 L 421.4 167.6 L 421.4 217.3 L 266.6 217.3 Z M 266.6 167.6 "></path></clipPath><g clip-path="url(#clip0x7faa585b1020)"><text xml:space="preserve" font-family="GillSans-Light,Gill Sans" font-size="29.0" fill="#FEFFFF" transform="matrix(1.00, 0.00, -0.00, -1.00, 281.6, 183.0)">p</text><text xml:space="preserve" font-family="GillSans-Light,Gill Sans" font-size="29.0" fill="#FEFFFF" transform="matrix(1.00, 0.00, -0.00, -1.00, 296.3, 183.0)">r</text><text xml:space="preserve" font-family="GillSans-Light,Gill Sans" font-size="29.0" fill="#FEFFFF" transform="matrix(1.00, 0.00, -0.00, -1.00, 305.9, 183.0)">o</text><text xml:space="preserve" font-family="GillSans-Light,Gill Sans" font-size="29.0" fill="#FEFFFF" transform="matrix(1.00, 0.00, -0.00, -1.00, 321.6, 183.0)">d</text><text xml:space="preserve" font-family="GillSans-Light,Gill Sans" font-size="29.0" fill="#FEFFFF" transform="matrix(1.00, 0.00, -0.00, -1.00, 336.3, 183.0)">u</text><text xml:space="preserve" font-family="GillSans-Light,Gill Sans" font-size="29.0" fill="#FEFFFF" transform="matrix(1.00, 0.00, -0.00, -1.00, 350.5, 183.0)">c</text><text xml:space="preserve" font-family="GillSans-Light,Gill Sans" font-size="29.0" fill="#FEFFFF" transform="matrix(1.00, 0.00, -0.00, -1.00, 362.5, 183.0)">t</text><text xml:space="preserve" font-family="GillSans-Light,Gill Sans" font-size="29.0" fill="#FEFFFF" transform="matrix(1.00, 0.00, -0.00, -1.00, 371.1, 183.0)">i</text><text xml:space="preserve" font-family="GillSans-Light,Gill Sans" font-size="29.0" fill="#FEFFFF" transform="matrix(1.00, 0.00, -0.00, -1.00, 376.5, 183.0)">o</text><text xml:space="preserve" font-family="GillSans-Light,Gill Sans" font-size="29.0" fill="#FEFFFF" transform="matrix(1.00, 0.00, -0.00, -1.00, 392.2, 183.0)">n</text></g></g><g><clipPath id="clip0x7faa585b5be0"><path d="M 501.3 166.6 L 701.7 166.6 L 701.7 214.1 L 501.3 214.1 Z M 501.3 166.6 "></path></clipPath><g clip-path="url(#clip0x7faa585b5be0)"><path d="M 502.3 182.0 L 502.0 198.7 C 502.0 206.7 508.7 213.0 516.6 213.0 L 686.3 213.0 C 694.3 213.0 701.0 206.7 701.0 198.7 L 701.0 182.0 C 701.0 174.1 694.3 168.0 686.3 168.0 L 516.6 168.0 C 508.7 168.0 502.3 174.1 502.3 182.0 Z M 502.3 182.0 " fill="#D99719"></path></g></g><g><clipPath id="clip0x7faa585b6d80"><path d="M 502.3 165.6 L 700.7 165.6 L 700.7 215.0 L 502.3 215.0 Z M 502.3 165.6 "></path></clipPath><g clip-path="url(#clip0x7faa585b6d80)"><text xml:space="preserve" font-family="GillSans-Light,Gill Sans" font-size="29.0" fill="#FEFFFF" transform="matrix(1.00, 0.00, -0.00, -1.00, 564.6, 180.7)">t</text><text xml:space="preserve" font-family="GillSans-Light,Gill Sans" font-size="29.0" fill="#FEFFFF" transform="matrix(1.00, 0.00, -0.00, -1.00, 573.4, 180.7)">e</text><text xml:space="preserve" font-family="GillSans-Light,Gill Sans" font-size="29.0" fill="#FEFFFF" transform="matrix(1.00, 0.00, -0.00, -1.00, 587.3, 180.7)">s</text><text xml:space="preserve" font-family="GillSans-Light,Gill Sans" font-size="29.0" fill="#FEFFFF" transform="matrix(1.00, 0.00, -0.00, -1.00, 597.5, 180.7)">t</text><text xml:space="preserve" font-family="GillSans-Light,Gill Sans" font-size="29.0" fill="#FEFFFF" transform="matrix(1.00, 0.00, -0.00, -1.00, 606.3, 180.7)">i</text><text xml:space="preserve" font-family="GillSans-Light,Gill Sans" font-size="29.0" fill="#FEFFFF" transform="matrix(1.00, 0.00, -0.00, -1.00, 611.7, 180.7)">n</text><text xml:space="preserve" font-family="GillSans-Light,Gill Sans" font-size="29.0" fill="#FEFFFF" transform="matrix(1.00, 0.00, -0.00, -1.00, 626.0, 180.7)">g</text></g></g><g><clipPath id="clip0x7faa585ba470"><path d="M 438.5 361.4 L 540.5 361.4 L 540.5 408.8 L 438.5 408.8 Z M 438.5 361.4 "></path></clipPath><g clip-path="url(#clip0x7faa585ba470)"><path d="M 439.5 377.4 L 440.0 392.8 C 440.0 401.1 446.3 408.0 454.5 408.0 L 524.5 408.0 C 532.8 408.0 540.0 401.1 540.0 392.8 L 540.0 377.4 C 540.0 369.1 532.8 362.0 524.5 362.0 L 454.5 362.0 C 446.3 362.0 439.5 369.1 439.5 377.4 Z M 439.5 377.4 " fill="#4B9D51"></path></g></g><g><clipPath id="clip0x7faa585bb590"><path d="M 439.5 362.4 L 539.5 362.4 L 539.5 412.1 L 439.5 412.1 Z M 439.5 362.4 "></path></clipPath><g clip-path="url(#clip0x7faa585bb590)"><text xml:space="preserve" font-family="GillSans-Light,Gill Sans" font-size="29.0" fill="#FEFFFF" transform="matrix(1.00, 0.00, -0.00, -1.00, 454.5, 377.7)">d</text><text xml:space="preserve" font-family="GillSans-Light,Gill Sans" font-size="29.0" fill="#FEFFFF" transform="matrix(1.00, 0.00, -0.00, -1.00, 468.1, 377.7)">e</text><text xml:space="preserve" font-family="GillSans-Light,Gill Sans" font-size="29.0" fill="#FEFFFF" transform="matrix(1.00, 0.00, -0.00, -1.00, 480.7, 377.7)">p</text><text xml:space="preserve" font-family="GillSans-Light,Gill Sans" font-size="29.0" fill="#FEFFFF" transform="matrix(1.00, 0.00, -0.00, -1.00, 494.3, 377.7)">l</text><text xml:space="preserve" font-family="GillSans-Light,Gill Sans" font-size="29.0" fill="#FEFFFF" transform="matrix(1.00, 0.00, -0.00, -1.00, 498.5, 377.7)">o</text><text xml:space="preserve" font-family="GillSans-Light,Gill Sans" font-size="29.0" fill="#FEFFFF" transform="matrix(1.00, 0.00, -0.00, -1.00, 512.4, 377.7)">y</text></g></g><g><clipPath id="clip0x7faa585be840"><path d="M 307.0 382.0 L 440.6 382.0 L 440.6 472.4 L 307.0 472.4 Z M 307.0 382.0 "></path></clipPath><g clip-path="url(#clip0x7faa585be840)"><path d="M 0.0 0.0 C 14.0 54.5 57.5 83.5 130.5 87.2 " fill="none" stroke="#78889F" stroke-width="2.00" transform="matrix(1.00, 0.00, 0.00, -1.00, 309.0, 471.2)"></path></g></g><g><clipPath id="clip0x7faa585bf9a0"><path d="M 538.5 381.0 L 673.1 381.0 L 673.1 472.4 L 538.5 472.4 Z M 538.5 381.0 "></path></clipPath><g clip-path="url(#clip0x7faa585bf9a0)"><path d="M 131.6 0.0 C 119.9 56.7 76.1 86.1 0.0 88.2 " fill="none" stroke="#78889F" stroke-width="2.00" transform="matrix(1.00, 0.00, 0.00, -1.00, 539.5, 471.2)"></path></g></g><g><clipPath id="clip0x7faa585c0bd0"><path d="M 618.2 210.7 L 691.7 210.7 L 691.7 473.6 L 618.2 473.6 Z M 618.2 210.7 "></path></clipPath><g clip-path="url(#clip0x7faa585c0bd0)"><path d="M 0.0 258.1 C 62.8 178.0 82.8 92.0 59.9 0.0 " fill="none" stroke="#D7610D" stroke-width="2.00" stroke-dasharray="2.0, 4.0" transform="matrix(1.00, 0.00, 0.00, -1.00, 620.6, 471.2)"></path></g></g><g><clipPath id="clip0x7faa585c1210"><path d="M 301.3 209.6 L 513.6 209.6 L 513.6 473.6 L 301.3 473.6 Z M 301.3 209.6 "></path></clipPath><g clip-path="url(#clip0x7faa585c1210)"><path d="M 207.6 259.1 C 66.1 213.8 -3.0 127.5 0.1 0.0 " fill="none" stroke="#4B9D51" stroke-width="2.00" stroke-dasharray="2.0, 4.0" transform="matrix(1.00, 0.00, 0.00, -1.00, 303.7, 471.2)"></path></g></g><g><clipPath id="clip0x7faa585c2390"><path d="M 279.5 210.7 L 332.9 210.7 L 332.9 473.6 L 279.5 473.6 Z M 279.5 210.7 "></path></clipPath><g clip-path="url(#clip0x7faa585c2390)"><path d="M 49.1 258.1 C -1.6 167.6 -13.0 81.6 14.8 0.0 " fill="none" stroke="#4B9D51" stroke-width="2.00" stroke-dasharray="2.0, 4.0" transform="matrix(1.00, 0.00, 0.00, -1.00, 281.5, 471.2)"></path></g></g><g><clipPath id="clip0x7faa585c3590"><path d="M 484.2 364.0 L 358.5 215.9 L 349.6 223.4 L 475.4 371.5 Z M 484.2 364.0 "></path></clipPath><g clip-path="url(#clip0x7faa585c3590)"><path d="M 0.0 0.0 L 182.7 0.0 L 183.7 0.0 " fill="none" stroke="#4B9D51" stroke-width="2.00" transform="matrix(-0.65, -0.76, -0.76, 0.65, 479.2, 367.0)"></path><path d="M 357.2 230.9 L 354.7 220.4 L 364.6 224.6 Z M 357.2 230.9 " fill="#4B9D51"></path></g></g><g><clipPath id="clip0x7faa585c4b40"><path d="M 507.6 373.1 L 592.8 220.1 L 582.7 214.4 L 497.5 367.5 Z M 507.6 373.1 "></path></clipPath><g clip-path="url(#clip0x7faa585c4b40)"><path d="M 0.0 0.0 L 163.6 0.0 L 164.6 0.0 " fill="none" stroke="#4B9D51" stroke-width="2.00" transform="matrix(0.49, -0.87, -0.87, -0.49, 503.0, 369.4)"></path><path d="M 578.4 224.2 L 587.3 218.1 L 586.8 228.9 Z M 578.4 224.2 " fill="#4B9D51"></path></g></g><g><clipPath id="clip0x7faa585c60a0"><path d="M 487.7 617.6 L 491.9 617.6 L 491.9 653.4 L 487.7 653.4 Z M 487.7 617.6 "></path></clipPath><g clip-path="url(#clip0x7faa585c60a0)"><path d="M 0.2 33.8 C 0.1 22.5 0.1 11.3 0.0 0.0 " fill="none" stroke="#78889F" stroke-width="2.00" transform="matrix(1.00, 0.00, 0.00, -1.00, 489.7, 652.4)"></path></g></g><g><clipPath id="clip0x7faa585c71e0"><path d="M 407.4 651.4 L 571.7 651.4 L 571.7 698.9 L 407.4 698.9 Z M 407.4 651.4 "></path></clipPath><g clip-path="url(#clip0x7faa585c71e0)"><path d="M 408.4 662.7 L 408.0 687.6 C 408.0 693.2 413.0 698.0 418.7 698.0 L 560.4 698.0 C 566.1 698.0 571.0 693.2 571.0 687.6 L 571.0 662.7 C 571.0 657.0 566.1 652.0 560.4 652.0 L 418.7 652.0 C 413.0 652.0 408.4 657.0 408.4 662.7 Z M 408.4 662.7 " fill="#4B9D51"></path></g></g><g><clipPath id="clip0x7faa585c8420"><path d="M 407.2 650.1 L 571.9 650.1 L 571.9 701.3 L 407.2 701.3 Z M 407.2 650.1 "></path></clipPath><g clip-path="url(#clip0x7faa585c8420)"><text xml:space="preserve" font-family="GillSans-SemiBold,Gill Sans" font-weight="bold" font-size="29.0" fill="#FEFFFF" transform="matrix(1.00, 0.00, -0.00, -1.00, 431.6, 666.0)">m</text><text xml:space="preserve" font-family="GillSans-SemiBold,Gill Sans" font-weight="bold" font-size="29.0" fill="#FEFFFF" transform="matrix(1.00, 0.00, -0.00, -1.00, 456.2, 666.0)">a</text><text xml:space="preserve" font-family="GillSans-SemiBold,Gill Sans" font-weight="bold" font-size="29.0" fill="#FEFFFF" transform="matrix(1.00, 0.00, -0.00, -1.00, 470.2, 666.0)">k</text><text xml:space="preserve" font-family="GillSans-SemiBold,Gill Sans" font-weight="bold" font-size="29.0" fill="#FEFFFF" transform="matrix(1.00, 0.00, -0.00, -1.00, 485.2, 666.0)">e</text><text xml:space="preserve" font-family="GillSans-Light,Gill Sans" font-size="29.0" fill="#FEFFFF" transform="matrix(1.00, 0.00, -0.00, -1.00, 500.2, 666.0)"> </text><text xml:space="preserve" font-family="GillSans-Light,Gill Sans" font-size="29.0" fill="#FEFFFF" transform="matrix(1.00, 0.00, -0.00, -1.00, 508.2, 666.0)">d</text><text xml:space="preserve" font-family="GillSans-Light,Gill Sans" font-size="29.0" fill="#FEFFFF" transform="matrix(1.00, 0.00, -0.00, -1.00, 523.0, 666.0)">i</text><text xml:space="preserve" font-family="GillSans-Light,Gill Sans" font-size="29.0" fill="#FEFFFF" transform="matrix(1.00, 0.00, -0.00, -1.00, 528.4, 666.0)">s</text><text xml:space="preserve" font-family="GillSans-Light,Gill Sans" font-size="29.0" fill="#FEFFFF" transform="matrix(1.00, 0.00, -0.00, -1.00, 538.7, 666.0)">t</text></g></g></g></svg>