<?xml version="1.0" encoding="UTF-8" standalone="no"?><svg xmlns="http://www.w3.org/2000/svg" xmlns:xlink="http://www.w3.org/1999/xlink" clip-rule="evenodd" stroke-miterlimit="10" viewBox="0 0 340 52"><desc>SVG generated by Keynote</desc><defs></defs><g transform="matrix(1.00, 0.00, -0.00, -1.00, 0.0, 52.0)"><g><clipPath id="clip0x7faa584656a0"><path d="M 62.2 11.7 L 133.0 11.7 L 133.0 40.4 L 62.2 40.4 Z M 62.2 11.7 "></path></clipPath><g clip-path="url(#clip0x7faa584656a0)"><image xlink:href="051156823D63683E8F20EBF03B2C1B28.png" width="690.00" height="280.00" transform="matrix(0.10, 0.00, -0.00, -0.10, 62.0, 40.0)"></image></g></g><g><clipPath id="clip0x7faa58467530"><path d="M 0.1 0.4 L 50.7 0.4 L 50.7 51.0 L 0.1 51.0 Z M 0.1 0.4 "></path></clipPath><g clip-path="url(#clip0x7faa58467530)"><image xlink:href="2C45A02B72D22685043C24680A54D389.png" width="400.00" height="400.00" transform="matrix(0.13, 0.00, -0.00, -0.13, 0.0, 51.0)"></image></g></g><g><clipPath id="clip0x7faa5828bb30"><path d="M 144.5 0.8 L 182.1 0.8 L 182.1 45.1 L 144.5 45.1 Z M 144.5 0.8 "></path></clipPath><g clip-path="url(#clip0x7faa5828bb30)"><image xlink:href="6DB6692619C7CD1FAD73366F0AD12F36.png" width="360.00" height="424.00" transform="matrix(0.10, 0.00, -0.00, -0.10, 145.0, 45.0)"></image></g></g><g><clipPath id="clip0x7faa58354d90"><path d="M 289.5 3.6 L 339.9 3.6 L 339.9 47.9 L 289.5 47.9 Z M 289.5 3.6 "></path></clipPath><g clip-path="url(#clip0x7faa58354d90)"><image xlink:href="86ED87B77D5383724B3DC85C11CF26DB.png" width="1024.00" height="900.00" transform="matrix(0.05, 0.00, -0.00, -0.05, 289.0, 48.0)"></image></g></g><g><clipPath id="clip0x7faa5828ec30"><path d="M 191.0 9.6 L 273.9 9.6 L 273.9 41.9 L 191.0 41.9 Z M 191.0 9.6 "></path></clipPath><g clip-path="url(#clip0x7faa5828ec30)"><image xlink:href="DADB3552B58DFAEFA404130C23BFA015.png" width="2000.00" height="778.00" transform="matrix(0.04, 0.00, -0.00, -0.04, 191.0, 42.0)"></image></g></g></g></svg>