<?xml version="1.0" encoding="UTF-8" standalone="no"?><svg xmlns="http://www.w3.org/2000/svg" xmlns:xlink="http://www.w3.org/1999/xlink" clip-rule="evenodd" stroke-miterlimit="10" viewBox="0 0 750 94"><desc>SVG generated by Keynote</desc><defs></defs><g transform="matrix(1.00, 0.00, -0.00, -1.00, 0.0, 94.0)"><g><clipPath id="clip0x7faa58456c10"><path d="M 0.3 0.6 L 749.7 0.6 L 749.7 93.9 L 0.3 93.9 Z M 0.3 0.6 "></path></clipPath><g clip-path="url(#clip0x7faa58456c10)"><path d="M -0.3 -0.1 L 745.7 -0.1 L 745.7 88.9 L -0.3 88.9 Z M 0.0 0.0 " fill="none" stroke="#7F8685" stroke-width="2.00" stroke-dasharray="2.0, 2.0" transform="matrix(1.00, 0.00, 0.00, -1.00, 2.3, 91.9)"></path></g></g><g><clipPath id="clip0x7faa58462e80"><path d="M 19.6 13.5 L 146.1 13.5 L 146.1 80.1 L 19.6 80.1 Z M 19.6 13.5 "></path></clipPath><g clip-path="url(#clip0x7faa58462e80)"><path d="M 20.6 29.5 L 21.0 64.1 C 21.0 72.4 27.3 79.0 35.6 79.0 L 130.1 79.0 C 138.4 79.0 145.0 72.4 145.0 64.1 L 145.0 29.5 C 145.0 21.3 138.4 15.0 130.1 15.0 L 35.6 15.0 C 27.3 15.0 20.6 21.3 20.6 29.5 Z M 20.6 29.5 " fill="#5CA460"></path></g></g><g><clipPath id="clip0x7faa58464f40"><path d="M 18.4 14.5 L 147.4 14.5 L 147.4 79.1 L 18.4 79.1 Z M 18.4 14.5 "></path></clipPath><g clip-path="url(#clip0x7faa58464f40)"><text xml:space="preserve" font-family="Courier,Courier" font-size="25.0" fill="#FEFFFF" transform="matrix(1.00, 0.00, -0.00, -1.00, 37.9, 37.9)">c</text><text xml:space="preserve" font-family="Courier,Courier" font-size="25.0" fill="#FEFFFF" transform="matrix(1.00, 0.00, -0.00, -1.00, 52.9, 37.9)">o</text><text xml:space="preserve" font-family="Courier,Courier" font-size="25.0" fill="#FEFFFF" transform="matrix(1.00, 0.00, -0.00, -1.00, 67.9, 37.9)">n</text><text xml:space="preserve" font-family="Courier,Courier" font-size="25.0" fill="#FEFFFF" transform="matrix(1.00, 0.00, -0.00, -1.00, 82.9, 37.9)">c</text><text xml:space="preserve" font-family="Courier,Courier" font-size="25.0" fill="#FEFFFF" transform="matrix(1.00, 0.00, -0.00, -1.00, 97.9, 37.9)">a</text><text xml:space="preserve" font-family="Courier,Courier" font-size="25.0" fill="#FEFFFF" transform="matrix(1.00, 0.00, -0.00, -1.00, 112.9, 37.9)">t</text></g></g><g><clipPath id="clip0x7faa58191050"><path d="M 283.6 13.5 L 410.1 13.5 L 410.1 80.1 L 283.6 80.1 Z M 283.6 13.5 "></path></clipPath><g clip-path="url(#clip0x7faa58191050)"><path d="M 284.6 29.5 L 285.0 64.1 C 285.0 72.4 291.3 79.0 299.6 79.0 L 394.1 79.0 C 402.4 79.0 409.0 72.4 409.0 64.1 L 409.0 29.5 C 409.0 21.3 402.4 15.0 394.1 15.0 L 299.6 15.0 C 291.3 15.0 284.6 21.3 284.6 29.5 Z M 284.6 29.5 " fill="#5CA460"></path></g></g><g><clipPath id="clip0x7faa58192200"><path d="M 282.4 14.5 L 411.4 14.5 L 411.4 79.1 L 282.4 79.1 Z M 282.4 14.5 "></path></clipPath><g clip-path="url(#clip0x7faa58192200)"><text xml:space="preserve" font-family="Courier,Courier" font-size="25.0" fill="#FEFFFF" transform="matrix(1.00, 0.00, -0.00, -1.00, 301.9, 37.9)">u</text><text xml:space="preserve" font-family="Courier,Courier" font-size="25.0" fill="#FEFFFF" transform="matrix(1.00, 0.00, -0.00, -1.00, 316.9, 37.9)">g</text><text xml:space="preserve" font-family="Courier,Courier" font-size="25.0" fill="#FEFFFF" transform="matrix(1.00, 0.00, -0.00, -1.00, 331.9, 37.9)">l</text><text xml:space="preserve" font-family="Courier,Courier" font-size="25.0" fill="#FEFFFF" transform="matrix(1.00, 0.00, -0.00, -1.00, 346.9, 37.9)">i</text><text xml:space="preserve" font-family="Courier,Courier" font-size="25.0" fill="#FEFFFF" transform="matrix(1.00, 0.00, -0.00, -1.00, 361.9, 37.9)">f</text><text xml:space="preserve" font-family="Courier,Courier" font-size="25.0" fill="#FEFFFF" transform="matrix(1.00, 0.00, -0.00, -1.00, 376.9, 37.9)">y</text></g></g><g><clipPath id="clip0x7faa581953d0"><path d="M 417.6 13.5 L 576.4 13.5 L 576.4 80.1 L 417.6 80.1 Z M 417.6 13.5 "></path></clipPath><g clip-path="url(#clip0x7faa581953d0)"><path d="M 418.6 29.5 L 419.0 64.1 C 419.0 72.4 425.3 79.0 433.6 79.0 L 560.4 79.0 C 568.7 79.0 575.0 72.4 575.0 64.1 L 575.0 29.5 C 575.0 21.3 568.7 15.0 560.4 15.0 L 433.6 15.0 C 425.3 15.0 418.6 21.3 418.6 29.5 Z M 418.6 29.5 " fill="#5CA460"></path></g></g><g><clipPath id="clip0x7faa58196550"><path d="M 416.4 14.5 L 577.6 14.5 L 577.6 79.1 L 416.4 79.1 Z M 416.4 14.5 "></path></clipPath><g clip-path="url(#clip0x7faa58196550)"><text xml:space="preserve" font-family="Courier,Courier" font-size="25.0" fill="#FEFFFF" transform="matrix(1.00, 0.00, -0.00, -1.00, 437.0, 37.9)">r</text><text xml:space="preserve" font-family="Courier,Courier" font-size="25.0" fill="#FEFFFF" transform="matrix(1.00, 0.00, -0.00, -1.00, 452.0, 37.9)">e</text><text xml:space="preserve" font-family="Courier,Courier" font-size="25.0" fill="#FEFFFF" transform="matrix(1.00, 0.00, -0.00, -1.00, 467.0, 37.9)">v</text><text xml:space="preserve" font-family="Courier,Courier" font-size="25.0" fill="#FEFFFF" transform="matrix(1.00, 0.00, -0.00, -1.00, 482.0, 37.9)">i</text><text xml:space="preserve" font-family="Courier,Courier" font-size="25.0" fill="#FEFFFF" transform="matrix(1.00, 0.00, -0.00, -1.00, 497.0, 37.9)">s</text><text xml:space="preserve" font-family="Courier,Courier" font-size="25.0" fill="#FEFFFF" transform="matrix(1.00, 0.00, -0.00, -1.00, 512.0, 37.9)">i</text><text xml:space="preserve" font-family="Courier,Courier" font-size="25.0" fill="#FEFFFF" transform="matrix(1.00, 0.00, -0.00, -1.00, 527.0, 37.9)">o</text><text xml:space="preserve" font-family="Courier,Courier" font-size="25.0" fill="#FEFFFF" transform="matrix(1.00, 0.00, -0.00, -1.00, 542.0, 37.9)">n</text></g></g><g><clipPath id="clip0x7faa5819a420"><path d="M 583.6 13.5 L 732.9 13.5 L 732.9 80.1 L 583.6 80.1 Z M 583.6 13.5 "></path></clipPath><g clip-path="url(#clip0x7faa5819a420)"><path d="M 584.6 29.5 L 585.0 64.1 C 585.0 72.4 591.3 79.0 599.6 79.0 L 716.9 79.0 C 725.2 79.0 732.0 72.4 732.0 64.1 L 732.0 29.5 C 732.0 21.3 725.2 15.0 716.9 15.0 L 599.6 15.0 C 591.3 15.0 584.6 21.3 584.6 29.5 Z M 584.6 29.5 " fill="#5CA460"></path></g></g><g><clipPath id="clip0x7faa5819b580"><path d="M 582.4 14.5 L 734.2 14.5 L 734.2 79.1 L 582.4 79.1 Z M 582.4 14.5 "></path></clipPath><g clip-path="url(#clip0x7faa5819b580)"><text xml:space="preserve" font-family="Courier,Courier" font-size="25.0" fill="#FEFFFF" transform="matrix(1.00, 0.00, -0.00, -1.00, 605.8, 37.9)">h</text><text xml:space="preserve" font-family="Courier,Courier" font-size="25.0" fill="#FEFFFF" transform="matrix(1.00, 0.00, -0.00, -1.00, 620.8, 37.9)">t</text><text xml:space="preserve" font-family="Courier,Courier" font-size="25.0" fill="#FEFFFF" transform="matrix(1.00, 0.00, -0.00, -1.00, 635.8, 37.9)">m</text><text xml:space="preserve" font-family="Courier,Courier" font-size="25.0" fill="#FEFFFF" transform="matrix(1.00, 0.00, -0.00, -1.00, 650.8, 37.9)">l</text><text xml:space="preserve" font-family="Courier,Courier" font-size="25.0" fill="#FEFFFF" transform="matrix(1.00, 0.00, -0.00, -1.00, 665.8, 37.9)">2</text><text xml:space="preserve" font-family="Courier,Courier" font-size="25.0" fill="#FEFFFF" transform="matrix(1.00, 0.00, -0.00, -1.00, 680.8, 37.9)">j</text><text xml:space="preserve" font-family="Courier,Courier" font-size="25.0" fill="#FEFFFF" transform="matrix(1.00, 0.00, -0.00, -1.00, 695.8, 37.9)">s</text></g></g><g><clipPath id="clip0x7faa583489e0"><path d="M 153.6 13.5 L 276.1 13.5 L 276.1 80.1 L 153.6 80.1 Z M 153.6 13.5 "></path></clipPath><g clip-path="url(#clip0x7faa583489e0)"><path d="M 154.6 29.5 L 155.0 64.1 C 155.0 72.4 161.3 79.0 169.6 79.0 L 260.1 79.0 C 268.4 79.0 275.0 72.4 275.0 64.1 L 275.0 29.5 C 275.0 21.3 268.4 15.0 260.1 15.0 L 169.6 15.0 C 161.3 15.0 154.6 21.3 154.6 29.5 Z M 154.6 29.5 " fill="#5CA460"></path></g></g><g><clipPath id="clip0x7faa58350a70"><path d="M 152.4 14.5 L 277.4 14.5 L 277.4 79.1 L 152.4 79.1 Z M 152.4 14.5 "></path></clipPath><g clip-path="url(#clip0x7faa58350a70)"><text xml:space="preserve" font-family="Courier,Courier" font-size="25.0" fill="#FEFFFF" transform="matrix(1.00, 0.00, -0.00, -1.00, 169.9, 37.9)">m</text><text xml:space="preserve" font-family="Courier,Courier" font-size="25.0" fill="#FEFFFF" transform="matrix(1.00, 0.00, -0.00, -1.00, 184.9, 37.9)">i</text><text xml:space="preserve" font-family="Courier,Courier" font-size="25.0" fill="#FEFFFF" transform="matrix(1.00, 0.00, -0.00, -1.00, 199.9, 37.9)">n</text><text xml:space="preserve" font-family="Courier,Courier" font-size="25.0" fill="#FEFFFF" transform="matrix(1.00, 0.00, -0.00, -1.00, 214.9, 37.9)">i</text><text xml:space="preserve" font-family="Courier,Courier" font-size="25.0" fill="#FEFFFF" transform="matrix(1.00, 0.00, -0.00, -1.00, 229.9, 37.9)">f</text><text xml:space="preserve" font-family="Courier,Courier" font-size="25.0" fill="#FEFFFF" transform="matrix(1.00, 0.00, -0.00, -1.00, 244.9, 37.9)">y</text></g></g></g></svg>