<?xml version="1.0" encoding="UTF-8" standalone="no"?><svg xmlns="http://www.w3.org/2000/svg" xmlns:xlink="http://www.w3.org/1999/xlink" clip-rule="evenodd" stroke-miterlimit="10" viewBox="0 0 750 67"><desc>SVG generated by Keynote</desc><defs></defs><g transform="matrix(1.00, 0.00, -0.00, -1.00, 0.0, 67.0)"><g><clipPath id="clip0x7faa58273670"><path d="M 0.0 0.0 L 749.4 0.0 L 749.4 66.6 L 0.0 66.6 Z M 0.0 0.0 "></path></clipPath><g clip-path="url(#clip0x7faa58273670)"><path d="M 2.0 65.0 L 747.0 65.0 L 747.0 2.0 L 2.0 2.0 Z M 2.0 64.6 " fill="#FEF0DE"></path><path d="M 0.0 -0.4 L 745.0 -0.4 L 745.0 62.6 L 0.0 62.6 Z M 0.0 0.0 " fill="none" stroke="#7F8685" stroke-width="2.00" stroke-dasharray="2.0, 2.0" transform="matrix(1.00, 0.00, 0.00, -1.00, 2.0, 64.6)"></path></g></g><g><clipPath id="clip0x7faa582752f0"><path d="M 252.7 9.1 L 455.3 9.1 L 455.3 61.6 L 252.7 61.6 Z M 252.7 9.1 "></path></clipPath><g clip-path="url(#clip0x7faa582752f0)"><text xml:space="preserve" font-family="Courier,Courier" font-size="31.0" fill="#EA7E8D" transform="matrix(1.00, 0.00, -0.00, -1.00, 261.0, 24.4)">$</text><text xml:space="preserve" font-family="Courier,Courier" font-size="31.0" fill="#525252" transform="matrix(1.00, 0.00, -0.00, -1.00, 279.6, 24.4)"> </text><text xml:space="preserve" font-family="Courier-Bold,Courier" font-weight="bold" font-size="31.0" fill="#8990C4" transform="matrix(1.00, 0.00, -0.00, -1.00, 298.2, 24.4)">m</text><text xml:space="preserve" font-family="Courier-Bold,Courier" font-weight="bold" font-size="31.0" fill="#8990C4" transform="matrix(1.00, 0.00, -0.00, -1.00, 316.8, 24.4)">a</text><text xml:space="preserve" font-family="Courier-Bold,Courier" font-weight="bold" font-size="31.0" fill="#8990C4" transform="matrix(1.00, 0.00, -0.00, -1.00, 335.4, 24.4)">k</text><text xml:space="preserve" font-family="Courier-Bold,Courier" font-weight="bold" font-size="31.0" fill="#8990C4" transform="matrix(1.00, 0.00, -0.00, -1.00, 354.0, 24.4)">e</text><text xml:space="preserve" font-family="Courier,Courier" font-size="31.0" fill="#525252" transform="matrix(1.00, 0.00, -0.00, -1.00, 372.6, 24.4)"> </text><text xml:space="preserve" font-family="Courier,Courier" font-size="31.0" fill="#525252" transform="matrix(1.00, 0.00, -0.00, -1.00, 391.2, 24.4)">d</text><text xml:space="preserve" font-family="Courier,Courier" font-size="31.0" fill="#525252" transform="matrix(1.00, 0.00, -0.00, -1.00, 409.8, 24.4)">e</text><text xml:space="preserve" font-family="Courier,Courier" font-size="31.0" fill="#525252" transform="matrix(1.00, 0.00, -0.00, -1.00, 428.4, 24.4)">v</text></g></g></g></svg>