<?xml version="1.0" encoding="UTF-8" standalone="no"?><svg xmlns="http://www.w3.org/2000/svg" xmlns:xlink="http://www.w3.org/1999/xlink" clip-rule="evenodd" stroke-miterlimit="10" viewBox="0 0 186 26"><desc>SVG generated by Keynote</desc><defs></defs><g transform="matrix(1.00, 0.00, -0.00, -1.00, 0.0, 26.0)"><path d="M 164.8 20.6 C 165.2 20.6 166.7 20.8 166.8 20.7 C 166.2 20.7 165.0 20.5 164.8 20.6 C 164.8 20.6 164.8 20.6 164.8 20.6 Z M 161.7 20.4 C 162.3 20.5 163.5 20.5 163.9 20.5 C 163.3 20.5 162.0 20.3 161.7 20.4 C 161.7 20.4 161.7 20.4 161.7 20.4 Z M 166.5 20.4 C 167.3 20.5 168.9 20.7 169.2 20.6 C 168.4 20.6 166.9 20.4 166.5 20.4 C 166.5 20.4 166.5 20.4 166.5 20.4 Z M 122.8 18.7 C 123.2 18.8 124.7 18.9 124.7 18.8 C 124.2 18.8 123.0 18.6 122.8 18.7 C 122.8 18.7 122.8 18.7 122.8 18.7 Z M 131.5 19.2 C 132.0 19.3 133.3 19.3 133.6 19.3 C 133.0 19.3 131.7 19.1 131.5 19.2 C 131.5 19.2 131.5 19.2 131.5 19.2 Z M 136.5 19.6 C 137.6 19.7 138.9 19.8 138.6 19.7 C 138.3 19.7 136.6 19.5 136.5 19.6 C 136.5 19.6 136.5 19.6 136.5 19.6 Z M 165.9 16.0 C 164.6 16.0 163.7 15.8 162.9 15.8 C 158.7 15.4 165.0 16.2 165.9 16.0 C 165.9 16.0 165.9 16.0 165.9 16.0 Z M 145.3 20.0 C 144.4 19.9 143.8 19.9 143.4 19.9 C 144.1 20.0 145.2 20.1 145.3 20.0 C 145.3 20.0 145.3 20.0 145.3 20.0 Z M 152.5 20.5 C 152.7 20.5 157.0 20.9 159.4 21.0 C 157.4 20.8 152.3 20.4 152.5 20.5 C 152.5 20.5 152.5 20.5 152.5 20.5 Z M 155.8 15.2 C 153.0 15.0 148.6 14.7 146.5 14.6 C 144.5 14.4 150.1 14.9 155.2 15.3 C 160.4 15.7 156.2 15.2 158.3 15.3 C 160.4 15.4 156.3 15.1 154.2 14.9 C 152.1 14.8 155.6 15.1 155.8 15.2 C 155.8 15.2 155.8 15.2 155.8 15.2 Z M 156.0 14.8 C 157.0 14.9 157.8 15.0 158.4 14.9 C 157.4 14.8 156.4 14.7 156.0 14.8 C 156.0 14.8 156.0 14.8 156.0 14.8 Z M 6.6 5.5 C 6.8 6.5 9.2 7.6 11.8 8.5 C 12.4 8.7 13.1 8.9 13.7 9.1 C 18.6 9.9 23.5 10.6 28.3 11.1 C 29.3 11.2 30.3 11.3 31.3 11.4 C 34.3 11.7 37.3 12.0 40.3 12.2 C 41.3 12.3 42.3 12.4 43.4 12.5 C 47.0 12.9 50.5 13.1 54.1 13.4 C 55.9 13.5 57.7 13.7 59.5 14.0 C 60.5 14.2 64.5 14.5 65.9 14.5 C 64.5 14.6 71.1 15.0 70.8 15.0 C 71.5 15.0 72.3 15.0 73.0 15.0 C 73.8 15.1 72.8 15.0 71.9 14.8 C 72.7 14.9 73.6 14.9 74.5 15.0 C 75.4 15.1 76.3 15.1 77.2 15.2 C 80.3 15.6 83.6 15.8 86.5 15.9 C 94.2 16.5 115.6 18.2 111.7 17.8 C 107.4 17.4 109.6 17.5 110.8 17.6 C 111.5 17.6 112.4 17.7 113.4 17.8 C 113.4 17.8 113.3 17.8 113.2 17.8 C 115.1 18.0 117.8 18.4 120.5 18.5 C 120.0 18.4 119.4 18.4 119.1 18.3 C 120.5 18.4 119.4 18.2 120.3 18.2 C 122.8 18.4 124.0 18.5 121.1 18.2 C 123.8 18.4 125.5 18.3 128.1 18.4 C 129.1 18.5 128.6 18.4 128.3 18.5 C 130.0 18.7 134.0 19.0 134.4 19.1 C 134.8 19.2 123.6 18.2 125.6 18.4 C 126.4 18.5 128.0 18.7 128.7 18.7 C 127.3 18.6 125.5 18.5 124.6 18.5 C 125.6 18.6 127.0 18.7 127.7 18.8 C 126.8 18.7 126.1 18.7 125.8 18.7 C 127.2 18.8 128.3 18.9 129.9 19.0 C 130.7 19.1 129.3 18.9 130.9 19.0 C 131.1 19.0 129.8 18.9 129.9 18.9 C 131.2 18.9 133.7 19.1 134.3 19.2 C 134.9 19.2 132.8 19.0 132.8 19.0 C 137.6 19.4 143.2 19.8 144.9 19.9 C 146.6 20.0 145.0 19.9 144.3 19.8 C 146.3 19.9 147.8 20.0 150.2 20.2 C 151.7 20.3 151.1 20.3 150.5 20.2 C 150.9 20.2 151.3 20.2 151.5 20.2 C 151.7 20.2 152.1 20.3 152.4 20.3 C 151.5 20.2 149.7 20.1 149.0 20.0 C 150.4 20.0 153.7 20.3 154.9 20.3 C 153.0 20.1 150.9 20.0 148.8 19.8 C 153.0 20.1 157.3 20.7 160.7 20.7 C 160.1 20.7 159.8 20.6 159.4 20.5 C 160.6 20.7 162.5 20.9 163.7 20.8 C 164.3 20.9 165.6 20.9 166.9 21.0 C 164.7 20.8 163.2 20.7 161.6 20.6 C 161.7 20.6 161.8 20.6 162.1 20.6 C 158.6 20.1 156.6 20.3 154.2 20.1 C 154.0 20.1 153.8 20.1 153.6 20.1 C 152.8 19.9 155.6 20.1 155.9 20.1 C 152.3 19.8 148.3 19.5 146.5 19.3 C 150.8 19.6 154.7 19.9 157.9 20.1 C 157.1 19.9 153.8 19.7 152.3 19.5 C 159.3 20.0 160.1 20.1 160.6 20.1 C 160.1 20.0 159.6 20.0 159.0 19.9 C 159.1 19.9 159.3 19.9 159.4 19.9 C 162.5 20.1 166.2 20.4 166.0 20.4 C 165.9 20.3 163.0 20.1 160.0 19.8 C 160.3 19.8 160.7 19.8 161.0 19.8 C 164.5 20.0 168.5 20.2 172.0 20.5 C 171.4 20.4 171.7 20.4 172.5 20.4 C 171.4 20.3 169.8 20.1 168.6 20.0 C 169.0 20.0 169.8 20.1 170.0 20.0 C 169.4 20.0 168.5 19.9 168.2 19.8 C 169.8 19.9 171.6 20.0 173.4 20.1 C 173.8 20.1 172.6 20.1 172.7 20.0 C 174.4 20.1 176.7 20.3 178.0 20.3 C 176.6 20.2 173.8 20.0 173.0 19.9 C 173.5 19.9 174.1 19.9 174.7 19.9 C 175.8 20.0 176.3 20.0 175.1 19.9 C 174.4 19.8 174.4 19.8 174.6 19.8 C 175.4 19.8 178.1 20.0 178.0 19.9 C 177.3 19.8 174.6 19.6 173.9 19.4 C 174.4 19.4 175.8 19.6 176.0 19.5 C 173.0 19.3 173.1 19.2 172.3 19.2 C 172.7 19.3 173.5 19.3 173.5 19.4 C 171.6 19.2 169.8 19.1 167.9 18.9 C 167.9 18.9 167.9 18.9 167.9 18.9 C 167.9 18.9 167.9 18.9 167.9 18.9 C 167.9 18.9 167.9 18.9 167.9 18.9 C 168.1 18.9 168.0 18.8 167.8 18.7 C 168.6 18.8 169.5 18.8 171.0 18.9 C 170.6 18.8 169.2 18.7 167.9 18.6 C 167.9 18.6 168.0 18.6 168.0 18.5 C 170.0 18.7 173.2 18.9 175.3 19.0 C 174.4 18.9 170.8 18.6 168.4 18.5 C 168.4 18.4 168.5 18.4 168.6 18.4 C 165.6 18.2 162.0 17.8 158.6 17.5 C 160.2 17.5 162.1 17.8 164.3 17.9 C 165.3 18.0 166.2 18.0 167.1 18.0 C 169.8 18.3 177.9 18.9 178.8 19.0 C 179.8 19.0 171.7 18.3 171.6 18.3 C 171.6 18.2 175.4 18.5 173.6 18.3 C 172.6 18.3 170.6 18.1 169.1 18.0 C 169.1 17.9 169.0 17.8 169.0 17.8 C 170.3 17.9 171.8 17.9 171.9 18.1 C 172.5 18.1 173.8 18.3 174.0 18.2 C 173.8 18.2 173.5 18.2 173.5 18.2 C 173.8 18.2 174.3 18.2 174.3 18.2 C 172.8 18.0 170.6 17.8 168.9 17.7 C 168.8 17.6 168.6 17.6 168.5 17.5 C 168.5 17.5 169.8 17.6 171.0 17.7 C 172.2 17.7 169.7 17.5 167.7 17.4 C 167.4 17.3 167.1 17.2 166.8 17.1 C 167.5 17.2 168.3 17.3 169.2 17.3 C 170.3 17.4 170.3 17.3 171.4 17.3 C 169.4 17.1 166.9 16.9 165.0 16.8 C 164.3 16.7 163.6 16.5 162.8 16.4 C 164.5 16.5 166.0 16.5 166.9 16.5 C 167.6 16.6 168.3 16.7 168.6 16.7 C 167.9 16.6 169.7 16.7 169.4 16.6 C 168.5 16.6 166.6 16.4 165.9 16.5 C 164.4 16.3 162.7 16.2 161.3 16.1 C 161.1 16.1 160.9 16.0 160.7 16.0 C 162.0 16.1 163.1 16.2 164.4 16.2 C 163.9 16.0 160.3 15.7 157.6 15.6 C 152.3 15.1 146.9 15.2 141.6 14.8 C 141.4 14.8 141.0 14.8 140.7 14.7 C 140.3 14.6 139.9 14.6 139.5 14.5 C 140.8 14.6 142.0 14.7 142.9 14.7 C 139.1 14.3 148.3 15.1 148.9 15.0 C 142.8 14.3 131.4 13.5 124.3 12.8 C 126.0 13.0 126.6 13.0 124.8 12.8 C 124.3 12.8 123.8 12.7 123.3 12.7 C 130.4 13.1 137.9 14.0 143.6 14.2 C 140.2 13.9 135.1 13.6 133.7 13.3 C 134.7 13.4 136.1 13.6 136.3 13.5 C 134.6 13.3 128.7 12.9 127.0 12.7 C 135.4 13.3 146.7 14.3 152.9 14.6 C 143.6 13.9 131.0 12.8 123.0 12.3 C 124.4 12.4 124.4 12.5 123.7 12.5 C 121.2 12.3 118.8 12.1 116.2 11.9 C 115.7 11.9 115.9 11.9 117.1 11.9 C 118.1 12.0 118.7 12.0 119.0 12.0 C 118.3 11.9 110.5 11.3 116.7 11.8 C 123.0 12.2 133.8 13.1 127.5 12.5 C 121.2 12.0 118.7 11.7 122.1 11.9 C 125.6 12.2 136.6 12.9 132.9 12.6 C 129.2 12.3 121.5 11.6 117.2 11.2 C 112.8 10.9 120.1 11.9 113.7 11.3 C 107.2 10.8 112.6 11.1 111.4 11.0 C 109.4 10.9 105.9 10.6 102.5 10.3 C 100.1 10.1 97.0 9.9 95.5 9.7 C 95.6 9.6 102.8 10.3 100.0 10.0 C 92.9 9.4 85.1 8.7 88.3 9.1 C 83.9 8.8 80.7 8.5 78.0 8.3 C 73.8 7.8 68.9 7.5 68.3 7.4 C 67.7 7.3 56.1 6.6 51.8 5.9 C 51.5 5.9 43.7 5.3 43.0 5.4 C 35.6 4.7 36.7 4.7 29.4 4.1 C 23.3 3.7 21.4 3.6 20.4 3.5 C 13.9 3.1 14.0 2.9 10.8 3.2 C 9.9 3.3 8.4 3.2 7.9 3.4 C 6.8 3.9 6.3 4.5 6.6 5.5 C 6.6 5.5 6.6 5.5 6.6 5.5 Z M 167.0 19.0 C 168.2 19.2 170.2 19.3 171.4 19.5 C 170.0 19.5 168.3 19.3 166.6 19.1 C 166.7 19.1 166.9 19.1 167.0 19.0 C 167.0 19.0 167.0 19.0 167.0 19.0 Z M 158.4 16.7 C 159.1 16.7 160.1 16.9 160.9 16.9 C 161.7 17.0 162.6 17.1 163.8 17.1 C 163.7 17.1 161.7 16.8 160.1 16.7 C 160.1 16.7 160.1 16.7 160.1 16.6 C 160.9 16.6 161.8 16.7 162.8 16.8 C 163.2 16.8 163.6 16.8 164.0 16.9 C 164.0 16.9 163.4 16.9 163.2 16.9 C 163.5 17.0 164.4 17.1 165.6 17.3 C 165.8 17.3 165.9 17.3 166.1 17.3 C 166.2 17.4 165.3 17.4 166.3 17.5 C 165.6 17.5 163.7 17.3 162.5 17.2 C 163.9 17.1 158.9 16.8 157.6 16.7 C 157.9 16.7 158.1 16.7 158.4 16.7 Z M 148.5 19.7 C 147.8 19.7 147.2 19.6 146.5 19.6 C 147.5 19.6 148.2 19.7 148.9 19.7 C 148.8 19.7 148.7 19.7 148.5 19.7 Z M 92.5 16.1 C 96.6 16.1 105.1 17.1 105.7 17.0 C 106.5 17.1 107.4 17.2 108.3 17.2 C 102.6 16.8 96.6 16.3 92.5 16.1 C 92.5 16.1 92.5 16.1 92.5 16.1 Z M 107.4 11.1 C 107.7 11.2 107.6 11.2 106.7 11.1 C 102.3 10.8 99.7 10.7 102.5 10.9 C 104.9 11.1 110.0 11.6 108.5 11.5 C 106.5 11.3 104.5 11.2 102.4 11.0 C 100.8 10.9 99.3 10.7 97.7 10.4 C 101.1 10.7 104.4 10.9 107.4 11.1 C 107.4 11.1 107.4 11.1 107.4 11.1 Z M 95.9 10.1 C 97.1 10.2 98.5 10.3 100.0 10.5 C 98.7 10.4 97.4 10.3 96.1 10.2 C 96.0 10.1 95.9 10.1 95.9 10.1 Z M 94.3 9.8 C 96.8 10.0 99.3 10.3 96.8 10.1 C 96.2 10.0 95.6 10.0 95.1 10.0 C 94.8 9.9 94.6 9.9 94.3 9.8 Z M 92.8 9.7 C 92.8 9.7 93.2 9.8 94.1 9.8 C 92.4 9.7 89.0 9.5 89.2 9.4 C 90.3 9.5 91.5 9.6 92.8 9.7 C 92.8 9.7 92.8 9.7 92.8 9.7 Z M 89.8 16.0 C 90.8 16.1 91.8 16.2 90.1 16.1 C 89.4 16.0 88.7 16.0 88.1 16.0 C 88.6 16.0 89.2 16.0 89.8 16.0 Z M 147.3 14.4 C 146.8 14.4 145.1 14.2 144.0 14.2 C 143.9 14.4 147.9 14.6 147.3 14.4 C 147.3 14.4 147.3 14.4 147.3 14.4 Z M 154.0 14.8 C 153.5 14.8 151.7 14.6 150.7 14.6 C 150.6 14.9 154.6 15.0 154.0 14.8 C 154.0 14.8 154.0 14.8 154.0 14.8 Z M 51.8 5.9 C 51.8 5.9 51.8 5.9 51.8 5.9 C 51.8 5.9 51.8 5.9 51.8 5.9 C 51.8 5.9 51.8 5.9 51.8 5.9 Z M 51.8 5.9 " fill="#EA3C43"></path></g></svg>