<?xml version="1.0" encoding="UTF-8" standalone="no"?><svg xmlns="http://www.w3.org/2000/svg" xmlns:xlink="http://www.w3.org/1999/xlink" clip-rule="evenodd" stroke-miterlimit="10" viewBox="0 0 398 187"><desc>SVG generated by Keynote</desc><defs></defs><g transform="matrix(1.00, 0.00, -0.00, -1.00, 0.0, 187.0)"><g><clipPath id="clip0x7faa3c6cfd80"><path d="M 0.9 157.4 L 151.4 157.4 L 151.4 169.0 L 0.9 169.0 Z M 0.9 157.4 "></path></clipPath><g clip-path="url(#clip0x7faa3c6cfd80)"><path d="M -0.3 0.2 L 136.1 0.2 L 136.7 0.2 " fill="none" stroke="#78889F" stroke-width="2.00" stroke-dasharray="2.0, 4.0" transform="matrix(1.00, 0.00, 0.00, -1.00, 3.3, 163.2)"></path><path d="M 139.0 158.2 L 148.6 163.0 L 139.0 167.8 Z M 139.0 158.2 " fill="#78889F"></path></g></g><g><clipPath id="clip0x7faa3c6da5c0"><path d="M 188.6 140.2 L 371.3 140.2 L 371.3 186.2 L 188.6 186.2 Z M 188.6 140.2 "></path></clipPath><g clip-path="url(#clip0x7faa3c6da5c0)"><path d="M 189.6 156.2 L 190.0 170.2 C 190.0 178.5 196.3 185.0 204.6 185.0 L 355.3 185.0 C 363.6 185.0 370.0 178.5 370.0 170.2 L 370.0 156.2 C 370.0 148.0 363.6 141.0 355.3 141.0 L 204.6 141.0 C 196.3 141.0 189.6 148.0 189.6 156.2 Z M 189.6 156.2 " fill="#78889F"></path></g></g><g><clipPath id="clip0x7faa3c6d9690"><path d="M 189.6 138.9 L 370.3 138.9 L 370.3 188.4 L 189.6 188.4 Z M 189.6 138.9 "></path></clipPath><g clip-path="url(#clip0x7faa3c6d9690)"><text xml:space="preserve" font-family="GillSans-Light,Gill Sans" font-size="29.0" fill="#FEFFFF" transform="matrix(1.00, 0.00, -0.00, -1.00, 220.4, 154.0)">v</text><text xml:space="preserve" font-family="GillSans-Light,Gill Sans" font-size="29.0" fill="#FEFFFF" transform="matrix(1.00, 0.00, -0.00, -1.00, 232.7, 154.0)">m</text><text xml:space="preserve" font-family="GillSans-Light,Gill Sans" font-size="29.0" fill="#FEFFFF" transform="matrix(1.00, 0.00, -0.00, -1.00, 255.1, 154.0)"> </text><text xml:space="preserve" font-family="GillSans-Light,Gill Sans" font-size="29.0" fill="#FEFFFF" transform="matrix(1.00, 0.00, -0.00, -1.00, 263.2, 154.0)">/</text><text xml:space="preserve" font-family="GillSans-Light,Gill Sans" font-size="29.0" fill="#FEFFFF" transform="matrix(1.00, 0.00, -0.00, -1.00, 271.3, 154.0)"> </text><text xml:space="preserve" font-family="GillSans-Light,Gill Sans" font-size="29.0" fill="#FEFFFF" transform="matrix(1.00, 0.00, -0.00, -1.00, 279.3, 154.0)">n</text><text xml:space="preserve" font-family="GillSans-Light,Gill Sans" font-size="29.0" fill="#FEFFFF" transform="matrix(1.00, 0.00, -0.00, -1.00, 293.6, 154.0)">g</text><text xml:space="preserve" font-family="GillSans-Light,Gill Sans" font-size="29.0" fill="#FEFFFF" transform="matrix(1.00, 0.00, -0.00, -1.00, 305.9, 154.0)">i</text><text xml:space="preserve" font-family="GillSans-Light,Gill Sans" font-size="29.0" fill="#FEFFFF" transform="matrix(1.00, 0.00, -0.00, -1.00, 311.4, 154.0)">n</text><text xml:space="preserve" font-family="GillSans-Light,Gill Sans" font-size="29.0" fill="#FEFFFF" transform="matrix(1.00, 0.00, -0.00, -1.00, 325.6, 154.0)">x</text></g></g><g><clipPath id="clip0x7faa3c6dbae0"><path d="M 0.9 87.4 L 151.4 87.4 L 151.4 99.0 L 0.9 99.0 Z M 0.9 87.4 "></path></clipPath><g clip-path="url(#clip0x7faa3c6dbae0)"><path d="M -0.3 0.2 L 136.1 0.2 L 136.7 0.2 " fill="none" stroke="#78889F" stroke-width="2.00" stroke-dasharray="2.0, 4.0" transform="matrix(1.00, 0.00, 0.00, -1.00, 3.3, 93.2)"></path><path d="M 139.0 88.2 L 148.6 93.0 L 139.0 97.8 Z M 139.0 88.2 " fill="#78889F"></path></g></g><g><clipPath id="clip0x7faa3c6e11d0"><path d="M 188.6 70.2 L 398.0 70.2 L 398.0 116.2 L 188.6 116.2 Z M 188.6 70.2 "></path></clipPath><g clip-path="url(#clip0x7faa3c6e11d0)"><path d="M 189.6 86.2 L 190.0 100.2 C 190.0 108.5 196.3 115.0 204.6 115.0 L 382.0 115.0 C 390.3 115.0 397.0 108.5 397.0 100.2 L 397.0 86.2 C 397.0 78.0 390.3 71.0 382.0 71.0 L 204.6 71.0 C 196.3 71.0 189.6 78.0 189.6 86.2 Z M 189.6 86.2 " fill="#78889F"></path></g></g><g><clipPath id="clip0x7faa3c6e2380"><path d="M 189.6 68.9 L 397.0 68.9 L 397.0 118.4 L 189.6 118.4 Z M 189.6 68.9 "></path></clipPath><g clip-path="url(#clip0x7faa3c6e2380)"><text xml:space="preserve" font-family="GillSans-Light,Gill Sans" font-size="29.0" fill="#FEFFFF" transform="matrix(1.00, 0.00, -0.00, -1.00, 204.0, 84.0)">3</text><text xml:space="preserve" font-family="GillSans-Light,Gill Sans" font-size="29.0" fill="#FEFFFF" transform="matrix(1.00, 0.00, -0.00, -1.00, 218.5, 84.0)">r</text><text xml:space="preserve" font-family="GillSans-Light,Gill Sans" font-size="29.0" fill="#FEFFFF" transform="matrix(1.00, 0.00, -0.00, -1.00, 228.2, 84.0)">d</text><text xml:space="preserve" font-family="GillSans-Light,Gill Sans" font-size="29.0" fill="#FEFFFF" transform="matrix(1.00, 0.00, -0.00, -1.00, 243.0, 84.0)"> </text><text xml:space="preserve" font-family="GillSans-Light,Gill Sans" font-size="29.0" fill="#FEFFFF" transform="matrix(1.00, 0.00, -0.00, -1.00, 251.0, 84.0)">p</text><text xml:space="preserve" font-family="GillSans-Light,Gill Sans" font-size="29.0" fill="#FEFFFF" transform="matrix(1.00, 0.00, -0.00, -1.00, 265.8, 84.0)">a</text><text xml:space="preserve" font-family="GillSans-Light,Gill Sans" font-size="29.0" fill="#FEFFFF" transform="matrix(1.00, 0.00, -0.00, -1.00, 278.2, 84.0)">r</text><text xml:space="preserve" font-family="GillSans-Light,Gill Sans" font-size="29.0" fill="#FEFFFF" transform="matrix(1.00, 0.00, -0.00, -1.00, 290.2, 84.0)">t</text><text xml:space="preserve" font-family="GillSans-Light,Gill Sans" font-size="29.0" fill="#FEFFFF" transform="matrix(1.00, 0.00, -0.00, -1.00, 298.9, 84.0)">y</text><text xml:space="preserve" font-family="GillSans-Light,Gill Sans" font-size="29.0" fill="#FEFFFF" transform="matrix(1.00, 0.00, -0.00, -1.00, 311.0, 84.0)"> </text><text xml:space="preserve" font-family="GillSans-Light,Gill Sans" font-size="29.0" fill="#FEFFFF" transform="matrix(1.00, 0.00, -0.00, -1.00, 319.1, 84.0)">C</text><text xml:space="preserve" font-family="GillSans-Light,Gill Sans" font-size="29.0" fill="#FEFFFF" transform="matrix(1.00, 0.00, -0.00, -1.00, 338.7, 84.0)">D</text><text xml:space="preserve" font-family="GillSans-Light,Gill Sans" font-size="29.0" fill="#FEFFFF" transform="matrix(1.00, 0.00, -0.00, -1.00, 360.1, 84.0)">N</text></g></g><g><clipPath id="clip0x7faa3c6e2ca0"><path d="M 0.9 17.4 L 151.4 17.4 L 151.4 29.0 L 0.9 29.0 Z M 0.9 17.4 "></path></clipPath><g clip-path="url(#clip0x7faa3c6e2ca0)"><path d="M -0.3 0.2 L 136.1 0.2 L 136.7 0.2 " fill="none" stroke="#78889F" stroke-width="2.00" stroke-dasharray="2.0, 4.0" transform="matrix(1.00, 0.00, 0.00, -1.00, 3.3, 23.2)"></path><path d="M 139.0 18.2 L 148.6 23.0 L 139.0 27.8 Z M 139.0 18.2 " fill="#78889F"></path></g></g><g><clipPath id="clip0x7faa3c6e9570"><path d="M 188.6 0.2 L 398.0 0.2 L 398.0 46.2 L 188.6 46.2 Z M 188.6 0.2 "></path></clipPath><g clip-path="url(#clip0x7faa3c6e9570)"><path d="M 189.6 16.2 L 190.0 30.2 C 190.0 38.5 196.3 45.0 204.6 45.0 L 382.0 45.0 C 390.3 45.0 397.0 38.5 397.0 30.2 L 397.0 16.2 C 397.0 8.0 390.3 1.0 382.0 1.0 L 204.6 1.0 C 196.3 1.0 189.6 8.0 189.6 16.2 Z M 189.6 16.2 " fill="#78889F"></path></g></g><g><clipPath id="clip0x7faa3c6ea780"><path d="M 189.6 -1.1 L 397.0 -1.1 L 397.0 48.4 L 189.6 48.4 Z M 189.6 -1.1 "></path></clipPath><g clip-path="url(#clip0x7faa3c6ea780)"><text xml:space="preserve" font-family="GillSans-Light,Gill Sans" font-size="29.0" fill="#FEFFFF" transform="matrix(1.00, 0.00, -0.00, -1.00, 233.5, 14.0)">A</text><text xml:space="preserve" font-family="GillSans-Light,Gill Sans" font-size="29.0" fill="#FEFFFF" transform="matrix(1.00, 0.00, -0.00, -1.00, 252.9, 14.0)">P</text><text xml:space="preserve" font-family="GillSans-Light,Gill Sans" font-size="29.0" fill="#FEFFFF" transform="matrix(1.00, 0.00, -0.00, -1.00, 267.6, 14.0)">I</text><text xml:space="preserve" font-family="GillSans-Light,Gill Sans" font-size="29.0" fill="#FEFFFF" transform="matrix(1.00, 0.00, -0.00, -1.00, 273.7, 14.0)"> </text><text xml:space="preserve" font-family="GillSans-Light,Gill Sans" font-size="29.0" fill="#FEFFFF" transform="matrix(1.00, 0.00, -0.00, -1.00, 281.7, 14.0)">s</text><text xml:space="preserve" font-family="GillSans-Light,Gill Sans" font-size="29.0" fill="#FEFFFF" transform="matrix(1.00, 0.00, -0.00, -1.00, 292.0, 14.0)">e</text><text xml:space="preserve" font-family="GillSans-Light,Gill Sans" font-size="29.0" fill="#FEFFFF" transform="matrix(1.00, 0.00, -0.00, -1.00, 305.9, 14.0)">r</text><text xml:space="preserve" font-family="GillSans-Light,Gill Sans" font-size="29.0" fill="#FEFFFF" transform="matrix(1.00, 0.00, -0.00, -1.00, 317.6, 14.0)">v</text><text xml:space="preserve" font-family="GillSans-Light,Gill Sans" font-size="29.0" fill="#FEFFFF" transform="matrix(1.00, 0.00, -0.00, -1.00, 329.5, 14.0)">e</text><text xml:space="preserve" font-family="GillSans-Light,Gill Sans" font-size="29.0" fill="#FEFFFF" transform="matrix(1.00, 0.00, -0.00, -1.00, 343.4, 14.0)">r</text></g></g></g></svg>