<?xml version="1.0" encoding="UTF-8" standalone="no"?><svg xmlns="http://www.w3.org/2000/svg" xmlns:xlink="http://www.w3.org/1999/xlink" clip-rule="evenodd" stroke-miterlimit="10" viewBox="0 0 398 187"><desc>SVG generated by Keynote</desc><defs></defs><g transform="matrix(1.00, 0.00, -0.00, -1.00, 0.0, 187.0)"><g><clipPath id="clip0x7faa587b5200"><path d="M 0.9 158.1 L 151.4 158.1 L 151.4 169.7 L 0.9 169.7 Z M 0.9 158.1 "></path></clipPath><g clip-path="url(#clip0x7faa587b5200)"><path d="M -0.3 -0.1 L 136.1 -0.1 L 136.7 -0.1 " fill="none" stroke="#78889F" stroke-width="2.00" stroke-dasharray="2.0, 4.0" transform="matrix(1.00, 0.00, 0.00, -1.00, 3.3, 163.9)"></path><path d="M 139.0 159.2 L 148.6 164.0 L 139.0 168.8 Z M 139.0 159.2 " fill="#78889F"></path></g></g><g><clipPath id="clip0x7faa587bd8a0"><path d="M 188.6 140.9 L 371.3 140.9 L 371.3 186.9 L 188.6 186.9 Z M 188.6 140.9 "></path></clipPath><g clip-path="url(#clip0x7faa587bd8a0)"><path d="M 189.6 156.9 L 190.0 170.9 C 190.0 179.2 196.3 186.0 204.6 186.0 L 355.3 186.0 C 363.6 186.0 370.0 179.2 370.0 170.9 L 370.0 156.9 C 370.0 148.6 363.6 142.0 355.3 142.0 L 204.6 142.0 C 196.3 142.0 189.6 148.6 189.6 156.9 Z M 189.6 156.9 " fill="#78889F"></path></g></g><g><clipPath id="clip0x7faa587be290"><path d="M 189.6 138.4 L 370.3 138.4 L 370.3 189.1 L 189.6 189.1 Z M 189.6 138.4 "></path></clipPath><g clip-path="url(#clip0x7faa587be290)"><text xml:space="preserve" font-family="GillSans,Gill Sans" font-size="29.0" fill="#FEFFFF" transform="matrix(1.00, 0.00, -0.00, -1.00, 219.2, 153.4)">v</text><text xml:space="preserve" font-family="GillSans,Gill Sans" font-size="29.0" fill="#FEFFFF" transform="matrix(1.00, 0.00, -0.00, -1.00, 231.9, 153.4)">m</text><text xml:space="preserve" font-family="GillSans,Gill Sans" font-size="29.0" fill="#FEFFFF" transform="matrix(1.00, 0.00, -0.00, -1.00, 254.2, 153.4)"> </text><text xml:space="preserve" font-family="GillSans,Gill Sans" font-size="29.0" fill="#FEFFFF" transform="matrix(1.00, 0.00, -0.00, -1.00, 262.3, 153.4)">/</text><text xml:space="preserve" font-family="GillSans,Gill Sans" font-size="29.0" fill="#FEFFFF" transform="matrix(1.00, 0.00, -0.00, -1.00, 270.4, 153.4)"> </text><text xml:space="preserve" font-family="GillSans,Gill Sans" font-size="29.0" fill="#FEFFFF" transform="matrix(1.00, 0.00, -0.00, -1.00, 278.5, 153.4)">n</text><text xml:space="preserve" font-family="GillSans,Gill Sans" font-size="29.0" fill="#FEFFFF" transform="matrix(1.00, 0.00, -0.00, -1.00, 293.0, 153.4)">g</text><text xml:space="preserve" font-family="GillSans,Gill Sans" font-size="29.0" fill="#FEFFFF" transform="matrix(1.00, 0.00, -0.00, -1.00, 305.3, 153.4)">i</text><text xml:space="preserve" font-family="GillSans,Gill Sans" font-size="29.0" fill="#FEFFFF" transform="matrix(1.00, 0.00, -0.00, -1.00, 311.7, 153.4)">n</text><text xml:space="preserve" font-family="GillSans,Gill Sans" font-size="29.0" fill="#FEFFFF" transform="matrix(1.00, 0.00, -0.00, -1.00, 326.2, 153.4)">x</text></g></g><g><clipPath id="clip0x7faa5a356750"><path d="M 0.9 88.1 L 151.4 88.1 L 151.4 99.7 L 0.9 99.7 Z M 0.9 88.1 "></path></clipPath><g clip-path="url(#clip0x7faa5a356750)"><path d="M -0.3 -0.1 L 136.1 -0.1 L 136.7 -0.1 " fill="none" stroke="#78889F" stroke-width="2.00" stroke-dasharray="2.0, 4.0" transform="matrix(1.00, 0.00, 0.00, -1.00, 3.3, 93.9)"></path><path d="M 139.0 89.2 L 148.6 94.0 L 139.0 98.8 Z M 139.0 89.2 " fill="#78889F"></path></g></g><g><clipPath id="clip0x7faa5a357e80"><path d="M 188.6 70.9 L 398.0 70.9 L 398.0 116.9 L 188.6 116.9 Z M 188.6 70.9 "></path></clipPath><g clip-path="url(#clip0x7faa5a357e80)"><path d="M 189.6 86.9 L 190.0 100.9 C 190.0 109.2 196.3 116.0 204.6 116.0 L 382.0 116.0 C 390.3 116.0 397.0 109.2 397.0 100.9 L 397.0 86.9 C 397.0 78.6 390.3 72.0 382.0 72.0 L 204.6 72.0 C 196.3 72.0 189.6 78.6 189.6 86.9 Z M 189.6 86.9 " fill="#78889F"></path></g></g><g><clipPath id="clip0x7faa5a359030"><path d="M 189.6 68.4 L 397.0 68.4 L 397.0 119.1 L 189.6 119.1 Z M 189.6 68.4 "></path></clipPath><g clip-path="url(#clip0x7faa5a359030)"><text xml:space="preserve" font-family="GillSans,Gill Sans" font-size="29.0" fill="#FEFFFF" transform="matrix(1.00, 0.00, -0.00, -1.00, 202.0, 83.4)">3</text><text xml:space="preserve" font-family="GillSans,Gill Sans" font-size="29.0" fill="#FEFFFF" transform="matrix(1.00, 0.00, -0.00, -1.00, 216.5, 83.4)">r</text><text xml:space="preserve" font-family="GillSans,Gill Sans" font-size="29.0" fill="#FEFFFF" transform="matrix(1.00, 0.00, -0.00, -1.00, 227.5, 83.4)">d</text><text xml:space="preserve" font-family="GillSans,Gill Sans" font-size="29.0" fill="#FEFFFF" transform="matrix(1.00, 0.00, -0.00, -1.00, 242.3, 83.4)"> </text><text xml:space="preserve" font-family="GillSans,Gill Sans" font-size="29.0" fill="#FEFFFF" transform="matrix(1.00, 0.00, -0.00, -1.00, 250.3, 83.4)">p</text><text xml:space="preserve" font-family="GillSans,Gill Sans" font-size="29.0" fill="#FEFFFF" transform="matrix(1.00, 0.00, -0.00, -1.00, 264.8, 83.4)">a</text><text xml:space="preserve" font-family="GillSans,Gill Sans" font-size="29.0" fill="#FEFFFF" transform="matrix(1.00, 0.00, -0.00, -1.00, 277.2, 83.4)">r</text><text xml:space="preserve" font-family="GillSans,Gill Sans" font-size="29.0" fill="#FEFFFF" transform="matrix(1.00, 0.00, -0.00, -1.00, 289.3, 83.4)">t</text><text xml:space="preserve" font-family="GillSans,Gill Sans" font-size="29.0" fill="#FEFFFF" transform="matrix(1.00, 0.00, -0.00, -1.00, 298.9, 83.4)">y</text><text xml:space="preserve" font-family="GillSans,Gill Sans" font-size="29.0" fill="#FEFFFF" transform="matrix(1.00, 0.00, -0.00, -1.00, 311.6, 83.4)"> </text><text xml:space="preserve" font-family="GillSans,Gill Sans" font-size="29.0" fill="#FEFFFF" transform="matrix(1.00, 0.00, -0.00, -1.00, 319.7, 83.4)">C</text><text xml:space="preserve" font-family="GillSans,Gill Sans" font-size="29.0" fill="#FEFFFF" transform="matrix(1.00, 0.00, -0.00, -1.00, 340.2, 83.4)">D</text><text xml:space="preserve" font-family="GillSans,Gill Sans" font-size="29.0" fill="#FEFFFF" transform="matrix(1.00, 0.00, -0.00, -1.00, 362.0, 83.4)">N</text></g></g><g><clipPath id="clip0x7faa5a35ea60"><path d="M 0.9 18.1 L 151.4 18.1 L 151.4 29.7 L 0.9 29.7 Z M 0.9 18.1 "></path></clipPath><g clip-path="url(#clip0x7faa5a35ea60)"><path d="M -0.3 -0.1 L 136.1 -0.1 L 136.7 -0.1 " fill="none" stroke="#78889F" stroke-width="2.00" stroke-dasharray="2.0, 4.0" transform="matrix(1.00, 0.00, 0.00, -1.00, 3.3, 23.9)"></path><path d="M 139.0 19.2 L 148.6 24.0 L 139.0 28.8 Z M 139.0 19.2 " fill="#78889F"></path></g></g><g><clipPath id="clip0x7faa5a360170"><path d="M 188.6 0.9 L 398.0 0.9 L 398.0 46.9 L 188.6 46.9 Z M 188.6 0.9 "></path></clipPath><g clip-path="url(#clip0x7faa5a360170)"><path d="M 189.6 16.9 L 190.0 30.9 C 190.0 39.2 196.3 46.0 204.6 46.0 L 382.0 46.0 C 390.3 46.0 397.0 39.2 397.0 30.9 L 397.0 16.9 C 397.0 8.6 390.3 2.0 382.0 2.0 L 204.6 2.0 C 196.3 2.0 189.6 8.6 189.6 16.9 Z M 189.6 16.9 " fill="#78889F"></path></g></g><g><clipPath id="clip0x7faa5a361370"><path d="M 189.6 -1.6 L 397.0 -1.6 L 397.0 49.1 L 189.6 49.1 Z M 189.6 -1.6 "></path></clipPath><g clip-path="url(#clip0x7faa5a361370)"><text xml:space="preserve" font-family="GillSans,Gill Sans" font-size="29.0" fill="#FEFFFF" transform="matrix(1.00, 0.00, -0.00, -1.00, 231.1, 13.4)">A</text><text xml:space="preserve" font-family="GillSans,Gill Sans" font-size="29.0" fill="#FEFFFF" transform="matrix(1.00, 0.00, -0.00, -1.00, 250.5, 13.4)">P</text><text xml:space="preserve" font-family="GillSans,Gill Sans" font-size="29.0" fill="#FEFFFF" transform="matrix(1.00, 0.00, -0.00, -1.00, 265.2, 13.4)">I</text><text xml:space="preserve" font-family="GillSans,Gill Sans" font-size="29.0" fill="#FEFFFF" transform="matrix(1.00, 0.00, -0.00, -1.00, 272.5, 13.4)"> </text><text xml:space="preserve" font-family="GillSans,Gill Sans" font-size="29.0" fill="#FEFFFF" transform="matrix(1.00, 0.00, -0.00, -1.00, 280.6, 13.4)">s</text><text xml:space="preserve" font-family="GillSans,Gill Sans" font-size="29.0" fill="#FEFFFF" transform="matrix(1.00, 0.00, -0.00, -1.00, 291.7, 13.4)">e</text><text xml:space="preserve" font-family="GillSans,Gill Sans" font-size="29.0" fill="#FEFFFF" transform="matrix(1.00, 0.00, -0.00, -1.00, 305.6, 13.4)">r</text><text xml:space="preserve" font-family="GillSans,Gill Sans" font-size="29.0" fill="#FEFFFF" transform="matrix(1.00, 0.00, -0.00, -1.00, 317.9, 13.4)">v</text><text xml:space="preserve" font-family="GillSans,Gill Sans" font-size="29.0" fill="#FEFFFF" transform="matrix(1.00, 0.00, -0.00, -1.00, 330.1, 13.4)">e</text><text xml:space="preserve" font-family="GillSans,Gill Sans" font-size="29.0" fill="#FEFFFF" transform="matrix(1.00, 0.00, -0.00, -1.00, 344.0, 13.4)">r</text></g></g></g></svg>