<?xml version="1.0" ?><!DOCTYPE svg  PUBLIC '-//W3C//DTD SVG 1.1//EN'  'http://www.w3.org/Graphics/SVG/1.1/DTD/svg11.dtd'><svg enable-background="new 0 0 512 512" height="512px" id="Layer_1" version="1.1" viewBox="0 0 512 512" width="512px" xml:space="preserve" xmlns="http://www.w3.org/2000/svg" xmlns:xlink="http://www.w3.org/1999/xlink"><g><g><g><g><path d="M7.921,256c0-137.021,111.07-248.083,248.075-248.083c137.013,0,248.083,111.062,248.083,248.083      c0,137.005-111.07,248.083-248.083,248.083C118.991,504.083,7.921,393.005,7.921,256z" fill="#D8DBBA"/></g></g></g><g><path d="M255.996,504.083c90.488,0,169.631-48.466,212.967-120.836H43.036    C86.37,455.617,165.514,504.083,255.996,504.083z" fill="#AA9471"/></g><g><path d="M246.498,73.475c0,0,7.671,33.62,5.713,42.108l29.051-16.158l-23.013-29.867    C258.249,69.558,246.498,59.11,246.498,73.475z" fill="#353535"/><path d="M348.831,74.453c0,0-7.672,33.62-5.713,42.108l-29.051-16.157l23.013-29.868    C337.08,70.536,348.831,60.09,348.831,74.453z" fill="#353535"/><path d="M168.157,383.102h107.998c0,0,15.709-3.48,14.161-9.013c-1.548-5.531-5.149-6.438-12.876-7.723h-12.872    c0,0,10.491-9.234,14.161-21.888l11.587,19.31c0,0,9.052,16.885,11.587,19.313c2.533,2.429,14.222,2.793,19.313,0    c5.091-2.792,7.491-14.938,5.148-19.313c-2.343-4.368-11.589-6.435-11.589-6.435l-3.861-88.837c0,0,30.9-47.636,23.176-105.569    c0,0,19.964-21.903,9.01-47.64c0,0-15.598-24.612-43.885-25.186c-19.283-0.398-39.171,7.18-45.699,19.585    c-7.482,14.215,0,31.337,3.918,45.696c0,0-8.318,8.829-14.754,15.263c-6.436,6.442-41.2,16.739-56.648,37.343    c-15.45,20.595-49.449,54.073-49.318,100.42c0,0,2.1,34.76,1.576,57.57C138.113,373.604,168.157,383.102,168.157,383.102z" fill="#353535"/><path d="M310.915,268.517c0,0,30.9-47.636,23.176-105.569c0,0,19.964-21.903,9.01-47.64    c0,0-15.598-24.612-43.885-25.186c-19.283-0.398-39.171,7.18-45.699,19.585c-7.482,14.215,0,31.337,3.918,45.696    c0,0-8.089,9.066-14.754,15.263C209.775,201.269,310.915,268.517,310.915,268.517z" fill="#353535"/><path d="M138.29,365.999c0,0-8.324,35.528,9.303,52.177c17.627,16.647,52.88,37.701,119.029-8.438    c0,0,2.957-7.712-10.297-2.575c-13.254,5.138-99.92,33.536-83.762-36.971L138.29,365.999z" fill="#353535"/><g><ellipse cx="297.891" cy="152.623" fill="#0A0A0A" rx="14.548" ry="13.92"/><path d="M299.87,148.984c0,7.689-6.516,13.925-14.55,13.925c-8.032,0-14.548-6.235-14.548-13.925     c0-7.685,6.516-13.916,14.548-13.916C293.354,135.068,299.87,141.3,299.87,148.984z" fill="#515150"/><path d="M325.37,148.984c0,7.689-6.514,13.925-14.549,13.925c-8.033,0-14.547-6.235-14.547-13.925     c0-7.685,6.514-13.916,14.547-13.916C318.856,135.068,325.37,141.3,325.37,148.984z" fill="#515150"/><g><path d="M304.763,145.979c0-1.929-3.279-10.73-3.279-10.73h-6.642c0,0-3.278,8.626-3.278,10.73c0,2.111,3.299,5.21,4.311,6.234      c0.796,0.804,3.791,0.796,4.575,0C301.394,151.257,304.763,147.914,304.763,145.979z"/><path d="M304.763,145.979c0-1.929-2.479-10.076-3.279-10.73c-0.799-0.654-5.631-0.734-6.642,0      c-1.013,0.734-3.278,8.626-3.278,10.73C291.563,148.09,304.763,147.914,304.763,145.979z" fill="#262626"/></g></g><g><path d="M288.159,127.12c0,2.383-5.523,5.775-10.473,5.21c-3.928-0.448-8.764-5.796-8.303-8.354     c0.529-2.388,5.442-5.846,9.387-5.593C284.614,118.758,288.159,124.273,288.159,127.12z"/><path d="M285.251,126.622c-0.084,2.143-4.045,5.383-7.465,5.046c-2.717-0.264-5.893-4.9-5.482-7.211     c0.451-2.173,3.989-5.447,6.725-5.355C283.079,119.232,285.351,124.067,285.251,126.622z" fill="#DDD362"/><path d="M276.853,125.375c0-0.994,0.805-3.427,1.797-3.427s1.796,2.433,1.796,3.427     c0,0.991-0.804,2.773-1.796,2.773S276.853,126.366,276.853,125.375z" fill="#352E28"/></g><g><path d="M307.872,127.12c0,2.383,5.523,5.775,10.472,5.21c3.929-0.448,8.764-5.796,8.303-8.354     c-0.528-2.388-5.442-5.846-9.388-5.593C311.417,118.758,307.872,124.273,307.872,127.12z"/><path d="M310.779,126.622c0.085,2.143,4.046,5.383,7.466,5.046c2.717-0.264,5.893-4.9,5.482-7.211     c-0.451-2.173-3.99-5.447-6.725-5.355C312.952,119.232,310.681,124.067,310.779,126.622z" fill="#DDD362"/><path d="M319.178,125.375c0-0.994-0.804-3.427-1.796-3.427s-1.796,2.433-1.796,3.427     c0,0.991,0.804,2.773,1.796,2.773S319.178,126.366,319.178,125.375z" fill="#352E28"/></g><path d="M215.651,247.454c0,0,54.187,15.669,63.078,97.024l-0.283,0.864c0,0-7.955-26.402-23.949-55.451    C238.501,260.839,215.651,247.454,215.651,247.454z" fill="#0F0F0F"/></g><polygon fill="#353535" points="329.456,122.259 305.093,127.807 311.593,111.307  "/><polygon fill="#353535" points="267.093,122.259 291.456,127.807 284.956,111.307  "/></g></svg>