<?xml version="1.0" ?><!DOCTYPE svg  PUBLIC '-//W3C//DTD SVG 1.1//EN'  'http://www.w3.org/Graphics/SVG/1.1/DTD/svg11.dtd'><svg enable-background="new 0 0 512 512" height="512px" id="Layer_1" version="1.1" viewBox="0 0 512 512" width="512px" xml:space="preserve" xmlns="http://www.w3.org/2000/svg" xmlns:xlink="http://www.w3.org/1999/xlink"><g><path clip-rule="evenodd" d="M508.787,256c0,139.614-113.179,252.787-252.788,252.787   C116.392,508.787,3.213,395.614,3.213,256C3.213,116.393,116.392,3.213,256,3.213C395.608,3.213,508.787,116.393,508.787,256z" fill="#004972" fill-rule="evenodd"/><g><path d="M348.567,272.163c47.144,62.868,34.643,79.161-7.852,99.697    c-21.1,10.197-52.129,40.335-81.924,40.335c-32.75,0-53.59-25.667-76.789-37.159c-45.519-22.533-72.207-46.411-20.16-106.467    c46.678-53.864,5.733-168.765,96.949-168.765C350.013,99.805,305.476,214.705,348.567,272.163z" fill="#FFFFFF" stroke="#CFCFCF" stroke-width="0.5"/><path d="M220.088,168.707c0,10.313,7.104,18.671,15.875,18.671c8.763,0,15.875-8.357,15.875-18.671    s-7.112-18.673-15.875-18.673C227.192,150.034,220.088,158.394,220.088,168.707z" fill="#969696"/><path d="M264.523,168.329c0,10.32,7.111,18.68,15.881,18.68c8.764,0,15.868-8.359,15.868-18.68    c0-10.307-7.104-18.665-15.868-18.665C271.634,149.664,264.523,158.022,264.523,168.329z" fill="#969696"/><path d="M277.223,238.541c0,19.283-8.517,34.918-19.043,34.918c-10.512,0-19.042-15.635-19.042-34.918    c0-19.282,8.53-34.917,19.042-34.917C268.707,203.624,277.223,219.259,277.223,238.541z" fill="#969696"/></g><ellipse cx="260.26" cy="448.275" fill="#140F2B" rx="53.006" ry="16.133"/></g></svg>