<?xml version="1.0" encoding="utf-8"?><svg width='142px' height='142px' xmlns="http://www.w3.org/2000/svg" viewBox="0 0 100 100" preserveAspectRatio="xMidYMid" class="uil-wave"><rect x="0" y="0" width="100" height="100" fill="none" class="bk"></rect><path fill="#15c0bd" d="M90,50c0,5.5-5.7,8.8-7.8,13.6s-0.3,11-4,14.7s-9.9,1.9-14.7,4S55.5,90,50,90 s-8.8-5.7-13.6-7.8s-11-0.3-14.7-4s-1.9-9.9-4-14.7S10,55.5,10,50s5.7-8.8,7.8-13.6s0.3-11,4-14.7s9.1-1.6,13.9-3.6S44.5,10,50,10 s9.8,6.2,14.6,8.2s10.1-0.1,13.7,3.5s2.2,10.6,4.3,15.4S90,44.5,90,50z"><animateTransform attributeName="transform" type="rotate" from="0 50 50" to="45 50 50" repeatCount="indefinite" dur="1"></animateTransform></path><path fill="#fdff8c" d="M80,50c0,4.1-4.3,6.6-5.8,10.2c-1.5,3.6-0.3,8.3-3,11c-2.7,2.7-7.4,1.5-11,3C56.6,75.7,54.1,80,50,80 s-6.6-4.3-10.2-5.8c-3.6-1.5-8.3-0.3-11-3c-2.7-2.7-1.5-7.4-3-11C24.3,56.6,20,54.1,20,50s4.3-6.6,5.8-10.2c1.5-3.6,0.3-8.3,3-11 s6.9-1.2,10.4-2.7C42.8,24.5,45.9,20,50,20s7.3,4.6,10.9,6.1c3.6,1.5,7.6-0.1,10.3,2.7c2.7,2.7,1.7,8,3.2,11.6S80,45.9,80,50z"><animateTransform attributeName="transform" type="rotate" from="45 50 50" to="0 50 50" repeatCount="indefinite" dur="1"></animateTransform></path></svg>