<?xml version="1.0" encoding="UTF-8" standalone="no"?><svg xmlns="http://www.w3.org/2000/svg" xmlns:xlink="http://www.w3.org/1999/xlink" clip-rule="evenodd" stroke-miterlimit="10" viewBox="0 0 186 25"><desc>SVG generated by Keynote</desc><defs></defs><g transform="matrix(1.00, 0.00, -0.00, -1.00, 0.0, 25.0)"><path d="M 164.7 20.1 C 165.0 20.2 166.6 20.3 166.6 20.2 C 166.0 20.2 164.8 20.0 164.7 20.1 C 164.7 20.1 164.7 20.1 164.7 20.1 Z M 161.6 19.9 C 162.1 20.0 163.4 20.1 163.8 20.0 C 163.1 20.0 161.8 19.8 161.6 19.9 C 161.6 19.9 161.6 19.9 161.6 19.9 Z M 166.4 20.0 C 167.2 20.0 168.7 20.2 169.1 20.2 C 168.3 20.1 166.7 19.9 166.4 20.0 C 166.4 20.0 166.4 20.0 166.4 20.0 Z M 122.7 18.3 C 123.0 18.3 124.6 18.5 124.6 18.4 C 124.0 18.3 122.8 18.2 122.7 18.3 C 122.7 18.3 122.7 18.3 122.7 18.3 Z M 131.3 18.7 C 131.9 18.8 133.1 18.9 133.5 18.8 C 132.8 18.8 131.5 18.6 131.3 18.7 C 131.3 18.7 131.3 18.7 131.3 18.7 Z M 136.3 19.1 C 137.5 19.2 138.7 19.3 138.5 19.2 C 138.1 19.3 136.4 19.0 136.3 19.1 C 136.3 19.1 136.3 19.1 136.3 19.1 Z M 165.7 15.6 C 164.5 15.5 163.6 15.4 162.7 15.3 C 158.5 15.0 164.9 15.7 165.7 15.6 C 165.7 15.6 165.7 15.6 165.7 15.6 Z M 145.1 19.5 C 144.3 19.5 143.6 19.4 143.2 19.4 C 144.0 19.5 145.1 19.6 145.1 19.5 C 145.1 19.5 145.1 19.5 145.1 19.5 Z M 152.4 20.0 C 152.5 20.1 156.8 20.4 159.2 20.5 C 157.2 20.3 152.2 19.9 152.4 20.0 C 152.4 20.0 152.4 20.0 152.4 20.0 Z M 155.6 14.7 C 152.9 14.6 148.4 14.2 146.4 14.1 C 144.4 14.0 149.9 14.5 155.1 14.9 C 160.2 15.3 156.0 14.7 158.1 14.8 C 160.2 15.0 156.1 14.6 154.0 14.5 C 151.9 14.4 155.4 14.6 155.6 14.7 C 155.6 14.7 155.6 14.7 155.6 14.7 Z M 155.8 14.4 C 156.8 14.4 157.7 14.5 158.3 14.5 C 157.2 14.4 156.2 14.2 155.8 14.4 C 155.8 14.4 155.8 14.4 155.8 14.4 Z M 6.4 5.0 C 6.6 6.1 9.0 7.2 11.6 8.0 C 12.3 8.2 12.9 8.4 13.6 8.6 C 18.4 9.4 23.3 10.1 28.2 10.6 C 29.2 10.7 30.1 10.8 31.1 10.9 C 34.1 11.2 37.1 11.5 40.2 11.8 C 41.2 11.8 42.2 11.9 43.2 12.0 C 46.8 12.5 50.3 12.6 53.9 12.9 C 55.7 13.0 57.5 13.2 59.4 13.5 C 60.3 13.7 64.3 14.0 65.7 14.0 C 64.3 14.1 70.9 14.6 70.6 14.5 C 71.4 14.5 72.1 14.5 72.9 14.6 C 73.6 14.6 72.7 14.5 71.7 14.4 C 72.6 14.4 73.4 14.5 74.3 14.5 C 75.2 14.6 76.1 14.7 77.1 14.8 C 80.1 15.1 83.4 15.3 86.3 15.4 C 94.1 16.1 115.4 17.7 111.6 17.3 C 107.2 16.9 109.5 17.0 110.6 17.1 C 111.3 17.2 112.2 17.2 113.3 17.3 C 113.2 17.3 113.2 17.4 113.0 17.4 C 114.9 17.6 117.7 17.9 120.4 18.0 C 119.9 17.9 119.2 17.9 119.0 17.8 C 120.3 17.9 119.3 17.7 120.2 17.8 C 122.6 17.9 123.8 18.0 121.0 17.8 C 123.6 17.9 125.3 17.9 128.0 17.9 C 129.0 18.0 128.4 18.0 128.1 18.0 C 129.9 18.2 133.9 18.5 134.2 18.6 C 134.6 18.7 123.4 17.7 125.4 18.0 C 126.2 18.1 127.9 18.2 128.5 18.3 C 127.1 18.2 125.4 18.0 124.5 18.0 C 125.4 18.1 126.8 18.2 127.6 18.3 C 126.6 18.2 126.0 18.2 125.7 18.2 C 127.1 18.3 128.1 18.4 129.8 18.6 C 130.5 18.6 129.1 18.4 130.7 18.5 C 131.0 18.5 129.7 18.4 129.8 18.4 C 131.0 18.5 133.5 18.7 134.2 18.7 C 134.8 18.7 132.6 18.6 132.6 18.5 C 137.5 18.9 143.0 19.3 144.7 19.4 C 146.5 19.5 144.8 19.4 144.1 19.3 C 146.1 19.4 147.6 19.6 150.0 19.7 C 151.5 19.9 150.9 19.8 150.4 19.7 C 150.8 19.7 151.1 19.8 151.4 19.8 C 151.5 19.8 152.0 19.8 152.3 19.8 C 151.3 19.7 149.6 19.6 148.8 19.5 C 150.2 19.5 153.6 19.9 154.8 19.9 C 152.8 19.7 150.8 19.5 148.6 19.3 C 152.8 19.6 157.1 20.2 160.6 20.3 C 159.9 20.2 159.7 20.1 159.2 20.0 C 160.5 20.2 162.4 20.4 163.5 20.4 C 164.2 20.4 165.5 20.5 166.7 20.6 C 164.5 20.3 163.0 20.2 161.5 20.1 C 161.5 20.1 161.7 20.1 161.9 20.1 C 158.5 19.7 156.5 19.8 154.0 19.6 C 153.8 19.6 153.6 19.6 153.4 19.6 C 152.7 19.4 155.5 19.7 155.7 19.6 C 152.1 19.3 148.1 19.0 146.4 18.8 C 150.7 19.1 154.5 19.5 157.8 19.6 C 156.9 19.4 153.6 19.3 152.1 19.1 C 159.2 19.5 159.9 19.6 160.5 19.6 C 159.9 19.6 159.4 19.5 158.8 19.4 C 159.0 19.4 159.1 19.4 159.3 19.4 C 162.4 19.7 166.0 20.0 165.8 19.9 C 165.7 19.9 162.9 19.6 159.9 19.4 C 160.2 19.4 160.5 19.3 160.8 19.3 C 164.3 19.6 168.3 19.7 171.8 20.1 C 171.3 19.9 171.6 20.0 172.3 19.9 C 171.2 19.8 169.6 19.7 168.5 19.5 C 168.9 19.5 169.6 19.6 169.8 19.6 C 169.2 19.5 168.3 19.4 168.0 19.3 C 169.7 19.4 171.5 19.6 173.2 19.7 C 173.6 19.6 172.5 19.6 172.6 19.5 C 174.2 19.6 176.6 19.9 177.8 19.9 C 176.4 19.7 173.7 19.5 172.8 19.4 C 173.4 19.4 173.9 19.4 174.5 19.4 C 175.6 19.5 176.2 19.6 174.9 19.4 C 174.2 19.3 174.2 19.3 174.4 19.3 C 175.2 19.3 177.9 19.6 177.8 19.4 C 177.1 19.3 174.4 19.1 173.8 19.0 C 174.3 18.9 175.7 19.1 175.8 19.0 C 172.8 18.8 172.9 18.8 172.2 18.8 C 172.5 18.8 173.3 18.9 173.3 18.9 C 171.5 18.8 169.6 18.6 167.7 18.5 C 167.7 18.5 167.7 18.5 167.7 18.5 C 167.7 18.5 167.7 18.5 167.7 18.5 C 167.7 18.5 167.7 18.5 167.7 18.5 C 167.9 18.4 167.8 18.3 167.7 18.2 C 168.5 18.3 169.3 18.3 170.8 18.5 C 170.4 18.3 169.0 18.2 167.8 18.1 C 167.8 18.1 167.8 18.1 167.8 18.1 C 169.9 18.3 173.0 18.5 175.2 18.6 C 174.2 18.4 170.6 18.2 168.2 18.0 C 168.3 18.0 168.4 17.9 168.4 17.9 C 165.4 17.7 161.8 17.3 158.4 17.1 C 160.1 17.0 162.0 17.3 164.1 17.5 C 165.1 17.5 166.0 17.5 167.0 17.6 C 169.7 17.8 177.7 18.5 178.6 18.5 C 179.6 18.5 171.5 17.8 171.4 17.8 C 171.4 17.7 175.2 18.0 173.4 17.9 C 172.5 17.8 170.4 17.7 169.0 17.6 C 168.9 17.5 168.9 17.4 168.8 17.3 C 170.1 17.4 171.6 17.5 171.7 17.6 C 172.3 17.7 173.7 17.8 173.9 17.8 C 173.7 17.7 173.3 17.7 173.3 17.7 C 173.6 17.7 174.1 17.8 174.1 17.7 C 172.6 17.6 170.4 17.4 168.8 17.2 C 168.6 17.2 168.5 17.1 168.3 17.1 C 168.4 17.1 169.7 17.1 170.8 17.2 C 172.0 17.3 169.5 17.0 167.6 16.9 C 167.2 16.8 166.9 16.7 166.6 16.7 C 167.3 16.7 168.1 16.8 169.0 16.9 C 170.1 16.9 170.1 16.8 171.2 16.9 C 169.2 16.7 166.8 16.5 164.8 16.3 C 164.1 16.2 163.4 16.1 162.7 15.9 C 164.3 16.0 165.8 16.1 166.7 16.1 C 167.4 16.1 168.2 16.2 168.4 16.2 C 167.8 16.1 169.5 16.2 169.3 16.1 C 168.3 16.1 166.4 15.9 165.7 16.0 C 164.2 15.9 162.6 15.7 161.1 15.6 C 160.9 15.6 160.8 15.6 160.6 15.5 C 161.8 15.6 163.0 15.7 164.3 15.8 C 163.7 15.6 160.1 15.3 157.5 15.1 C 152.2 14.6 146.7 14.7 141.4 14.3 C 141.2 14.3 140.9 14.3 140.5 14.2 C 140.2 14.2 139.8 14.1 139.4 14.0 C 140.7 14.1 141.8 14.2 142.7 14.2 C 139.0 13.8 148.1 14.6 148.7 14.5 C 142.6 13.9 131.2 13.1 124.2 12.4 C 125.9 12.5 126.4 12.5 124.6 12.3 C 124.1 12.3 123.6 12.2 123.1 12.2 C 130.3 12.7 137.7 13.5 143.4 13.8 C 140.1 13.5 134.9 13.1 133.5 12.9 C 134.5 12.9 135.9 13.1 136.1 13.0 C 134.4 12.8 128.6 12.5 126.9 12.2 C 135.2 12.8 146.6 13.8 152.8 14.1 C 143.4 13.4 130.9 12.3 122.9 11.8 C 124.3 12.0 124.3 12.0 123.5 12.0 C 121.1 11.8 118.6 11.6 116.0 11.5 C 115.5 11.4 115.7 11.4 116.9 11.5 C 117.9 11.5 118.5 11.6 118.9 11.5 C 118.2 11.5 110.3 10.8 116.6 11.3 C 122.8 11.8 133.7 12.6 127.3 12.0 C 121.0 11.5 118.5 11.2 122.0 11.4 C 125.4 11.7 136.4 12.4 132.7 12.1 C 129.1 11.8 121.4 11.1 117.0 10.8 C 112.6 10.4 119.9 11.4 113.5 10.9 C 107.1 10.4 112.4 10.7 111.2 10.6 C 109.3 10.4 105.7 10.1 102.3 9.8 C 99.9 9.6 96.9 9.4 95.3 9.2 C 95.4 9.2 102.7 9.8 99.8 9.5 C 92.8 8.9 84.9 8.3 88.1 8.7 C 83.8 8.3 80.6 8.0 77.8 7.9 C 73.6 7.4 68.7 7.0 68.2 6.9 C 67.5 6.8 56.0 6.2 51.7 5.4 C 51.3 5.4 43.5 4.9 42.9 4.9 C 35.5 4.2 36.5 4.2 29.2 3.7 C 23.1 3.2 21.2 3.1 20.2 3.0 C 13.8 2.6 13.8 2.5 10.7 2.7 C 9.7 2.8 8.2 2.7 7.7 3.0 C 6.7 3.4 6.2 4.1 6.4 5.0 C 6.4 5.0 6.4 5.0 6.4 5.0 Z M 166.9 18.6 C 168.0 18.7 170.0 18.8 171.2 19.0 C 169.9 19.0 168.2 18.8 166.4 18.6 C 166.6 18.6 166.7 18.6 166.9 18.6 C 166.9 18.6 166.9 18.6 166.9 18.6 Z M 158.2 16.2 C 159.0 16.2 159.9 16.4 160.7 16.5 C 161.6 16.5 162.4 16.6 163.6 16.6 C 163.5 16.6 161.5 16.4 159.9 16.2 C 159.9 16.2 159.9 16.2 159.9 16.2 C 160.7 16.2 161.6 16.2 162.7 16.3 C 163.1 16.3 163.4 16.4 163.8 16.4 C 163.8 16.5 163.2 16.5 163.0 16.4 C 163.3 16.5 164.2 16.7 165.5 16.8 C 165.6 16.8 165.8 16.8 165.9 16.9 C 166.1 17.0 165.1 16.9 166.2 17.0 C 165.4 17.0 163.6 16.8 162.4 16.7 C 163.7 16.7 158.7 16.4 157.5 16.2 C 157.7 16.2 158.0 16.2 158.2 16.2 Z M 148.4 19.3 C 147.7 19.2 147.0 19.1 146.3 19.1 C 147.3 19.2 148.1 19.2 148.8 19.3 C 148.6 19.3 148.5 19.3 148.4 19.3 Z M 92.3 15.6 C 96.4 15.7 104.9 16.6 105.5 16.5 C 106.4 16.6 107.3 16.7 108.2 16.8 C 102.5 16.3 96.4 15.9 92.3 15.6 C 92.3 15.6 92.3 15.6 92.3 15.6 Z M 107.2 10.7 C 107.5 10.7 107.4 10.7 106.6 10.7 C 102.2 10.4 99.6 10.2 102.3 10.5 C 104.7 10.7 109.9 11.1 108.3 11.0 C 106.3 10.9 104.3 10.7 102.3 10.6 C 100.7 10.4 99.1 10.2 97.6 9.9 C 101.0 10.2 104.2 10.4 107.2 10.7 C 107.2 10.7 107.2 10.7 107.2 10.7 Z M 95.7 9.6 C 96.9 9.7 98.4 9.9 99.8 10.0 C 98.5 9.9 97.3 9.8 96.0 9.7 C 95.9 9.7 95.8 9.6 95.7 9.6 Z M 94.1 9.4 C 96.6 9.6 99.1 9.8 96.6 9.6 C 96.0 9.6 95.5 9.5 94.9 9.5 C 94.7 9.5 94.4 9.4 94.1 9.4 Z M 92.6 9.2 C 92.7 9.2 93.1 9.3 93.9 9.4 C 92.2 9.2 88.9 9.0 89.0 8.9 C 90.1 9.0 91.4 9.1 92.6 9.2 C 92.6 9.2 92.6 9.2 92.6 9.2 Z M 89.6 15.5 C 90.7 15.6 91.6 15.7 89.9 15.6 C 89.2 15.6 88.6 15.5 87.9 15.5 C 88.5 15.5 89.0 15.5 89.6 15.5 Z M 147.1 13.9 C 146.7 13.9 144.9 13.8 143.9 13.7 C 143.7 14.0 147.8 14.1 147.1 13.9 C 147.1 13.9 147.1 13.9 147.1 13.9 Z M 153.8 14.3 C 153.3 14.3 151.6 14.2 150.5 14.1 C 150.4 14.4 154.4 14.5 153.8 14.3 C 153.8 14.3 153.8 14.3 153.8 14.3 Z M 51.6 5.4 C 51.6 5.4 51.7 5.4 51.7 5.4 C 51.7 5.4 51.6 5.4 51.6 5.4 C 51.6 5.4 51.6 5.4 51.6 5.4 Z M 51.6 5.4 " fill="#EA3C43"></path></g></svg>