<?xml version="1.0" encoding="UTF-8" standalone="no"?><svg xmlns="http://www.w3.org/2000/svg" xmlns:xlink="http://www.w3.org/1999/xlink" clip-rule="evenodd" stroke-miterlimit="10" viewBox="0 0 330 17"><desc>SVG generated by Keynote</desc><defs></defs><g transform="matrix(1.00, 0.00, -0.00, -1.00, 0.0, 17.0)"><text xml:space="preserve" font-family="Courier,Courier" font-size="14.0" fill="#525252" transform="matrix(1.00, 0.00, -0.00, -1.00, 1.2, 4.9)">h</text><text xml:space="preserve" font-family="Courier,Courier" font-size="14.0" fill="#525252" transform="matrix(1.00, 0.00, -0.00, -1.00, 9.6, 4.9)">t</text><text xml:space="preserve" font-family="Courier,Courier" font-size="14.0" fill="#525252" transform="matrix(1.00, 0.00, -0.00, -1.00, 18.0, 4.9)">t</text><text xml:space="preserve" font-family="Courier,Courier" font-size="14.0" fill="#525252" transform="matrix(1.00, 0.00, -0.00, -1.00, 26.4, 4.9)">p</text><text xml:space="preserve" font-family="Courier,Courier" font-size="14.0" fill="#525252" transform="matrix(1.00, 0.00, -0.00, -1.00, 34.8, 4.9)">s</text><text xml:space="preserve" font-family="Courier,Courier" font-size="14.0" fill="#525252" transform="matrix(1.00, 0.00, -0.00, -1.00, 43.2, 4.9)">:</text><text xml:space="preserve" font-family="Courier,Courier" font-size="14.0" fill="#525252" transform="matrix(1.00, 0.00, -0.00, -1.00, 51.6, 4.9)">/</text><text xml:space="preserve" font-family="Courier,Courier" font-size="14.0" fill="#525252" transform="matrix(1.00, 0.00, -0.00, -1.00, 60.0, 4.9)">/</text><text xml:space="preserve" font-family="Courier,Courier" font-size="14.0" fill="#525252" transform="matrix(1.00, 0.00, -0.00, -1.00, 68.4, 4.9)">g</text><text xml:space="preserve" font-family="Courier,Courier" font-size="14.0" fill="#525252" transform="matrix(1.00, 0.00, -0.00, -1.00, 76.8, 4.9)">i</text><text xml:space="preserve" font-family="Courier,Courier" font-size="14.0" fill="#525252" transform="matrix(1.00, 0.00, -0.00, -1.00, 85.2, 4.9)">t</text><text xml:space="preserve" font-family="Courier,Courier" font-size="14.0" fill="#525252" transform="matrix(1.00, 0.00, -0.00, -1.00, 93.6, 4.9)">h</text><text xml:space="preserve" font-family="Courier,Courier" font-size="14.0" fill="#525252" transform="matrix(1.00, 0.00, -0.00, -1.00, 102.0, 4.9)">u</text><text xml:space="preserve" font-family="Courier,Courier" font-size="14.0" fill="#525252" transform="matrix(1.00, 0.00, -0.00, -1.00, 110.4, 4.9)">b</text><text xml:space="preserve" font-family="Courier,Courier" font-size="14.0" fill="#525252" transform="matrix(1.00, 0.00, -0.00, -1.00, 118.8, 4.9)">.</text><text xml:space="preserve" font-family="Courier,Courier" font-size="14.0" fill="#525252" transform="matrix(1.00, 0.00, -0.00, -1.00, 127.2, 4.9)">c</text><text xml:space="preserve" font-family="Courier,Courier" font-size="14.0" fill="#525252" transform="matrix(1.00, 0.00, -0.00, -1.00, 135.6, 4.9)">o</text><text xml:space="preserve" font-family="Courier,Courier" font-size="14.0" fill="#525252" transform="matrix(1.00, 0.00, -0.00, -1.00, 144.0, 4.9)">m</text><text xml:space="preserve" font-family="Courier,Courier" font-size="14.0" fill="#525252" transform="matrix(1.00, 0.00, -0.00, -1.00, 152.4, 4.9)">/</text><text xml:space="preserve" font-family="Courier,Courier" font-size="14.0" fill="#525252" transform="matrix(1.00, 0.00, -0.00, -1.00, 160.8, 4.9)">E</text><text xml:space="preserve" font-family="Courier,Courier" font-size="14.0" fill="#525252" transform="matrix(1.00, 0.00, -0.00, -1.00, 169.2, 4.9)">l</text><text xml:space="preserve" font-family="Courier,Courier" font-size="14.0" fill="#525252" transform="matrix(1.00, 0.00, -0.00, -1.00, 177.6, 4.9)">e</text><text xml:space="preserve" font-family="Courier,Courier" font-size="14.0" fill="#525252" transform="matrix(1.00, 0.00, -0.00, -1.00, 186.0, 4.9)">m</text><text xml:space="preserve" font-family="Courier,Courier" font-size="14.0" fill="#525252" transform="matrix(1.00, 0.00, -0.00, -1.00, 194.4, 4.9)">e</text><text xml:space="preserve" font-family="Courier,Courier" font-size="14.0" fill="#525252" transform="matrix(1.00, 0.00, -0.00, -1.00, 202.8, 4.9)">F</text><text xml:space="preserve" font-family="Courier,Courier" font-size="14.0" fill="#525252" transform="matrix(1.00, 0.00, -0.00, -1.00, 211.2, 4.9)">E</text><text xml:space="preserve" font-family="Courier,Courier" font-size="14.0" fill="#525252" transform="matrix(1.00, 0.00, -0.00, -1.00, 219.6, 4.9)">/</text><text xml:space="preserve" font-family="Courier,Courier" font-size="14.0" fill="#525252" transform="matrix(1.00, 0.00, -0.00, -1.00, 228.0, 4.9)">n</text><text xml:space="preserve" font-family="Courier,Courier" font-size="14.0" fill="#525252" transform="matrix(1.00, 0.00, -0.00, -1.00, 236.5, 4.9)">g</text><text xml:space="preserve" font-family="Courier,Courier" font-size="14.0" fill="#525252" transform="matrix(1.00, 0.00, -0.00, -1.00, 244.9, 4.9)">-</text><text xml:space="preserve" font-family="Courier,Courier" font-size="14.0" fill="#525252" transform="matrix(1.00, 0.00, -0.00, -1.00, 253.3, 4.9)">s</text><text xml:space="preserve" font-family="Courier,Courier" font-size="14.0" fill="#525252" transform="matrix(1.00, 0.00, -0.00, -1.00, 261.7, 4.9)">t</text><text xml:space="preserve" font-family="Courier,Courier" font-size="14.0" fill="#525252" transform="matrix(1.00, 0.00, -0.00, -1.00, 270.1, 4.9)">a</text><text xml:space="preserve" font-family="Courier,Courier" font-size="14.0" fill="#525252" transform="matrix(1.00, 0.00, -0.00, -1.00, 278.5, 4.9)">t</text><text xml:space="preserve" font-family="Courier,Courier" font-size="14.0" fill="#525252" transform="matrix(1.00, 0.00, -0.00, -1.00, 286.9, 4.9)">i</text><text xml:space="preserve" font-family="Courier,Courier" font-size="14.0" fill="#525252" transform="matrix(1.00, 0.00, -0.00, -1.00, 295.3, 4.9)">c</text><text xml:space="preserve" font-family="Courier,Courier" font-size="14.0" fill="#525252" transform="matrix(1.00, 0.00, -0.00, -1.00, 303.7, 4.9)">i</text><text xml:space="preserve" font-family="Courier,Courier" font-size="14.0" fill="#525252" transform="matrix(1.00, 0.00, -0.00, -1.00, 312.1, 4.9)">z</text><text xml:space="preserve" font-family="Courier,Courier" font-size="14.0" fill="#525252" transform="matrix(1.00, 0.00, -0.00, -1.00, 320.5, 4.9)">e</text></g></svg>