<?xml version="1.0" encoding="UTF-8" standalone="no"?><svg xmlns="http://www.w3.org/2000/svg" xmlns:xlink="http://www.w3.org/1999/xlink" clip-rule="evenodd" stroke-miterlimit="10" viewBox="0 0 234 14"><desc>SVG generated by Keynote</desc><defs></defs><g transform="matrix(1.00, 0.00, -0.00, -1.00, 0.0, 14.0)"><path d="M 9.9 0.5 L 11.0 0.5 L 220.2 0.5 L 221.9 0.5 " fill="none" stroke="#9CCDD5" stroke-width="3.00" stroke-dasharray="6.0, 6.0" transform="matrix(1.00, 0.00, 0.00, -1.00, 1.1, 7.0)"></path><path d="M 227.0 12.0 C 230.0 12.0 232.5 9.5 232.5 6.5 C 232.5 3.5 230.0 1.0 227.0 1.0 C 224.0 1.0 221.5 3.5 221.5 6.5 C 221.5 9.5 224.0 12.0 227.0 12.0 Z M 227.0 12.0 " fill="#9CCDD5"></path><path d="M 7.0 1.0 C 4.0 1.0 1.5 3.5 1.5 6.5 C 1.5 9.5 4.0 12.0 7.0 12.0 C 10.0 12.0 12.5 9.5 12.5 6.5 C 12.5 3.5 10.0 1.0 7.0 1.0 Z M 7.0 1.0 " fill="#9CCDD5"></path></g></svg>